<svg height="512pt" viewBox="0 0 512 512" width="512pt" xmlns="http://www.w3.org/2000/svg"><path d="m512 467.863281h-132.414062l-164.898438-147.070312-.441406-.703125 41.753906-28.78125-37.515625-22.949219 2.207031-3.53125 141.238282-70.621094h40.519531c7.460937-.003906 14.113281 4.703125 16.597656 11.742188zm0 0" fill="#f29c1f"/><path d="m256 291.308594-41.753906 28.78125-214.246094 147.773437 92.953125-261.914062c1.390625-4.023438 4.222656-7.390625 7.945313-9.445313l117.585937 71.855469zm0 0" fill="#f3d55b"/><path d="m512 467.863281v26.480469c-.027344 9.738281-7.917969 17.628906-17.65625 17.65625h-476.6875c-9.738281-.027344-17.6289062-7.917969-17.65625-17.65625v-26.480469zm0 0" fill="#e57e25"/><path d="m361.929688 194.207031-141.238282 70.621094-2.207031 3.53125-117.585937-71.855469c2.628906-1.519531 5.617187-2.3125 8.652343-2.296875zm0 0" fill="#f0c419"/><path d="m379.585938 467.863281h-379.585938l214.246094-147.773437.441406.703125zm0 0" fill="#f0c419"/><path d="m344.277344 102.839844h35.308594v267.917968h-35.308594zm0 0" fill="#bdc3c7"/><path d="m414.898438 52.964844c0 29.253906-23.714844 52.964844-52.96875 52.964844-29.25 0-52.964844-23.710938-52.964844-52.964844 0-29.25 23.714844-52.964844 52.964844-52.964844 29.253906 0 52.96875 23.714844 52.96875 52.964844zm0 0" fill="#e64c3c"/><path d="m397.242188 379.585938h-70.621094c-4.875 0-8.828125-3.953126-8.828125-8.828126s3.953125-8.828124 8.828125-8.828124h70.621094c4.875 0 8.828124 3.953124 8.828124 8.828124s-3.953124 8.828126-8.828124 8.828126zm0 0" fill="#e57e25"/><path d="m397.242188 30.898438c0-12.191407-11.859376-22.070313-26.484376-22.070313s-26.480468 9.878906-26.480468 22.070313c0 12.1875 11.855468 22.066406 26.480468 22.066406s26.484376-9.878906 26.484376-22.066406zm0 0" fill="#fb7b76"/></svg>