<svg xmlns="http://www.w3.org/2000/svg" height="512pt" version="1.1" viewBox="-26 0 512 512.00002" width="512pt">
<g id="surface1">
<path d="M 88.277344 344.277344 L 88.277344 185.378906 C 88.304688 175.640625 96.191406 167.753906 105.929688 167.722656 L 406.070312 167.722656 L 406.070312 17.65625 C 406.039062 7.917969 398.152344 0.0273438 388.414062 0 L 114.757812 0 L 114.757812 88.277344 C 114.757812 98.027344 106.855469 105.929688 97.105469 105.929688 L 0 105.929688 L 0 494.34375 C 0.0273438 504.082031 7.917969 511.96875 17.65625 512 L 388.414062 512 C 398.152344 511.96875 406.039062 504.082031 406.070312 494.34375 L 406.070312 361.929688 L 105.929688 361.929688 C 96.191406 361.902344 88.304688 354.015625 88.277344 344.277344 Z M 88.277344 344.277344 " style=" stroke:none;fill-rule:nonzero;fill:rgb(100%,91.372549%,80%);fill-opacity:1;" />
<path d="M 114.757812 512 L 388.414062 512 C 398.164062 512 406.070312 504.09375 406.070312 494.34375 L 406.070312 239.148438 C 357.847656 371.226562 249.707031 472.515625 114.757812 512 Z M 114.757812 512 " style=" stroke:none;fill-rule:nonzero;fill:rgb(100%,88.627451%,74.117647%);fill-opacity:1;" />
<path d="M 441.378906 167.722656 L 105.929688 167.722656 C 96.191406 167.753906 88.304688 175.640625 88.277344 185.378906 L 88.277344 344.273438 C 88.304688 354.015625 96.191406 361.902344 105.929688 361.929688 L 441.378906 361.929688 C 451.117188 361.902344 459.007812 354.015625 459.035156 344.273438 L 459.035156 185.378906 C 459.003906 175.640625 451.117188 167.753906 441.378906 167.722656 Z M 167.726562 211.863281 L 123.585938 317.792969 L 167.726562 211.863281 L 211.863281 317.792969 Z M 264.828125 317.792969 L 300.136719 317.792969 C 309.886719 317.792969 317.792969 309.886719 317.792969 300.136719 C 317.792969 309.886719 309.886719 317.792969 300.136719 317.792969 L 264.828125 317.792969 C 255.078125 317.792969 247.171875 309.886719 247.171875 300.136719 L 247.171875 229.515625 C 247.171875 219.765625 255.078125 211.863281 264.828125 211.863281 L 300.136719 211.863281 C 309.886719 211.863281 317.792969 219.765625 317.792969 229.515625 C 317.792969 219.765625 309.886719 211.863281 300.136719 211.863281 L 264.828125 211.863281 C 255.078125 211.863281 247.171875 219.765625 247.171875 229.515625 L 247.171875 300.136719 C 247.171875 309.886719 255.078125 317.792969 264.828125 317.792969 Z M 423.722656 229.515625 C 423.96875 220.011719 416.460938 212.113281 406.957031 211.867188 C 406.8125 211.863281 406.664062 211.863281 406.519531 211.863281 L 370.757812 211.863281 C 361.007812 211.863281 353.105469 219.765625 353.105469 229.515625 L 353.105469 247.171875 C 353.105469 256.921875 361.007812 264.828125 370.757812 264.828125 L 406.070312 264.828125 C 415.820312 264.828125 423.722656 272.730469 423.722656 282.480469 L 423.722656 300.136719 C 423.722656 309.886719 415.820312 317.792969 406.070312 317.792969 L 370.757812 317.792969 C 361.097656 317.792969 353.230469 310.027344 353.105469 300.367188 C 353.230469 310.027344 361.097656 317.792969 370.757812 317.792969 L 406.070312 317.792969 C 415.820312 317.792969 423.722656 309.886719 423.722656 300.136719 L 423.722656 282.480469 C 423.722656 272.730469 415.820312 264.828125 406.070312 264.828125 L 370.757812 264.828125 C 361.007812 264.828125 353.105469 256.921875 353.105469 247.171875 L 353.105469 229.515625 C 353.105469 219.765625 361.007812 211.863281 370.757812 211.863281 L 406.519531 211.863281 C 416.027344 211.863281 423.730469 219.574219 423.730469 229.078125 C 423.730469 229.226562 423.726562 229.371094 423.722656 229.515625 Z M 423.722656 229.515625 " style=" stroke:none;fill-rule:nonzero;fill:rgb(79.215686%,99.215686%,100%);fill-opacity:1;" />
<path d="M 114.757812 88.277344 L 114.757812 0 L 0 105.929688 L 97.105469 105.929688 C 106.855469 105.929688 114.757812 98.027344 114.757812 88.277344 Z M 114.757812 88.277344 " style=" stroke:none;fill-rule:nonzero;fill:rgb(100%,66.27451%,57.647059%);fill-opacity:1;" />
<path d="M 300.136719 326.621094 L 264.828125 326.621094 C 250.203125 326.621094 238.34375 314.761719 238.34375 300.136719 L 238.34375 229.515625 C 238.34375 214.890625 250.203125 203.035156 264.828125 203.035156 L 300.136719 203.035156 C 314.765625 203.035156 326.621094 214.890625 326.621094 229.515625 C 326.621094 234.390625 322.667969 238.34375 317.792969 238.34375 C 312.917969 238.34375 308.964844 234.390625 308.964844 229.515625 C 308.964844 224.640625 305.011719 220.691406 300.136719 220.691406 L 264.828125 220.691406 C 259.953125 220.691406 256 224.640625 256 229.515625 L 256 300.136719 C 256 305.011719 259.953125 308.964844 264.828125 308.964844 L 300.136719 308.964844 C 305.011719 308.964844 308.964844 305.011719 308.964844 300.136719 C 308.964844 295.261719 312.917969 291.308594 317.792969 291.308594 C 322.667969 291.308594 326.621094 295.261719 326.621094 300.136719 C 326.621094 314.765625 314.765625 326.621094 300.136719 326.621094 Z M 300.136719 326.621094 " style=" stroke:none;fill-rule:nonzero;fill:rgb(92.941176%,10.980392%,14.117647%);fill-opacity:1;" />
<path d="M 406.070312 273.65625 L 370.757812 273.65625 C 356.132812 273.65625 344.277344 261.796875 344.277344 247.171875 L 344.277344 229.519531 C 344.277344 214.890625 356.132812 203.035156 370.757812 203.035156 L 406.519531 203.035156 C 420.90625 203.042969 432.5625 214.707031 432.558594 229.097656 C 432.558594 229.296875 432.554688 229.496094 432.550781 229.695312 C 432.574219 234.453125 428.734375 238.328125 423.976562 238.351562 C 423.855469 238.351562 423.738281 238.351562 423.617188 238.347656 C 418.785156 238.289062 414.894531 234.351562 414.894531 229.519531 C 415.003906 227.179688 414.144531 224.898438 412.511719 223.214844 C 410.941406 221.597656 408.777344 220.683594 406.519531 220.691406 L 370.757812 220.691406 C 365.882812 220.691406 361.929688 224.644531 361.929688 229.519531 L 361.929688 247.171875 C 361.929688 252.050781 365.882812 256 370.757812 256 L 406.070312 256 C 410.945312 256 414.894531 259.953125 414.894531 264.828125 C 414.898438 269.703125 410.945312 273.65625 406.070312 273.65625 Z M 406.070312 273.65625 " style=" stroke:none;fill-rule:nonzero;fill:rgb(92.941176%,10.980392%,14.117647%);fill-opacity:1;" />
<path d="M 406.070312 326.621094 L 370.757812 326.621094 C 356.289062 326.570312 344.515625 314.949219 344.277344 300.480469 C 344.210938 295.597656 348.082031 291.566406 352.960938 291.433594 L 353.105469 291.433594 C 357.894531 291.375 361.835938 295.1875 361.929688 299.976562 C 361.890625 304.894531 365.839844 308.917969 370.757812 308.964844 L 406.070312 308.964844 C 410.945312 308.964844 414.894531 305.011719 414.894531 300.136719 L 414.894531 282.480469 C 414.894531 277.605469 410.945312 273.65625 406.070312 273.65625 L 370.757812 273.65625 C 365.882812 273.65625 361.929688 269.703125 361.929688 264.828125 C 361.929688 259.953125 365.882812 256 370.757812 256 L 406.070312 256 C 420.695312 256 432.550781 267.855469 432.550781 282.480469 L 432.550781 300.136719 C 432.550781 314.765625 420.695312 326.621094 406.070312 326.621094 Z M 406.070312 326.621094 " style=" stroke:none;fill-rule:nonzero;fill:rgb(92.941176%,10.980392%,14.117647%);fill-opacity:1;" />
<path d="M 211.863281 326.621094 C 208.300781 326.621094 205.085938 324.480469 203.714844 321.191406 L 167.722656 234.8125 L 131.734375 321.191406 C 129.855469 325.691406 124.6875 327.816406 120.1875 325.941406 C 115.6875 324.0625 113.5625 318.894531 115.4375 314.394531 L 159.578125 208.464844 C 161.453125 203.964844 166.621094 201.835938 171.121094 203.710938 C 173.269531 204.609375 174.976562 206.316406 175.875 208.464844 L 220.011719 314.394531 C 221.890625 318.894531 219.761719 324.0625 215.261719 325.941406 C 214.183594 326.390625 213.027344 326.621094 211.863281 326.621094 Z M 211.863281 326.621094 " style=" stroke:none;fill-rule:nonzero;fill:rgb(92.941176%,10.980392%,14.117647%);fill-opacity:1;" />
<path d="M 199.238281 300.136719 L 136.210938 300.136719 C 131.335938 300.136719 127.382812 296.183594 127.382812 291.308594 C 127.382812 286.433594 131.335938 282.484375 136.210938 282.484375 L 199.238281 282.484375 C 204.113281 282.484375 208.066406 286.433594 208.066406 291.308594 C 208.066406 296.183594 204.113281 300.136719 199.238281 300.136719 Z M 199.238281 300.136719 " style=" stroke:none;fill-rule:nonzero;fill:rgb(92.941176%,10.980392%,14.117647%);fill-opacity:1;" />
</g>
</svg>