<svg height="512pt" viewBox="0 0 512 512.00024" width="512pt" xmlns="http://www.w3.org/2000/svg"><path d="m420.632812 214.777344-101.074218 95.777344-39.28125 37.164062c-13.585938 12.976562-34.96875 12.976562-48.554688 0l-39.28125-37.164062-101.074218-95.777344c2.847656-1.898438 6.195312-2.910156 9.621093-2.914063h310.023438c3.425781.003907 6.773437 1.015625 9.621093 2.914063zm0 0" fill="#f0c419"/><path d="m379.585938 158.898438c0 68.253906-55.332032 123.585937-123.585938 123.585937s-123.585938-55.332031-123.585938-123.585937c0-68.257813 55.332032-123.585938 123.585938-123.585938s123.585938 55.328125 123.585938 123.585938zm0 0" fill="#547580"/><path d="m344.277344 158.898438c-.011719 47.578124-37.730469 86.589843-85.285156 88.203124-47.550782 1.613282-87.828126-34.75-91.0625-82.222656-3.238282-47.46875 31.734374-88.964844 79.066406-93.816406 2.914062-.265625 6.003906-.441406 9.003906-.441406 36.847656.066406 69.796875 22.957031 82.714844 57.46875 3.699218 9.847656 5.582031 20.285156 5.5625 30.808594zm0 0" fill="#90bae1"/><path d="m338.714844 128.089844c-82.273438 4.324218-128.175782 46.433594-152.894532 84.300781-19.359374-25.398437-23.496093-59.273437-10.808593-88.582031s40.214843-49.480469 71.984375-52.746094c2.914062-.265625 6.003906-.441406 9.003906-.441406 36.847656.066406 69.796875 22.957031 82.714844 57.46875zm0 0" fill="#b0d3f0"/><path d="m238.34375 36.546875v-18.890625c.03125-9.738281 7.917969-17.625 17.65625-17.65625 4.683594-.0234375 9.175781 1.855469 12.445312 5.207031 3.355469 3.273438 5.234376 7.765625 5.210938 12.449219v18.890625zm0 0" fill="#35495e"/><path d="m512 476.691406v17.652344c-.027344 9.738281-7.917969 17.628906-17.65625 17.65625h-476.6875c-9.738281-.027344-17.6289062-7.917969-17.65625-17.65625v-17.652344zm0 0" fill="#d25627"/><path d="m512 476.691406-192.441406-166.136718 101.074218-95.777344c3.347657 2.167968 5.867188 5.402344 7.152344 9.179687zm0 0" fill="#f29c1f"/><path d="m192.441406 310.554688-192.441406 166.136718 84.214844-252.734375c1.285156-3.777343 3.804687-7.011719 7.152344-9.179687zm0 0" fill="#f29c1f"/><path d="m512 476.691406h-512l192.441406-166.136718 39.28125 37.164062c13.585938 12.976562 34.96875 12.976562 48.554688 0l39.28125-37.164062zm0 0" fill="#e57e25"/><path d="m114.757812 450.207031h-8.828124c-4.875 0-8.824219-3.953125-8.824219-8.828125s3.949219-8.828125 8.824219-8.828125h8.828124c4.875 0 8.828126 3.953125 8.828126 8.828125s-3.953126 8.828125-8.828126 8.828125zm0 0" fill="#d25627"/><path d="m326.621094 450.207031h-176.550782c-4.875 0-8.828124-3.953125-8.828124-8.828125s3.953124-8.828125 8.828124-8.828125h176.550782c4.875 0 8.828125 3.953125 8.828125 8.828125s-3.953125 8.828125-8.828125 8.828125zm0 0" fill="#d25627"/><path d="m291.308594 203.035156c-2.339844 0-4.585938-.929687-6.238282-2.585937l-35.3125-35.3125c-1.65625-1.652344-2.585937-3.898438-2.585937-6.238281v-52.96875c0-4.875 3.953125-8.824219 8.828125-8.824219s8.828125 3.949219 8.828125 8.824219v49.3125l32.722656 32.722656c2.523438 2.527344 3.28125 6.320312 1.914063 9.621094-1.367188 3.296874-4.585938 5.449218-8.15625 5.449218zm0 0" fill="#7f8c8d"/></svg>