<svg height="510pt" viewBox="-3 0 510 510.14909" width="510pt" xmlns="http://www.w3.org/2000/svg"><path d="m503.398438 475.4375-189.179688-163.320312 99.359375-94.15625c3.292969 2.132812 5.769531 5.3125 7.03125 9.027343zm0 0" fill="#7d6599"/><path d="m503.398438 475.4375v17.355469c-.03125 9.574219-7.785157 17.328125-17.359376 17.355469h-468.609374c-9.574219-.027344-17.328126-7.78125-17.3554692-17.355469v-17.355469zm0 0" fill="#3d324c"/><path d="m189.253906 312.117188-189.1796872 163.320312 82.7890622-248.449219c1.261719-3.714843 3.738281-6.894531 7.027344-9.027343zm0 0" fill="#7d6599"/><path d="m503.398438 475.4375h-503.3242192l189.1796872-163.320312 38.617188 36.535156c13.351562 12.757812 34.375 12.757812 47.730468 0l38.617188-36.535156zm0 0" fill="#556080"/><path d="m413.578125 217.960938-99.359375 94.15625-38.617188 36.535156c-13.355468 12.757812-34.378906 12.757812-47.730468 0l-38.617188-36.535156-99.363281-94.15625c2.804687-1.863282 6.09375-2.859376 9.460937-2.863282h304.769532c3.367187.003906 6.65625 1 9.457031 2.863282zm0 0" fill="#b49aca"/><path d="m112.886719 449.402344h-8.675781c-4.792969 0-8.679688-3.882813-8.679688-8.675782 0-4.792968 3.886719-8.679687 8.679688-8.679687h8.675781c4.792969 0 8.679687 3.886719 8.679687 8.679687 0 4.792969-3.886718 8.675782-8.679687 8.675782zm0 0" fill="#3d324c"/><path d="m321.160156 449.402344h-173.558594c-4.792968 0-8.679687-3.882813-8.679687-8.675782 0-4.792968 3.886719-8.679687 8.679687-8.679687h173.558594c4.792969 0 8.675782 3.886719 8.675782 8.679687 0 4.792969-3.882813 8.675782-8.675782 8.675782zm0 0" fill="#3d324c"/><path d="m269.089844 43.273438c40.394531 8.28125 69.398437 43.8125 69.425781 85.046874v47.847657c.355469 10.171875 4.769531 19.773437 12.253906 26.667969 3.261719 3.246093 5.097657 7.660156 5.101563 12.261718-.070313 9.554688-7.800782 17.285156-17.355469 17.355469h-172.585937c-9.234376.175781-17.101563-6.65625-18.226563-15.820313-.476563-5.117187 1.378906-10.175781 5.050781-13.769531l.242188-.242187c7.378906-6.839844 11.691406-16.363282 11.960937-26.417969v-47.882813c.046875-41.226562 29.042969-76.746093 69.421875-85.046874v-18.03125c-.210937-8.730469 5.839844-16.371094 14.390625-18.164063 5.042969-.859375 10.210938.542969 14.125 3.839844 3.917969 3.296875 6.183594 8.148437 6.195313 13.265625zm0 0" fill="#f0c419"/><path d="m355.871094 215.097656c-.070313 9.554688-7.800782 17.285156-17.355469 17.355469h-86.78125v-225.625c9.574219.027344 17.328125 7.78125 17.355469 17.355469v19.089844c40.394531 8.28125 69.398437 43.8125 69.425781 85.046874v47.8125c.363281 10.183594 4.765625 19.800782 12.234375 26.730469 3.261719 3.238281 5.101562 7.640625 5.121094 12.234375zm0 0" fill="#f3d55b"/><path d="m217.023438 206.421875h-17.355469c-4.792969 0-8.679688-3.886719-8.679688-8.679687 0-4.792969 3.886719-8.679688 8.679688-8.679688h17.355469c4.792968 0 8.679687 3.886719 8.679687 8.679688 0 4.792968-3.886719 8.679687-8.679687 8.679687zm0 0" fill="#f9eab0"/><path d="m303.804688 206.421875h-52.070313c-4.792969 0-8.675781-3.886719-8.675781-8.679687 0-4.792969 3.882812-8.679688 8.675781-8.679688h52.070313c4.792968 0 8.675781 3.886719 8.675781 8.679688 0 4.792968-3.882813 8.679687-8.675781 8.679687zm0 0" fill="#f9eab0"/><g fill="#cc4b4c"><path d="m97.015625 189.0625c-2.300781 0-4.507813-.914062-6.136719-2.539062-50.753906-50.867188-50.753906-133.222657 0-184.085938 3.40625-3.289062 8.820313-3.242188 12.167969.105469 3.347656 3.347656 3.394531 8.757812.105469 12.164062-43.988282 44.085938-43.988282 115.457031 0 159.542969 2.480468 2.484375 3.222656 6.214844 1.878906 9.457031-1.34375 3.242188-4.503906 5.355469-8.015625 5.355469zm0 0"/><path d="m121.566406 164.515625c-2.300781 0-4.507812-.917969-6.136718-2.542969-37.21875-37.304687-37.21875-97.695312 0-134.996094 3.40625-3.289062 8.820312-3.242187 12.164062.105469 3.347656 3.347657 3.394531 8.761719.109375 12.164063-30.449219 30.523437-30.449219 79.933594 0 110.453125 2.480469 2.484375 3.222656 6.214843 1.878906 9.457031s-4.507812 5.355469-8.015625 5.359375zm0 0"/><path d="m406.453125 189.0625c-3.507813 0-6.671875-2.113281-8.015625-5.355469-1.339844-3.242187-.597656-6.972656 1.882812-9.457031 43.984376-44.085938 43.984376-115.457031 0-159.542969-3.289062-3.40625-3.242187-8.816406.105469-12.164062 3.347657-3.347657 8.757813-3.394531 12.164063-.105469 50.757812 50.863281 50.757812 133.21875 0 184.085938-1.625 1.625-3.832032 2.539062-6.136719 2.539062zm0 0"/><path d="m381.90625 164.515625c-3.511719-.003906-6.675781-2.117187-8.015625-5.359375-1.34375-3.242188-.601563-6.972656 1.878906-9.457031 30.449219-30.519531 30.449219-79.929688 0-110.453125-3.289062-3.402344-3.242187-8.816406.105469-12.164063 3.347656-3.347656 8.761719-3.394531 12.164062-.105469 37.21875 37.300782 37.21875 97.691407 0 134.996094-1.625 1.625-3.832031 2.542969-6.132812 2.542969zm0 0"/></g></svg>