<svg xmlns="http://www.w3.org/2000/svg" height="467pt" version="1.1" viewBox="-20 0 467 467.776" width="467pt">
<g id="surface1">
<path d="M 352.386719 416 L 16.386719 416 C 7.550781 416 0.386719 408.835938 0.386719 400 L 0.386719 96 L 104.386719 0 L 352.386719 0 C 361.222656 0 368.386719 7.164062 368.386719 16 L 368.386719 400 C 368.386719 408.835938 361.222656 416 352.386719 416 Z M 352.386719 416 " style=" stroke:none;fill-rule:nonzero;fill:rgb(100%,91.372549%,80%);fill-opacity:1;" />
<path d="M 104.386719 416 L 352.386719 416 C 361.222656 416 368.386719 408.835938 368.386719 400 L 368.386719 168.726562 C 324.6875 288.425781 226.683594 380.21875 104.386719 416 Z M 104.386719 416 " style=" stroke:none;fill-rule:nonzero;fill:rgb(100%,88.627451%,74.117647%);fill-opacity:1;" />
<path d="M 112.386719 80 L 112.386719 0 L 8.386719 96 L 96.386719 96 C 105.222656 96 112.386719 88.835938 112.386719 80 Z M 112.386719 80 " style=" stroke:none;fill-rule:nonzero;fill:rgb(100%,91.372549%,80%);fill-opacity:1;" />
<path d="M 351.636719 352 L 328.386719 280.449219 L 305.140625 352 L 229.898438 352 L 290.773438 396.222656 L 267.523438 467.777344 L 328.386719 423.550781 L 389.253906 467.777344 L 366.003906 396.222656 L 426.875 352 Z M 351.636719 352 " style=" stroke:none;fill-rule:nonzero;fill:rgb(100%,80.392157%,0%);fill-opacity:1;" />
<path d="M 104.386719 80 L 104.386719 0 L 0.386719 96 L 88.386719 96 C 97.222656 96 104.386719 88.835938 104.386719 80 Z M 104.386719 80 " style=" stroke:none;fill-rule:nonzero;fill:rgb(100%,66.27451%,57.647059%);fill-opacity:1;" />
<path d="M 312.386719 216 L 72.386719 216 C 67.96875 216 64.386719 212.417969 64.386719 208 C 64.386719 203.582031 67.96875 200 72.386719 200 L 312.386719 200 C 316.804688 200 320.386719 203.582031 320.386719 208 C 320.386719 212.417969 316.804688 216 312.386719 216 Z M 312.386719 216 " style=" stroke:none;fill-rule:nonzero;fill:rgb(100%,47.45098%,33.72549%);fill-opacity:1;" />
<path d="M 312.386719 264 L 72.386719 264 C 67.96875 264 64.386719 260.417969 64.386719 256 C 64.386719 251.582031 67.96875 248 72.386719 248 L 312.386719 248 C 316.804688 248 320.386719 251.582031 320.386719 256 C 320.386719 260.417969 316.804688 264 312.386719 264 Z M 312.386719 264 " style=" stroke:none;fill-rule:nonzero;fill:rgb(100%,47.45098%,33.72549%);fill-opacity:1;" />
<path d="M 272.386719 312 L 72.386719 312 C 67.96875 312 64.386719 308.417969 64.386719 304 C 64.386719 299.582031 67.96875 296 72.386719 296 L 272.386719 296 C 276.804688 296 280.386719 299.582031 280.386719 304 C 280.386719 308.417969 276.804688 312 272.386719 312 Z M 272.386719 312 " style=" stroke:none;fill-rule:nonzero;fill:rgb(100%,47.45098%,33.72549%);fill-opacity:1;" />
<path d="M 312.386719 168 L 136.386719 168 C 131.96875 168 128.386719 164.417969 128.386719 160 C 128.386719 155.582031 131.96875 152 136.386719 152 L 312.386719 152 C 316.804688 152 320.386719 155.582031 320.386719 160 C 320.386719 164.417969 316.804688 168 312.386719 168 Z M 312.386719 168 " style=" stroke:none;fill-rule:nonzero;fill:rgb(100%,47.45098%,33.72549%);fill-opacity:1;" />
<path d="M 104.386719 168 L 72.386719 168 C 67.96875 168 64.386719 164.417969 64.386719 160 C 64.386719 155.582031 67.96875 152 72.386719 152 L 104.386719 152 C 108.804688 152 112.386719 155.582031 112.386719 160 C 112.386719 164.417969 108.804688 168 104.386719 168 Z M 104.386719 168 " style=" stroke:none;fill-rule:nonzero;fill:rgb(100%,47.45098%,33.72549%);fill-opacity:1;" />
</g>
</svg>