<svg height="512pt" viewBox="0 0 512 512" width="512pt" xmlns="http://www.w3.org/2000/svg"><path d="m0 406.070312 93.574219-340.128906c2.046875-7.671875 9.007812-13 16.945312-12.976562h290.960938c7.9375-.023438 14.898437 5.304687 16.945312 12.976562l93.574219 340.128906zm0 0" fill="#cc4b4c"/><path d="m427.15625 361.929688h-342.3125c-5.496094 0-10.675781-2.554688-14.019531-6.917969-3.339844-4.363281-4.460938-10.03125-3.027344-15.335938l8.386719-31.0625 4.589844-17.304687 12.003906-44.488282 4.679687-17.304687 9.621094-35.660156 4.589844-17.304688 8.394531-31.082031c2.082031-7.703125 9.066406-13.054688 17.046875-13.054688h237.78125c7.980469-.003906 14.976563 5.347657 17.054687 13.054688l8.386719 31.082031 4.589844 17.304688 9.621094 35.660156 4.679687 17.304687 12.003906 44.488282 4.589844 17.304687 8.386719 31.0625c1.433594 5.304688.3125 10.972657-3.027344 15.335938-3.34375 4.363281-8.523437 6.917969-14.019531 6.917969zm0 0" fill="#e6e7e8"/><path d="m494.34375 512h-476.6875c-9.75 0-17.65625-7.90625-17.65625-17.65625v-88.273438h512v88.273438c0 9.75-7.90625 17.65625-17.65625 17.65625zm0 0" fill="#802f34"/><path d="m0 441.378906h512v35.3125h-512zm0 0" fill="#cc4b4c"/><path d="m150.070312 0c9.75 0 17.652344 7.90625 17.652344 17.65625v44.136719c0 9.75-7.902344 17.65625-17.652344 17.65625-9.753906 0-17.65625-7.90625-17.65625-17.65625v-44.136719c0-9.75 7.902344-17.65625 17.65625-17.65625zm0 0" fill="#bdc3c7"/><path d="m361.929688 0c9.753906 0 17.65625 7.90625 17.65625 17.65625v44.136719c0 9.75-7.902344 17.65625-17.65625 17.65625-9.75 0-17.652344-7.90625-17.652344-17.65625v-44.136719c0-9.75 7.902344-17.65625 17.652344-17.65625zm0 0" fill="#bdc3c7"/><path d="m256 0c9.75 0 17.65625 7.90625 17.65625 17.65625v44.136719c0 9.75-7.90625 17.65625-17.65625 17.65625s-17.65625-7.90625-17.65625-17.65625v-44.136719c0-9.75 7.90625-17.65625 17.65625-17.65625zm0 0" fill="#bdc3c7"/><g fill="#95a5a5"><path d="m185.378906 132.414062c-.015625.5625-.074218 1.125-.175781 1.675782l-8.121094 42.460937-3.445312 17.65625-6.796875 35.308594-3.351563 17.65625-8.476562 44.136719-3.441407 17.65625-10.152343 52.964844h-17.832031c.015624-.5625.074218-1.121094.175781-1.675782l9.886719-51.289062 3.355468-17.65625 8.476563-44.136719 3.441406-17.65625 6.796875-35.308594 3.355469-17.65625 8.472656-44.136719zm0 0"/><path d="m238.34375 132.414062c.015625.324219-.015625.652344-.085938.972657l-4.945312 43.164062-2.03125 17.65625-4.148438 35.308594-2.03125 17.65625-5.03125 44.136719-2.027343 17.65625-6.179688 52.964844h-17.65625c-.015625-.324219.015625-.652344.089844-.96875l6-51.996094 2.03125-17.65625 5.121094-44.136719 2.03125-17.65625 4.058593-35.308594 2.03125-17.65625 5.121094-44.136719zm0 0"/><path d="m404.921875 193.855469c-.707031.25-1.457031.371093-2.207031.351562h-293.429688c-.75.019531-1.5-.101562-2.207031-.351562l4.589844-17.304688h288.664062zm0 0"/><path d="m419.222656 246.820312c-.738281.25-1.515625.371094-2.296875.351563h-321.851562c-.78125.019531-1.558594-.101563-2.296875-.351563l4.679687-17.304687h317.085938zm0 0"/><path d="m435.816406 308.613281c-.707031.25-1.453125.371094-2.207031.351563h-355.21875c-.753906.019531-1.5-.101563-2.207031-.351563l4.589844-17.304687h350.453124zm0 0"/><path d="m388.414062 361.929688h-17.832031l-10.152343-52.964844-3.355469-17.65625-8.5625-44.136719-3.351563-17.65625-6.796875-35.308594-3.355469-17.65625-8.210937-42.460937c-.101563-.550782-.160156-1.113282-.175781-1.675782h17.832031l8.472656 44.136719 3.355469 17.65625 6.796875 35.308594 3.441406 17.65625 8.476563 44.136719 3.355468 17.65625 9.886719 51.289062c.101563.554688.160157 1.113282.175781 1.675782zm0 0"/><path d="m317.792969 361.929688h-17.65625l-6.089844-52.964844-2.117187-17.65625-5.03125-44.136719-2.03125-17.65625-4.0625-35.308594-2.117188-17.65625-4.945312-43.164062c-.070313-.320313-.101563-.648438-.085938-.972657h17.652344l5.121094 44.136719 2.03125 17.65625 4.058593 35.308594 2.03125 17.65625 5.121094 44.136719 2.03125 17.65625 6 51.996094c.074219.316406.105469.644531.089844.96875zm0 0"/></g></svg>