<svg height="512pt" viewBox="0 0 512 512" width="512pt" xmlns="http://www.w3.org/2000/svg"><path d="m0 406.070312 93.574219-340.128906c2.046875-7.671875 9.007812-13 16.945312-12.976562h290.960938c7.9375-.023438 14.898437 5.304687 16.945312 12.976562l93.574219 340.128906zm0 0" fill="#ecf0f1"/><path d="m494.34375 512h-476.6875c-9.75 0-17.65625-7.90625-17.65625-17.65625v-88.273438h512v88.273438c0 9.75-7.90625 17.65625-17.65625 17.65625zm0 0" fill="#bdc3c7"/><path d="m0 441.378906h512v35.3125h-512zm0 0" fill="#ecf0f1"/><path d="m150.070312 0c9.75 0 17.652344 7.90625 17.652344 17.65625v44.136719c0 9.75-7.902344 17.65625-17.652344 17.65625-9.753906 0-17.65625-7.90625-17.65625-17.65625v-44.136719c0-9.75 7.902344-17.65625 17.65625-17.65625zm0 0" fill="#bdc3c7"/><path d="m361.929688 0c9.753906 0 17.65625 7.90625 17.65625 17.65625v44.136719c0 9.75-7.902344 17.65625-17.65625 17.65625-9.75 0-17.652344-7.90625-17.652344-17.65625v-44.136719c0-9.75 7.902344-17.65625 17.652344-17.65625zm0 0" fill="#bdc3c7"/><path d="m256 0c9.75 0 17.65625 7.90625 17.65625 17.65625v44.136719c0 9.75-7.90625 17.65625-17.65625 17.65625s-17.65625-7.90625-17.65625-17.65625v-44.136719c0-9.75 7.90625-17.65625 17.65625-17.65625zm0 0" fill="#bdc3c7"/><g fill="#35495e"><path d="m388.414062 141.242188h-264.828124c-4.875 0-8.828126-3.953126-8.828126-8.828126s3.953126-8.828124 8.828126-8.828124h264.828124c4.875 0 8.828126 3.953124 8.828126 8.828124s-3.953126 8.828126-8.828126 8.828126zm0 0"/><path d="m406.070312 203.035156h-300.140624c-4.875 0-8.828126-3.953125-8.828126-8.828125s3.953126-8.828125 8.828126-8.828125h300.140624c4.875 0 8.828126 3.953125 8.828126 8.828125s-3.953126 8.828125-8.828126 8.828125zm0 0"/><path d="m423.722656 273.65625h-45.371094c-4.875 0-8.828124-3.953125-8.828124-8.828125s3.953124-8.828125 8.828124-8.828125h45.371094c4.875 0 8.828125 3.953125 8.828125 8.828125s-3.953125 8.828125-8.828125 8.828125zm0 0"/><path d="m133.648438 273.65625h-45.371094c-4.875 0-8.828125-3.953125-8.828125-8.828125s3.953125-8.828125 8.828125-8.828125h45.371094c4.875 0 8.828124 3.953125 8.828124 8.828125s-3.953124 8.828125-8.828124 8.828125zm0 0"/></g><path d="m397.242188 335.449219c0 78.003906-63.238282 141.242187-141.242188 141.242187s-141.242188-63.238281-141.242188-141.242187c0-78.007813 63.238282-141.242188 141.242188-141.242188s141.242188 63.234375 141.242188 141.242188zm0 0" fill="#7ed09e"/><path d="m335.449219 317.792969h-61.792969v-61.792969c0-4.875-3.953125-8.828125-8.828125-8.828125h-17.65625c-4.875 0-8.828125 3.953125-8.828125 8.828125v61.792969h-61.792969c-4.875 0-8.828125 3.953125-8.828125 8.828125v17.65625c0 4.875 3.953125 8.824218 8.828125 8.824218h61.792969v61.796876c0 4.875 3.953125 8.824218 8.828125 8.824218h17.65625c4.875 0 8.828125-3.949218 8.828125-8.824218v-61.796876h61.792969c4.875 0 8.828125-3.949218 8.828125-8.824218v-17.65625c0-4.875-3.953125-8.828125-8.828125-8.828125zm0 0" fill="#4c8056"/></svg>