<svg xmlns="http://www.w3.org/2000/svg" height="673pt" version="1.1" viewBox="-34 0 673 673.9682" width="673pt">
<g id="surface1">
<path d="M 199.183594 456.199219 C 194.382812 468.101562 200.183594 481.601562 212.085938 486.398438 C 214.785156 487.5 217.785156 488.101562 220.683594 488.101562 L 314.683594 488.101562 C 327.484375 488.101562 337.882812 477.699219 337.882812 464.800781 C 337.882812 461.898438 337.285156 458.898438 336.183594 456.199219 L 302.585938 371.800781 L 232.882812 371.800781 Z M 290.984375 441.601562 Z M 290.984375 441.601562 " style=" stroke:none;fill-rule:nonzero;fill:rgb(79.215686%,99.215686%,100%);fill-opacity:1;" />
<path d="M 377.183594 590.800781 C 376.484375 588.398438 375.785156 586 375.285156 583.5 C 374.984375 582.199219 374.683594 580.898438 374.484375 579.5 C 373.984375 577.199219 373.683594 574.800781 373.285156 572.398438 C 373.085938 571 372.984375 569.699219 372.785156 568.300781 C 372.585938 565.699219 372.484375 563.101562 372.382812 560.5 C 372.382812 559.601562 372.285156 558.699219 372.285156 557.800781 C 372.285156 557.5 372.285156 557.199219 372.285156 556.898438 C 372.285156 554 372.484375 551.101562 372.683594 548.199219 C 372.785156 547.398438 372.785156 546.5 372.882812 545.699219 C 373.683594 538.398438 375.085938 531.300781 377.085938 524.199219 C 388.183594 486.800781 417.382812 457.5 454.785156 446.5 C 461.785156 444.398438 468.984375 443 476.285156 442.300781 C 477.183594 442.199219 477.984375 442.199219 478.882812 442.101562 C 481.785156 441.898438 484.683594 441.699219 487.484375 441.699219 C 487.785156 441.699219 488.085938 441.699219 488.484375 441.699219 C 489.382812 441.699219 490.285156 441.800781 491.285156 441.800781 C 493.882812 441.898438 496.484375 442 499.085938 442.199219 C 500.484375 442.300781 501.882812 442.5 503.183594 442.699219 C 505.585938 443 507.984375 443.398438 510.285156 443.898438 C 511.585938 444.199219 512.984375 444.398438 514.285156 444.699219 C 516.785156 445.300781 519.183594 445.898438 521.484375 446.601562 C 522.683594 446.898438 523.785156 447.199219 524.882812 447.601562 C 528.382812 448.800781 531.683594 450 534.984375 451.5 L 534.984375 23.199219 C 534.984375 10.398438 524.585938 0 511.785156 0 L 302.585938 0 L 302.585938 371.800781 L 336.285156 456.101562 C 341.085938 468 335.285156 481.5 323.382812 486.300781 C 320.683594 487.398438 317.683594 488 314.785156 488 L 220.785156 488 C 207.984375 488 197.585938 477.601562 197.585938 464.699219 C 197.585938 461.800781 198.183594 458.800781 199.285156 456.101562 L 232.984375 371.800781 L 232.984375 0 L 151.683594 0 L 151.683594 116.199219 C 151.683594 129 141.285156 139.398438 128.484375 139.398438 L 0.484375 139.398438 L 0.484375 581 C 0.484375 593.800781 10.882812 604.199219 23.683594 604.199219 L 382.085938 604.199219 C 380.585938 600.898438 379.382812 597.5 378.183594 594.101562 C 377.785156 593 377.484375 591.898438 377.183594 590.800781 Z M 377.183594 590.800781 " style=" stroke:none;fill-rule:nonzero;fill:rgb(100%,91.372549%,80%);fill-opacity:1;" />
<path d="M 151.484375 604.199219 L 511.683594 604.199219 C 524.484375 604.199219 534.882812 593.800781 534.882812 581 L 534.882812 245.101562 C 471.484375 418.898438 329.183594 552.300781 151.484375 604.199219 Z M 151.484375 604.199219 " style=" stroke:none;fill-rule:nonzero;fill:rgb(100%,88.627451%,74.117647%);fill-opacity:1;" />
<path d="M 510.183594 443.699219 C 507.882812 443.300781 505.484375 442.898438 503.085938 442.5 C 505.484375 442.898438 507.882812 443.300781 510.183594 443.699219 Z M 510.183594 443.699219 " style=" stroke:none;fill-rule:nonzero;fill:rgb(100%,91.372549%,80%);fill-opacity:1;" />
<path d="M 382.085938 604.199219 C 380.585938 600.898438 379.382812 597.5 378.183594 594.101562 C 379.285156 597.601562 380.585938 601 382.085938 604.199219 Z M 382.085938 604.199219 " style=" stroke:none;fill-rule:nonzero;fill:rgb(100%,91.372549%,80%);fill-opacity:1;" />
<path d="M 534.984375 451.300781 C 531.683594 449.800781 528.285156 448.601562 524.882812 447.398438 C 528.285156 448.601562 531.683594 449.898438 534.984375 451.300781 Z M 534.984375 451.300781 " style=" stroke:none;fill-rule:nonzero;fill:rgb(100%,91.372549%,80%);fill-opacity:1;" />
<path d="M 372.285156 556.800781 C 372.285156 553.898438 372.484375 551 372.683594 548.101562 C 372.484375 551 372.382812 553.898438 372.285156 556.800781 Z M 372.285156 556.800781 " style=" stroke:none;fill-rule:nonzero;fill:rgb(100%,91.372549%,80%);fill-opacity:1;" />
<path d="M 377.085938 524.199219 C 375.085938 531.199219 373.683594 538.398438 372.882812 545.699219 C 378.683594 491.101562 421.785156 448 476.285156 442.300781 C 468.984375 443 461.785156 444.5 454.785156 446.5 C 417.382812 457.5 388.183594 486.699219 377.085938 524.199219 Z M 377.085938 524.199219 " style=" stroke:none;fill-rule:nonzero;fill:rgb(100%,91.372549%,80%);fill-opacity:1;" />
<path d="M 373.285156 572.398438 C 373.585938 574.800781 373.984375 577.199219 374.484375 579.5 C 373.984375 577.199219 373.585938 574.800781 373.285156 572.398438 Z M 373.285156 572.398438 " style=" stroke:none;fill-rule:nonzero;fill:rgb(100%,91.372549%,80%);fill-opacity:1;" />
<path d="M 521.484375 446.5 C 519.183594 445.800781 516.683594 445.101562 514.285156 444.601562 C 516.683594 445 519.085938 445.800781 521.484375 446.5 Z M 521.484375 446.5 " style=" stroke:none;fill-rule:nonzero;fill:rgb(100%,91.372549%,80%);fill-opacity:1;" />
<path d="M 498.984375 442.101562 C 496.382812 441.898438 493.882812 441.800781 491.183594 441.699219 C 493.882812 441.800781 496.382812 441.898438 498.984375 442.101562 Z M 498.984375 442.101562 " style=" stroke:none;fill-rule:nonzero;fill:rgb(100%,91.372549%,80%);fill-opacity:1;" />
<path d="M 375.285156 583.5 C 375.882812 586 376.484375 588.398438 377.183594 590.800781 C 376.484375 588.398438 375.785156 586 375.285156 583.5 Z M 375.285156 583.5 " style=" stroke:none;fill-rule:nonzero;fill:rgb(100%,91.372549%,80%);fill-opacity:1;" />
<path d="M 478.882812 442 C 481.683594 441.800781 484.585938 441.601562 487.484375 441.601562 C 484.683594 441.601562 481.785156 441.800781 478.882812 442 Z M 478.882812 442 " style=" stroke:none;fill-rule:nonzero;fill:rgb(100%,91.372549%,80%);fill-opacity:1;" />
<path d="M 372.382812 560.5 C 372.484375 563.101562 372.585938 565.699219 372.785156 568.300781 C 372.585938 565.699219 372.484375 563.101562 372.382812 560.5 Z M 372.382812 560.5 " style=" stroke:none;fill-rule:nonzero;fill:rgb(100%,91.372549%,80%);fill-opacity:1;" />
<path d="M 151.484375 116.199219 L 151.484375 0 L 0.484375 139.398438 L 128.285156 139.398438 C 141.085938 139.398438 151.484375 129 151.484375 116.199219 Z M 151.484375 116.199219 " style=" stroke:none;fill-rule:nonzero;fill:rgb(100%,66.27451%,57.647059%);fill-opacity:1;" />
<path d="M 302.585938 371.800781 L 302.585938 0 L 232.882812 0 L 232.882812 371.800781 Z M 267.683594 34.898438 Z M 267.683594 81.300781 Z M 267.683594 127.800781 Z M 267.683594 174.300781 Z M 267.683594 220.800781 Z M 267.683594 267.300781 Z M 267.683594 313.699219 Z M 267.683594 313.699219 " style=" stroke:none;fill-rule:nonzero;fill:rgb(100%,89.803922%,46.666667%);fill-opacity:1;" />
<path d="M 534.984375 451.300781 C 531.683594 449.800781 528.285156 448.601562 524.882812 447.398438 C 523.785156 447 522.683594 446.699219 521.484375 446.398438 C 519.183594 445.699219 516.683594 445 514.285156 444.5 C 512.984375 444.199219 511.585938 443.898438 510.285156 443.699219 C 507.984375 443.300781 505.585938 442.898438 503.183594 442.5 C 501.785156 442.300781 500.484375 442.199219 499.085938 442 C 496.484375 441.800781 493.984375 441.699219 491.285156 441.601562 C 490.085938 441.601562 488.785156 441.5 487.585938 441.5 C 484.683594 441.5 481.785156 441.699219 478.984375 441.898438 C 478.085938 442 477.285156 442 476.382812 442.101562 C 421.785156 447.898438 378.683594 491 372.984375 545.5 C 372.882812 546.300781 372.882812 547.199219 372.785156 548 C 372.585938 550.898438 372.382812 553.800781 372.382812 556.699219 C 372.382812 557.898438 372.484375 559.199219 372.484375 560.398438 C 372.585938 563 372.683594 565.601562 372.882812 568.199219 C 372.984375 569.601562 373.183594 571 373.382812 572.300781 C 373.683594 574.699219 374.085938 577.101562 374.585938 579.398438 C 374.882812 580.699219 375.085938 582.101562 375.382812 583.398438 C 375.984375 585.898438 376.585938 588.300781 377.285156 590.699219 C 377.585938 591.898438 377.882812 592.898438 378.285156 594 C 379.484375 597.5 380.683594 600.800781 382.183594 604.101562 C 407.785156 662.898438 476.285156 689.898438 535.085938 664.300781 C 593.882812 638.699219 620.882812 570.199219 595.285156 511.398438 C 583.382812 484.601562 561.882812 463 534.984375 451.300781 Z M 537.785156 607 L 488.484375 557.699219 L 439.183594 607 L 488.484375 557.699219 L 439.183594 508.398438 L 488.484375 557.699219 L 537.785156 508.398438 L 488.484375 557.699219 Z M 537.785156 607 " style=" stroke:none;fill-rule:nonzero;fill:rgb(100%,45.098039%,30.980392%);fill-opacity:1;" />
<path d="M 524.882812 447.5 C 523.785156 447.101562 522.683594 446.800781 521.484375 446.5 C 522.585938 446.800781 523.785156 447.101562 524.882812 447.5 Z M 524.882812 447.5 " style=" stroke:none;fill-rule:nonzero;fill:rgb(100%,91.372549%,80%);fill-opacity:1;" />
<path d="M 514.285156 444.5 C 512.984375 444.199219 511.585938 443.898438 510.285156 443.699219 C 511.585938 444 512.882812 444.199219 514.285156 444.5 Z M 514.285156 444.5 " style=" stroke:none;fill-rule:nonzero;fill:rgb(100%,91.372549%,80%);fill-opacity:1;" />
<path d="M 372.382812 560.5 C 372.382812 559.300781 372.285156 558.101562 372.285156 556.800781 C 372.285156 557.101562 372.285156 557.398438 372.285156 557.699219 C 372.285156 558.699219 372.382812 559.601562 372.382812 560.5 Z M 372.382812 560.5 " style=" stroke:none;fill-rule:nonzero;fill:rgb(100%,91.372549%,80%);fill-opacity:1;" />
<path d="M 487.484375 441.601562 C 488.683594 441.601562 489.984375 441.699219 491.183594 441.699219 C 490.285156 441.699219 489.382812 441.601562 488.382812 441.601562 C 488.183594 441.601562 487.882812 441.601562 487.484375 441.601562 Z M 487.484375 441.601562 " style=" stroke:none;fill-rule:nonzero;fill:rgb(100%,91.372549%,80%);fill-opacity:1;" />
<path d="M 372.882812 568.300781 C 372.984375 569.699219 373.183594 571.101562 373.382812 572.398438 C 373.085938 571 372.984375 569.699219 372.882812 568.300781 Z M 372.882812 568.300781 " style=" stroke:none;fill-rule:nonzero;fill:rgb(100%,91.372549%,80%);fill-opacity:1;" />
<path d="M 503.085938 442.601562 C 501.683594 442.398438 500.382812 442.300781 498.984375 442.101562 C 500.382812 442.199219 501.785156 442.398438 503.085938 442.601562 Z M 503.085938 442.601562 " style=" stroke:none;fill-rule:nonzero;fill:rgb(100%,91.372549%,80%);fill-opacity:1;" />
<path d="M 478.882812 442 C 477.984375 442.101562 477.085938 442.101562 476.285156 442.199219 C 477.183594 442.101562 477.984375 442.101562 478.882812 442 Z M 478.882812 442 " style=" stroke:none;fill-rule:nonzero;fill:rgb(100%,91.372549%,80%);fill-opacity:1;" />
<path d="M 377.183594 590.800781 C 377.484375 592 377.785156 593 378.183594 594.101562 C 377.785156 593 377.484375 591.898438 377.183594 590.800781 Z M 377.183594 590.800781 " style=" stroke:none;fill-rule:nonzero;fill:rgb(100%,91.372549%,80%);fill-opacity:1;" />
<path d="M 372.882812 545.601562 C 372.785156 546.398438 372.785156 547.300781 372.683594 548.101562 C 372.882812 547.300781 372.882812 546.5 372.882812 545.601562 Z M 372.882812 545.601562 " style=" stroke:none;fill-rule:nonzero;fill:rgb(100%,91.372549%,80%);fill-opacity:1;" />
<path d="M 374.484375 579.5 C 374.785156 580.800781 374.984375 582.199219 375.285156 583.5 C 374.984375 582.199219 374.683594 580.898438 374.484375 579.5 Z M 374.484375 579.5 " style=" stroke:none;fill-rule:nonzero;fill:rgb(100%,91.372549%,80%);fill-opacity:1;" />
<path d="M 290.984375 453.199219 L 244.484375 453.199219 C 238.085938 453.199219 232.882812 448 232.882812 441.601562 C 232.882812 435.199219 238.085938 430 244.484375 430 L 290.984375 430 C 297.382812 430 302.585938 435.199219 302.585938 441.601562 C 302.585938 448 297.382812 453.199219 290.984375 453.199219 Z M 290.984375 453.199219 " style=" stroke:none;fill-rule:nonzero;fill:rgb(100%,47.45098%,33.72549%);fill-opacity:1;" />
<path d="M 256.085938 34.898438 L 279.285156 34.898438 L 279.285156 58.101562 L 256.085938 58.101562 Z M 256.085938 34.898438 " style=" stroke:none;fill-rule:nonzero;fill:rgb(100%,47.45098%,33.72549%);fill-opacity:1;" />
<path d="M 256.085938 81.300781 L 279.285156 81.300781 L 279.285156 104.5 L 256.085938 104.5 Z M 256.085938 81.300781 " style=" stroke:none;fill-rule:nonzero;fill:rgb(100%,47.45098%,33.72549%);fill-opacity:1;" />
<path d="M 256.085938 127.800781 L 279.285156 127.800781 L 279.285156 151 L 256.085938 151 Z M 256.085938 127.800781 " style=" stroke:none;fill-rule:nonzero;fill:rgb(100%,47.45098%,33.72549%);fill-opacity:1;" />
<path d="M 256.085938 174.300781 L 279.285156 174.300781 L 279.285156 197.5 L 256.085938 197.5 Z M 256.085938 174.300781 " style=" stroke:none;fill-rule:nonzero;fill:rgb(100%,47.45098%,33.72549%);fill-opacity:1;" />
<path d="M 256.085938 220.800781 L 279.285156 220.800781 L 279.285156 244 L 256.085938 244 Z M 256.085938 220.800781 " style=" stroke:none;fill-rule:nonzero;fill:rgb(100%,47.45098%,33.72549%);fill-opacity:1;" />
<path d="M 256.085938 267.300781 L 279.285156 267.300781 L 279.285156 290.5 L 256.085938 290.5 Z M 256.085938 267.300781 " style=" stroke:none;fill-rule:nonzero;fill:rgb(100%,47.45098%,33.72549%);fill-opacity:1;" />
<path d="M 256.085938 313.699219 L 279.285156 313.699219 L 279.285156 336.898438 L 256.085938 336.898438 Z M 256.085938 313.699219 " style=" stroke:none;fill-rule:nonzero;fill:rgb(100%,47.45098%,33.72549%);fill-opacity:1;" />
<path d="M 537.785156 618.699219 C 534.683594 618.699219 531.785156 617.5 529.585938 615.300781 L 430.984375 516.699219 C 426.484375 512.101562 426.683594 504.699219 431.285156 500.300781 C 435.785156 496 442.882812 496 447.382812 500.300781 L 545.984375 598.898438 C 550.484375 603.398438 550.484375 610.800781 545.984375 615.300781 C 543.785156 617.5 540.882812 618.699219 537.785156 618.699219 Z M 537.785156 618.699219 " style=" stroke:none;fill-rule:nonzero;fill:rgb(94.509804%,94.901961%,94.901961%);fill-opacity:1;" />
<path d="M 439.183594 618.699219 C 432.785156 618.699219 427.585938 613.5 427.585938 607.101562 C 427.585938 604 428.785156 601.101562 430.984375 598.898438 L 529.585938 500.300781 C 534.183594 495.800781 541.585938 496 545.984375 500.601562 C 550.285156 505.101562 550.285156 512.199219 545.984375 516.699219 L 447.382812 615.300781 C 445.183594 617.5 442.285156 618.699219 439.183594 618.699219 Z M 439.183594 618.699219 " style=" stroke:none;fill-rule:nonzero;fill:rgb(94.509804%,94.901961%,94.901961%);fill-opacity:1;" />
</g>
</svg>