<svg height="512pt" viewBox="0 0 512 512.47003" width="512pt" xmlns="http://www.w3.org/2000/svg"><g fill="#35495e"><path d="m127.964844 462.125-13.949219 38.222656c-3.503906 8.890625-13.445313 13.378906-22.429687 10.128906-8.988282-3.25-13.757813-13.058593-10.761719-22.132812l15.449219-42.285156zm0 0"/><path d="m310.429688 446.058594 15.449218 42.285156c2.355469 5.976562 1.277344 12.765625-2.816406 17.71875-4.097656 4.953125-10.558594 7.289062-16.875 6.101562s-11.488281-5.714843-13.5-11.816406l-13.949219-38.222656zm0 0"/><path d="m185.695312 44.136719h35.3125v29.421875h-35.3125zm0 0"/></g><path d="m285.359375 87.921875c-79.203125-35.011719-171.898437-15.929687-230.839844 47.515625-58.9375 63.445312-71.148437 157.289062-30.410156 233.707031 40.742187 76.414063 125.46875 118.578125 210.996094 105.003907 85.527343-13.578126 153.027343-79.90625 168.101562-165.183594zm0 0" fill="#547580"/><path d="m367.28125 308.964844c-19.1875 88.589844-105.339844 145.859375-194.449219 129.265625-89.109375-16.597657-148.867187-101.042969-134.878906-190.597657 13.992187-89.554687 96.660156-151.75 186.585937-140.378906 20.414063 2.5625 40.171876 8.910156 58.261719 18.714844l54.554688 118.113281zm0 0" fill="#90bae1"/><path d="m337.355469 244.082031c-158.808594-12.710937-232.871094 72.386719-265.359375 133.738281-49.5-62.316406-48.363282-150.847656 2.714844-211.875 51.082031-61.027343 138.03125-77.730468 208.089843-39.976562zm0 0" fill="#b0d3f0"/><path d="m159.214844 0h88.273437c14.628907 0 26.484375 11.855469 26.484375 26.484375v17.652344h-141.242187v-17.652344c0-14.628906 11.855469-26.484375 26.484375-26.484375zm0 0" fill="#2c3e50"/><path d="m221.007812 167.722656v106.816406l-74.949218 74.945313c-4.382813 4.820313-11.0625 6.835937-17.378906 5.238281-6.316407-1.59375-11.242188-6.535156-12.816407-12.859375-1.570312-6.320312.46875-12.996093 5.304688-17.359375l64.527343-64.621094v-92.160156c.03125-9.738281 7.917969-17.625 17.65625-17.652344 9.71875.070313 17.582032 7.933594 17.65625 17.652344zm0 0" fill="#7f8c8d"/><path d="m300.453125 79.449219h194.207031c9.753906 0 17.65625 7.902343 17.65625 17.652343v194.207032c0 9.753906-7.902344 17.65625-17.65625 17.65625h-194.207031c-9.75 0-17.652344-7.902344-17.652344-17.65625v-194.207032c0-9.75 7.902344-17.652343 17.652344-17.652343zm0 0" fill="#24ae5f"/><path d="m459.351562 176.550781h-44.136718v-44.136719c0-4.875-3.953125-8.828124-8.828125-8.828124h-17.65625c-4.875 0-8.828125 3.953124-8.828125 8.828124v44.136719h-44.136719c-4.875 0-8.828125 3.953125-8.828125 8.828125v17.65625c0 4.875 3.953125 8.828125 8.828125 8.828125h44.136719v44.136719c0 4.875 3.953125 8.828125 8.828125 8.828125h17.65625c4.875 0 8.828125-3.953125 8.828125-8.828125v-44.136719h44.136718c4.875 0 8.828126-3.953125 8.828126-8.828125v-17.65625c0-4.875-3.953126-8.828125-8.828126-8.828125zm0 0" fill="#7ed09e"/></svg>