<svg xmlns="http://www.w3.org/2000/svg" height="512pt" version="1.1" viewBox="-26 0 512 512.00002" width="512pt">
<g id="surface1">
<path d="M 88.277344 344.277344 L 88.277344 185.378906 C 88.304688 175.640625 96.191406 167.753906 105.929688 167.722656 L 406.070312 167.722656 L 406.070312 17.65625 C 406.039062 7.917969 398.152344 0.0273438 388.414062 0 L 114.757812 0 L 114.757812 88.277344 C 114.757812 98.027344 106.855469 105.929688 97.105469 105.929688 L 0 105.929688 L 0 494.34375 C 0.0273438 504.082031 7.917969 511.96875 17.65625 512 L 388.414062 512 C 398.152344 511.96875 406.039062 504.082031 406.070312 494.34375 L 406.070312 361.929688 L 105.929688 361.929688 C 96.191406 361.902344 88.304688 354.015625 88.277344 344.277344 Z M 88.277344 344.277344 " style=" stroke:none;fill-rule:nonzero;fill:rgb(100%,91.372549%,80%);fill-opacity:1;" />
<path d="M 114.757812 512 L 388.414062 512 C 398.164062 512 406.070312 504.09375 406.070312 494.34375 L 406.070312 239.148438 C 357.847656 371.226562 249.707031 472.515625 114.757812 512 Z M 114.757812 512 " style=" stroke:none;fill-rule:nonzero;fill:rgb(100%,88.627451%,74.117647%);fill-opacity:1;" />
<path d="M 441.378906 167.722656 L 105.929688 167.722656 C 96.191406 167.753906 88.304688 175.640625 88.277344 185.378906 L 88.277344 344.273438 C 88.304688 354.015625 96.191406 361.902344 105.929688 361.929688 L 441.378906 361.929688 C 451.117188 361.902344 459.007812 354.015625 459.035156 344.273438 L 459.035156 185.378906 C 459.003906 175.640625 451.117188 167.753906 441.378906 167.722656 Z M 203.035156 282.484375 C 203.035156 301.984375 187.226562 317.792969 167.726562 317.792969 L 132.414062 317.792969 L 132.414062 211.863281 L 167.726562 211.863281 C 187.226562 211.863281 203.035156 227.671875 203.035156 247.171875 Z M 238.34375 317.792969 Z M 344.277344 317.792969 Z M 344.277344 317.792969 " style=" stroke:none;fill-rule:nonzero;fill:rgb(79.215686%,99.215686%,100%);fill-opacity:1;" />
<path d="M 167.726562 211.863281 L 132.414062 211.863281 L 132.414062 317.792969 L 167.726562 317.792969 C 187.226562 317.792969 203.035156 301.984375 203.035156 282.484375 L 203.035156 247.171875 C 203.035156 227.671875 187.226562 211.863281 167.726562 211.863281 Z M 167.726562 211.863281 " style=" stroke:none;fill-rule:nonzero;fill:rgb(79.215686%,99.215686%,100%);fill-opacity:1;" />
<path d="M 114.757812 88.277344 L 114.757812 0 L 0 105.929688 L 97.105469 105.929688 C 106.855469 105.929688 114.757812 98.027344 114.757812 88.277344 Z M 114.757812 88.277344 " style=" stroke:none;fill-rule:nonzero;fill:rgb(100%,66.27451%,57.647059%);fill-opacity:1;" />
<path d="M 167.726562 326.621094 L 132.414062 326.621094 C 127.539062 326.621094 123.585938 322.667969 123.585938 317.792969 L 123.585938 211.863281 C 123.585938 206.988281 127.539062 203.035156 132.414062 203.035156 L 167.726562 203.035156 C 192.089844 203.0625 211.832031 222.808594 211.863281 247.171875 L 211.863281 282.484375 C 211.832031 306.847656 192.089844 326.589844 167.726562 326.621094 Z M 141.242188 308.964844 L 167.722656 308.964844 C 182.351562 308.964844 194.207031 297.109375 194.207031 282.484375 L 194.207031 247.171875 C 194.207031 232.546875 182.347656 220.691406 167.722656 220.691406 L 141.242188 220.691406 Z M 141.242188 308.964844 " style=" stroke:none;fill-rule:nonzero;fill:rgb(92.941176%,10.980392%,14.117647%);fill-opacity:1;" />
<path d="M 308.964844 326.621094 L 238.34375 326.621094 C 233.46875 326.621094 229.519531 322.667969 229.519531 317.792969 L 229.519531 211.863281 C 229.519531 206.988281 233.46875 203.035156 238.34375 203.035156 C 243.21875 203.035156 247.171875 206.988281 247.171875 211.863281 L 247.171875 308.964844 L 308.964844 308.964844 C 313.839844 308.964844 317.792969 312.917969 317.792969 317.792969 C 317.792969 322.667969 313.839844 326.621094 308.964844 326.621094 Z M 308.964844 326.621094 " style=" stroke:none;fill-rule:nonzero;fill:rgb(92.941176%,10.980392%,14.117647%);fill-opacity:1;" />
<path d="M 414.898438 326.621094 L 344.277344 326.621094 C 339.402344 326.621094 335.449219 322.667969 335.449219 317.792969 L 335.449219 211.863281 C 335.449219 206.988281 339.402344 203.035156 344.277344 203.035156 C 349.152344 203.035156 353.105469 206.988281 353.105469 211.863281 L 353.105469 308.964844 L 414.898438 308.964844 C 419.773438 308.964844 423.722656 312.917969 423.722656 317.792969 C 423.722656 322.667969 419.773438 326.621094 414.898438 326.621094 Z M 414.898438 326.621094 " style=" stroke:none;fill-rule:nonzero;fill:rgb(92.941176%,10.980392%,14.117647%);fill-opacity:1;" />
</g>
</svg>