<svg xmlns="http://www.w3.org/2000/svg" height="512pt" version="1.1" viewBox="-26 0 512 512.00002" width="512pt">
<g id="surface1">
<path d="M 88.277344 344.277344 L 88.277344 185.378906 C 88.304688 175.640625 96.191406 167.753906 105.929688 167.722656 L 406.070312 167.722656 L 406.070312 17.65625 C 406.039062 7.917969 398.152344 0.0273438 388.414062 0 L 114.757812 0 L 114.757812 88.277344 C 114.757812 98.027344 106.855469 105.929688 97.105469 105.929688 L 0 105.929688 L 0 494.34375 C 0.0273438 504.082031 7.917969 511.96875 17.65625 512 L 388.414062 512 C 398.152344 511.96875 406.039062 504.082031 406.070312 494.34375 L 406.070312 361.929688 L 105.929688 361.929688 C 96.191406 361.902344 88.304688 354.015625 88.277344 344.277344 Z M 88.277344 344.277344 " style=" stroke:none;fill-rule:nonzero;fill:rgb(100%,91.372549%,80%);fill-opacity:1;" />
<path d="M 114.757812 512 L 388.414062 512 C 398.164062 512 406.070312 504.09375 406.070312 494.34375 L 406.070312 239.148438 C 357.847656 371.226562 249.707031 472.515625 114.757812 512 Z M 114.757812 512 " style=" stroke:none;fill-rule:nonzero;fill:rgb(100%,88.627451%,74.117647%);fill-opacity:1;" />
<path d="M 441.378906 167.722656 L 105.929688 167.722656 C 96.191406 167.753906 88.304688 175.640625 88.277344 185.378906 L 88.277344 344.273438 C 88.304688 354.015625 96.191406 361.902344 105.929688 361.929688 L 441.378906 361.929688 C 451.117188 361.902344 459.007812 354.015625 459.035156 344.273438 L 459.035156 185.378906 C 459.003906 175.640625 451.117188 167.753906 441.378906 167.722656 Z M 203.035156 282.484375 C 203.035156 301.984375 187.226562 317.792969 167.726562 317.792969 L 132.414062 317.792969 L 132.414062 211.863281 L 167.726562 211.863281 C 187.226562 211.863281 203.035156 227.671875 203.035156 247.171875 Z M 308.964844 300.136719 C 308.964844 309.886719 301.0625 317.792969 291.3125 317.792969 L 256 317.792969 C 246.25 317.792969 238.347656 309.886719 238.347656 300.136719 L 238.347656 229.515625 C 238.347656 219.765625 246.25 211.863281 256 211.863281 L 291.3125 211.863281 C 301.0625 211.863281 308.964844 219.765625 308.964844 229.515625 Z M 361.929688 317.792969 L 397.242188 317.792969 C 406.992188 317.792969 414.894531 309.886719 414.894531 300.136719 C 414.894531 309.886719 406.992188 317.792969 397.242188 317.792969 L 361.929688 317.792969 C 352.179688 317.792969 344.277344 309.886719 344.277344 300.136719 L 344.277344 229.515625 C 344.277344 219.765625 352.179688 211.863281 361.929688 211.863281 L 397.242188 211.863281 C 406.992188 211.863281 414.894531 219.765625 414.894531 229.515625 C 414.894531 219.765625 406.992188 211.863281 397.242188 211.863281 L 361.929688 211.863281 C 352.179688 211.863281 344.277344 219.765625 344.277344 229.515625 L 344.277344 300.136719 C 344.277344 309.886719 352.179688 317.792969 361.929688 317.792969 Z M 361.929688 317.792969 " style=" stroke:none;fill-rule:nonzero;fill:rgb(79.215686%,99.215686%,100%);fill-opacity:1;" />
<path d="M 167.726562 211.863281 L 132.414062 211.863281 L 132.414062 317.792969 L 167.726562 317.792969 C 187.226562 317.792969 203.035156 301.984375 203.035156 282.484375 L 203.035156 247.171875 C 203.035156 227.671875 187.226562 211.863281 167.726562 211.863281 Z M 167.726562 211.863281 " style=" stroke:none;fill-rule:nonzero;fill:rgb(79.215686%,99.215686%,100%);fill-opacity:1;" />
<path d="M 114.757812 88.277344 L 114.757812 0 L 0 105.929688 L 97.105469 105.929688 C 106.855469 105.929688 114.757812 98.027344 114.757812 88.277344 Z M 114.757812 88.277344 " style=" stroke:none;fill-rule:nonzero;fill:rgb(100%,66.27451%,57.647059%);fill-opacity:1;" />
<path d="M 256 211.863281 L 291.308594 211.863281 C 301.0625 211.863281 308.964844 219.765625 308.964844 229.515625 L 308.964844 300.136719 C 308.964844 309.886719 301.0625 317.792969 291.308594 317.792969 L 256 317.792969 C 246.25 317.792969 238.34375 309.886719 238.34375 300.136719 L 238.34375 229.515625 C 238.34375 219.765625 246.25 211.863281 256 211.863281 Z M 256 211.863281 " style=" stroke:none;fill-rule:nonzero;fill:rgb(79.215686%,99.215686%,100%);fill-opacity:1;" />
<path d="M 167.726562 326.621094 L 132.414062 326.621094 C 127.539062 326.621094 123.585938 322.667969 123.585938 317.792969 L 123.585938 211.863281 C 123.585938 206.988281 127.539062 203.035156 132.414062 203.035156 L 167.726562 203.035156 C 192.089844 203.0625 211.832031 222.808594 211.863281 247.171875 L 211.863281 282.484375 C 211.832031 306.847656 192.089844 326.589844 167.726562 326.621094 Z M 141.242188 308.964844 L 167.722656 308.964844 C 182.351562 308.964844 194.207031 297.109375 194.207031 282.484375 L 194.207031 247.171875 C 194.207031 232.546875 182.347656 220.691406 167.722656 220.691406 L 141.242188 220.691406 Z M 141.242188 308.964844 " style=" stroke:none;fill-rule:nonzero;fill:rgb(92.941176%,10.980392%,14.117647%);fill-opacity:1;" />
<path d="M 291.308594 326.621094 L 256 326.621094 C 241.375 326.621094 229.519531 314.761719 229.519531 300.136719 L 229.519531 229.515625 C 229.519531 214.890625 241.375 203.035156 256 203.035156 L 291.308594 203.035156 C 305.9375 203.035156 317.792969 214.890625 317.792969 229.515625 L 317.792969 300.136719 C 317.792969 314.765625 305.9375 326.621094 291.308594 326.621094 Z M 256 220.691406 C 251.125 220.691406 247.171875 224.640625 247.171875 229.515625 L 247.171875 300.136719 C 247.171875 305.011719 251.125 308.964844 256 308.964844 L 291.308594 308.964844 C 296.183594 308.964844 300.136719 305.011719 300.136719 300.136719 L 300.136719 229.515625 C 300.136719 224.640625 296.183594 220.691406 291.308594 220.691406 Z M 256 220.691406 " style=" stroke:none;fill-rule:nonzero;fill:rgb(92.941176%,10.980392%,14.117647%);fill-opacity:1;" />
<path d="M 397.242188 326.621094 L 361.933594 326.621094 C 347.304688 326.621094 335.449219 314.761719 335.449219 300.136719 L 335.449219 229.515625 C 335.449219 214.890625 347.304688 203.035156 361.933594 203.035156 L 397.242188 203.035156 C 411.867188 203.035156 423.722656 214.890625 423.722656 229.515625 C 423.722656 234.390625 419.773438 238.34375 414.898438 238.34375 C 410.023438 238.34375 406.070312 234.390625 406.070312 229.515625 C 406.070312 224.640625 402.117188 220.691406 397.242188 220.691406 L 361.933594 220.691406 C 357.058594 220.691406 353.105469 224.640625 353.105469 229.515625 L 353.105469 300.136719 C 353.105469 305.011719 357.058594 308.964844 361.933594 308.964844 L 397.242188 308.964844 C 402.117188 308.964844 406.070312 305.011719 406.070312 300.136719 C 406.070312 295.261719 410.023438 291.308594 414.898438 291.308594 C 419.773438 291.308594 423.722656 295.261719 423.722656 300.136719 C 423.722656 314.765625 411.867188 326.621094 397.242188 326.621094 Z M 397.242188 326.621094 " style=" stroke:none;fill-rule:nonzero;fill:rgb(92.941176%,10.980392%,14.117647%);fill-opacity:1;" />
</g>
</svg>