<svg xmlns="http://www.w3.org/2000/svg" height="512pt" version="1.1" viewBox="-26 0 512 512.00002" width="512pt">
<g id="surface1">
<path d="M 88.277344 344.277344 L 88.277344 185.378906 C 88.304688 175.640625 96.191406 167.753906 105.929688 167.722656 L 406.070312 167.722656 L 406.070312 17.65625 C 406.039062 7.917969 398.152344 0.0273438 388.414062 0 L 114.757812 0 L 114.757812 88.277344 C 114.757812 98.027344 106.855469 105.929688 97.105469 105.929688 L 0 105.929688 L 0 494.34375 C 0.0273438 504.082031 7.917969 511.96875 17.65625 512 L 388.414062 512 C 398.152344 511.96875 406.039062 504.082031 406.070312 494.34375 L 406.070312 361.929688 L 105.929688 361.929688 C 96.191406 361.902344 88.304688 354.015625 88.277344 344.277344 Z M 88.277344 344.277344 " style=" stroke:none;fill-rule:nonzero;fill:rgb(100%,91.372549%,80%);fill-opacity:1;" />
<path d="M 114.757812 512 L 388.414062 512 C 398.164062 512 406.070312 504.09375 406.070312 494.34375 L 406.070312 239.148438 C 357.847656 371.226562 249.707031 472.515625 114.757812 512 Z M 114.757812 512 " style=" stroke:none;fill-rule:nonzero;fill:rgb(100%,88.627451%,74.117647%);fill-opacity:1;" />
<path d="M 441.378906 167.722656 L 105.929688 167.722656 C 96.191406 167.753906 88.304688 175.640625 88.277344 185.378906 L 88.277344 344.273438 C 88.304688 354.015625 96.191406 361.902344 105.929688 361.929688 L 441.378906 361.929688 C 451.117188 361.902344 459.007812 354.015625 459.035156 344.273438 L 459.035156 185.378906 C 459.003906 175.640625 451.117188 167.753906 441.378906 167.722656 Z M 185.378906 264.828125 L 132.414062 264.828125 L 132.414062 317.792969 L 132.414062 211.863281 L 132.414062 264.828125 Z M 308.964844 247.171875 C 308.964844 256.921875 301.0625 264.828125 291.3125 264.828125 L 238.34375 264.828125 L 238.34375 211.859375 L 291.3125 211.859375 C 301.0625 211.859375 308.964844 219.765625 308.964844 229.515625 Z M 414.898438 229.515625 C 415.140625 220.011719 407.632812 212.113281 398.128906 211.867188 C 397.984375 211.863281 397.835938 211.863281 397.691406 211.863281 L 361.929688 211.863281 C 352.179688 211.863281 344.277344 219.765625 344.277344 229.515625 L 344.277344 247.171875 C 344.277344 256.921875 352.179688 264.828125 361.929688 264.828125 L 397.242188 264.828125 C 406.992188 264.828125 414.894531 272.730469 414.894531 282.480469 L 414.894531 300.136719 C 414.894531 309.886719 406.992188 317.792969 397.242188 317.792969 L 361.929688 317.792969 C 352.269531 317.792969 344.402344 310.027344 344.277344 300.367188 C 344.402344 310.027344 352.269531 317.792969 361.929688 317.792969 L 397.242188 317.792969 C 406.992188 317.792969 414.894531 309.886719 414.894531 300.136719 L 414.894531 282.480469 C 414.894531 272.730469 406.992188 264.828125 397.242188 264.828125 L 361.929688 264.828125 C 352.179688 264.828125 344.277344 256.921875 344.277344 247.171875 L 344.277344 229.515625 C 344.277344 219.765625 352.179688 211.863281 361.929688 211.863281 L 397.691406 211.863281 C 407.199219 211.863281 414.902344 219.574219 414.902344 229.078125 C 414.902344 229.226562 414.898438 229.371094 414.898438 229.515625 Z M 414.898438 229.515625 " style=" stroke:none;fill-rule:nonzero;fill:rgb(79.215686%,99.215686%,100%);fill-opacity:1;" />
<path d="M 291.308594 211.863281 L 238.34375 211.863281 L 238.34375 264.828125 L 291.308594 264.828125 C 301.0625 264.828125 308.964844 256.921875 308.964844 247.171875 L 308.964844 229.519531 C 308.964844 219.765625 301.0625 211.863281 291.308594 211.863281 Z M 291.308594 211.863281 " style=" stroke:none;fill-rule:nonzero;fill:rgb(79.215686%,99.215686%,100%);fill-opacity:1;" />
<path d="M 114.757812 88.277344 L 114.757812 0 L 0 105.929688 L 97.105469 105.929688 C 106.855469 105.929688 114.757812 98.027344 114.757812 88.277344 Z M 114.757812 88.277344 " style=" stroke:none;fill-rule:nonzero;fill:rgb(100%,66.27451%,57.647059%);fill-opacity:1;" />
<path d="M 238.34375 326.621094 C 233.46875 326.621094 229.519531 322.667969 229.519531 317.792969 L 229.519531 211.863281 C 229.519531 206.988281 233.46875 203.035156 238.34375 203.035156 L 291.3125 203.035156 C 305.9375 203.035156 317.792969 214.890625 317.792969 229.515625 L 317.792969 247.171875 C 317.792969 261.796875 305.9375 273.65625 291.3125 273.65625 L 247.171875 273.65625 L 247.171875 317.792969 C 247.171875 322.667969 243.21875 326.621094 238.34375 326.621094 Z M 247.171875 256 L 291.3125 256 C 296.1875 256 300.140625 252.046875 300.140625 247.171875 L 300.140625 229.515625 C 300.140625 224.640625 296.1875 220.691406 291.3125 220.691406 L 247.171875 220.691406 Z M 247.171875 256 " style=" stroke:none;fill-rule:nonzero;fill:rgb(92.941176%,10.980392%,14.117647%);fill-opacity:1;" />
<path d="M 397.242188 273.65625 L 361.933594 273.65625 C 347.304688 273.65625 335.449219 261.796875 335.449219 247.171875 L 335.449219 229.519531 C 335.449219 214.890625 347.304688 203.035156 361.933594 203.035156 L 397.691406 203.035156 C 412.078125 203.042969 423.738281 214.707031 423.730469 229.097656 C 423.730469 229.296875 423.730469 229.496094 423.722656 229.695312 C 423.449219 234.464844 419.566406 238.226562 414.789062 238.347656 C 409.957031 238.289062 406.070312 234.351562 406.070312 229.519531 C 406.175781 227.179688 405.316406 224.898438 403.683594 223.214844 C 402.113281 221.597656 399.949219 220.683594 397.691406 220.691406 L 361.929688 220.691406 C 357.054688 220.691406 353.105469 224.644531 353.105469 229.519531 L 353.105469 247.171875 C 353.105469 252.050781 357.054688 256 361.929688 256 L 397.242188 256 C 402.117188 256 406.070312 259.953125 406.070312 264.828125 C 406.070312 269.703125 402.117188 273.65625 397.242188 273.65625 Z M 397.242188 273.65625 " style=" stroke:none;fill-rule:nonzero;fill:rgb(92.941176%,10.980392%,14.117647%);fill-opacity:1;" />
<path d="M 397.242188 326.621094 L 361.933594 326.621094 C 347.460938 326.570312 335.691406 314.949219 335.449219 300.480469 C 335.382812 295.597656 339.253906 291.566406 344.136719 291.433594 L 344.277344 291.433594 C 349.066406 291.375 353.007812 295.1875 353.105469 299.976562 C 353.066406 304.894531 357.015625 308.917969 361.933594 308.964844 L 397.242188 308.964844 C 402.117188 308.964844 406.070312 305.011719 406.070312 300.136719 L 406.070312 282.480469 C 406.070312 277.605469 402.117188 273.65625 397.242188 273.65625 L 361.933594 273.65625 C 357.058594 273.65625 353.105469 269.703125 353.105469 264.828125 C 353.105469 259.953125 357.058594 256 361.933594 256 L 397.242188 256 C 411.867188 256 423.722656 267.855469 423.722656 282.480469 L 423.722656 300.136719 C 423.722656 314.765625 411.867188 326.621094 397.242188 326.621094 Z M 397.242188 326.621094 " style=" stroke:none;fill-rule:nonzero;fill:rgb(92.941176%,10.980392%,14.117647%);fill-opacity:1;" />
<path d="M 203.035156 326.621094 L 132.414062 326.621094 C 127.539062 326.621094 123.585938 322.667969 123.585938 317.792969 L 123.585938 211.863281 C 123.585938 206.988281 127.539062 203.035156 132.414062 203.035156 L 203.035156 203.035156 C 207.910156 203.035156 211.863281 206.988281 211.863281 211.863281 C 211.863281 216.738281 207.910156 220.691406 203.035156 220.691406 L 141.242188 220.691406 L 141.242188 308.964844 L 203.035156 308.964844 C 207.910156 308.964844 211.863281 312.917969 211.863281 317.792969 C 211.863281 322.667969 207.910156 326.621094 203.035156 326.621094 Z M 203.035156 326.621094 " style=" stroke:none;fill-rule:nonzero;fill:rgb(92.941176%,10.980392%,14.117647%);fill-opacity:1;" />
<path d="M 185.378906 273.65625 L 132.414062 273.65625 C 127.539062 273.65625 123.585938 269.703125 123.585938 264.828125 C 123.585938 259.953125 127.539062 256 132.414062 256 L 185.378906 256 C 190.253906 256 194.207031 259.953125 194.207031 264.828125 C 194.207031 269.703125 190.253906 273.65625 185.378906 273.65625 Z M 185.378906 273.65625 " style=" stroke:none;fill-rule:nonzero;fill:rgb(92.941176%,10.980392%,14.117647%);fill-opacity:1;" />
</g>
</svg>