<svg height="512pt" viewBox="0 0 512 512" width="512pt" xmlns="http://www.w3.org/2000/svg"><path d="m512 441.378906h-191.824219c35.398438 0 143.273438-6.179687 165.339844-79.710937l1.414063-.441407zm0 0" fill="#3d324c"/><path d="m486.929688 361.226562-1.414063.441407c-43.078125 34.515625-119.878906-15.183594-123.496094-17.570313 17.476563 35.3125-53.054687 97.015625-53.054687 97.015625s4.148437.265625 11.210937.265625h-320.175781l86.332031-276.304687c1.164063-3.695313 4.601563-6.199219 8.476563-6.175781h227.398437l120.585938 63.644531zm0 0" fill="#b49aca"/><path d="m512 441.378906v52.964844c-.027344 9.738281-7.917969 17.628906-17.65625 17.65625h-476.6875c-9.738281-.027344-17.6289062-7.917969-17.65625-17.65625v-52.964844zm0 0" fill="#7d6599"/><path d="m485.515625 361.667969c-22.066406 73.53125-129.941406 79.710937-165.339844 79.710937-7.0625 0-11.210937-.265625-11.210937-.265625s70.53125-61.703125 53.054687-97.015625c3.617188 2.386719 80.417969 52.085938 123.496094 17.570313zm0 0" fill="#7d6599"/><g fill="#3d324c"><path d="m97.101562 476.691406c0 4.875-3.949218 8.824219-8.824218 8.824219h-88.277344v-17.652344h88.277344c4.875 0 8.824218 3.949219 8.824218 8.828125zm0 0"/><path d="m512 467.863281v17.652344h-344.277344c-4.875 0-8.824218-3.949219-8.824218-8.824219 0-4.878906 3.949218-8.828125 8.824218-8.828125zm0 0"/><path d="m132.414062 220.691406h-17.65625c-4.875 0-8.828124-3.953125-8.828124-8.828125s3.953124-8.828125 8.828124-8.828125h17.65625c4.875 0 8.828126 3.953125 8.828126 8.828125s-3.953126 8.828125-8.828126 8.828125zm0 0"/><path d="m264.828125 220.691406h-97.105469c-4.875 0-8.824218-3.953125-8.824218-8.828125s3.949218-8.828125 8.824218-8.828125h97.105469c4.875 0 8.828125 3.953125 8.828125 8.828125s-3.953125 8.828125-8.828125 8.828125zm0 0"/><path d="m123.585938 264.828125h-17.65625c-4.875 0-8.828126-3.953125-8.828126-8.828125s3.953126-8.828125 8.828126-8.828125h17.65625c4.875 0 8.828124 3.953125 8.828124 8.828125s-3.953124 8.828125-8.828124 8.828125zm0 0"/><path d="m282.484375 264.828125h-123.585937c-4.878907 0-8.828126-3.953125-8.828126-8.828125s3.949219-8.828125 8.828126-8.828125h123.585937c4.875 0 8.824219 3.953125 8.824219 8.828125s-3.949219 8.828125-8.824219 8.828125zm0 0"/><path d="m114.757812 308.964844h-17.65625c-4.875 0-8.824218-3.953125-8.824218-8.828125s3.949218-8.828125 8.824218-8.828125h17.65625c4.875 0 8.828126 3.953125 8.828126 8.828125s-3.953126 8.828125-8.828126 8.828125zm0 0"/><path d="m423.722656 308.964844h-273.652344c-4.875 0-8.828124-3.953125-8.828124-8.828125s3.953124-8.828125 8.828124-8.828125h273.652344c4.875 0 8.828125 3.953125 8.828125 8.828125s-3.953125 8.828125-8.828125 8.828125zm0 0"/><path d="m105.929688 353.101562h-17.652344c-4.875 0-8.828125-3.949218-8.828125-8.824218s3.953125-8.828125 8.828125-8.828125h17.652344c4.875 0 8.828124 3.953125 8.828124 8.828125s-3.953124 8.824218-8.828124 8.824218zm0 0"/><path d="m326.621094 353.101562h-185.378906c-4.875 0-8.828126-3.949218-8.828126-8.824218s3.953126-8.828125 8.828126-8.828125h185.378906c4.875 0 8.828125 3.953125 8.828125 8.828125s-3.953125 8.824218-8.828125 8.824218zm0 0"/><path d="m97.101562 397.242188h-17.652343c-4.875 0-8.828125-3.953126-8.828125-8.828126s3.953125-8.828124 8.828125-8.828124h17.652343c4.878907 0 8.828126 3.953124 8.828126 8.828124s-3.949219 8.828126-8.828126 8.828126zm0 0"/><path d="m308.964844 397.242188h-176.550782c-4.875 0-8.828124-3.953126-8.828124-8.828126s3.953124-8.828124 8.828124-8.828124h176.550782c4.875 0 8.828125 3.953124 8.828125 8.828124s-3.953125 8.828126-8.828125 8.828126zm0 0"/></g><path d="m423.722656 37.074219c41.089844 8.421875 70.597656 44.570312 70.621094 86.511719v48.675781c.363281 10.34375 4.851562 20.113281 12.464844 27.128906 3.320312 3.300781 5.1875 7.789063 5.191406 12.472656-.070312 9.71875-7.933594 17.582031-17.65625 17.652344h-175.5625c-9.390625.179687-17.394531-6.769531-18.539062-16.089844-.484376-5.207031 1.402343-10.355469 5.140624-14.011719l.246094-.246093c7.503906-6.957031 11.890625-16.640625 12.164063-26.871094v-48.710937c.050781-41.933594 29.546875-78.066407 70.621093-86.511719v-18.34375c-.214843-8.878907 5.941407-16.652344 14.636719-18.472657 5.132813-.875 10.386719.550782 14.371094 3.902344 3.984375 3.355469 6.289063 8.289063 6.300781 13.496094zm0 0" fill="#f0c419"/><path d="m512 211.863281c-.070312 9.71875-7.933594 17.582031-17.65625 17.652344h-88.273438v-229.515625c9.738282.0273438 17.625 7.917969 17.652344 17.65625v19.417969c41.089844 8.421875 70.597656 44.570312 70.621094 86.511719v48.640624c.371094 10.355469 4.851562 20.140626 12.449219 27.1875 3.3125 3.296876 5.1875 7.773438 5.207031 12.449219zm0 0" fill="#f3d55b"/><path d="m370.757812 203.035156h-17.65625c-4.875 0-8.824218-3.953125-8.824218-8.828125s3.949218-8.828125 8.824218-8.828125h17.65625c4.875 0 8.828126 3.953125 8.828126 8.828125s-3.953126 8.828125-8.828126 8.828125zm0 0" fill="#f9eab0"/><path d="m459.035156 203.035156h-52.964844c-4.875 0-8.828124-3.953125-8.828124-8.828125s3.953124-8.828125 8.828124-8.828125h52.964844c4.875 0 8.828125 3.953125 8.828125 8.828125s-3.953125 8.828125-8.828125 8.828125zm0 0" fill="#f9eab0"/></svg>