<svg height="512pt" viewBox="0 0 512 512" width="512pt" xmlns="http://www.w3.org/2000/svg"><path d="m335.449219 432.550781-75.035157-191.8125c-2.652343-6.777343-9.1875-11.230469-16.464843-11.222656h-152.453125c-7.273438-.007813-13.808594 4.445313-16.460938 11.222656l-75.035156 191.8125" fill="#fb7b76"/><path d="m335.449219 432.550781v61.792969c-.03125 9.738281-7.917969 17.628906-17.65625 17.65625h-300.136719c-9.738281-.027344-17.6289062-7.917969-17.65625-17.65625v-61.792969zm0 0" fill="#ff5364"/><path d="m61.792969 467.863281c0 4.875-3.953125 8.828125-8.828125 8.828125h-52.964844v-17.65625h52.964844c4.875 0 8.828125 3.953125 8.828125 8.828125zm0 0" fill="#df4d60"/><path d="m335.449219 459.035156v17.65625h-238.347657c-4.875 0-8.824218-3.953125-8.824218-8.828125s3.949218-8.828125 8.824218-8.828125zm0 0" fill="#df4d60"/><path d="m114.757812 256c-4.875 0-8.828124-3.953125-8.828124-8.828125v-44.136719c0-4.875 3.953124-8.828125 8.828124-8.828125s8.828126 3.953125 8.828126 8.828125v44.136719c0 4.875-3.953126 8.828125-8.828126 8.828125zm0 0" fill="#95a5a5"/><path d="m220.691406 256c-4.878906 0-8.828125-3.953125-8.828125-8.828125v-44.136719c0-4.875 3.949219-8.828125 8.828125-8.828125 4.875 0 8.824219 3.953125 8.824219 8.828125v44.136719c0 4.875-3.949219 8.828125-8.824219 8.828125zm0 0" fill="#95a5a5"/><g fill="#df4d60"><path d="m105.929688 300.136719h-17.652344c-4.875 0-8.828125-3.949219-8.828125-8.828125 0-4.875 3.953125-8.824219 8.828125-8.824219h17.652344c4.875 0 8.828124 3.949219 8.828124 8.824219 0 4.878906-3.953124 8.828125-8.828124 8.828125zm0 0"/><path d="m247.171875 300.136719h-105.929687c-4.875 0-8.828126-3.949219-8.828126-8.828125 0-4.875 3.953126-8.824219 8.828126-8.824219h105.929687c4.875 0 8.828125 3.949219 8.828125 8.824219 0 4.878906-3.953125 8.828125-8.828125 8.828125zm0 0"/><path d="m97.101562 344.277344h-17.652343c-4.875 0-8.828125-3.953125-8.828125-8.828125s3.953125-8.828125 8.828125-8.828125h17.652343c4.878907 0 8.828126 3.953125 8.828126 8.828125s-3.949219 8.828125-8.828126 8.828125zm0 0"/><path d="m256 344.277344h-123.585938c-4.875 0-8.828124-3.953125-8.828124-8.828125s3.953124-8.828125 8.828124-8.828125h123.585938c4.875 0 8.828125 3.953125 8.828125 8.828125s-3.953125 8.828125-8.828125 8.828125zm0 0"/><path d="m88.277344 388.414062h-17.65625c-4.875 0-8.828125-3.953124-8.828125-8.828124s3.953125-8.828126 8.828125-8.828126h17.65625c4.875 0 8.824218 3.953126 8.824218 8.828126s-3.949218 8.828124-8.824218 8.828124zm0 0"/><path d="m273.65625 388.414062h-150.070312c-4.875 0-8.828126-3.953124-8.828126-8.828124s3.953126-8.828126 8.828126-8.828126h150.070312c4.875 0 8.828125 3.953126 8.828125 8.828126s-3.953125 8.828124-8.828125 8.828124zm0 0"/></g><path d="m512 273.65625v4.414062c0 18.714844-30.101562 34.339844-70.621094 38.574219v-42.988281c11.570313-10.316406 20.269532-23.457031 25.246094-38.136719 6.96875-18.867187 10.378906-38.859375 10.066406-58.96875l.96875-.882812c18.363282 20.128906 34.339844 51.023437 34.339844 97.988281zm0 0" fill="#35495e"/><path d="m441.378906 273.65625v42.988281c-7.328125.792969-14.695312 1.175781-22.070312 1.148438-51.199219 0-92.6875-17.742188-92.6875-39.722657v-4.414062c0-54.554688 21.539062-87.484375 43.34375-106.816406l.792968.882812c8.402344 26.828125 20.621094 52.308594 36.28125 75.652344v.089844c8.429688 13.050781 20.320313 23.5 34.339844 30.191406zm0 0" fill="#2c3e50"/><path d="m494.34375 88.277344c.941406 28.007812-10.179688 55.070312-30.542969 74.328125h-.085937c-6.84375 6.050781-15.054688 10.355469-23.925782 12.535156-3.808593.957031-7.722656 1.429687-11.652343 1.410156-1.410157 0-2.910157-.085937-4.324219-.175781-15.179688-1.699219-29.085938-9.273438-38.753906-21.097656-8.363282-9.804688-14.5625-21.265625-18.183594-33.632813 8.5625-3.882812 25.335938-13.242187 25.335938-28.335937 1.269531-18.199219 13.679687-33.707032 31.160156-38.929688 10.679687 10.414063 32.484375 24.980469 70.621094 25.070313.265624 2.914062.351562 5.824219.351562 8.828125zm0 0" fill="#fdd7ad"/><path d="m493.992188 79.449219c-38.136719-.089844-59.941407-14.65625-70.621094-25.070313-17.480469 5.222656-29.890625 20.730469-31.160156 38.929688 0 15.09375-16.773438 24.453125-25.335938 28.335937-3.308594-10.8125-4.976562-22.0625-4.945312-33.367187 0-48.730469 29.660156-88.277344 66.207031-88.277344 34.339843 0 62.589843 34.867188 65.855469 79.449219zm0 0" fill="#7f5b53"/><path d="m423.8125 176.375-.089844.175781-16.683594 66.824219c-15.660156-23.34375-27.878906-48.824219-36.28125-75.652344l-.792968-.882812c4.730468-4.230469 9.777344-8.09375 15.09375-11.5625 9.667968 11.824218 23.574218 19.398437 38.753906 21.097656zm0 0" fill="#ecf0f1"/><path d="m477.660156 175.667969-.96875.882812c.3125 20.109375-3.097656 40.101563-10.066406 58.96875l-26.835938-60.378906c8.871094-2.179687 17.082032-6.484375 23.925782-12.535156h.085937c4.941407 4 9.574219 8.367187 13.859375 13.0625zm0 0" fill="#ecf0f1"/><path d="m466.625 235.519531c-4.976562 14.679688-13.675781 27.820313-25.246094 38.136719-14.019531-6.691406-25.910156-17.140625-34.339844-30.191406v-.089844l16.683594-66.824219.089844-.175781c1.414062.089844 2.914062.175781 4.324219.175781 3.929687.019531 7.84375-.453125 11.652343-1.410156zm0 0" fill="#e64c3c"/><path d="m414.898438 459.035156h-52.96875c-4.875 0-8.828126-3.953125-8.828126-8.828125s3.953126-8.828125 8.828126-8.828125h52.96875c4.875 0 8.824218-3.953125 8.824218-8.828125v-54.28125l-19.585937 24.488281c-3.054688 3.773438-8.582031 4.371094-12.375 1.339844-3.789063-3.03125-4.421875-8.554687-1.414063-12.363281l35.308594-44.140625c2.34375-2.925781 6.277344-4.054688 9.8125-2.816406 3.539062 1.238281 5.910156 4.578125 5.910156 8.324218v79.449219c0 14.628907-11.855468 26.484375-26.480468 26.484375zm0 0" fill="#3d324c"/><path d="m467.863281 406.070312c-2.6875.003907-5.226562-1.214843-6.90625-3.3125l-35.308593-44.136718c-3.042969-3.808594-2.425782-9.367188 1.386718-12.410156 3.808594-3.046876 9.367188-2.425782 12.410156 1.382812l35.3125 44.140625c2.113282 2.648437 2.527344 6.277344 1.054688 9.332031-1.46875 3.058594-4.558594 5-7.949219 5.003906zm0 0" fill="#3d324c"/></svg>