<svg xmlns="http://www.w3.org/2000/svg" height="628pt" version="1.1" viewBox="-32 0 628 628" width="628pt">
<g id="surface1">
<path d="M 21.601562 563 L 355.5 563 C 354.101562 559.898438 353 556.800781 351.898438 553.601562 C 351.601562 552.601562 351.300781 551.5 351 550.5 C 350.300781 548.300781 349.699219 546 349.199219 543.699219 C 348.898438 542.5 348.699219 541.199219 348.398438 540 C 348 537.800781 347.601562 535.601562 347.300781 533.398438 C 347.101562 532.101562 347 530.800781 346.898438 529.601562 C 346.699219 527.199219 346.601562 524.800781 346.5 522.398438 C 346.5 521.5 346.398438 520.699219 346.398438 519.800781 C 346.398438 519.5 346.398438 519.199219 346.398438 518.898438 C 346.398438 516.199219 346.601562 513.5 346.800781 510.800781 C 346.898438 510 346.898438 509.199219 346.898438 508.5 C 347.601562 501.699219 348.898438 495 350.800781 488.5 C 361.101562 453.601562 388.398438 426.398438 423.199219 416.101562 C 429.699219 414.199219 436.5 412.898438 443.199219 412.199219 C 444 412.101562 444.800781 412.101562 445.601562 412 C 448.300781 411.800781 451 411.601562 453.601562 411.601562 C 453.898438 411.601562 454.199219 411.601562 454.5 411.601562 C 455.398438 411.601562 456.199219 411.699219 457.101562 411.699219 C 459.5 411.800781 461.898438 411.898438 464.300781 412.101562 C 465.601562 412.199219 466.898438 412.398438 468.101562 412.5 C 470.300781 412.800781 472.601562 413.101562 474.699219 413.601562 C 476 413.800781 477.199219 414.101562 478.398438 414.398438 C 480.699219 414.898438 482.898438 415.5 485.101562 416.199219 C 486.199219 416.5 487.300781 416.800781 488.199219 417.101562 C 491.398438 418.199219 494.601562 419.300781 497.601562 420.699219 L 497.601562 21.699219 C 497.601562 9.699219 487.898438 0 475.898438 0 L 140.699219 0 L 140.699219 108.300781 C 140.699219 120.300781 131 130 119 130 L 0 130 L 0 541.398438 C 0 553.300781 9.699219 563 21.601562 563 Z M 411.398438 216.601562 Z M 129.898438 216.601562 Z M 411.398438 281.5 Z M 411.398438 346.5 Z M 357.300781 411.398438 Z M 314 476.398438 Z M 314 476.398438 " style=" stroke:none;fill-rule:nonzero;fill:rgb(100%,91.372549%,80%);fill-opacity:1;" />
<path d="M 140.699219 563 L 476.398438 563 C 488.398438 563 498.101562 553.300781 498.101562 541.300781 L 498.101562 228.300781 C 438.898438 390.398438 306.300781 514.601562 140.699219 563 Z M 140.699219 563 " style=" stroke:none;fill-rule:nonzero;fill:rgb(100%,88.627451%,74.117647%);fill-opacity:1;" />
<path d="M 355.601562 563 C 354.199219 559.898438 353.101562 556.800781 352 553.601562 C 353 556.800781 354.199219 560 355.601562 563 Z M 355.601562 563 " style=" stroke:none;fill-rule:nonzero;fill:rgb(100%,91.372549%,80%);fill-opacity:1;" />
<path d="M 348.5 540 C 348.101562 537.800781 347.699219 535.601562 347.398438 533.398438 C 347.699219 535.601562 348.101562 537.800781 348.5 540 Z M 348.5 540 " style=" stroke:none;fill-rule:nonzero;fill:rgb(100%,91.372549%,80%);fill-opacity:1;" />
<path d="M 351 550.5 C 350.300781 548.300781 349.699219 546 349.199219 543.699219 C 349.699219 546 350.398438 548.300781 351 550.5 Z M 351 550.5 " style=" stroke:none;fill-rule:nonzero;fill:rgb(100%,91.372549%,80%);fill-opacity:1;" />
<path d="M 457.300781 411.601562 C 459.699219 411.699219 462.101562 411.800781 464.5 412 C 462.101562 411.800781 459.699219 411.601562 457.300781 411.601562 Z M 457.300781 411.601562 " style=" stroke:none;fill-rule:nonzero;fill:rgb(100%,91.372549%,80%);fill-opacity:1;" />
<path d="M 478.800781 414.199219 C 481.101562 414.699219 483.300781 415.300781 485.5 416 C 483.300781 415.398438 481 414.699219 478.800781 414.199219 Z M 478.800781 414.199219 " style=" stroke:none;fill-rule:nonzero;fill:rgb(100%,91.372549%,80%);fill-opacity:1;" />
<path d="M 468.398438 412.398438 C 470.601562 412.699219 472.898438 413 475 413.5 C 472.800781 413 470.601562 412.699219 468.398438 412.398438 Z M 468.398438 412.398438 " style=" stroke:none;fill-rule:nonzero;fill:rgb(100%,91.372549%,80%);fill-opacity:1;" />
<path d="M 498.101562 420.5 C 495 419.101562 491.898438 418 488.699219 416.898438 C 491.800781 418 495 419.199219 498.101562 420.5 Z M 498.101562 420.5 " style=" stroke:none;fill-rule:nonzero;fill:rgb(100%,91.372549%,80%);fill-opacity:1;" />
<path d="M 443.398438 412.101562 C 436.601562 412.800781 429.898438 414.101562 423.398438 416 C 388.601562 426.300781 361.300781 453.601562 351 488.398438 C 349.101562 494.898438 347.800781 501.601562 347.101562 508.398438 C 352.398438 457.601562 392.601562 417.398438 443.398438 412.101562 Z M 443.398438 412.101562 " style=" stroke:none;fill-rule:nonzero;fill:rgb(100%,91.372549%,80%);fill-opacity:1;" />
<path d="M 346.5 518.898438 C 346.5 516.199219 346.699219 513.5 346.898438 510.800781 C 346.699219 513.5 346.5 516.199219 346.5 518.898438 Z M 346.5 518.898438 " style=" stroke:none;fill-rule:nonzero;fill:rgb(100%,91.372549%,80%);fill-opacity:1;" />
<path d="M 445.800781 411.898438 C 448.5 411.699219 451.101562 411.5 453.800781 411.5 C 451.199219 411.5 448.5 411.699219 445.800781 411.898438 Z M 445.800781 411.898438 " style=" stroke:none;fill-rule:nonzero;fill:rgb(100%,91.372549%,80%);fill-opacity:1;" />
<path d="M 347 529.5 C 346.800781 527.101562 346.699219 524.699219 346.601562 522.300781 C 346.699219 524.699219 346.800781 527.101562 347 529.5 Z M 347 529.5 " style=" stroke:none;fill-rule:nonzero;fill:rgb(100%,91.372549%,80%);fill-opacity:1;" />
<path d="M 140.699219 108.300781 L 140.699219 0 L 0 129.898438 L 119.101562 129.898438 C 131 129.898438 140.699219 120.199219 140.699219 108.300781 Z M 140.699219 108.300781 " style=" stroke:none;fill-rule:nonzero;fill:rgb(100%,66.27451%,57.647059%);fill-opacity:1;" />
<path d="M 563 519.699219 C 563 579.601562 514.398438 628 454.601562 628 C 429.699219 628 405.5 619.398438 386.199219 603.601562 C 383.398438 601.199219 380.800781 598.800781 378.199219 596.199219 C 375.601562 593.601562 373.199219 590.898438 370.898438 588.101562 C 364.601562 580.5 359.5 572 355.5 563 C 354.199219 560 353 556.800781 351.898438 553.601562 C 351.601562 552.601562 351.300781 551.5 350.898438 550.5 C 350.199219 548.300781 349.601562 546.101562 349.199219 543.800781 C 348.898438 542.5 348.699219 541.300781 348.398438 540 C 347.898438 537.800781 347.601562 535.601562 347.300781 533.398438 C 347.101562 532.101562 347 530.800781 346.898438 529.5 C 346.699219 527.101562 346.601562 524.699219 346.5 522.398438 C 346.5 521.199219 346.398438 520.101562 346.398438 518.898438 C 346.5 516.199219 346.601562 513.5 346.800781 510.800781 C 346.898438 510 346.898438 509.300781 347 508.398438 C 352.300781 457.601562 392.5 417.5 443.300781 412.101562 C 444.199219 412 444.898438 412 445.800781 411.898438 C 448.398438 411.699219 451.101562 411.601562 453.800781 411.5 C 455 411.5 456.101562 411.601562 457.300781 411.601562 C 459.699219 411.699219 462.101562 411.800781 464.398438 412 C 465.699219 412.101562 467 412.199219 468.300781 412.398438 C 470.5 412.601562 472.699219 413 474.898438 413.5 C 476.199219 413.699219 477.398438 413.898438 478.699219 414.300781 C 481 414.800781 483.199219 415.300781 485.398438 416 C 486.5 416.300781 487.601562 416.601562 488.5 417 C 491.699219 418.101562 494.898438 419.300781 497.898438 420.601562 C 506.898438 424.5 515.398438 429.699219 523 436 C 525.800781 438.300781 528.5 440.699219 531.101562 443.300781 C 533.699219 445.898438 536.101562 448.5 538.5 451.300781 C 554.398438 470.5 563 494.800781 563 519.699219 Z M 563 519.699219 " style=" stroke:none;fill-rule:nonzero;fill:rgb(100%,45.098039%,30.980392%);fill-opacity:1;" />
<path d="M 454.699219 411.398438 C 454.398438 411.398438 454.101562 411.398438 453.800781 411.398438 C 455 411.398438 456.101562 411.5 457.300781 411.5 C 456.398438 411.601562 455.601562 411.398438 454.699219 411.398438 Z M 454.699219 411.398438 " style=" stroke:none;fill-rule:nonzero;fill:rgb(100%,91.372549%,80%);fill-opacity:1;" />
<path d="M 347.398438 533.398438 C 347.199219 532.101562 347.101562 530.800781 347 529.601562 C 347.101562 530.800781 347.300781 532.101562 347.398438 533.398438 Z M 347.398438 533.398438 " style=" stroke:none;fill-rule:nonzero;fill:rgb(100%,91.372549%,80%);fill-opacity:1;" />
<path d="M 349.199219 543.699219 C 348.898438 542.5 348.699219 541.199219 348.398438 540 C 348.699219 541.300781 349 542.5 349.199219 543.699219 Z M 349.199219 543.699219 " style=" stroke:none;fill-rule:nonzero;fill:rgb(100%,91.372549%,80%);fill-opacity:1;" />
<path d="M 346.5 519.699219 C 346.5 520.601562 346.601562 521.398438 346.601562 522.300781 C 346.601562 521.199219 346.5 520 346.5 518.898438 C 346.5 519.199219 346.5 519.398438 346.5 519.699219 Z M 346.5 519.699219 " style=" stroke:none;fill-rule:nonzero;fill:rgb(100%,91.372549%,80%);fill-opacity:1;" />
<path d="M 443.398438 412.101562 C 444.199219 412 445 412 445.800781 411.898438 C 445 412 444.199219 412 443.398438 412.101562 Z M 443.398438 412.101562 " style=" stroke:none;fill-rule:nonzero;fill:rgb(100%,91.372549%,80%);fill-opacity:1;" />
<path d="M 352 553.601562 C 351.699219 552.601562 351.398438 551.5 351.101562 550.5 C 351.398438 551.5 351.601562 552.601562 352 553.601562 Z M 352 553.601562 " style=" stroke:none;fill-rule:nonzero;fill:rgb(100%,91.372549%,80%);fill-opacity:1;" />
<path d="M 475 413.5 C 476.300781 413.699219 477.5 414 478.699219 414.300781 C 477.5 413.898438 476.300781 413.699219 475 413.5 Z M 475 413.5 " style=" stroke:none;fill-rule:nonzero;fill:rgb(100%,91.372549%,80%);fill-opacity:1;" />
<path d="M 464.5 412 C 465.800781 412.101562 467.101562 412.300781 468.300781 412.398438 C 467.101562 412.199219 465.800781 412.101562 464.5 412 Z M 464.5 412 " style=" stroke:none;fill-rule:nonzero;fill:rgb(100%,91.372549%,80%);fill-opacity:1;" />
<path d="M 485.5 416 C 486.601562 416.300781 487.699219 416.601562 488.601562 416.898438 C 487.601562 416.601562 486.601562 416.300781 485.5 416 Z M 485.5 416 " style=" stroke:none;fill-rule:nonzero;fill:rgb(100%,91.372549%,80%);fill-opacity:1;" />
<path d="M 346.898438 510.699219 C 347 509.898438 347 509.199219 347 508.398438 C 347 509.199219 347 510 346.898438 510.699219 Z M 346.898438 510.699219 " style=" stroke:none;fill-rule:nonzero;fill:rgb(100%,91.372549%,80%);fill-opacity:1;" />
<path d="M 411.398438 292.300781 L 86.601562 292.300781 C 80.601562 292.300781 75.800781 287.5 75.800781 281.5 C 75.800781 275.5 80.601562 270.699219 86.601562 270.699219 L 411.398438 270.699219 C 417.398438 270.699219 422.199219 275.5 422.199219 281.5 C 422.300781 287.5 417.398438 292.300781 411.398438 292.300781 Z M 411.398438 292.300781 " style=" stroke:none;fill-rule:nonzero;fill:rgb(100%,47.45098%,33.72549%);fill-opacity:1;" />
<path d="M 411.398438 357.300781 L 86.601562 357.300781 C 80.601562 357.300781 75.800781 352.5 75.800781 346.5 C 75.800781 340.5 80.601562 335.699219 86.601562 335.699219 L 411.398438 335.699219 C 417.398438 335.699219 422.199219 340.5 422.199219 346.5 C 422.199219 352.5 417.398438 357.300781 411.398438 357.300781 Z M 411.398438 357.300781 " style=" stroke:none;fill-rule:nonzero;fill:rgb(100%,47.45098%,33.72549%);fill-opacity:1;" />
<path d="M 357.300781 422.300781 L 86.601562 422.300781 C 80.601562 422.300781 75.800781 417.5 75.800781 411.5 C 75.800781 405.5 80.601562 400.699219 86.601562 400.699219 L 357.300781 400.699219 C 363.300781 400.699219 368.101562 405.5 368.101562 411.5 C 368.101562 417.398438 363.300781 422.300781 357.300781 422.300781 Z M 357.300781 422.300781 " style=" stroke:none;fill-rule:nonzero;fill:rgb(100%,47.45098%,33.72549%);fill-opacity:1;" />
<path d="M 314 487.199219 L 86.601562 487.199219 C 80.601562 487.199219 75.800781 482.398438 75.800781 476.398438 C 75.800781 470.398438 80.601562 465.601562 86.601562 465.601562 L 314 465.601562 C 320 465.601562 324.800781 470.398438 324.800781 476.398438 C 324.800781 482.398438 320 487.199219 314 487.199219 Z M 314 487.199219 " style=" stroke:none;fill-rule:nonzero;fill:rgb(100%,47.45098%,33.72549%);fill-opacity:1;" />
<path d="M 411.398438 227.398438 L 173.199219 227.398438 C 167.199219 227.398438 162.398438 222.601562 162.398438 216.601562 C 162.398438 210.601562 167.199219 205.800781 173.199219 205.800781 L 411.398438 205.800781 C 417.398438 205.800781 422.199219 210.601562 422.199219 216.601562 C 422.300781 222.5 417.398438 227.398438 411.398438 227.398438 Z M 411.398438 227.398438 " style=" stroke:none;fill-rule:nonzero;fill:rgb(100%,47.45098%,33.72549%);fill-opacity:1;" />
<path d="M 129.898438 227.398438 L 86.601562 227.398438 C 80.601562 227.398438 75.800781 222.601562 75.800781 216.601562 C 75.800781 210.601562 80.601562 205.800781 86.601562 205.800781 L 129.898438 205.800781 C 135.898438 205.800781 140.699219 210.601562 140.699219 216.601562 C 140.699219 222.5 135.898438 227.398438 129.898438 227.398438 Z M 129.898438 227.398438 " style=" stroke:none;fill-rule:nonzero;fill:rgb(100%,47.45098%,33.72549%);fill-opacity:1;" />
<path d="M 538.699219 451.199219 L 386.199219 603.601562 C 383.398438 601.199219 380.800781 598.800781 378.199219 596.199219 C 375.601562 593.601562 373.199219 590.898438 370.898438 588.101562 L 523.101562 435.898438 C 525.898438 438.199219 528.601562 440.601562 531.199219 443.199219 C 533.898438 445.800781 536.300781 448.398438 538.699219 451.199219 Z M 538.699219 451.199219 " style=" stroke:none;fill-rule:nonzero;fill:rgb(94.509804%,94.901961%,94.901961%);fill-opacity:1;" />
</g>
</svg>