<svg height="512pt" viewBox="0 0 512 512" width="512pt" xmlns="http://www.w3.org/2000/svg"><path d="m512 441.378906h-191.824219c35.398438 0 143.273438-6.179687 165.339844-79.710937l1.414063-.441407zm0 0" fill="#4482c3"/><path d="m486.929688 361.226562-1.414063.441407c-43.078125 34.515625-119.878906-15.183594-123.496094-17.570313 17.476563 35.3125-53.054687 97.015625-53.054687 97.015625s4.148437.265625 11.210937.265625h-320.175781l86.332031-276.304687c1.164063-3.695313 4.601563-6.199219 8.476563-6.175781h322.382812c3.875-.023438 7.3125 2.480468 8.476563 6.175781zm0 0" fill="#b0d3f0"/><path d="m512 441.378906v52.964844c-.027344 9.738281-7.917969 17.628906-17.65625 17.65625h-476.6875c-9.738281-.027344-17.6289062-7.917969-17.65625-17.65625v-52.964844zm0 0" fill="#285680"/><path d="m485.515625 361.667969c-22.066406 73.53125-129.941406 79.710937-165.339844 79.710937-7.0625 0-11.210937-.265625-11.210937-.265625s70.53125-61.703125 53.054687-97.015625c3.617188 2.386719 80.417969 52.085938 123.496094 17.570313zm0 0" fill="#90bae1"/><path d="m97.101562 476.691406c0 4.875-3.949218 8.824219-8.824218 8.824219h-88.277344v-17.652344h88.277344c4.875 0 8.824218 3.949219 8.824218 8.828125zm0 0" fill="#4482c3"/><path d="m512 467.863281v17.652344h-344.277344c-4.875 0-8.824218-3.949219-8.824218-8.824219 0-4.878906 3.949218-8.828125 8.824218-8.828125zm0 0" fill="#4482c3"/><g fill="#285680"><path d="m132.414062 211.863281h-8.828124c-4.875 0-8.828126-3.953125-8.828126-8.828125s3.953126-8.828125 8.828126-8.828125h8.828124c4.875 0 8.828126 3.953125 8.828126 8.828125s-3.953126 8.828125-8.828126 8.828125zm0 0"/><path d="m238.34375 211.863281h-70.621094c-4.875 0-8.824218-3.953125-8.824218-8.828125s3.949218-8.828125 8.824218-8.828125h70.621094c4.875 0 8.828125 3.953125 8.828125 8.828125s-3.953125 8.828125-8.828125 8.828125zm0 0"/><path d="m123.585938 256h-8.828126c-4.875 0-8.828124-3.953125-8.828124-8.828125s3.953124-8.828125 8.828124-8.828125h8.828126c4.875 0 8.828124 3.953125 8.828124 8.828125s-3.953124 8.828125-8.828124 8.828125zm0 0"/><path d="m238.34375 256h-79.445312c-4.878907 0-8.828126-3.953125-8.828126-8.828125s3.949219-8.828125 8.828126-8.828125h79.445312c4.875 0 8.828125 3.953125 8.828125 8.828125s-3.953125 8.828125-8.828125 8.828125zm0 0"/><path d="m114.757812 300.136719h-8.828124c-4.875 0-8.828126-3.949219-8.828126-8.828125 0-4.875 3.953126-8.824219 8.828126-8.824219h8.828124c4.875 0 8.828126 3.949219 8.828126 8.824219 0 4.878906-3.953126 8.828125-8.828126 8.828125zm0 0"/><path d="m238.34375 300.136719h-88.273438c-4.875 0-8.828124-3.949219-8.828124-8.828125 0-4.875 3.953124-8.824219 8.828124-8.824219h88.273438c4.875 0 8.828125 3.949219 8.828125 8.824219 0 4.878906-3.953125 8.828125-8.828125 8.828125zm0 0"/><path d="m388.414062 211.863281h-114.757812c-4.875 0-8.828125-3.953125-8.828125-8.828125s3.953125-8.828125 8.828125-8.828125h114.757812c4.875 0 8.828126 3.953125 8.828126 8.828125s-3.953126 8.828125-8.828126 8.828125zm0 0"/><path d="m397.242188 256h-123.585938c-4.875 0-8.828125-3.953125-8.828125-8.828125s3.953125-8.828125 8.828125-8.828125h123.585938c4.875 0 8.828124 3.953125 8.828124 8.828125s-3.953124 8.828125-8.828124 8.828125zm0 0"/><path d="m406.070312 300.136719h-132.414062c-4.875 0-8.828125-3.949219-8.828125-8.828125 0-4.875 3.953125-8.824219 8.828125-8.824219h132.414062c4.875 0 8.828126 3.949219 8.828126 8.824219 0 4.878906-3.953126 8.828125-8.828126 8.828125zm0 0"/></g><path d="m238.34375 102.839844h35.3125v250.261718h-35.3125zm0 0" fill="#bdc3c7"/><path d="m291.308594 361.929688h-70.617188c-4.878906 0-8.828125-3.949219-8.828125-8.828126 0-4.875 3.949219-8.824218 8.828125-8.824218h70.617188c4.878906 0 8.828125 3.949218 8.828125 8.824218 0 4.878907-3.949219 8.828126-8.828125 8.828126zm0 0" fill="#285680"/><path d="m308.964844 52.964844c0 29.253906-23.710938 52.964844-52.964844 52.964844s-52.964844-23.710938-52.964844-52.964844c0-29.25 23.710938-52.964844 52.964844-52.964844s52.964844 23.714844 52.964844 52.964844zm0 0" fill="#e64c3c"/><path d="m291.308594 30.898438c0 12.1875-9.878906 22.066406-22.066406 22.066406s-22.070313-9.878906-22.070313-22.066406c0-12.191407 9.882813-22.070313 22.070313-22.070313s22.066406 9.878906 22.066406 22.070313zm0 0" fill="#fb7b76"/></svg>