<svg xmlns="http://www.w3.org/2000/svg" height="464pt" version="1.1" viewBox="-48 0 464 464" width="464pt">
<g id="surface1">
<path d="M 208 304 L 368 144 L 368 16 C 368 7.164062 360.835938 0 352 0 L 104 0 L 104 80 C 104 88.835938 96.835938 96 88 96 L 0 96 L 0 144 L 160 304 Z M 20.921875 130.984375 L 32.230469 142.296875 Z M 43.550781 153.601562 L 54.863281 164.910156 Z M 66.175781 176.222656 L 77.488281 187.542969 Z M 88.800781 198.863281 L 100.113281 210.175781 Z M 347.070312 130.984375 L 335.761719 142.296875 Z M 324.449219 153.601562 L 313.136719 164.910156 Z M 301.824219 176.222656 L 290.511719 187.542969 Z M 279.199219 198.863281 L 267.886719 210.175781 Z M 256.574219 221.488281 L 245.257812 232.800781 Z M 233.953125 244.121094 L 222.632812 255.433594 Z M 211.320312 266.742188 L 200 278.054688 Z M 111.433594 221.488281 L 122.742188 232.800781 Z M 134.054688 244.121094 L 145.375 255.433594 Z M 168 278.054688 L 156.6875 266.742188 Z M 168 278.054688 " style=" stroke:none;fill-rule:nonzero;fill:rgb(100%,89.411765%,46.666667%);fill-opacity:1;" />
<path d="M 16 464 L 352 464 C 360.835938 464 368 456.835938 368 448 L 368 144 L 208 304 L 231.199219 362.054688 C 233.171875 366.980469 232.570312 372.5625 229.601562 376.960938 C 226.628906 381.355469 221.671875 383.992188 216.367188 384 L 151.632812 384 C 146.328125 383.992188 141.371094 381.355469 138.398438 376.960938 C 135.429688 372.5625 134.828125 366.980469 136.800781 362.054688 L 160 304 L 0 144 L 0 448 C 0 456.835938 7.164062 464 16 464 Z M 16 464 " style=" stroke:none;fill-rule:nonzero;fill:rgb(100%,91.372549%,80%);fill-opacity:1;" />
<path d="M 104 80 L 104 0 L 0 96 L 88 96 C 96.835938 96 104 88.835938 104 80 Z M 104 80 " style=" stroke:none;fill-rule:nonzero;fill:rgb(100%,66.27451%,57.647059%);fill-opacity:1;" />
<path d="M 136.800781 362.054688 C 134.828125 366.980469 135.429688 372.5625 138.398438 376.960938 C 141.371094 381.355469 146.328125 383.992188 151.632812 384 L 216.367188 384 C 221.671875 383.992188 226.628906 381.355469 229.601562 376.960938 C 232.570312 372.5625 233.171875 366.980469 231.199219 362.054688 L 208 304 L 160 304 Z M 184 328 Z M 184 328 " style=" stroke:none;fill-rule:nonzero;fill:rgb(84.313725%,99.607843%,100%);fill-opacity:1;" />
<path d="M 104 464 L 352 464 C 360.835938 464 368 456.835938 368 448 L 368 216.726562 C 324.300781 336.425781 226.296875 428.21875 104 464 Z M 104 464 " style=" stroke:none;fill-rule:nonzero;fill:rgb(100%,88.627451%,74.117647%);fill-opacity:1;" />
<path d="M 330.113281 136.640625 L 341.429688 125.324219 L 352.742188 136.640625 L 341.429688 147.953125 Z M 330.113281 136.640625 " style=" stroke:none;fill-rule:nonzero;fill:rgb(100%,47.45098%,33.72549%);fill-opacity:1;" />
<path d="M 307.476562 159.261719 L 318.789062 147.949219 L 330.105469 159.261719 L 318.789062 170.578125 Z M 307.476562 159.261719 " style=" stroke:none;fill-rule:nonzero;fill:rgb(100%,47.45098%,33.72549%);fill-opacity:1;" />
<path d="M 284.859375 181.894531 L 296.171875 170.582031 L 307.484375 181.894531 L 296.171875 193.210938 Z M 284.859375 181.894531 " style=" stroke:none;fill-rule:nonzero;fill:rgb(100%,47.45098%,33.72549%);fill-opacity:1;" />
<path d="M 262.222656 204.519531 L 273.535156 193.207031 L 284.847656 204.519531 L 273.535156 215.835938 Z M 262.222656 204.519531 " style=" stroke:none;fill-rule:nonzero;fill:rgb(100%,47.45098%,33.72549%);fill-opacity:1;" />
<path d="M 239.601562 227.152344 L 250.917969 215.839844 L 262.230469 227.152344 L 250.917969 238.46875 Z M 239.601562 227.152344 " style=" stroke:none;fill-rule:nonzero;fill:rgb(100%,47.45098%,33.72549%);fill-opacity:1;" />
<path d="M 216.980469 249.773438 L 228.292969 238.460938 L 239.605469 249.773438 L 228.292969 261.085938 Z M 216.980469 249.773438 " style=" stroke:none;fill-rule:nonzero;fill:rgb(100%,47.45098%,33.72549%);fill-opacity:1;" />
<path d="M 194.339844 272.398438 L 205.65625 261.085938 L 216.96875 272.398438 L 205.65625 283.710938 Z M 194.339844 272.398438 " style=" stroke:none;fill-rule:nonzero;fill:rgb(100%,47.45098%,33.72549%);fill-opacity:1;" />
<path d="M 15.269531 136.636719 L 26.582031 125.324219 L 37.894531 136.636719 L 26.582031 147.953125 Z M 15.269531 136.636719 " style=" stroke:none;fill-rule:nonzero;fill:rgb(100%,47.45098%,33.72549%);fill-opacity:1;" />
<path d="M 37.890625 159.265625 L 49.207031 147.949219 L 60.519531 159.265625 L 49.207031 170.578125 Z M 37.890625 159.265625 " style=" stroke:none;fill-rule:nonzero;fill:rgb(100%,47.45098%,33.72549%);fill-opacity:1;" />
<path d="M 60.511719 181.886719 L 71.824219 170.574219 L 83.140625 181.886719 L 71.824219 193.203125 Z M 60.511719 181.886719 " style=" stroke:none;fill-rule:nonzero;fill:rgb(100%,47.45098%,33.72549%);fill-opacity:1;" />
<path d="M 83.148438 204.519531 L 94.464844 193.207031 L 105.777344 204.519531 L 94.464844 215.832031 Z M 83.148438 204.519531 " style=" stroke:none;fill-rule:nonzero;fill:rgb(100%,47.45098%,33.72549%);fill-opacity:1;" />
<path d="M 105.769531 227.148438 L 117.082031 215.832031 L 128.394531 227.144531 L 117.085938 238.460938 Z M 105.769531 227.148438 " style=" stroke:none;fill-rule:nonzero;fill:rgb(100%,47.45098%,33.72549%);fill-opacity:1;" />
<path d="M 128.402344 249.773438 L 139.714844 238.460938 L 151.03125 249.773438 L 139.714844 261.085938 Z M 128.402344 249.773438 " style=" stroke:none;fill-rule:nonzero;fill:rgb(100%,47.45098%,33.72549%);fill-opacity:1;" />
<path d="M 151.027344 272.398438 L 162.339844 261.085938 L 173.65625 272.398438 L 162.339844 283.714844 Z M 151.027344 272.398438 " style=" stroke:none;fill-rule:nonzero;fill:rgb(100%,47.45098%,33.72549%);fill-opacity:1;" />
<path d="M 184 368 C 179.582031 368 176 364.417969 176 360 L 176 328 C 176 323.582031 179.582031 320 184 320 C 188.417969 320 192 323.582031 192 328 L 192 360 C 192 364.417969 188.417969 368 184 368 Z M 184 368 " style=" stroke:none;fill-rule:nonzero;fill:rgb(100%,47.45098%,33.72549%);fill-opacity:1;" />
</g>
</svg>