<svg height="512pt" viewBox="-88 0 512 512" width="512pt" xmlns="http://www.w3.org/2000/svg"><path d="m17.65625 35.308594h300.136719c9.75 0 17.65625 7.90625 17.65625 17.65625v441.378906c0 9.75-7.90625 17.65625-17.65625 17.65625h-300.136719c-9.75 0-17.65625-7.90625-17.65625-17.65625v-441.378906c0-9.75 7.90625-17.65625 17.65625-17.65625zm0 0" fill="#cb9080"/><path d="m247.171875 70.621094h44.136719c4.878906 0 8.828125 3.953125 8.828125 8.828125v388.414062c0 4.875-3.949219 8.828125-8.828125 8.828125h-247.171875c-4.875 0-8.828125-3.953125-8.828125-8.828125v-388.414062c0-4.875 3.953125-8.828125 8.828125-8.828125zm0 0" fill="#285680"/><path d="m132.414062 35.308594c0-19.5 15.808594-35.308594 35.308594-35.308594 19.503906 0 35.3125 15.808594 35.3125 35.308594" fill="#95a5a5"/><path d="m88.277344 35.308594h158.894531v35.3125c0 9.75-7.902344 17.65625-17.65625 17.65625h-123.585937c-9.75 0-17.652344-7.90625-17.652344-17.65625zm0 0" fill="#bdc3c7"/><path d="m256 220.691406c-.59375 23.832032-8.332031 46.9375-22.210938 66.320313-17.363281 24.644531-27.746093 35.855469-30.058593 65.914062l-.695313 9.003907h-70.621094l-.6875-9.003907c-2.3125-30.058593-12.703124-41.269531-30.058593-65.914062-13.882813-19.382813-21.621094-42.488281-22.21875-66.320313 0-48.753906 39.523437-88.277344 88.273437-88.277344 48.753906 0 88.277344 39.523438 88.277344 88.277344zm0 0" fill="#f0c419"/><path d="m132.414062 361.929688h70.621094v44.140624c0 9.75-7.90625 17.652344-17.65625 17.652344h-35.308594c-9.753906 0-17.65625-7.902344-17.65625-17.652344zm0 0" fill="#bdc3c7"/><path d="m141.242188 397.242188h-17.65625c-4.875 0-8.828126-3.953126-8.828126-8.828126s3.953126-8.828124 8.828126-8.828124h17.65625c4.875 0 8.828124 3.953124 8.828124 8.828124s-3.953124 8.828126-8.828124 8.828126zm0 0" fill="#95a5a5"/><path d="m211.863281 397.242188h-17.65625c-4.875 0-8.828125-3.953126-8.828125-8.828126s3.953125-8.828124 8.828125-8.828124h17.65625c4.875 0 8.828125 3.953124 8.828125 8.828124s-3.953125 8.828126-8.828125 8.828126zm0 0" fill="#95a5a5"/><path d="m211.863281 211.863281h-26.484375v-26.484375c0-4.875-3.953125-8.828125-8.828125-8.828125h-17.652343c-4.878907 0-8.828126 3.953125-8.828126 8.828125v26.484375h-26.484374c-4.875 0-8.828126 3.949219-8.828126 8.828125v17.652344c0 4.875 3.953126 8.828125 8.828126 8.828125h26.484374v26.484375c0 4.875 3.949219 8.828125 8.828126 8.828125h17.652343c4.875 0 8.828125-3.953125 8.828125-8.828125v-26.484375h26.484375c4.875 0 8.828125-3.953125 8.828125-8.828125v-17.652344c0-4.878906-3.953125-8.828125-8.828125-8.828125zm0 0" fill="#24ae5f"/></svg>