<svg height="512pt" viewBox="-26 0 512 512" width="512pt" xmlns="http://www.w3.org/2000/svg"><path d="m344.277344 52.964844h97.101562c9.738282.03125 17.625 7.917968 17.65625 17.65625v423.722656c-.03125 9.738281-7.917968 17.628906-17.65625 17.65625h-423.722656c-9.738281-.027344-17.6289062-7.917969-17.65625-17.65625v-423.722656c.0273438-9.738282 7.917969-17.625 17.65625-17.65625zm0 0" fill="#f3d55b"/><path d="m423.722656 97.101562v35.3125h-388.414062v-35.3125c0-4.875 3.953125-8.824218 8.828125-8.824218h370.761719c4.875 0 8.824218 3.949218 8.824218 8.824218zm0 0" fill="#e57e25"/><path d="m423.722656 132.414062v273.65625c0 4.875-3.949218 8.828126-8.824218 8.828126h-105.933594l-21.183594 28.246093c-3.347656 4.433594-8.574219 7.042969-14.125 7.0625h-88.277344c-5.550781-.019531-10.777344-2.628906-14.125-7.0625l-21.183594-28.246093h-105.933593c-4.875 0-8.828125-3.953126-8.828125-8.828126v-273.65625zm0 0" fill="#f29c1f"/><path d="m294.277344 357.703125-58.890625-52.347656c-3.34375-2.976563-8.386719-2.976563-11.730469 0l-58.890625 52.347656c-2.597656 2.3125-6.3125 2.886719-9.488281 1.460937-3.171875-1.429687-5.210938-4.585937-5.207032-8.066406v-333.441406c0-9.75 7.902344-17.65625 17.652344-17.65625h123.585938c9.753906 0 17.65625 7.90625 17.65625 17.65625v333.441406c0 3.476563-2.039063 6.628906-5.207032 8.054688-3.171874 1.425781-6.882812.859375-9.480468-1.449219zm0 0" fill="#24ae5f"/><g fill="#71c285"><path d="m185.378906 61.792969c-4.875 0-8.828125-3.953125-8.828125-8.828125v-8.828125c0-4.875 3.953125-8.828125 8.828125-8.828125s8.828125 3.953125 8.828125 8.828125v8.828125c0 4.875-3.953125 8.828125-8.828125 8.828125zm0 0"/><path d="m185.378906 256c-4.875 0-8.828125-3.953125-8.828125-8.828125v-158.894531c0-4.875 3.953125-8.828125 8.828125-8.828125s8.828125 3.953125 8.828125 8.828125v158.894531c0 4.875-3.953125 8.828125-8.828125 8.828125zm0 0"/></g></svg>