<svg xmlns="http://www.w3.org/2000/svg" height="512pt" version="1.1" viewBox="-26 0 512 512.00002" width="512pt">
<g id="surface1">
<path d="M 88.277344 344.277344 L 88.277344 185.378906 C 88.304688 175.640625 96.191406 167.753906 105.929688 167.722656 L 406.070312 167.722656 L 406.070312 17.65625 C 406.039062 7.917969 398.152344 0.0273438 388.414062 0 L 114.757812 0 L 114.757812 88.277344 C 114.757812 98.027344 106.855469 105.929688 97.105469 105.929688 L 0 105.929688 L 0 494.34375 C 0.0273438 504.082031 7.917969 511.96875 17.65625 512 L 388.414062 512 C 398.152344 511.96875 406.039062 504.082031 406.070312 494.34375 L 406.070312 361.929688 L 105.929688 361.929688 C 96.191406 361.902344 88.304688 354.015625 88.277344 344.277344 Z M 88.277344 344.277344 " style=" stroke:none;fill-rule:nonzero;fill:rgb(100%,91.372549%,80%);fill-opacity:1;" />
<path d="M 114.757812 512 L 388.414062 512 C 398.164062 512 406.070312 504.09375 406.070312 494.34375 L 406.070312 239.148438 C 357.847656 371.226562 249.707031 472.515625 114.757812 512 Z M 114.757812 512 " style=" stroke:none;fill-rule:nonzero;fill:rgb(100%,88.627451%,74.117647%);fill-opacity:1;" />
<path d="M 185.378906 211.863281 L 132.414062 211.863281 L 132.414062 264.828125 L 185.378906 264.828125 C 195.128906 264.828125 203.035156 256.921875 203.035156 247.171875 L 203.035156 229.519531 C 203.035156 219.765625 195.128906 211.863281 185.378906 211.863281 Z M 185.378906 211.863281 " style=" stroke:none;fill-rule:nonzero;fill:rgb(79.215686%,99.215686%,100%);fill-opacity:1;" />
<path d="M 441.378906 167.722656 L 105.929688 167.722656 C 96.191406 167.753906 88.304688 175.640625 88.277344 185.378906 L 88.277344 344.273438 C 88.304688 354.015625 96.191406 361.902344 105.929688 361.929688 L 441.378906 361.929688 C 451.117188 361.902344 459.007812 354.015625 459.035156 344.273438 L 459.035156 185.378906 C 459.003906 175.640625 451.117188 167.753906 441.378906 167.722656 Z M 203.035156 247.171875 C 203.035156 256.921875 195.128906 264.828125 185.378906 264.828125 L 132.414062 264.828125 L 132.414062 211.859375 L 185.378906 211.859375 C 195.128906 211.859375 203.035156 219.765625 203.035156 229.515625 Z M 308.964844 229.515625 C 309.210938 220.011719 301.703125 212.113281 292.199219 211.867188 C 292.054688 211.863281 291.90625 211.863281 291.761719 211.863281 L 256 211.863281 C 246.25 211.863281 238.34375 219.765625 238.34375 229.515625 L 238.34375 247.171875 C 238.34375 256.921875 246.25 264.828125 256 264.828125 L 291.308594 264.828125 C 301.0625 264.828125 308.964844 272.730469 308.964844 282.480469 L 308.964844 300.136719 C 308.964844 309.886719 301.0625 317.792969 291.308594 317.792969 L 256 317.792969 C 246.339844 317.792969 238.472656 310.027344 238.34375 300.367188 C 238.472656 310.027344 246.339844 317.792969 256 317.792969 L 291.308594 317.792969 C 301.0625 317.792969 308.964844 309.886719 308.964844 300.136719 L 308.964844 282.480469 C 308.964844 272.730469 301.0625 264.828125 291.308594 264.828125 L 256 264.828125 C 246.25 264.828125 238.34375 256.921875 238.34375 247.171875 L 238.34375 229.515625 C 238.34375 219.765625 246.25 211.863281 256 211.863281 L 291.761719 211.863281 C 301.265625 211.863281 308.972656 219.574219 308.972656 229.078125 C 308.972656 229.226562 308.96875 229.371094 308.964844 229.515625 Z M 414.898438 282.484375 C 414.898438 301.984375 399.085938 317.792969 379.585938 317.792969 L 344.277344 317.792969 L 344.277344 211.863281 L 379.585938 211.863281 C 399.085938 211.863281 414.898438 227.671875 414.898438 247.171875 Z M 414.898438 282.484375 " style=" stroke:none;fill-rule:nonzero;fill:rgb(79.215686%,99.215686%,100%);fill-opacity:1;" />
<path d="M 114.757812 88.277344 L 114.757812 0 L 0 105.929688 L 97.105469 105.929688 C 106.855469 105.929688 114.757812 98.027344 114.757812 88.277344 Z M 114.757812 88.277344 " style=" stroke:none;fill-rule:nonzero;fill:rgb(100%,66.27451%,57.647059%);fill-opacity:1;" />
<path d="M 379.585938 211.863281 L 344.277344 211.863281 L 344.277344 317.792969 L 379.585938 317.792969 C 399.085938 317.792969 414.898438 301.984375 414.898438 282.484375 L 414.898438 247.171875 C 414.898438 227.671875 399.085938 211.863281 379.585938 211.863281 Z M 379.585938 211.863281 " style=" stroke:none;fill-rule:nonzero;fill:rgb(79.215686%,99.215686%,100%);fill-opacity:1;" />
<path d="M 132.414062 326.621094 C 127.539062 326.621094 123.585938 322.667969 123.585938 317.792969 L 123.585938 211.863281 C 123.585938 206.988281 127.539062 203.035156 132.414062 203.035156 L 185.378906 203.035156 C 200.007812 203.035156 211.863281 214.890625 211.863281 229.515625 L 211.863281 247.171875 C 211.863281 261.796875 200.003906 273.65625 185.378906 273.65625 L 141.242188 273.65625 L 141.242188 317.792969 C 141.242188 322.667969 137.289062 326.621094 132.414062 326.621094 Z M 141.242188 256 L 185.378906 256 C 190.253906 256 194.207031 252.046875 194.207031 247.171875 L 194.207031 229.515625 C 194.207031 224.640625 190.253906 220.691406 185.378906 220.691406 L 141.242188 220.691406 Z M 141.242188 256 " style=" stroke:none;fill-rule:nonzero;fill:rgb(92.941176%,10.980392%,14.117647%);fill-opacity:1;" />
<path d="M 291.308594 273.65625 L 256 273.65625 C 241.375 273.65625 229.519531 261.796875 229.519531 247.171875 L 229.519531 229.519531 C 229.519531 214.890625 241.375 203.035156 256 203.035156 L 291.761719 203.035156 C 306.148438 203.042969 317.804688 214.707031 317.800781 229.097656 C 317.800781 229.296875 317.796875 229.496094 317.792969 229.695312 C 317.550781 234.480469 313.648438 238.257812 308.859375 238.347656 C 304.023438 238.289062 300.136719 234.351562 300.136719 229.519531 C 300.246094 227.179688 299.382812 224.898438 297.753906 223.214844 C 296.179688 221.597656 294.015625 220.683594 291.757812 220.691406 L 256 220.691406 C 251.125 220.691406 247.171875 224.644531 247.171875 229.519531 L 247.171875 247.171875 C 247.171875 252.050781 251.125 256 256 256 L 291.308594 256 C 296.183594 256 300.136719 259.953125 300.136719 264.828125 C 300.136719 269.703125 296.183594 273.65625 291.308594 273.65625 Z M 291.308594 273.65625 " style=" stroke:none;fill-rule:nonzero;fill:rgb(92.941176%,10.980392%,14.117647%);fill-opacity:1;" />
<path d="M 291.308594 326.621094 L 256 326.621094 C 241.53125 326.570312 229.757812 314.949219 229.519531 300.480469 C 229.453125 295.597656 233.324219 291.566406 238.203125 291.433594 C 242.875 291.160156 246.886719 294.726562 247.160156 299.398438 C 247.167969 299.589844 247.175781 299.777344 247.171875 299.96875 C 247.128906 304.890625 251.078125 308.917969 256 308.964844 L 291.308594 308.964844 C 296.183594 308.964844 300.136719 305.011719 300.136719 300.136719 L 300.136719 282.480469 C 300.136719 277.605469 296.183594 273.65625 291.308594 273.65625 L 256 273.65625 C 251.125 273.65625 247.171875 269.703125 247.171875 264.828125 C 247.171875 259.953125 251.125 256 256 256 L 291.308594 256 C 305.9375 256 317.792969 267.855469 317.792969 282.480469 L 317.792969 300.136719 C 317.792969 314.765625 305.9375 326.621094 291.308594 326.621094 Z M 291.308594 326.621094 " style=" stroke:none;fill-rule:nonzero;fill:rgb(92.941176%,10.980392%,14.117647%);fill-opacity:1;" />
<path d="M 379.585938 326.621094 L 344.277344 326.621094 C 339.402344 326.621094 335.449219 322.667969 335.449219 317.792969 L 335.449219 211.863281 C 335.449219 206.988281 339.402344 203.035156 344.277344 203.035156 L 379.585938 203.035156 C 403.949219 203.0625 423.695312 222.808594 423.722656 247.171875 L 423.722656 282.484375 C 423.695312 306.847656 403.949219 326.589844 379.585938 326.621094 Z M 353.105469 308.964844 L 379.585938 308.964844 C 394.210938 308.964844 406.070312 297.109375 406.070312 282.484375 L 406.070312 247.171875 C 406.070312 232.546875 394.210938 220.691406 379.585938 220.691406 L 353.105469 220.691406 Z M 353.105469 308.964844 " style=" stroke:none;fill-rule:nonzero;fill:rgb(92.941176%,10.980392%,14.117647%);fill-opacity:1;" />
</g>
</svg>