<svg height="512pt" viewBox="-26 0 512 512" width="512pt" xmlns="http://www.w3.org/2000/svg"><path d="m344.277344 52.964844h97.101562c9.738282.03125 17.625 7.917968 17.65625 17.65625v423.722656c-.03125 9.738281-7.917968 17.628906-17.65625 17.65625h-423.722656c-9.738281-.027344-17.6289062-7.917969-17.65625-17.65625v-423.722656c.0273438-9.738282 7.917969-17.625 17.65625-17.65625zm0 0" fill="#f3d55b"/><path d="m423.722656 97.101562v35.3125h-388.414062v-35.3125c0-4.875 3.953125-8.824218 8.828125-8.824218h370.761719c4.875 0 8.824218 3.949218 8.824218 8.824218zm0 0" fill="#e57e25"/><path d="m423.722656 132.414062v273.65625c0 4.875-3.949218 8.828126-8.824218 8.828126h-105.933594l-21.183594 28.246093c-3.347656 4.433594-8.574219 7.042969-14.125 7.0625h-88.277344c-5.550781-.019531-10.777344-2.628906-14.125-7.0625l-21.183594-28.246093h-105.933593c-4.875 0-8.828125-3.953126-8.828125-8.828126v-273.65625zm0 0" fill="#f29c1f"/><path d="m132.414062 0h194.207032c9.75 0 17.65625 7.90625 17.65625 17.65625v194.207031c0 9.75-7.90625 17.652344-17.65625 17.652344h-194.207032c-9.75 0-17.65625-7.902344-17.65625-17.652344v-194.207031c0-9.75 7.90625-17.65625 17.65625-17.65625zm0 0" fill="#35495e"/><path d="m308.964844 44.136719v141.242187c0 4.875-3.953125 8.828125-8.828125 8.828125h-141.238281c-3.640626-.011719-6.902344-2.253906-8.210938-5.648437-.433594-1.003906-.644531-2.085938-.617188-3.179688v-141.242187c0-4.875 3.949219-8.828125 8.828126-8.828125h141.238281c4.875 0 8.828125 3.953125 8.828125 8.828125zm0 0" fill="#90bae1"/><path d="m308.964844 44.136719v55.4375c-64.222656 1.683593-123.464844 34.988281-158.277344 88.984375-.433594-1.003906-.644531-2.085938-.617188-3.179688v-141.242187c0-4.875 3.949219-8.828125 8.828126-8.828125h141.238281c4.875 0 8.828125 3.953125 8.828125 8.828125zm0 0" fill="#b0d3f0"/><path d="m273.65625 167.722656c-2.34375 0-4.585938-.929687-6.242188-2.585937l-44.136718-44.136719c-1.65625-1.65625-2.585938-3.898438-2.585938-6.242188v-44.136718c0-4.875 3.949219-8.828125 8.824219-8.828125 4.878906 0 8.828125 3.953125 8.828125 8.828125v40.484375l41.550781 41.550781c2.527344 2.523438 3.28125 6.320312 1.914063 9.617188-1.367188 3.300781-4.582032 5.449218-8.152344 5.449218zm0 0" fill="#95a5a5"/></svg>