<svg height="512pt" viewBox="-61 0 511 512" width="512pt" xmlns="http://www.w3.org/2000/svg"><path d="m18.15625 35.308594h353.101562c9.75 0 17.65625 7.90625 17.65625 17.65625v441.378906c0 9.75-7.90625 17.65625-17.65625 17.65625h-353.101562c-9.75 0-17.65625-7.90625-17.65625-17.65625v-441.378906c0-9.75 7.90625-17.65625 17.65625-17.65625zm0 0" fill="#af8066"/><path d="m274.15625 70.621094h70.621094c4.875 0 8.824218 3.953125 8.824218 8.828125v388.414062c0 4.875-3.949218 8.828125-8.824218 8.828125h-300.140625c-4.875 0-8.828125-3.953125-8.828125-8.828125v-388.414062c0-4.875 3.953125-8.828125 8.828125-8.828125zm0 0" fill="#b0d3f0"/><path d="m159.398438 35.308594c0-19.5 15.808593-35.308594 35.308593-35.308594s35.308594 15.808594 35.308594 35.308594" fill="#bdc3c7"/><path d="m115.257812 35.308594h158.898438v35.3125c0 9.75-7.90625 17.65625-17.65625 17.65625h-123.585938c-9.75 0-17.65625-7.90625-17.65625-17.65625zm0 0" fill="#d1d4d1"/><path d="m115.257812 211.863281h-35.308593c-9.75 0-17.65625-7.90625-17.65625-17.65625v-35.308593c0-9.753907 7.90625-17.65625 17.65625-17.65625h35.308593c9.75 0 17.65625 7.902343 17.65625 17.65625v35.308593c0 9.75-7.90625 17.65625-17.65625 17.65625zm-35.308593-52.964843v35.308593h35.308593v-35.308593zm0 0" fill="#3d324c"/><path d="m212.363281 150.070312v52.964844h-44.140625c-4.875 0-8.824218-3.953125-8.824218-8.828125v-35.308593c0-4.878907 3.949218-8.828126 8.824218-8.828126zm0 0" fill="#955ba5"/><g fill="#3d324c"><path d="m318.292969 158.898438v35.308593c0 4.875-3.953125 8.828125-8.828125 8.828125h-97.101563v-52.964844h97.101563c4.875 0 8.828125 3.949219 8.828125 8.828126zm0 0"/><path d="m115.257812 308.964844h-35.308593c-9.75 0-17.65625-7.902344-17.65625-17.65625v-35.308594c0-9.75 7.90625-17.65625 17.65625-17.65625h35.308593c9.75 0 17.65625 7.90625 17.65625 17.65625v35.308594c0 9.753906-7.90625 17.65625-17.65625 17.65625zm-35.308593-52.964844v35.308594h35.308593v-35.308594zm0 0"/><path d="m318.292969 256v35.308594c0 4.878906-3.953125 8.828125-8.828125 8.828125h-35.308594v-52.964844h35.308594c4.875 0 8.828125 3.953125 8.828125 8.828125zm0 0"/></g><path d="m274.15625 247.171875v52.964844h-105.933594c-4.875 0-8.824218-3.949219-8.824218-8.828125v-35.308594c0-4.875 3.949218-8.828125 8.824218-8.828125zm0 0" fill="#955ba5"/><path d="m115.257812 406.070312h-35.308593c-9.75 0-17.65625-7.90625-17.65625-17.65625v-35.3125c0-9.75 7.90625-17.652343 17.65625-17.652343h35.308593c9.75 0 17.65625 7.902343 17.65625 17.652343v35.3125c0 9.75-7.90625 17.65625-17.65625 17.65625zm-35.308593-52.96875v35.3125h35.308593v-35.3125zm0 0" fill="#3d324c"/><path d="m318.292969 353.101562v35.3125c0 4.875-3.953125 8.828126-8.828125 8.828126h-105.929688v-52.964844h105.929688c4.875 0 8.828125 3.949218 8.828125 8.824218zm0 0" fill="#3d324c"/><path d="m203.535156 344.277344v52.964844h-35.3125c-4.875 0-8.824218-3.953126-8.824218-8.828126v-35.3125c0-4.875 3.949218-8.824218 8.824218-8.824218zm0 0" fill="#955ba5"/></svg>