<svg xmlns="http://www.w3.org/2000/svg" height="512pt" version="1.1" viewBox="-26 0 512 512.00002" width="512pt">
<g id="surface1">
<path d="M 88.277344 344.277344 L 88.277344 185.378906 C 88.304688 175.640625 96.191406 167.753906 105.929688 167.722656 L 406.070312 167.722656 L 406.070312 17.65625 C 406.039062 7.917969 398.152344 0.0273438 388.414062 0 L 114.757812 0 L 114.757812 88.277344 C 114.757812 98.027344 106.855469 105.929688 97.105469 105.929688 L 0 105.929688 L 0 494.34375 C 0.0273438 504.082031 7.917969 511.96875 17.65625 512 L 388.414062 512 C 398.152344 511.96875 406.039062 504.082031 406.070312 494.34375 L 406.070312 361.929688 L 105.929688 361.929688 C 96.191406 361.902344 88.304688 354.015625 88.277344 344.277344 Z M 88.277344 344.277344 " style=" stroke:none;fill-rule:nonzero;fill:rgb(100%,91.372549%,80%);fill-opacity:1;" />
<path d="M 114.757812 512 L 388.414062 512 C 398.164062 512 406.070312 504.09375 406.070312 494.34375 L 406.070312 239.148438 C 357.847656 371.226562 249.707031 472.515625 114.757812 512 Z M 114.757812 512 " style=" stroke:none;fill-rule:nonzero;fill:rgb(100%,88.627451%,74.117647%);fill-opacity:1;" />
<path d="M 441.378906 167.722656 L 105.929688 167.722656 C 96.191406 167.753906 88.304688 175.640625 88.277344 185.378906 L 88.277344 344.273438 C 88.304688 354.015625 96.191406 361.902344 105.929688 361.929688 L 441.378906 361.929688 C 451.117188 361.902344 459.007812 354.015625 459.035156 344.273438 L 459.035156 185.378906 C 459.003906 175.640625 451.117188 167.753906 441.378906 167.722656 Z M 176.550781 211.863281 Z M 273.65625 211.863281 L 229.515625 317.792969 L 273.65625 211.863281 L 317.792969 317.792969 Z M 414.898438 247.171875 C 414.898438 256.921875 406.992188 264.828125 397.242188 264.828125 L 361.5 264.828125 L 414.675781 318.011719 L 361.5 264.828125 L 344.277344 264.828125 L 344.277344 211.859375 L 397.242188 211.859375 C 406.992188 211.859375 414.898438 219.765625 414.898438 229.515625 Z M 414.898438 247.171875 " style=" stroke:none;fill-rule:nonzero;fill:rgb(79.215686%,99.215686%,100%);fill-opacity:1;" />
<path d="M 114.757812 88.277344 L 114.757812 0 L 0 105.929688 L 97.105469 105.929688 C 106.855469 105.929688 114.757812 98.027344 114.757812 88.277344 Z M 114.757812 88.277344 " style=" stroke:none;fill-rule:nonzero;fill:rgb(100%,66.27451%,57.647059%);fill-opacity:1;" />
<path d="M 397.242188 211.863281 L 344.277344 211.863281 L 344.277344 264.828125 L 397.242188 264.828125 C 406.992188 264.828125 414.898438 256.921875 414.898438 247.171875 L 414.898438 229.519531 C 414.898438 219.765625 406.992188 211.863281 397.242188 211.863281 Z M 397.242188 211.863281 " style=" stroke:none;fill-rule:nonzero;fill:rgb(79.215686%,99.215686%,100%);fill-opacity:1;" />
<path d="M 176.550781 326.621094 C 171.675781 326.621094 167.726562 322.667969 167.726562 317.792969 L 167.726562 211.863281 C 167.726562 206.988281 171.675781 203.035156 176.550781 203.035156 C 181.425781 203.035156 185.378906 206.988281 185.378906 211.863281 L 185.378906 317.792969 C 185.378906 322.667969 181.425781 326.621094 176.550781 326.621094 Z M 176.550781 326.621094 " style=" stroke:none;fill-rule:nonzero;fill:rgb(92.941176%,10.980392%,14.117647%);fill-opacity:1;" />
<path d="M 397.242188 273.65625 L 344.277344 273.65625 C 339.402344 273.65625 335.449219 269.703125 335.449219 264.828125 L 335.449219 211.863281 C 335.449219 206.988281 339.402344 203.035156 344.277344 203.035156 L 397.242188 203.035156 C 411.867188 203.035156 423.722656 214.890625 423.722656 229.515625 L 423.722656 247.171875 C 423.722656 261.796875 411.867188 273.65625 397.242188 273.65625 Z M 353.105469 256 L 397.242188 256 C 402.117188 256 406.070312 252.046875 406.070312 247.171875 L 406.070312 229.515625 C 406.070312 224.640625 402.117188 220.691406 397.242188 220.691406 L 353.105469 220.691406 Z M 353.105469 256 " style=" stroke:none;fill-rule:nonzero;fill:rgb(92.941176%,10.980392%,14.117647%);fill-opacity:1;" />
<path d="M 344.277344 326.621094 C 339.402344 326.621094 335.449219 322.667969 335.449219 317.792969 L 335.449219 264.828125 C 335.449219 259.953125 339.402344 256 344.277344 256 C 349.152344 256 353.105469 259.953125 353.105469 264.828125 L 353.105469 317.792969 C 353.105469 322.667969 349.152344 326.621094 344.277344 326.621094 Z M 344.277344 326.621094 " style=" stroke:none;fill-rule:nonzero;fill:rgb(92.941176%,10.980392%,14.117647%);fill-opacity:1;" />
<path d="M 414.683594 326.832031 C 412.34375 326.839844 410.09375 325.90625 408.445312 324.246094 L 355.257812 271.066406 C 351.871094 267.5625 351.96875 261.972656 355.472656 258.585938 C 358.894531 255.28125 364.320312 255.28125 367.742188 258.585938 L 420.925781 311.761719 C 424.375 315.210938 424.371094 320.800781 420.925781 324.246094 C 419.269531 325.902344 417.023438 326.832031 414.683594 326.832031 Z M 414.683594 326.832031 " style=" stroke:none;fill-rule:nonzero;fill:rgb(92.941176%,10.980392%,14.117647%);fill-opacity:1;" />
<path d="M 317.792969 326.621094 C 314.230469 326.621094 311.015625 324.480469 309.644531 321.191406 L 273.65625 234.8125 L 237.664062 321.191406 C 235.789062 325.691406 230.617188 327.816406 226.117188 325.941406 C 221.621094 324.0625 219.492188 318.894531 221.371094 314.394531 L 265.507812 208.464844 C 267.382812 203.964844 272.554688 201.835938 277.054688 203.710938 C 279.199219 204.605469 280.90625 206.316406 281.804688 208.464844 L 325.941406 314.394531 C 327.820312 318.894531 325.695312 324.0625 321.195312 325.941406 C 320.117188 326.394531 318.960938 326.625 317.792969 326.621094 Z M 317.792969 326.621094 " style=" stroke:none;fill-rule:nonzero;fill:rgb(92.941176%,10.980392%,14.117647%);fill-opacity:1;" />
<path d="M 305.171875 300.136719 L 242.140625 300.136719 C 237.265625 300.136719 233.3125 296.183594 233.3125 291.308594 C 233.3125 286.433594 237.265625 282.484375 242.140625 282.484375 L 305.171875 282.484375 C 310.046875 282.484375 313.996094 286.433594 313.996094 291.308594 C 313.996094 296.183594 310.046875 300.136719 305.171875 300.136719 Z M 305.171875 300.136719 " style=" stroke:none;fill-rule:nonzero;fill:rgb(92.941176%,10.980392%,14.117647%);fill-opacity:1;" />
<path d="M 220.691406 220.691406 L 132.414062 220.691406 C 127.539062 220.691406 123.585938 216.738281 123.585938 211.863281 C 123.585938 206.988281 127.539062 203.035156 132.414062 203.035156 L 220.691406 203.035156 C 225.566406 203.035156 229.515625 206.988281 229.515625 211.863281 C 229.515625 216.738281 225.566406 220.691406 220.691406 220.691406 Z M 220.691406 220.691406 " style=" stroke:none;fill-rule:nonzero;fill:rgb(92.941176%,10.980392%,14.117647%);fill-opacity:1;" />
</g>
</svg>