<svg height="512pt" viewBox="0 0 512.02898 512" width="512pt" xmlns="http://www.w3.org/2000/svg"><path d="m176.582031 35.324219h52.964844v37.078125h-52.964844zm0 0" fill="#95a5a5"/><path d="m59.703125 129.957031-12.359375-17.65625c-5.5625-7.976562-3.628906-18.945312 4.328125-24.539062l7.238281-5.121094c8.003906-5.554687 18.992188-3.625 24.628906 4.324219l10.769532 15.363281zm0 0" fill="#95a5a5"/><path d="m311.464844 102.0625 11.125-15.800781c5.632812-7.953125 16.621094-9.882813 24.628906-4.328125l7.238281 5.03125c7.949219 5.636718 9.878907 16.625 4.324219 24.628906l-12.710938 18.097656zm0 0" fill="#95a5a5"/><path d="m264.855469 467.082031c-81.371094 26.011719-170.324219-1.695312-222.53125-69.316406-52.207031-67.617187-56.5-160.6875-10.742188-232.828125 45.757813-72.140625 131.777344-107.921875 215.199219-89.515625 83.425781 18.410156 146.398438 87.066406 157.550781 171.765625zm0 0" fill="#35495e"/><path d="m368.667969 247.1875-103.8125 182.378906c-19.652344 7.855469-40.628907 11.871094-61.792969 11.828125-89.273438-.03125-162.878906-69.992187-167.445312-159.152343-4.5625-89.15625 61.515624-166.265626 150.320312-175.414063 5.6875-.605469 11.40625-.902344 17.125-.882813 77.636719.082032 145.089844 53.375 163.132812 128.882813.972657 4.0625 1.765626 8.210937 2.472657 12.359375zm0 0" fill="#90bae1"/><path d="m366.195312 234.828125c-184.847656-36.191406-258.910156 75.5625-287.425781 151.394531-42.457031-46.855468-54.949219-113.605468-32.304687-172.644531 22.644531-59.035156 76.574218-100.308594 139.472656-106.75 5.6875-.605469 11.40625-.902344 17.125-.882813 77.636719.082032 145.089844 53.375 163.132812 128.882813zm0 0" fill="#b0d3f0"/><path d="m176.582031.015625h52.964844c9.75 0 17.65625 7.902344 17.65625 17.652344v17.65625h-88.277344v-17.65625c0-9.75 7.902344-17.652344 17.65625-17.652344zm0 0" fill="#35495e"/><g fill="#95a5a5"><path d="m203.0625 256.015625c-4.875 0-8.828125-3.953125-8.828125-8.828125v-105.929688c0-4.878906 3.953125-8.828124 8.828125-8.828124s8.828125 3.949218 8.828125 8.828124v105.929688c0 4.875-3.953125 8.828125-8.828125 8.828125zm0 0"/><path d="m203.0625 344.289062c-4.875 0-8.828125-3.949218-8.828125-8.828124v-35.308594c0-4.875 3.953125-8.828125 8.828125-8.828125s8.828125 3.953125 8.828125 8.828125v35.308594c0 4.878906-3.953125 8.828124-8.828125 8.828124zm0 0"/><path d="m264.855469 344.289062c-2.339844 0-4.585938-.929687-6.238281-2.585937l-43.082032-43.078125c-3.34375-3.464844-3.296875-8.96875.109375-12.375s8.910157-3.453125 12.375-.105469l43.078125 43.078125c2.523438 2.523438 3.277344 6.320313 1.914063 9.617188-1.367188 3.300781-4.585938 5.449218-8.15625 5.449218zm0 0"/><path d="m184.347656 263.78125c-2.339844 0-4.585937-.929688-6.238281-2.585938l-25.425781-25.421874c-3.34375-3.464844-3.296875-8.96875.109375-12.375 3.402343-3.40625 8.910156-3.453126 12.375-.109376l25.421875 25.425782c2.523437 2.523437 3.277344 6.320312 1.914062 9.617187-1.367187 3.300781-4.585937 5.449219-8.15625 5.449219zm0 0"/></g><path d="m512.027344 264.84375v52.964844h-247.171875v-52.964844c.03125-9.742188 7.917969-17.628906 17.65625-17.65625h211.863281c9.738281.027344 17.625 7.914062 17.652344 17.65625zm0 0" fill="#cc4b4c"/><path d="m512.027344 317.808594v176.550781c-.027344 9.738281-7.914063 17.625-17.652344 17.65625h-211.863281c-9.738281-.03125-17.625-7.917969-17.65625-17.65625v-176.550781zm0 0" fill="#ecf0f1"/><path d="m308.996094 282.496094c-4.875 0-8.828125-3.949219-8.828125-8.828125v-52.964844c0-4.875 3.953125-8.828125 8.828125-8.828125s8.824218 3.953125 8.824218 8.828125v52.964844c0 4.878906-3.949218 8.828125-8.824218 8.828125zm0 0" fill="#7f8c8d"/><path d="m467.890625 282.496094c-4.875 0-8.828125-3.949219-8.828125-8.828125v-52.964844c0-4.875 3.953125-8.828125 8.828125-8.828125s8.828125 3.953125 8.828125 8.828125v52.964844c0 4.878906-3.953125 8.828125-8.828125 8.828125zm0 0" fill="#7f8c8d"/><path d="m370.789062 361.59375v106.636719c0 4.679687-3.796874 8.472656-8.476562 8.472656h-18.359375c-2.25 0-4.40625-.890625-5.992187-2.480469-1.589844-1.589844-2.484376-3.746094-2.484376-5.992187v-55.136719c.003907-3.128906-1.714843-6.007812-4.472656-7.484375-2.757812-1.476563-6.105468-1.316406-8.707031.421875l-.132813.085938c-2.601562 1.738281-5.949218 1.902343-8.707031.421874-2.757812-1.476562-4.476562-4.355468-4.472656-7.480468v-15.925782c0-2.25.894531-4.40625 2.480469-5.996093l21.523437-21.519531c1.59375-1.601563 3.761719-2.503907 6.019531-2.5h23.304688c4.679688 0 8.476562 3.792968 8.476562 8.476562zm0 0" fill="#802f34"/><path d="m467.890625 361.59375v106.636719c0 4.679687-3.792969 8.472656-8.472656 8.472656h-18.363281c-4.679688 0-8.472657-3.792969-8.472657-8.472656v-55.136719c.003907-3.128906-1.714843-6.007812-4.472656-7.484375s-6.105469-1.316406-8.707031.421875l-.132813.085938c-2.601562 1.738281-5.949219 1.902343-8.707031.421874-2.757812-1.476562-4.476562-4.355468-4.472656-7.480468v-15.925782c0-2.25.890625-4.40625 2.480468-5.996093l21.519532-21.519531c1.59375-1.601563 3.761718-2.503907 6.023437-2.5h23.304688c4.679687 0 8.472656 3.792968 8.472656 8.476562zm0 0" fill="#802f34"/><path d="m229.546875 273.667969c0 14.628906-11.855469 26.484375-26.484375 26.484375-14.625 0-26.480469-11.855469-26.480469-26.484375 0-14.625 11.855469-26.480469 26.480469-26.480469 14.628906 0 26.484375 11.855469 26.484375 26.480469zm0 0" fill="#7f8c8d"/></svg>