<svg xmlns="http://www.w3.org/2000/svg" height="512pt" version="1.1" viewBox="-26 0 512 512.00002" width="512pt">
<g id="surface1">
<path d="M 88.277344 344.277344 L 88.277344 185.378906 C 88.304688 175.640625 96.191406 167.753906 105.929688 167.722656 L 406.070312 167.722656 L 406.070312 17.65625 C 406.039062 7.917969 398.152344 0.0273438 388.414062 0 L 114.757812 0 L 114.757812 88.277344 C 114.757812 98.027344 106.855469 105.929688 97.105469 105.929688 L 0 105.929688 L 0 494.34375 C 0.0273438 504.082031 7.917969 511.96875 17.65625 512 L 388.414062 512 C 398.152344 511.96875 406.039062 504.082031 406.070312 494.34375 L 406.070312 361.929688 L 105.929688 361.929688 C 96.191406 361.902344 88.304688 354.015625 88.277344 344.277344 Z M 88.277344 344.277344 " style=" stroke:none;fill-rule:nonzero;fill:rgb(100%,91.372549%,80%);fill-opacity:1;" />
<path d="M 114.757812 512 L 388.414062 512 C 398.164062 512 406.070312 504.09375 406.070312 494.34375 L 406.070312 239.148438 C 357.847656 371.226562 249.707031 472.515625 114.757812 512 Z M 114.757812 512 " style=" stroke:none;fill-rule:nonzero;fill:rgb(100%,88.627451%,74.117647%);fill-opacity:1;" />
<path d="M 441.378906 167.722656 L 105.929688 167.722656 C 96.191406 167.753906 88.304688 175.640625 88.277344 185.378906 L 88.277344 344.273438 C 88.304688 354.015625 96.191406 361.902344 105.929688 361.929688 L 441.378906 361.929688 C 451.117188 361.902344 459.007812 354.015625 459.035156 344.273438 L 459.035156 185.378906 C 459.003906 175.640625 451.117188 167.753906 441.378906 167.722656 Z M 167.726562 211.863281 Z M 308.964844 317.792969 L 273.65625 264.828125 L 238.347656 317.792969 L 273.65625 264.828125 L 238.347656 211.859375 L 273.65625 264.828125 L 308.964844 211.859375 L 273.65625 264.828125 Z M 379.585938 211.863281 Z M 379.585938 211.863281 " style=" stroke:none;fill-rule:nonzero;fill:rgb(79.215686%,99.215686%,100%);fill-opacity:1;" />
<path d="M 114.757812 88.277344 L 114.757812 0 L 0 105.929688 L 97.105469 105.929688 C 106.855469 105.929688 114.757812 98.027344 114.757812 88.277344 Z M 114.757812 88.277344 " style=" stroke:none;fill-rule:nonzero;fill:rgb(100%,66.27451%,57.647059%);fill-opacity:1;" />
<path d="M 308.964844 326.621094 C 306.011719 326.625 303.253906 325.148438 301.613281 322.691406 L 230.992188 216.761719 C 228.285156 212.707031 229.382812 207.222656 233.4375 204.515625 C 237.492188 201.8125 242.976562 202.90625 245.683594 206.960938 L 316.300781 312.894531 C 319.007812 316.949219 317.914062 322.429688 313.859375 325.136719 C 312.410156 326.101562 310.707031 326.621094 308.964844 326.621094 Z M 308.964844 326.621094 " style=" stroke:none;fill-rule:nonzero;fill:rgb(92.941176%,10.980392%,14.117647%);fill-opacity:1;" />
<path d="M 238.34375 326.621094 C 233.46875 326.617188 229.519531 322.660156 229.527344 317.785156 C 229.527344 316.042969 230.042969 314.34375 231.011719 312.894531 L 301.628906 206.960938 C 304.335938 202.90625 309.820312 201.8125 313.875 204.515625 C 317.929688 207.222656 319.027344 212.707031 316.320312 216.761719 L 245.699219 322.691406 C 244.058594 325.148438 241.300781 326.625 238.34375 326.621094 Z M 238.34375 326.621094 " style=" stroke:none;fill-rule:nonzero;fill:rgb(92.941176%,10.980392%,14.117647%);fill-opacity:1;" />
<path d="M 414.898438 220.691406 L 344.277344 220.691406 C 339.402344 220.691406 335.449219 216.738281 335.449219 211.863281 C 335.449219 206.988281 339.402344 203.035156 344.277344 203.035156 L 414.898438 203.035156 C 419.773438 203.035156 423.722656 206.988281 423.722656 211.863281 C 423.722656 216.738281 419.773438 220.691406 414.898438 220.691406 Z M 414.898438 220.691406 " style=" stroke:none;fill-rule:nonzero;fill:rgb(92.941176%,10.980392%,14.117647%);fill-opacity:1;" />
<path d="M 379.585938 326.621094 C 374.710938 326.621094 370.757812 322.667969 370.757812 317.792969 L 370.757812 211.863281 C 370.757812 206.988281 374.710938 203.035156 379.585938 203.035156 C 384.460938 203.035156 388.414062 206.988281 388.414062 211.863281 L 388.414062 317.792969 C 388.414062 322.667969 384.460938 326.621094 379.585938 326.621094 Z M 379.585938 326.621094 " style=" stroke:none;fill-rule:nonzero;fill:rgb(92.941176%,10.980392%,14.117647%);fill-opacity:1;" />
<path d="M 203.035156 220.691406 L 132.414062 220.691406 C 127.539062 220.691406 123.585938 216.738281 123.585938 211.863281 C 123.585938 206.988281 127.539062 203.035156 132.414062 203.035156 L 203.035156 203.035156 C 207.910156 203.035156 211.863281 206.988281 211.863281 211.863281 C 211.863281 216.738281 207.910156 220.691406 203.035156 220.691406 Z M 203.035156 220.691406 " style=" stroke:none;fill-rule:nonzero;fill:rgb(92.941176%,10.980392%,14.117647%);fill-opacity:1;" />
<path d="M 167.726562 326.621094 C 162.847656 326.621094 158.898438 322.667969 158.898438 317.792969 L 158.898438 211.863281 C 158.898438 206.988281 162.847656 203.035156 167.726562 203.035156 C 172.601562 203.035156 176.550781 206.988281 176.550781 211.863281 L 176.550781 317.792969 C 176.550781 322.667969 172.601562 326.621094 167.726562 326.621094 Z M 167.726562 326.621094 " style=" stroke:none;fill-rule:nonzero;fill:rgb(92.941176%,10.980392%,14.117647%);fill-opacity:1;" />
</g>
</svg>