<svg height="512pt" viewBox="0 -4 512.00002 512" width="512pt" xmlns="http://www.w3.org/2000/svg"><path d="m329.761719 399.445312c5.554687-1.828124 11.003906-3.972656 16.316406-6.421874 6.566406-3.035157 14.328125-1.648438 19.4375 3.472656l31.328125 31.328125c6.191406 6.152343 15.980469 6.78125 22.910156 1.476562 14.90625-11.367187 28.394532-24.476562 40.179688-39.050781 5.554687-6.9375 5.03125-16.9375-1.214844-23.257812l-30.289062-30.285157c-5.277344-5.253906-6.605469-13.292969-3.296876-19.960937 2.347657-4.566406 4.433594-9.257813 6.25-14.058594.605469-1.648438 1.214844-3.210938 1.820313-4.859375 2.441406-6.867187 8.941406-11.453125 16.230469-11.457031h43.5625c8.800781-.003906 16.230468-6.542969 17.355468-15.269532 2.199219-18.683593 2.199219-37.554687 0-56.234374-1.125-8.730469-8.554687-15.269532-17.355468-15.273438h-43.5625c-7.289063 0-13.789063-4.589844-16.230469-11.457031-2.277344-6.472657-4.972656-12.792969-8.070313-18.917969-3.308593-6.667969-1.980468-14.707031 3.296876-19.957031l30.289062-30.285157c6.246094-6.324218 6.769531-16.320312 1.214844-23.257812-11.785156-14.578125-25.273438-27.6875-40.179688-39.050781-6.929687-5.308594-16.71875-4.679688-22.910156 1.472656l-31.328125 31.328125c-5.109375 5.125-12.871094 6.507812-19.4375 3.472656-5.3125-2.445312-10.761719-4.589844-16.316406-6.421875zm0 0" fill="#547580"/><path d="m138.847656 468.609375h-86.78125c-9.570312-.027344-17.324218-7.78125-17.355468-17.355469v-433.898437c.03125-9.574219 7.785156-17.3281252 17.355468-17.355469h260.339844c9.574219.0273438 17.328125 7.78125 17.355469 17.355469v433.898437c-.027344 9.574219-7.78125 17.328125-17.355469 17.355469h-69.421875" fill="#cc66a1"/><path d="m242.984375 182.238281h86.777344v104.132813h-86.777344" fill="#804169"/><path d="m138.847656 286.371094h-104.136718v-104.132813h104.136718" fill="#804169"/><g fill="#bdc3c7"><path d="m60.746094 86.78125h-52.066406c-4.792969 0-8.679688-3.886719-8.679688-8.679688 0-4.792968 3.886719-8.679687 8.679688-8.679687h52.066406c4.792968 0 8.675781 3.886719 8.675781 8.679687 0 4.792969-3.882813 8.679688-8.675781 8.679688zm0 0"/><path d="m60.746094 138.847656h-52.066406c-4.792969 0-8.679688-3.886718-8.679688-8.679687s3.886719-8.675781 8.679688-8.675781h52.066406c4.792968 0 8.675781 3.882812 8.675781 8.675781s-3.882813 8.679687-8.675781 8.679687zm0 0"/><path d="m60.746094 190.914062h-52.066406c-4.792969 0-8.679688-3.882812-8.679688-8.675781s3.886719-8.679687 8.679688-8.679687h52.066406c4.792968 0 8.675781 3.886718 8.675781 8.679687s-3.882813 8.675781-8.675781 8.675781zm0 0"/><path d="m60.746094 242.984375h-52.066406c-4.792969 0-8.679688-3.886719-8.679688-8.679687 0-4.792969 3.886719-8.675782 8.679688-8.675782h52.066406c4.792968 0 8.675781 3.882813 8.675781 8.675782 0 4.792968-3.882813 8.679687-8.675781 8.679687zm0 0"/><path d="m60.746094 295.050781h-52.066406c-4.792969 0-8.679688-3.886719-8.679688-8.679687 0-4.789063 3.886719-8.675782 8.679688-8.675782h52.066406c4.792968 0 8.675781 3.886719 8.675781 8.675782 0 4.792968-3.882813 8.679687-8.675781 8.679687zm0 0"/><path d="m60.746094 347.117188h-52.066406c-4.792969 0-8.679688-3.882813-8.679688-8.675782 0-4.792968 3.886719-8.679687 8.679688-8.679687h52.066406c4.792968 0 8.675781 3.886719 8.675781 8.679687 0 4.792969-3.882813 8.675782-8.675781 8.675782zm0 0"/><path d="m60.746094 399.1875h-52.066406c-4.792969 0-8.679688-3.886719-8.679688-8.679688 0-4.792968 3.886719-8.675781 8.679688-8.675781h52.066406c4.792968 0 8.675781 3.882813 8.675781 8.675781 0 4.792969-3.882813 8.679688-8.675781 8.679688zm0 0"/></g><path d="m242.984375 0v503.320312l-29.765625-34.710937-22.304688-26.03125-22.300781 26.03125-29.765625 34.710937v-503.320312zm0 0" fill="#f3d55b"/><path d="m329.761719 342.953125c37.324219-19.371094 60.75-57.917969 60.75-99.96875s-23.425781-80.601563-60.75-99.972656zm0 0" fill="#35495e"/><path d="m329.761719 301.039062c16.5625-14.753906 26.035156-35.875 26.035156-58.054687s-9.472656-43.304687-26.035156-58.058594zm0 0" fill="#2c3e50"/></svg>