<svg height="512pt" viewBox="0 -4 512 512" width="512pt" xmlns="http://www.w3.org/2000/svg"><path d="m321.085938 277.695312v-260.339843c-.03125-9.574219-7.785157-17.3281252-17.355469-17.355469h-251.664063c-9.570312.0273438-17.324218 7.78125-17.355468 17.355469v433.898437c.03125 9.574219 7.785156 17.328125 17.355468 17.355469h234.304688zm0 0" fill="#cc4b4c"/><path d="m242.984375 182.238281h78.101563v95.457031l-32.371094 8.675782h-45.730469zm0 0" fill="#802f34"/><path d="m138.847656 286.371094h-104.136718v-104.132813h104.136718" fill="#802f34"/><g fill="#bdc3c7"><path d="m60.746094 86.78125h-52.066406c-4.792969 0-8.679688-3.886719-8.679688-8.679688 0-4.792968 3.886719-8.679687 8.679688-8.679687h52.066406c4.792968 0 8.675781 3.886719 8.675781 8.679687 0 4.792969-3.882813 8.679688-8.675781 8.679688zm0 0"/><path d="m60.746094 138.847656h-52.066406c-4.792969 0-8.679688-3.886718-8.679688-8.679687s3.886719-8.675781 8.679688-8.675781h52.066406c4.792968 0 8.675781 3.882812 8.675781 8.675781s-3.882813 8.679687-8.675781 8.679687zm0 0"/><path d="m60.746094 190.914062h-52.066406c-4.792969 0-8.679688-3.882812-8.679688-8.675781s3.886719-8.679687 8.679688-8.679687h52.066406c4.792968 0 8.675781 3.886718 8.675781 8.679687s-3.882813 8.675781-8.675781 8.675781zm0 0"/><path d="m60.746094 242.984375h-52.066406c-4.792969 0-8.679688-3.886719-8.679688-8.679687 0-4.792969 3.886719-8.675782 8.679688-8.675782h52.066406c4.792968 0 8.675781 3.882813 8.675781 8.675782 0 4.792968-3.882813 8.679687-8.675781 8.679687zm0 0"/><path d="m60.746094 295.050781h-52.066406c-4.792969 0-8.679688-3.886719-8.679688-8.679687 0-4.789063 3.886719-8.675782 8.679688-8.675782h52.066406c4.792968 0 8.675781 3.886719 8.675781 8.675782 0 4.792968-3.882813 8.679687-8.675781 8.679687zm0 0"/><path d="m60.746094 347.117188h-52.066406c-4.792969 0-8.679688-3.882813-8.679688-8.675782 0-4.792968 3.886719-8.679687 8.679688-8.679687h52.066406c4.792968 0 8.675781 3.886719 8.675781 8.679687 0 4.792969-3.882813 8.675782-8.675781 8.675782zm0 0"/><path d="m60.746094 399.1875h-52.066406c-4.792969 0-8.679688-3.886719-8.679688-8.679688 0-4.792968 3.886719-8.675781 8.679688-8.675781h52.066406c4.792968 0 8.675781 3.882813 8.675781 8.675781 0 4.792969-3.882813 8.679688-8.675781 8.679688zm0 0"/></g><path d="m242.984375 0v503.320312l-29.765625-34.710937-22.304688-26.03125-22.300781 26.03125-29.765625 34.710937v-503.320312zm0 0" fill="#f0c419"/><path d="m303.730469 277.695312h190.914062c9.585938 0 17.355469 7.769532 17.355469 17.355469v190.914063c0 9.585937-7.769531 17.355468-17.355469 17.355468h-190.914062c-9.585938 0-17.359375-7.769531-17.359375-17.355468v-190.914063c0-9.585937 7.773437-17.355469 17.359375-17.355469zm0 0" fill="#7ed09e"/><path d="m459.933594 373.152344h-43.390625v-43.390625c0-4.792969-3.886719-8.675781-8.679688-8.675781h-17.355469c-4.792968 0-8.675781 3.882812-8.675781 8.675781v43.390625h-43.390625c-4.792968 0-8.679687 3.886718-8.679687 8.679687v17.355469c0 4.792969 3.886719 8.675781 8.679687 8.675781h43.390625v43.390625c0 4.792969 3.882813 8.679688 8.675781 8.679688h17.355469c4.792969 0 8.679688-3.886719 8.679688-8.679688v-43.390625h43.390625c4.792968 0 8.675781-3.882812 8.675781-8.675781v-17.355469c0-4.792969-3.882813-8.679687-8.675781-8.679687zm0 0" fill="#4c8056"/></svg>