<svg height="512pt" viewBox="-30 0 512 512" width="512pt" xmlns="http://www.w3.org/2000/svg"><path d="m34.710938 43.390625h381.832031c19.171875 0 34.710937 15.539063 34.710937 34.710937v399.1875c0 19.167969-15.539062 34.710938-34.710937 34.710938h-381.832031c-19.167969 0-34.710938-15.542969-34.710938-34.710938v-399.1875c0-19.171874 15.542969-34.710937 34.710938-34.710937zm0 0" fill="#ecf0f1"/><path d="m0 112.8125h138.847656v112.816406h-138.847656zm0 0" fill="#ecf0f1"/><path d="m312.40625 112.8125h138.847656v112.816406h-138.847656zm0 0" fill="#ecf0f1"/><path d="m312.40625 225.628906h138.847656v173.558594h-138.847656zm0 0" fill="#bdc3c7"/><path d="m0 225.628906h138.847656v173.558594h-138.847656zm0 0" fill="#bdc3c7"/><path d="m138.847656 399.1875v112.8125h-104.136718c-19.167969 0-34.710938-15.542969-34.710938-34.710938v-78.101562zm0 0" fill="#ecf0f1"/><path d="m138.847656 399.1875h173.558594v112.8125h-173.558594zm0 0" fill="#bdc3c7"/><path d="m451.253906 399.1875v78.101562c0 19.167969-15.539062 34.710938-34.710937 34.710938h-104.136719v-112.8125zm0 0" fill="#ecf0f1"/><path d="m138.847656 225.628906h173.558594v173.558594h-173.558594zm0 0" fill="#ecf0f1"/><path d="m138.847656 112.8125h173.558594v112.816406h-173.558594zm0 0" fill="#bdc3c7"/><path d="m451.253906 78.101562v34.710938h-451.253906v-34.710938c0-19.171874 15.542969-34.710937 34.710938-34.710937h381.832031c19.171875 0 34.710937 15.539063 34.710937 34.710937zm0 0" fill="#cc4b4c"/><g fill="#bdc3c7"><path d="m43.390625 86.78125c-4.792969 0-8.679687-3.886719-8.679687-8.679688v-69.421874c0-4.792969 3.886718-8.679688 8.679687-8.679688s8.675781 3.886719 8.675781 8.679688v69.421874c0 4.792969-3.882812 8.679688-8.675781 8.679688zm0 0"/><path d="m104.136719 86.78125c-4.792969 0-8.679688-3.886719-8.679688-8.679688v-69.421874c0-4.792969 3.886719-8.679688 8.679688-8.679688s8.675781 3.886719 8.675781 8.679688v69.421874c0 4.792969-3.882812 8.679688-8.675781 8.679688zm0 0"/><path d="m164.882812 86.78125c-4.792968 0-8.679687-3.886719-8.679687-8.679688v-69.421874c0-4.792969 3.886719-8.679688 8.679687-8.679688 4.792969 0 8.675782 3.886719 8.675782 8.679688v69.421874c0 4.792969-3.882813 8.679688-8.675782 8.679688zm0 0"/><path d="m286.371094 86.78125c-4.789063 0-8.675782-3.886719-8.675782-8.679688v-69.421874c0-4.792969 3.886719-8.679688 8.675782-8.679688 4.792968 0 8.679687 3.886719 8.679687 8.679688v69.421874c0 4.792969-3.886719 8.679688-8.679687 8.679688zm0 0"/><path d="m347.117188 86.78125c-4.792969 0-8.675782-3.886719-8.675782-8.679688v-69.421874c0-4.792969 3.882813-8.679688 8.675782-8.679688 4.792968 0 8.679687 3.886719 8.679687 8.679688v69.421874c0 4.792969-3.886719 8.679688-8.679687 8.679688zm0 0"/><path d="m407.863281 86.78125c-4.792969 0-8.675781-3.886719-8.675781-8.679688v-69.421874c0-4.792969 3.882812-8.679688 8.675781-8.679688s8.679688 3.886719 8.679688 8.679688v69.421874c0 4.792969-3.886719 8.679688-8.679688 8.679688zm0 0"/><path d="m225.628906 86.78125c-4.792968 0-8.679687-3.886719-8.679687-8.679688v-69.421874c0-4.792969 3.886719-8.679688 8.679687-8.679688 4.789063 0 8.675782 3.886719 8.675782 8.679688v69.421874c0 4.792969-3.886719 8.679688-8.675782 8.679688zm0 0"/></g><path d="m280.855469 278.5625-24.542969-24.542969-30.683594 30.6875-30.6875-30.6875-24.539062 24.542969 30.683594 30.683594-30.683594 30.6875 24.539062 24.539062 30.6875-30.683594 30.683594 30.683594 24.542969-24.539062-30.6875-30.6875zm0 0" fill="#cc4b4c"/></svg>