<svg xmlns="http://www.w3.org/2000/svg" height="512pt" version="1.1" viewBox="-53 0 512 512.00002" width="512pt">
<g id="surface1">
<path d="M 114.757812 88.277344 L 114.757812 0 L 0 105.929688 L 97.101562 105.929688 C 106.855469 105.929688 114.757812 98.027344 114.757812 88.277344 Z M 114.757812 88.277344 " style=" stroke:none;fill-rule:nonzero;fill:rgb(100%,66.27451%,57.647059%);fill-opacity:1;" />
<path d="M 229.515625 317.792969 L 229.515625 0 L 176.550781 0 L 176.550781 317.792969 Z M 229.515625 317.792969 " style=" stroke:none;fill-rule:nonzero;fill:rgb(100%,89.803922%,46.666667%);fill-opacity:1;" />
<path d="M 150.949219 381.855469 C 147.328125 390.90625 151.730469 401.183594 160.785156 404.804688 C 162.863281 405.636719 165.078125 406.066406 167.316406 406.070312 L 238.75 406.070312 C 248.5 406.054688 256.394531 398.140625 256.382812 388.386719 C 256.378906 386.148438 255.949219 383.933594 255.117188 381.855469 L 229.515625 317.792969 L 176.550781 317.792969 Z M 150.949219 381.855469 " style=" stroke:none;fill-rule:nonzero;fill:rgb(79.215686%,99.215686%,100%);fill-opacity:1;" />
<path d="M 114.757812 512 L 388.414062 512 C 398.164062 512 406.070312 504.09375 406.070312 494.34375 L 406.070312 239.148438 C 357.847656 371.226562 249.707031 472.515625 114.757812 512 Z M 114.757812 512 " style=" stroke:none;fill-rule:nonzero;fill:rgb(100%,88.627451%,74.117647%);fill-opacity:1;" />
<path d="M 406.070312 239.148438 L 406.070312 17.65625 C 406.070312 7.90625 398.164062 0 388.414062 0 L 229.515625 0 L 229.515625 317.792969 L 255.117188 381.855469 C 258.738281 390.90625 254.335938 401.183594 245.285156 404.804688 C 243.207031 405.636719 240.988281 406.066406 238.75 406.070312 L 167.316406 406.070312 C 157.566406 406.054688 149.671875 398.140625 149.6875 388.386719 C 149.691406 386.148438 150.121094 383.933594 150.949219 381.855469 L 176.550781 317.792969 L 176.550781 0 L 114.757812 0 L 114.757812 88.277344 C 114.757812 98.027344 106.855469 105.929688 97.101562 105.929688 L 0 105.929688 L 0 494.34375 C 0 504.09375 7.90625 512 17.65625 512 L 114.757812 512 C 249.707031 472.515625 357.847656 371.226562 406.070312 239.148438 Z M 406.070312 239.148438 " style=" stroke:none;fill-rule:nonzero;fill:rgb(100%,91.372549%,80%);fill-opacity:1;" />
<path d="M 194.207031 26.484375 L 211.863281 26.484375 L 211.863281 44.136719 L 194.207031 44.136719 Z M 194.207031 26.484375 " style=" stroke:none;fill-rule:nonzero;fill:rgb(100%,47.45098%,33.72549%);fill-opacity:1;" />
<path d="M 194.207031 61.792969 L 211.863281 61.792969 L 211.863281 79.449219 L 194.207031 79.449219 Z M 194.207031 61.792969 " style=" stroke:none;fill-rule:nonzero;fill:rgb(100%,47.45098%,33.72549%);fill-opacity:1;" />
<path d="M 194.207031 97.101562 L 211.863281 97.101562 L 211.863281 114.757812 L 194.207031 114.757812 Z M 194.207031 97.101562 " style=" stroke:none;fill-rule:nonzero;fill:rgb(100%,47.45098%,33.72549%);fill-opacity:1;" />
<path d="M 194.207031 132.414062 L 211.863281 132.414062 L 211.863281 150.070312 L 194.207031 150.070312 Z M 194.207031 132.414062 " style=" stroke:none;fill-rule:nonzero;fill:rgb(100%,47.45098%,33.72549%);fill-opacity:1;" />
<path d="M 194.207031 167.722656 L 211.863281 167.722656 L 211.863281 185.378906 L 194.207031 185.378906 Z M 194.207031 167.722656 " style=" stroke:none;fill-rule:nonzero;fill:rgb(100%,47.45098%,33.72549%);fill-opacity:1;" />
<path d="M 194.207031 203.035156 L 211.863281 203.035156 L 211.863281 220.691406 L 194.207031 220.691406 Z M 194.207031 203.035156 " style=" stroke:none;fill-rule:nonzero;fill:rgb(100%,47.45098%,33.72549%);fill-opacity:1;" />
<path d="M 194.207031 238.34375 L 211.863281 238.34375 L 211.863281 256 L 194.207031 256 Z M 194.207031 238.34375 " style=" stroke:none;fill-rule:nonzero;fill:rgb(100%,47.45098%,33.72549%);fill-opacity:1;" />
<path d="M 194.207031 273.65625 L 211.863281 273.65625 L 211.863281 291.308594 L 194.207031 291.308594 Z M 194.207031 273.65625 " style=" stroke:none;fill-rule:nonzero;fill:rgb(100%,47.45098%,33.72549%);fill-opacity:1;" />
<path d="M 220.691406 379.585938 L 185.378906 379.585938 C 180.503906 379.585938 176.550781 375.632812 176.550781 370.757812 C 176.550781 365.882812 180.503906 361.929688 185.378906 361.929688 L 220.691406 361.929688 C 225.566406 361.929688 229.515625 365.882812 229.515625 370.757812 C 229.515625 375.632812 225.566406 379.585938 220.691406 379.585938 Z M 220.691406 379.585938 " style=" stroke:none;fill-rule:nonzero;fill:rgb(100%,47.45098%,33.72549%);fill-opacity:1;" />
</g>
</svg>