<svg height="512pt" viewBox="-53 0 512 512" width="512pt" xmlns="http://www.w3.org/2000/svg"><path d="m35.308594 0h335.449218c19.503907 0 35.3125 15.808594 35.3125 35.308594v441.382812c0 19.5-15.808593 35.308594-35.3125 35.308594h-335.449218c-19.5 0-35.308594-15.808594-35.308594-35.308594v-441.382812c0-19.5 15.808594-35.308594 35.308594-35.308594zm0 0" fill="#2c3e50"/><path d="m44.136719 44.136719h317.792969c4.875 0 8.828124 3.953125 8.828124 8.828125v406.070312c0 4.875-3.953124 8.828125-8.828124 8.828125h-317.792969c-4.875 0-8.828125-3.953125-8.828125-8.828125v-406.070312c0-4.875 3.953125-8.828125 8.828125-8.828125zm0 0" fill="#f3d55b"/><path d="m141.242188 150.070312c0 19.5-15.808594 35.308594-35.3125 35.308594-19.5 0-35.308594-15.808594-35.308594-35.308594 0-19.503906 15.808594-35.3125 35.308594-35.3125 19.503906 0 35.3125 15.808594 35.3125 35.3125zm0 0" fill="#ecf0f1"/><path d="m141.242188 256c0 19.5-15.808594 35.308594-35.3125 35.308594-19.5 0-35.308594-15.808594-35.308594-35.308594s15.808594-35.308594 35.308594-35.308594c19.503906 0 35.3125 15.808594 35.3125 35.308594zm0 0" fill="#ecf0f1"/><path d="m141.242188 361.929688c0 19.503906-15.808594 35.3125-35.3125 35.3125-19.5 0-35.308594-15.808594-35.308594-35.3125 0-19.5 15.808594-35.308594 35.308594-35.308594 19.503906 0 35.3125 15.808594 35.3125 35.308594zm0 0" fill="#ecf0f1"/><path d="m335.449219 123.585938h-158.898438c-4.875 0-8.828125-3.953126-8.828125-8.828126s3.953125-8.828124 8.828125-8.828124h158.898438c4.875 0 8.828125 3.953124 8.828125 8.828124s-3.953125 8.828126-8.828125 8.828126zm0 0" fill="#802f34"/><path d="m335.449219 211.863281h-158.898438c-4.875 0-8.828125-3.953125-8.828125-8.828125s3.953125-8.828125 8.828125-8.828125h158.898438c4.875 0 8.828125 3.953125 8.828125 8.828125s-3.953125 8.828125-8.828125 8.828125zm0 0" fill="#802f34"/><path d="m335.449219 300.136719h-158.898438c-4.875 0-8.828125-3.949219-8.828125-8.828125 0-4.875 3.953125-8.824219 8.828125-8.824219h158.898438c4.875 0 8.828125 3.949219 8.828125 8.824219 0 4.878906-3.953125 8.828125-8.828125 8.828125zm0 0" fill="#802f34"/><path d="m335.449219 406.070312h-158.898438c-4.875 0-8.828125-3.953124-8.828125-8.828124s3.953125-8.828126 8.828125-8.828126h158.898438c4.875 0 8.828125 3.953126 8.828125 8.828126s-3.953125 8.828124-8.828125 8.828124zm0 0" fill="#802f34"/><g fill="#cc4b4c"><path d="m105.929688 194.207031c-24.375 0-44.136719-19.761719-44.136719-44.136719 0-24.378906 19.761719-44.140624 44.136719-44.140624 24.378906 0 44.140624 19.761718 44.140624 44.140624-.03125 24.363282-19.773437 44.105469-44.140624 44.136719zm0-70.621093c-14.625 0-26.480469 11.855468-26.480469 26.484374 0 14.625 11.855469 26.480469 26.480469 26.480469 14.628906 0 26.484374-11.855469 26.484374-26.480469 0-14.628906-11.855468-26.484374-26.484374-26.484374zm0 0"/><path d="m105.929688 158.898438c-2.335938-.035157-4.574219-.949219-6.265626-2.5625-.796874-.84375-1.425781-1.832032-1.855468-2.914063-.496094-1.046875-.738282-2.195313-.707032-3.351563-.019531-3.585937 2.132813-6.832031 5.445313-8.207031s7.125-.609375 9.652344 1.9375c1.625 1.683594 2.542969 3.929688 2.558593 6.269531-.011718 1.152344-.253906 2.292969-.707031 3.351563-.425781 1.082031-1.054687 2.070313-1.851562 2.914063-1.695313 1.609374-3.929688 2.523437-6.269531 2.5625zm0 0"/><path d="m105.929688 300.136719c-24.375 0-44.136719-19.761719-44.136719-44.136719s19.761719-44.136719 44.136719-44.136719c24.378906 0 44.140624 19.761719 44.140624 44.136719-.03125 24.363281-19.773437 44.109375-44.140624 44.136719zm0-70.621094c-14.625 0-26.480469 11.859375-26.480469 26.484375s11.855469 26.484375 26.480469 26.484375c14.628906 0 26.484374-11.859375 26.484374-26.484375s-11.855468-26.484375-26.484374-26.484375zm0 0"/><path d="m105.929688 264.828125c-2.335938-.035156-4.574219-.949219-6.265626-2.558594-.796874-.847656-1.425781-1.835937-1.855468-2.914062-.496094-1.046875-.738282-2.195313-.707032-3.355469-.019531-3.585938 2.132813-6.828125 5.445313-8.203125s7.125-.609375 9.652344 1.933594c1.625 1.6875 2.542969 3.929687 2.558593 6.269531-.011718 1.152344-.253906 2.292969-.707031 3.355469-.425781 1.078125-1.054687 2.066406-1.851562 2.914062-1.695313 1.609375-3.929688 2.523438-6.269531 2.558594zm0 0"/><path d="m105.929688 406.070312c-24.375 0-44.136719-19.761718-44.136719-44.140624 0-24.375 19.761719-44.136719 44.136719-44.136719 24.378906 0 44.140624 19.761719 44.140624 44.136719-.03125 24.367187-19.773437 44.109374-44.140624 44.140624zm0-70.621093c-14.625 0-26.480469 11.855469-26.480469 26.480469 0 14.628906 11.855469 26.484374 26.480469 26.484374 14.628906 0 26.484374-11.855468 26.484374-26.484374 0-14.625-11.855468-26.480469-26.484374-26.480469zm0 0"/><path d="m105.929688 370.757812c-2.335938-.035156-4.574219-.949218-6.265626-2.558593-.796874-.84375-1.425781-1.832031-1.855468-2.914063-.496094-1.046875-.738282-2.195312-.707032-3.355468-.019531-3.585938 2.132813-6.828126 5.445313-8.203126s7.125-.609374 9.652344 1.9375c1.625 1.683594 2.542969 3.925782 2.558593 6.265626-.011718 1.15625-.253906 2.292968-.707031 3.355468-.425781 1.082032-1.054687 2.070313-1.851562 2.914063-1.695313 1.609375-3.929688 2.523437-6.269531 2.558593zm0 0"/></g></svg>