<svg height="512pt" viewBox="0 0 512 512.00477" width="512pt" xmlns="http://www.w3.org/2000/svg"><path d="m427.789062 223.960938c-1.285156-3.777344-3.804687-7.011719-7.152343-9.179688-2.851563-1.898438-6.199219-2.910156-9.621094-2.914062h-310.027344c-3.421875.003906-6.769531 1.015624-9.621093 2.914062-3.347657 2.167969-5.867188 5.402344-7.148438 9.179688l-84.21484375 252.734374v17.652344c.02734375 9.742188 7.91406275 17.628906 17.65234375 17.65625h476.691406c9.738282-.027344 17.625-7.914062 17.65625-17.65625v-17.652344zm0 0" fill="#e57e25"/><path d="m192.445312 310.558594-192.44140575 166.136718 84.21484375-252.734374c1.28125-3.777344 3.800781-7.011719 7.148438-9.179688zm0 0" fill="#f0c419"/><path d="m512.003906 476.695312v17.652344c-.03125 9.742188-7.917968 17.628906-17.65625 17.65625h-476.691406c-9.738281-.027344-17.625-7.914062-17.65234375-17.65625v-17.652344zm0 0" fill="#e57e25"/><path d="m512.003906 476.695312-192.441406-166.136718 101.074219-95.777344c3.347656 2.167969 5.867187 5.402344 7.152343 9.179688zm0 0" fill="#f0c419"/><path d="m512.003906 476.695312h-511.99999975l192.44140575-166.136718 39.28125 37.164062c13.582032 12.976563 34.96875 12.976563 48.550782 0l39.285156-37.164062zm0 0" fill="#f29c1f"/><path d="m420.636719 214.78125-101.074219 95.777344-39.285156 37.164062c-13.582032 12.976563-34.96875 12.976563-48.550782 0l-39.28125-37.164062-101.078124-95.777344c2.851562-1.898438 6.199218-2.910156 9.621093-2.914062h310.027344c3.421875.003906 6.769531 1.015624 9.621094 2.914062zm0 0" fill="#f3d55b"/><path d="m114.761719 450.210938h-8.828125c-4.875 0-8.828125-3.953126-8.828125-8.828126s3.953125-8.828124 8.828125-8.828124h8.828125c4.875 0 8.828125 3.953124 8.828125 8.828124s-3.953125 8.828126-8.828125 8.828126zm0 0" fill="#e57e25"/><path d="m326.625 450.210938h-176.554688c-4.875 0-8.828124-3.953126-8.828124-8.828126s3.953124-8.828124 8.828124-8.828124h176.554688c4.875 0 8.824219 3.953124 8.824219 8.828124s-3.949219 8.828126-8.824219 8.828126zm0 0" fill="#e57e25"/><path d="m314.160156 176.554688c3.785156-.023438 7.136719-2.464844 8.320313-6.0625 1.1875-3.597657-.054688-7.550782-3.085938-9.824219-22.21875-16.835938-40.316406-39.777344-36.34375-68.960938 1.246094-8.386719 3.902344-16.496093 7.855469-23.996093 8.9375-15.035157 21.644531-27.480469 36.863281-36.101563 6.507813-4.359375 9.292969-12.535156 6.796875-19.960937-2.578125-7.125-9.414062-11.8125-16.992187-11.64453175h-123.125c-7.585938-.17578125-14.433594 4.51171875-17.011719 11.64453175-2.496094 7.421874.28125 15.597656 6.789062 19.960937 15.21875 8.621094 27.925782 21.070313 36.863282 36.113281 3.953125 7.496094 6.609375 15.609375 7.855468 23.992188 3.972657 29.183594-14.125 52.082031-36.34375 68.960937-3.03125 2.273438-4.273437 6.226563-3.085937 9.824219 1.183594 3.597656 4.535156 6.039062 8.320313 6.066406zm0 0" fill="#cc4b4c"/><path d="m220.691406 176.554688 35.3125 141.242187 35.308594-141.242187zm0 0" fill="#e6e7e8"/><path d="m273.65625 44.144531h-35.308594c-4.875 0-8.828125-3.953125-8.828125-8.828125s3.953125-8.828125 8.828125-8.828125h35.308594c4.875 0 8.828125 3.953125 8.828125 8.828125s-3.953125 8.828125-8.828125 8.828125zm0 0" fill="#802f34"/></svg>