<svg height="512pt" viewBox="0 0 512 512" width="512pt" xmlns="http://www.w3.org/2000/svg"><path d="m512 44.136719v52.964843c-.027344 9.742188-7.917969 17.628907-17.65625 17.65625h-88.273438v-88.273437h88.273438c9.738281.027344 17.628906 7.914063 17.65625 17.652344zm0 0" fill="#c03a2b"/><path d="m125.703125 26.484375h280.367187v88.273437h-280.367187zm0 0" fill="#ff5364"/><path d="m512 229.515625v52.96875c-.027344 9.738281-7.917969 17.625-17.65625 17.652344h-35.308594v-88.273438h35.308594c9.738281.027344 17.628906 7.914063 17.65625 17.652344zm0 0" fill="#4c8056"/><path d="m125.703125 211.863281h333.332031v88.273438h-333.332031zm0 0" fill="#71c285"/><path d="m512 414.898438v52.964843c-.027344 9.738281-7.917969 17.625-17.65625 17.652344h-194.207031v-88.273437h194.207031c9.738281.027343 17.628906 7.914062 17.65625 17.65625zm0 0" fill="#c03a2b"/><path d="m125.703125 397.242188h174.433594v88.273437h-174.433594zm0 0" fill="#ff5364"/><g fill="#fb7b76"><path d="m203.035156 26.484375c.007813 2.34375-.914062 4.597656-2.5625 6.265625l-53.582031 53.582031c-3.480469 3.414063-9.054687 3.414063-12.535156 0-3.441407-3.46875-3.441407-9.0625 0-12.535156l47.316406-47.3125zm0 0"/><path d="m256 26.484375c.007812 2.34375-.914062 4.597656-2.558594 6.265625l-82.007812 82.007812h-21.363282c-.007812-2.34375.910157-4.597656 2.558594-6.265624l82.007813-82.007813zm0 0"/><path d="m308.964844 26.484375c.007812 2.34375-.914063 4.597656-2.558594 6.265625l-82.007812 82.007812h-21.363282c-.007812-2.34375.914063-4.597656 2.558594-6.265624l82.007812-82.007813zm0 0"/><path d="m361.929688 26.484375c.007812 2.34375-.910157 4.597656-2.558594 6.265625l-82.007813 82.007812h-21.363281c-.007812-2.34375.914062-4.597656 2.558594-6.265624l82.007812-82.007813zm0 0"/><path d="m406.070312 26.484375v12.535156l-75.742187 75.738281h-21.363281c-.007813-2.34375.914062-4.597656 2.5625-6.265624l82.007812-82.007813zm0 0"/></g><path d="m203.035156 211.863281c.007813 2.34375-.914062 4.597657-2.5625 6.265625l-53.582031 53.585938c-3.480469 3.414062-9.054687 3.414062-12.535156 0-3.441407-3.472656-3.441407-9.066406 0-12.535156l47.316406-47.316407zm0 0" fill="#4c8056"/><path d="m256 211.863281c.007812 2.34375-.914062 4.597657-2.558594 6.265625l-82.007812 82.007813h-21.363282c-.007812-2.34375.910157-4.597657 2.558594-6.265625l82.007813-82.007813zm0 0" fill="#4c8056"/><path d="m308.964844 211.863281c.007812 2.34375-.914063 4.597657-2.558594 6.265625l-82.007812 82.007813h-21.363282c-.007812-2.34375.914063-4.597657 2.558594-6.265625l82.007812-82.007813zm0 0" fill="#4c8056"/><path d="m203.035156 397.242188c.007813 2.34375-.914062 4.597656-2.5625 6.265624l-53.582031 53.585938c-3.480469 3.414062-9.054687 3.414062-12.535156 0-3.441407-3.46875-3.441407-9.066406 0-12.535156l47.316406-47.316406zm0 0" fill="#fb7b76"/><path d="m256 397.242188c.007812 2.34375-.914062 4.597656-2.558594 6.265624l-82.007812 82.007813h-21.363282c-.007812-2.34375.910157-4.597656 2.558594-6.265625l82.007813-82.007812zm0 0" fill="#fb7b76"/><path d="m300.136719 397.242188v12.535156l-75.738281 75.738281h-21.363282c-.007812-2.34375.914063-4.597656 2.558594-6.265625l82.007812-82.007812zm0 0" fill="#fb7b76"/><path d="m361.929688 211.863281c.007812 2.34375-.910157 4.597657-2.558594 6.265625l-82.007813 82.007813h-21.363281c-.007812-2.34375.914062-4.597657 2.558594-6.265625l82.007812-82.007813zm0 0" fill="#4c8056"/><path d="m414.898438 211.863281c.003906 2.34375-.914063 4.597657-2.5625 6.265625l-82.007813 82.007813h-21.363281c-.007813-2.34375.914062-4.597657 2.5625-6.265625l82.007812-82.007813zm0 0" fill="#4c8056"/><path d="m459.035156 211.863281v12.535157l-75.742187 75.738281h-21.363281c-.003907-2.34375.914062-4.597657 2.5625-6.265625l82.007812-82.007813zm0 0" fill="#4c8056"/><path d="m141.242188 70.621094c0 39.003906-31.617188 70.621094-70.621094 70.621094s-70.621094-31.617188-70.621094-70.621094 31.617188-70.621094 70.621094-70.621094 70.621094 31.617188 70.621094 70.621094zm0 0" fill="#cc4b4c"/><path d="m105.929688 70.621094c0 19.5-15.808594 35.308594-35.308594 35.308594s-35.3125-15.808594-35.3125-35.308594 15.8125-35.3125 35.3125-35.3125 35.308594 15.8125 35.308594 35.3125zm0 0" fill="#fff"/><path d="m141.242188 256c0 39.003906-31.617188 70.621094-70.621094 70.621094s-70.621094-31.617188-70.621094-70.621094 31.617188-70.621094 70.621094-70.621094 70.621094 31.617188 70.621094 70.621094zm0 0" fill="#4fba6f"/><path d="m105.929688 256c0 19.5-15.808594 35.308594-35.308594 35.308594s-35.3125-15.808594-35.3125-35.308594 15.8125-35.308594 35.3125-35.308594 35.308594 15.808594 35.308594 35.308594zm0 0" fill="#fff"/><path d="m141.242188 441.378906c0 39.003906-31.617188 70.621094-70.621094 70.621094s-70.621094-31.617188-70.621094-70.621094 31.617188-70.621094 70.621094-70.621094 70.621094 31.617188 70.621094 70.621094zm0 0" fill="#cc4b4c"/><path d="m105.929688 441.378906c0 19.5-15.808594 35.3125-35.308594 35.3125s-35.3125-15.8125-35.3125-35.3125 15.8125-35.308594 35.3125-35.308594 35.308594 15.808594 35.308594 35.308594zm0 0" fill="#fff"/></svg>