<svg height="511pt" viewBox="-39 0 511 511.80524" width="511pt" xmlns="http://www.w3.org/2000/svg"><path d="m225.066406 467.863281h110.785156c9.738282-.03125 17.625-7.917969 17.65625-17.65625v-397.242187c-.03125-9.738282-7.917968-17.625-17.65625-17.65625h-317.792968c-9.738282.03125-17.625 7.917968-17.65625 17.65625v397.242187c.03125 9.738281 7.917968 17.625 17.65625 17.65625zm0 0" fill="#7f5b53"/><path d="m256.402344 70.621094h52.964844c4.875 0 8.828124 3.953125 8.828124 8.828125v305.804687c0 3.660156-2.257812 6.9375-5.675781 8.246094l-100.632812 38.46875c-1.007813.386719-2.074219.582031-3.152344.582031h-164.195313c-4.875 0-8.824218-3.953125-8.824218-8.828125v-344.273437c0-4.875 3.949218-8.828125 8.824218-8.828125zm0 0" fill="#f9eab0"/><path d="m141.644531 35.308594c0-19.5 15.808594-35.308594 35.308594-35.308594 19.503906 0 35.3125 15.808594 35.3125 35.308594" fill="#95a5a5"/><path d="m97.507812 35.308594h158.894532v35.3125c0 9.75-7.902344 17.65625-17.65625 17.65625h-123.585938c-9.75 0-17.652344-7.90625-17.652344-17.65625zm0 0" fill="#bdc3c7"/><g fill="#e57e25"><path d="m71.023438 361.929688h35.308593c4.878907 0 8.828125 3.953124 8.828125 8.828124v17.65625c0 4.875-3.949218 8.828126-8.828125 8.828126h-35.308593c-4.875 0-8.828126-3.953126-8.828126-8.828126v-17.65625c0-4.875 3.953126-8.828124 8.828126-8.828124zm0 0"/><path d="m71.023438 291.308594h35.308593c4.878907 0 8.828125 3.953125 8.828125 8.828125v17.65625c0 4.875-3.949218 8.828125-8.828125 8.828125h-35.308593c-4.875 0-8.828126-3.953125-8.828126-8.828125v-17.65625c0-4.875 3.953126-8.828125 8.828126-8.828125zm0 0"/><path d="m71.023438 220.691406h35.308593c4.878907 0 8.828125 3.949219 8.828125 8.824219v17.65625c0 4.875-3.949218 8.828125-8.828125 8.828125h-35.308593c-4.875 0-8.828126-3.953125-8.828126-8.828125v-17.65625c0-4.875 3.953126-8.824219 8.828126-8.824219zm0 0"/><path d="m159.300781 361.929688h35.308594c4.875 0 8.828125 3.953124 8.828125 8.828124v17.65625c0 4.875-3.953125 8.828126-8.828125 8.828126h-35.308594c-4.875 0-8.828125-3.953126-8.828125-8.828126v-17.65625c0-4.875 3.953125-8.828124 8.828125-8.828124zm0 0"/><path d="m159.300781 291.308594h35.308594c4.875 0 8.828125 3.953125 8.828125 8.828125v17.65625c0 4.875-3.953125 8.828125-8.828125 8.828125h-35.308594c-4.875 0-8.828125-3.953125-8.828125-8.828125v-17.65625c0-4.875 3.953125-8.828125 8.828125-8.828125zm0 0"/><path d="m159.300781 220.691406h35.308594c4.875 0 8.828125 3.949219 8.828125 8.824219v17.65625c0 4.875-3.953125 8.828125-8.828125 8.828125h-35.308594c-4.875 0-8.828125-3.953125-8.828125-8.828125v-17.65625c0-4.875 3.953125-8.824219 8.828125-8.824219zm0 0"/><path d="m71.023438 150.070312h35.308593c4.878907 0 8.828125 3.949219 8.828125 8.828126v17.652343c0 4.875-3.949218 8.828125-8.828125 8.828125h-35.308593c-4.875 0-8.828126-3.953125-8.828126-8.828125v-17.652343c0-4.878907 3.953126-8.828126 8.828126-8.828126zm0 0"/></g><path d="m280.777344 412.097656-94.757813 94.757813c-6.929687 6.6875-17.941406 6.585937-24.75-.226563-6.804687-6.8125-6.898437-17.824218-.203125-24.75l94.734375-94.753906zm0 0" fill="#955ba5"/><path d="m221.09375 132.414062h-17.65625c-4.875 0-8.828125-3.953124-8.828125-8.828124s3.953125-8.828126 8.828125-8.828126h17.65625c4.875 0 8.824219 3.953126 8.824219 8.828126s-3.949219 8.828124-8.824219 8.828124zm0 0" fill="#d25627"/><path d="m282.886719 132.414062h-26.484375c-4.875 0-8.828125-3.953124-8.828125-8.828124s3.953125-8.828126 8.828125-8.828126h26.484375c4.875 0 8.828125 3.953126 8.828125 8.828126s-3.953125 8.828124-8.828125 8.828124zm0 0" fill="#d25627"/><path d="m282.886719 167.722656h-105.933594c-4.875 0-8.828125-3.949218-8.828125-8.824218 0-4.878907 3.953125-8.828126 8.828125-8.828126h105.933594c4.875 0 8.828125 3.949219 8.828125 8.828126 0 4.875-3.953125 8.824218-8.828125 8.824218zm0 0" fill="#d25627"/><path d="m282.886719 203.035156h-26.484375c-4.875 0-8.828125-3.953125-8.828125-8.828125s3.953125-8.828125 8.828125-8.828125h26.484375c4.875 0 8.828125 3.953125 8.828125 8.828125s-3.953125 8.828125-8.828125 8.828125zm0 0" fill="#d25627"/><path d="m404.496094 263.40625c-27.773438-27.773438-69.539063-36.082031-105.824219-21.050781-36.285156 15.027343-59.945313 50.4375-59.945313 89.710937 0 39.277344 23.660157 74.683594 59.945313 89.714844 36.285156 15.027344 78.050781 6.71875 105.824219-21.054688 18.21875-18.203124 28.460937-42.902343 28.460937-68.660156 0-25.757812-10.242187-50.457031-28.460937-68.660156zm0 0" fill="#3d324c"/><path d="m379.546875 375.789062c-19.339844 19.292969-49.039063 23.632813-73.09375 10.683594-5.261719-2.839844-10.082031-6.441406-14.296875-10.683594-1.871094-1.824218-3.585938-3.800781-5.121094-5.914062-2.125-2.605469-3.988281-5.414062-5.5625-8.386719-15.125-27.988281-6.527344-62.886719 19.871094-80.644531 26.398438-17.761719 61.964844-12.574219 82.191406 11.984375 20.226563 24.554687 18.5 60.457031-3.988281 82.960937zm0 0" fill="#90bae1"/><path d="m393.496094 309.761719c-42.894532 2.425781-82.230469 24.636719-106.460938 60.113281-2.125-2.605469-3.988281-5.414062-5.5625-8.386719-10.761718-20.222656-9.453125-44.742187 3.402344-63.703125 12.855469-18.964844 35.148438-29.257812 57.917969-26.746094 22.773437 2.507813 42.285156 17.414063 50.703125 38.722657zm0 0" fill="#b0d3f0"/></svg>