<svg height="512pt" viewBox="-88 0 512 512" width="512pt" xmlns="http://www.w3.org/2000/svg"><path d="m17.65625 35.308594h300.136719c9.75 0 17.65625 7.90625 17.65625 17.65625v441.378906c0 9.75-7.90625 17.65625-17.65625 17.65625h-300.136719c-9.75 0-17.65625-7.90625-17.65625-17.65625v-441.378906c0-9.75 7.90625-17.65625 17.65625-17.65625zm0 0" fill="#7f5b53"/><path d="m247.171875 70.621094h44.136719c4.878906 0 8.828125 3.953125 8.828125 8.828125v388.414062c0 4.875-3.949219 8.828125-8.828125 8.828125h-247.171875c-4.875 0-8.828125-3.953125-8.828125-8.828125v-388.414062c0-4.875 3.953125-8.828125 8.828125-8.828125zm0 0" fill="#f9eab0"/><path d="m132.414062 35.308594c0-19.5 15.808594-35.308594 35.308594-35.308594 19.503906 0 35.3125 15.808594 35.3125 35.308594" fill="#95a5a5"/><path d="m88.277344 35.308594h158.894531v35.3125c0 9.75-7.902344 17.65625-17.65625 17.65625h-123.585937c-9.75 0-17.652344-7.90625-17.652344-17.65625zm0 0" fill="#bdc3c7"/><path d="m171.847656 323.609375 40.015625 21.132813c2.976563 1.59375 6.597657 1.351562 9.335938-.628907 2.734375-1.976562 4.101562-5.339843 3.523437-8.664062l-7.660156-44.863281c-.488281-2.855469.453125-5.765626 2.523438-7.792969l32.496093-31.78125c2.402344-2.347657 3.261719-5.855469 2.222657-9.050781-1.042969-3.195313-3.808594-5.519532-7.132813-6l-44.851563-6.539063c-2.878906-.421875-5.363281-2.230469-6.648437-4.839844l-20.003906-40.746093c-1.484375-3.023438-4.554688-4.9375-7.921875-4.9375-3.367188 0-6.4375 1.914062-7.921875 4.9375l-20.039063 40.746093c-1.285156 2.609375-3.769531 4.417969-6.648437 4.839844l-44.859375 6.539063c-3.304688.496093-6.046875 2.8125-7.085938 5.992187-1.035156 3.175781-.191406 6.664063 2.183594 9.015625l32.496094 31.777344c2.070312 2.027344 3.011718 4.941406 2.523437 7.796875l-7.671875 44.90625c-.578125 3.324219.792969 6.6875 3.527344 8.664062 2.738281 1.980469 6.359375 2.222657 9.335938.628907l40.058593-21.132813c2.570313-1.347656 5.632813-1.347656 8.203125 0zm0 0" fill="#f0c419"/><g fill="#e57e25"><path d="m97.101562 406.070312h-26.480468c-4.875 0-8.828125-3.953124-8.828125-8.828124s3.953125-8.828126 8.828125-8.828126h26.480468c4.878907 0 8.828126 3.953126 8.828126 8.828126s-3.949219 8.828124-8.828126 8.828124zm0 0"/><path d="m264.828125 406.070312h-132.414063c-4.875 0-8.828124-3.953124-8.828124-8.828124s3.953124-8.828126 8.828124-8.828126h132.414063c4.875 0 8.828125 3.953126 8.828125 8.828126s-3.953125 8.828124-8.828125 8.828124zm0 0"/><path d="m264.828125 441.378906h-26.484375c-4.875 0-8.828125-3.953125-8.828125-8.828125s3.953125-8.828125 8.828125-8.828125h26.484375c4.875 0 8.828125 3.953125 8.828125 8.828125s-3.953125 8.828125-8.828125 8.828125zm0 0"/><path d="m203.035156 441.378906h-132.414062c-4.875 0-8.828125-3.953125-8.828125-8.828125s3.953125-8.828125 8.828125-8.828125h132.414062c4.875 0 8.828125 3.953125 8.828125 8.828125s-3.953125 8.828125-8.828125 8.828125zm0 0"/><path d="m97.101562 132.414062h-26.480468c-4.875 0-8.828125-3.953124-8.828125-8.828124s3.953125-8.828126 8.828125-8.828126h26.480468c4.878907 0 8.828126 3.953126 8.828126 8.828126s-3.949219 8.828124-8.828126 8.828124zm0 0"/><path d="m264.828125 132.414062h-132.414063c-4.875 0-8.828124-3.953124-8.828124-8.828124s3.953124-8.828126 8.828124-8.828126h132.414063c4.875 0 8.828125 3.953126 8.828125 8.828126s-3.953125 8.828124-8.828125 8.828124zm0 0"/></g></svg>