<svg height="512pt" viewBox="-35 0 512 512.00336" width="512pt" xmlns="http://www.w3.org/2000/svg"><path d="m242.644531 467.863281h-224.988281c-9.738281-.03125-17.625-7.917969-17.65625-17.65625v-397.242187c.03125-9.738282 7.917969-17.625 17.65625-17.65625h317.792969c9.738281.03125 17.625 7.917968 17.65625 17.65625v282.484375zm0 0" fill="#7f5b53"/><path d="m256 70.621094h52.96875c4.875 0 8.824219 3.953125 8.824219 8.828125v261.488281c0 2.148438-.785157 4.226562-2.207031 5.835938l-52.964844 82.785156c-1.671875 1.902344-4.085938 2.992187-6.621094 2.992187h-211.859375c-4.875 0-8.828125-3.953125-8.828125-8.828125v-344.273437c0-4.875 3.953125-8.828125 8.828125-8.828125zm0 0" fill="#ecf0f1"/><path d="m141.242188 35.308594c0-19.5 15.808593-35.308594 35.3125-35.308594 19.5 0 35.308593 15.808594 35.308593 35.308594" fill="#95a5a5"/><path d="m97.105469 35.308594h158.894531v35.3125c0 9.75-7.902344 17.65625-17.652344 17.65625h-123.585937c-9.753907 0-17.65625-7.90625-17.65625-17.65625zm0 0" fill="#bdc3c7"/><g fill="#955ba5"><path d="m70.621094 361.929688h35.3125c4.875 0 8.828125 3.953124 8.828125 8.828124v17.65625c0 4.875-3.953125 8.828126-8.828125 8.828126h-35.3125c-4.875 0-8.828125-3.953126-8.828125-8.828126v-17.65625c0-4.875 3.953125-8.828124 8.828125-8.828124zm0 0"/><path d="m70.621094 291.308594h35.3125c4.875 0 8.828125 3.953125 8.828125 8.828125v17.65625c0 4.875-3.953125 8.828125-8.828125 8.828125h-35.3125c-4.875 0-8.828125-3.953125-8.828125-8.828125v-17.65625c0-4.875 3.953125-8.828125 8.828125-8.828125zm0 0"/><path d="m70.621094 220.691406h35.3125c4.875 0 8.828125 3.949219 8.828125 8.824219v17.65625c0 4.875-3.953125 8.828125-8.828125 8.828125h-35.3125c-4.875 0-8.828125-3.953125-8.828125-8.828125v-17.65625c0-4.875 3.953125-8.824219 8.828125-8.824219zm0 0"/><path d="m158.898438 361.929688h35.308593c4.875 0 8.828125 3.953124 8.828125 8.828124v17.65625c0 4.875-3.953125 8.828126-8.828125 8.828126h-35.308593c-4.875 0-8.828126-3.953126-8.828126-8.828126v-17.65625c0-4.875 3.953126-8.828124 8.828126-8.828124zm0 0"/><path d="m158.898438 291.308594h35.308593c4.875 0 8.828125 3.953125 8.828125 8.828125v17.65625c0 4.875-3.953125 8.828125-8.828125 8.828125h-35.308593c-4.875 0-8.828126-3.953125-8.828126-8.828125v-17.65625c0-4.875 3.953126-8.828125 8.828126-8.828125zm0 0"/><path d="m158.898438 220.691406h35.308593c4.875 0 8.828125 3.949219 8.828125 8.824219v17.65625c0 4.875-3.953125 8.828125-8.828125 8.828125h-35.308593c-4.875 0-8.828126-3.953125-8.828126-8.828125v-17.65625c0-4.875 3.953126-8.824219 8.828126-8.824219zm0 0"/><path d="m70.621094 150.070312h35.3125c4.875 0 8.828125 3.949219 8.828125 8.828126v17.652343c0 4.875-3.953125 8.828125-8.828125 8.828125h-35.3125c-4.875 0-8.828125-3.953125-8.828125-8.828125v-17.652343c0-4.878907 3.953125-8.828126 8.828125-8.828126zm0 0"/></g><path d="m220.691406 132.414062h-17.65625c-4.875 0-8.828125-3.953124-8.828125-8.828124s3.953125-8.828126 8.828125-8.828126h17.65625c4.875 0 8.828125 3.953126 8.828125 8.828126s-3.953125 8.828124-8.828125 8.828124zm0 0" fill="#3d324c"/><path d="m282.484375 132.414062h-26.484375c-4.875 0-8.824219-3.953124-8.824219-8.828124s3.949219-8.828126 8.824219-8.828126h26.484375c4.875 0 8.828125 3.953126 8.828125 8.828126s-3.953125 8.828124-8.828125 8.828124zm0 0" fill="#3d324c"/><path d="m282.484375 167.722656h-105.929687c-4.875 0-8.828126-3.949218-8.828126-8.824218 0-4.878907 3.953126-8.828126 8.828126-8.828126h105.929687c4.875 0 8.828125 3.949219 8.828125 8.828126 0 4.875-3.953125 8.824218-8.828125 8.824218zm0 0" fill="#3d324c"/><path d="m282.484375 203.035156h-26.484375c-4.875 0-8.824219-3.953125-8.824219-8.828125s3.949219-8.828125 8.824219-8.828125h26.484375c4.875 0 8.828125 3.953125 8.828125 8.828125s-3.953125 8.828125-8.828125 8.828125zm0 0" fill="#3d324c"/><path d="m353.105469 319.558594c41.089843 8.421875 70.59375 44.566406 70.621093 86.511718v48.675782c.359376 10.34375 4.851563 20.113281 12.464844 27.125 3.320313 3.300781 5.1875 7.792968 5.191406 12.472656-.074218 9.722656-7.9375 17.585938-17.65625 17.65625h-175.5625c-9.390624.179688-17.394531-6.769531-18.539062-16.09375-.488281-5.203125 1.398438-10.351562 5.136719-14.007812l.246093-.246094c7.507813-6.957032 11.890626-16.644532 12.167969-26.871094v-48.710938c.046875-41.933593 29.542969-78.066406 70.617188-86.511718v-18.34375c-.214844-8.882813 5.941406-16.652344 14.636719-18.476563 5.132812-.875 10.390624.554688 14.371093 3.90625 3.984375 3.351563 6.289063 8.289063 6.304688 13.492188zm0 0" fill="#f0c419"/><path d="m441.382812 494.34375c-.074218 9.722656-7.9375 17.585938-17.65625 17.65625h-88.277343v-229.515625c9.738281.027344 17.625 7.914063 17.65625 17.652344v19.421875c41.089843 8.421875 70.59375 44.566406 70.621093 86.511718v48.636719c.371094 10.359375 4.847657 20.140625 12.445313 27.191407 3.316406 3.296874 5.1875 7.773437 5.210937 12.445312zm0 0" fill="#f3d55b"/><path d="m300.140625 485.515625h-17.65625c-4.875 0-8.828125-3.949219-8.828125-8.824219 0-4.878906 3.953125-8.828125 8.828125-8.828125h17.65625c4.875 0 8.828125 3.949219 8.828125 8.828125 0 4.875-3.953125 8.824219-8.828125 8.824219zm0 0" fill="#f9eab0"/><path d="m388.414062 485.515625h-52.964843c-4.875 0-8.828125-3.949219-8.828125-8.824219 0-4.878906 3.953125-8.828125 8.828125-8.828125h52.964843c4.875 0 8.828126 3.949219 8.828126 8.828125 0 4.875-3.953126 8.824219-8.828126 8.824219zm0 0" fill="#f9eab0"/></svg>