<svg height="511pt" viewBox="0 0 511.98275 511" width="511pt" xmlns="http://www.w3.org/2000/svg"><path d="m341.742188 304.511719 126.234374 126.234375 44.007813 81.726562-81.726563-44.007812-126.234374-126.234375zm0 0" fill="#bdc3c7"/><path d="m392.535156 204.390625c13.894532 13.894531-17.097656 67.386719-69.152344 119.445313-52.058593 52.054687-105.554687 83.085937-119.484374 69.191406l-44.003907-81.726563c13.894531 13.894531 58.90625-8.617187 100.582031-50.316406 41.675782-41.703125 64.183594-86.699219 50.316407-100.582031zm0 0" fill="#e64c3c"/><path d="m167.980469 264.417969c-12.199219 21.371093-15.84375 39.105469-8.050781 46.898437 13.894531 13.894532 58.90625-8.613281 100.582031-50.316406s64.183593-86.695312 50.316406-100.582031c-7.792969-7.792969-25.519531-4.148438-46.902344 8.050781zm0 0" fill="#802d40"/><path d="m279.375 179.285156-15.464844-10.816406-106.488281-78.335938-67.777344 67.777344 78.335938 106.488282 10.8125 15.464843" fill="#c03a2b"/><path d="m128.503906 3.261719 31.433594 56.574219c3.140625 3.773437 4.308594 8.808593 3.144531 13.578124-1.953125 14.398438-14.777343 35.769532-34.578125 55.613282-19.800781 19.84375-41.179687 32.664062-55.613281 34.578125-4.769531 1.164062-9.804687-.003907-13.578125-3.144531l-56.539062-31.46875zm0 0" fill="#e64c3c"/><path d="m128.496094 3.257812c-10.414063-10.414062-47.003906 9.289063-81.722656 44.007813s-54.421876 71.304687-44.007813 81.71875c10.417969 10.417969 47.003906-9.285156 81.722656-44.003906s54.421875-71.308594 44.007813-81.722657zm0 0" fill="#c03a2b"/></svg>