<svg height="512pt" viewBox="-88 0 512 512" width="512pt" xmlns="http://www.w3.org/2000/svg"><path d="m17.65625 35.308594h300.136719c9.75 0 17.65625 7.90625 17.65625 17.65625v441.378906c0 9.75-7.90625 17.65625-17.65625 17.65625h-300.136719c-9.75 0-17.65625-7.90625-17.65625-17.65625v-441.378906c0-9.75 7.90625-17.65625 17.65625-17.65625zm0 0" fill="#7f5b53"/><path d="m247.171875 70.621094h44.136719c4.878906 0 8.828125 3.953125 8.828125 8.828125v388.414062c0 4.875-3.949219 8.828125-8.828125 8.828125h-247.171875c-4.875 0-8.828125-3.953125-8.828125-8.828125v-388.414062c0-4.875 3.953125-8.828125 8.828125-8.828125zm0 0" fill="#e6e7e8"/><path d="m132.414062 35.308594c0-19.5 15.808594-35.308594 35.308594-35.308594 19.503906 0 35.3125 15.808594 35.3125 35.308594" fill="#bdc3c7"/><path d="m88.277344 35.308594h158.894531v35.3125c0 9.75-7.902344 17.65625-17.65625 17.65625h-123.585937c-9.75 0-17.652344-7.90625-17.652344-17.65625zm0 0" fill="#a5a5a4"/><g fill="#35495e"><path d="m97.101562 406.070312h-26.480468c-4.875 0-8.828125-3.953124-8.828125-8.828124s3.953125-8.828126 8.828125-8.828126h26.480468c4.878907 0 8.828126 3.953126 8.828126 8.828126s-3.949219 8.828124-8.828126 8.828124zm0 0"/><path d="m264.828125 406.070312h-132.414063c-4.875 0-8.828124-3.953124-8.828124-8.828124s3.953124-8.828126 8.828124-8.828126h132.414063c4.875 0 8.828125 3.953126 8.828125 8.828126s-3.953125 8.828124-8.828125 8.828124zm0 0"/><path d="m264.828125 441.378906h-26.484375c-4.875 0-8.828125-3.953125-8.828125-8.828125s3.953125-8.828125 8.828125-8.828125h26.484375c4.875 0 8.828125 3.953125 8.828125 8.828125s-3.953125 8.828125-8.828125 8.828125zm0 0"/><path d="m203.035156 441.378906h-132.414062c-4.875 0-8.828125-3.953125-8.828125-8.828125s3.953125-8.828125 8.828125-8.828125h132.414062c4.875 0 8.828125 3.953125 8.828125 8.828125s-3.953125 8.828125-8.828125 8.828125zm0 0"/><path d="m97.101562 132.414062h-26.480468c-4.875 0-8.828125-3.953124-8.828125-8.828124s3.953125-8.828126 8.828125-8.828126h26.480468c4.878907 0 8.828126 3.953126 8.828126 8.828126s-3.949219 8.828124-8.828126 8.828124zm0 0"/><path d="m264.828125 132.414062h-132.414063c-4.875 0-8.828124-3.953124-8.828124-8.828124s3.953124-8.828126 8.828124-8.828126h132.414063c4.875 0 8.828125 3.953126 8.828125 8.828126s-3.953125 8.828124-8.828125 8.828124zm0 0"/></g><path d="m133.128906 344.433594-56.859375-68.226563c-3.117187-3.746093-2.613281-9.308593 1.128907-12.429687l13.527343-11.308594c3.742188-3.117188 9.308594-2.613281 12.425781 1.128906l28.25 33.898438c1.742188 2.089844 4.347657 3.257812 7.066407 3.171875 2.71875-.089844 5.242187-1.425781 6.847656-3.621094l85.765625-117.558594c1.394531-1.90625 3.492188-3.179687 5.828125-3.527343 2.335937-.351563 4.714844.25 6.601563 1.667968l14.125 10.589844c3.867187 2.90625 4.679687 8.378906 1.820312 12.28125l-112.625 153.503906c-1.605469 2.191406-4.128906 3.519532-6.84375 3.605469-2.71875.082031-5.320312-1.085937-7.058594-3.175781zm0 0" fill="#24ae5f"/></svg>