<svg height="512pt" viewBox="-61 0 511 512" width="512pt" xmlns="http://www.w3.org/2000/svg"><path d="m18.15625 35.308594h353.101562c9.75 0 17.65625 7.90625 17.65625 17.65625v441.378906c0 9.75-7.90625 17.65625-17.65625 17.65625h-353.101562c-9.75 0-17.65625-7.90625-17.65625-17.65625v-441.378906c0-9.75 7.90625-17.65625 17.65625-17.65625zm0 0" fill="#7f5b53"/><path d="m274.15625 70.621094h61.792969c9.75 0 17.652343 7.902344 17.652343 17.65625v73.789062c0 3.679688-1.152343 7.265625-3.289062 10.257813l-27.746094 38.839843c-3.15625 4.417969-8.164062 7.136719-13.585937 7.375-5.421875.242188-10.65625-2.027343-14.1875-6.148437l-23.128907-27.011719c-3.59375-4.199218-8.949218-6.46875-14.46875-6.136718-5.519531.332031-10.5625 3.230468-13.628906 7.832031l-11.332031 16.992187c-2.804687 4.207032-7.273437 7.007813-12.28125 7.699219-5.003906.6875-10.066406-.796875-13.902344-4.085937l-34.25-29.363282c-6.996093-6.015625-17.445312-5.628906-23.976562.882813l-23.164063 23.164062c-5.574218 5.570313-14.164062 6.773438-21.054687 2.949219l-58.730469-32.664062c-5.5625-3.097657-9.023438-8.949219-9.066406-15.3125v-69.058594c0-9.753906 7.90625-17.65625 17.65625-17.65625zm0 0" fill="#f3d55b"/><path d="m115.257812 476.691406h-61.792968c-9.75 0-17.65625-7.90625-17.65625-17.65625v-170.894531c.003906-3.679687 1.15625-7.265625 3.292968-10.257813l27.746094-38.839843c3.15625-4.417969 8.164063-7.136719 13.585938-7.375 5.421875-.242188 10.65625 2.027343 14.1875 6.148437l23.125 27.011719c3.597656 4.199219 8.953125 6.46875 14.472656 6.136719 5.519531-.332032 10.5625-3.230469 13.628906-7.832032l11.332032-16.992187c2.804687-4.207031 7.273437-7.007813 12.28125-7.699219 5.003906-.6875 10.066406.796875 13.902343 4.085938l34.25 29.363281c6.996094 6.015625 17.441407 5.628906 23.976563-.882813l23.164062-23.164062c5.574219-5.570312 14.164063-6.773438 21.054688-2.949219l58.730468 32.664063c5.5625 3.09375 9.023438 8.949218 9.0625 15.3125v166.164062c0 9.75-7.902343 17.65625-17.652343 17.65625zm0 0" fill="#f3d55b"/><g fill="#d25627"><path d="m97.601562 335.449219h-17.652343c-4.875 0-8.828125-3.953125-8.828125-8.828125s3.953125-8.828125 8.828125-8.828125h17.652343c4.878907 0 8.828126 3.953125 8.828126 8.828125s-3.949219 8.828125-8.828126 8.828125zm0 0"/><path d="m318.292969 335.449219h-185.378907c-4.875 0-8.828124-3.953125-8.828124-8.828125s3.953124-8.828125 8.828124-8.828125h185.378907c4.875 0 8.828125 3.953125 8.828125 8.828125s-3.953125 8.828125-8.828125 8.828125zm0 0"/><path d="m318.292969 370.757812h-17.65625c-4.875 0-8.828125-3.953124-8.828125-8.828124s3.953125-8.828126 8.828125-8.828126h17.65625c4.875 0 8.828125 3.953126 8.828125 8.828126s-3.953125 8.828124-8.828125 8.828124zm0 0"/><path d="m265.328125 370.757812h-185.378906c-4.875 0-8.828125-3.953124-8.828125-8.828124s3.953125-8.828126 8.828125-8.828126h185.378906c4.875 0 8.828125 3.953126 8.828125 8.828126s-3.953125 8.828124-8.828125 8.828124zm0 0"/><path d="m150.570312 406.070312h-70.621093c-4.875 0-8.828125-3.953124-8.828125-8.828124s3.953125-8.828126 8.828125-8.828126h70.621093c4.875 0 8.828126 3.953126 8.828126 8.828126s-3.953126 8.828124-8.828126 8.828124zm0 0"/><path d="m238.84375 406.070312h-52.964844c-4.875 0-8.828125-3.953124-8.828125-8.828124s3.953125-8.828126 8.828125-8.828126h52.964844c4.875 0 8.828125 3.953126 8.828125 8.828126s-3.953125 8.828124-8.828125 8.828124zm0 0"/></g><path d="m159.398438 35.308594c0-19.5 15.808593-35.308594 35.308593-35.308594s35.308594 15.808594 35.308594 35.308594" fill="#bdc3c7"/><path d="m115.257812 35.308594h158.898438v35.3125c0 9.75-7.90625 17.65625-17.65625 17.65625h-123.585938c-9.75 0-17.65625-7.90625-17.65625-17.65625zm0 0" fill="#ecf0f1"/></svg>