<svg height="504pt" viewBox="-52 0 504 504.40678" width="504pt" xmlns="http://www.w3.org/2000/svg"><path d="m399.390625 148.609375v338.441406c0 9.585938-7.769531 17.355469-17.355469 17.355469h-329.765625c-9.582031 0-17.355469-7.769531-17.355469-17.355469v-354.84375l99.972657-96.410156h151.691406zm0 0" fill="#f3d55b"/><path d="m399.390625 148.609375h-95.457031c-9.585938 0-17.355469-7.769531-17.355469-17.355469v-95.457031zm0 0" fill="#f29c1f"/><path d="m26.671875 88.558594c-.261719 2.601562-.433594 5.292968-.433594 7.984375-.042969 12.414062 2.933594 24.65625 8.675781 35.664062 11.496094 23.09375 34.953126 37.808594 60.746094 38.097657 39.519532-1.242188 70.578125-34.238282 69.425782-73.761719.339843-26.734375-13.710938-51.59375-36.796876-65.085938-14.054687-8.054687-30.59375-10.617187-46.425781-7.203125zm0 0" fill="#cc4b4c"/><path d="m86.117188 37.097656 21.953124 20.394532c8.734376 7.222656 13.738282 18 13.625 29.332031.554688 19.738281-14.976562 36.199219-34.710937 36.792969-10.101563-.023438-19.65625-4.578126-26.035156-12.410157l-19.089844-19.089843zm0 0" fill="#802f34"/><g fill="#d25627"><path d="m121.695312 226.710938h-34.710937c-4.792969 0-8.679687-3.882813-8.679687-8.675782 0-4.792968 3.886718-8.679687 8.679687-8.679687h34.710937c4.792969 0 8.675782 3.886719 8.675782 8.679687 0 4.792969-3.882813 8.675782-8.675782 8.675782zm0 0"/><path d="m243.1875 226.710938h-86.78125c-4.792969 0-8.675781-3.882813-8.675781-8.675782 0-4.792968 3.882812-8.679687 8.675781-8.679687h86.78125c4.792969 0 8.675781 3.886719 8.675781 8.679687 0 4.792969-3.882812 8.675782-8.675781 8.675782zm0 0"/><path d="m347.320312 226.710938h-69.421874c-4.792969 0-8.679688-3.882813-8.679688-8.675782 0-4.792968 3.886719-8.679687 8.679688-8.679687h69.421874c4.792969 0 8.679688 3.886719 8.679688 8.679687 0 4.792969-3.886719 8.675782-8.679688 8.675782zm0 0"/><path d="m347.320312 296.136719h-34.710937c-4.792969 0-8.675781-3.886719-8.675781-8.679688s3.882812-8.675781 8.675781-8.675781h34.710937c4.792969 0 8.679688 3.882812 8.679688 8.675781s-3.886719 8.679688-8.679688 8.679688zm0 0"/><path d="m277.898438 296.136719h-86.78125c-4.792969 0-8.675782-3.886719-8.675782-8.679688s3.882813-8.675781 8.675782-8.675781h86.78125c4.792968 0 8.679687 3.882812 8.679687 8.675781s-3.886719 8.679688-8.679687 8.679688zm0 0"/><path d="m156.40625 296.136719h-69.421875c-4.792969 0-8.679687-3.886719-8.679687-8.679688s3.886718-8.675781 8.679687-8.675781h69.421875c4.792969 0 8.679688 3.882812 8.679688 8.675781s-3.886719 8.679688-8.679688 8.679688zm0 0"/><path d="m208.472656 261.421875h-121.488281c-4.792969 0-8.679687-3.882813-8.679687-8.675781 0-4.792969 3.886718-8.679688 8.679687-8.679688h121.488281c4.792969 0 8.679688 3.886719 8.679688 8.679688 0 4.792968-3.886719 8.675781-8.679688 8.675781zm0 0"/><path d="m347.320312 261.421875h-95.457031c-4.792969 0-8.675781-3.882813-8.675781-8.675781 0-4.792969 3.882812-8.679688 8.675781-8.679688h95.457031c4.792969 0 8.679688 3.886719 8.679688 8.679688 0 4.792968-3.886719 8.675781-8.679688 8.675781zm0 0"/></g><path d="m86.984375 339.527344h260.335937c4.792969 0 8.679688 3.882812 8.679688 8.675781v104.136719c0 4.792968-3.886719 8.675781-8.679688 8.675781h-260.335937c-4.792969 0-8.679687-3.882813-8.679687-8.675781v-104.136719c0-4.792969 3.886718-8.675781 8.679687-8.675781zm0 0" fill="#f9eab0"/><path d="m303.933594 391.59375h-173.5625c-4.789063 0-8.675782-3.886719-8.675782-8.679688 0-4.792968 3.886719-8.675781 8.675782-8.675781h173.5625c4.792968 0 8.675781 3.882813 8.675781 8.675781 0 4.792969-3.882813 8.679688-8.675781 8.679688zm0 0" fill="#d25627"/><path d="m303.933594 426.304688h-173.5625c-4.789063 0-8.675782-3.886719-8.675782-8.675782 0-4.792968 3.886719-8.679687 8.675782-8.679687h173.5625c4.792968 0 8.675781 3.886719 8.675781 8.679687 0 4.789063-3.882813 8.675782-8.675781 8.675782zm0 0" fill="#d25627"/><path d="m86.984375 46.105469c0-25.464844-19.425781-46.105469-43.390625-46.105469s-43.390625 20.640625-43.390625 46.105469c0 25.464843 19.425781 46.105469 43.390625 46.105469s43.390625-20.640626 43.390625-46.105469zm0 0" fill="#fb7b76"/></svg>