<svg height="512pt" viewBox="0 1 512 511" width="512pt" xmlns="http://www.w3.org/2000/svg"><path d="m512 35.808594v335.449218c0 19.503907-15.808594 35.3125-35.308594 35.3125h-156.25c-6.96875-.003906-13.289062 4.09375-16.128906 10.460938l-40.421875 90.585938c-1.492187 2.992187-4.550781 4.882812-7.894531 4.882812s-6.402344-1.890625-7.898438-4.882812l-40.394531-90.585938c-2.839844-6.371094-9.167969-10.472656-16.144531-10.460938h-156.25c-19.5 0-35.308594-15.808593-35.308594-35.3125v-335.449218c0-19.5 15.808594-35.308594 35.308594-35.308594h441.382812c19.5 0 35.308594 15.808594 35.308594 35.308594zm0 0" fill="#955ba5"/><path d="m459.035156 380.085938c-4.875 0-8.828125-3.953126-8.828125-8.828126s3.953125-8.828124 8.828125-8.828124 8.828125-3.949219 8.828125-8.828126c0-4.875 3.949219-8.824218 8.828125-8.824218 4.875 0 8.824219 3.949218 8.824219 8.824218 0 14.628907-11.855469 26.484376-26.480469 26.484376zm0 0" fill="#b49aca"/><path d="m35.308594 62.292969c-4.875 0-8.824219-3.953125-8.824219-8.828125 0-14.625 11.855469-26.480469 26.480469-26.480469 4.875 0 8.828125 3.949219 8.828125 8.824219 0 4.878906-3.953125 8.828125-8.828125 8.828125s-8.828125 3.953125-8.828125 8.828125-3.949219 8.828125-8.828125 8.828125zm0 0" fill="#b49aca"/><path d="m432.550781 79.949219v35.308593h-353.101562v-35.308593c.027343-9.738281 7.914062-17.628907 17.652343-17.65625h317.796876c9.738281.027343 17.625 7.917969 17.652343 17.65625zm0 0" fill="#fb7b76"/><path d="m79.449219 115.257812h70.621093v61.792969h-70.621093zm0 0" fill="#ecf0f1"/><path d="m150.070312 115.257812h70.621094v61.792969h-70.621094zm0 0" fill="#bdc3c7"/><path d="m361.929688 115.257812h70.621093v61.792969h-70.621093zm0 0" fill="#ecf0f1"/><path d="m361.929688 177.050781h70.621093v61.792969h-70.621093zm0 0" fill="#bdc3c7"/><path d="m79.449219 177.050781h70.621093v61.792969h-70.621093zm0 0" fill="#bdc3c7"/><path d="m79.449219 238.84375h70.621093v61.792969h-70.621093zm0 0" fill="#ecf0f1"/><path d="m361.929688 238.84375h70.621093v61.792969h-70.621093zm0 0" fill="#ecf0f1"/><path d="m432.550781 300.636719v44.140625c-.027343 9.738281-7.914062 17.625-17.652343 17.652344h-52.96875v-61.792969zm0 0" fill="#bdc3c7"/><path d="m291.308594 300.636719h70.621094v61.792969h-70.621094zm0 0" fill="#ecf0f1"/><path d="m220.691406 300.636719h70.617188v61.792969h-70.617188zm0 0" fill="#bdc3c7"/><path d="m150.070312 300.636719h70.621094v61.792969h-70.621094zm0 0" fill="#ecf0f1"/><g fill="#bdc3c7"><path d="m150.070312 300.636719v61.792969h-52.96875c-9.738281-.027344-17.625-7.914063-17.652343-17.652344v-44.140625zm0 0"/><path d="m123.585938 88.777344c-4.875 0-8.828126-3.953125-8.828126-8.828125v-35.3125c0-4.875 3.953126-8.828125 8.828126-8.828125s8.828124 3.953125 8.828124 8.828125v35.3125c0 4.875-3.953124 8.828125-8.828124 8.828125zm0 0"/><path d="m167.722656 88.777344c-4.875 0-8.824218-3.953125-8.824218-8.828125v-35.3125c0-4.875 3.949218-8.828125 8.824218-8.828125s8.828125 3.953125 8.828125 8.828125v35.3125c0 4.875-3.953125 8.828125-8.828125 8.828125zm0 0"/><path d="m211.863281 88.777344c-4.875 0-8.828125-3.953125-8.828125-8.828125v-35.3125c0-4.875 3.953125-8.828125 8.828125-8.828125s8.828125 3.953125 8.828125 8.828125v35.3125c0 4.875-3.953125 8.828125-8.828125 8.828125zm0 0"/><path d="m256 88.777344c-4.875 0-8.828125-3.953125-8.828125-8.828125v-35.3125c0-4.875 3.953125-8.828125 8.828125-8.828125s8.828125 3.953125 8.828125 8.828125v35.3125c0 4.875-3.953125 8.828125-8.828125 8.828125zm0 0"/><path d="m300.136719 88.777344c-4.875 0-8.828125-3.953125-8.828125-8.828125v-35.3125c0-4.875 3.953125-8.828125 8.828125-8.828125s8.828125 3.953125 8.828125 8.828125v35.3125c0 4.875-3.953125 8.828125-8.828125 8.828125zm0 0"/><path d="m344.277344 88.777344c-4.875 0-8.828125-3.953125-8.828125-8.828125v-35.3125c0-4.875 3.953125-8.828125 8.828125-8.828125s8.824218 3.953125 8.824218 8.828125v35.3125c0 4.875-3.949218 8.828125-8.824218 8.828125zm0 0"/><path d="m388.414062 88.777344c-4.875 0-8.828124-3.953125-8.828124-8.828125v-35.3125c0-4.875 3.953124-8.828125 8.828124-8.828125s8.828126 3.953125 8.828126 8.828125v35.3125c0 4.875-3.953126 8.828125-8.828126 8.828125zm0 0"/><path d="m150.070312 238.84375h70.621094v61.792969h-70.621094zm0 0"/></g><path d="m220.691406 238.84375h70.617188v61.792969h-70.617188zm0 0" fill="#ecf0f1"/><path d="m150.070312 177.050781h70.621094v61.792969h-70.621094zm0 0" fill="#ecf0f1"/><path d="m220.691406 177.050781h70.617188v61.792969h-70.617188zm0 0" fill="#bdc3c7"/><path d="m220.691406 115.257812h70.617188v61.792969h-70.617188zm0 0" fill="#ecf0f1"/><path d="m291.308594 115.257812h70.621094v61.792969h-70.621094zm0 0" fill="#bdc3c7"/><path d="m291.308594 177.050781h70.621094v61.792969h-70.621094zm0 0" fill="#ecf0f1"/><path d="m291.308594 238.84375h70.621094v61.792969h-70.621094zm0 0" fill="#bdc3c7"/><path d="m35.308594 115.257812c-4.875 0-8.824219-3.953124-8.824219-8.828124v-17.652344c0-4.875 3.949219-8.828125 8.824219-8.828125 4.878906 0 8.828125 3.953125 8.828125 8.828125v17.652344c0 4.875-3.949219 8.828124-8.828125 8.828124zm0 0" fill="#b49aca"/><path d="m35.308594 159.398438c-4.875 0-8.824219-3.953126-8.824219-8.828126v-8.828124c0-4.875 3.949219-8.828126 8.824219-8.828126 4.878906 0 8.828125 3.953126 8.828125 8.828126v8.828124c0 4.875-3.949219 8.828126-8.828125 8.828126zm0 0" fill="#b49aca"/><path d="m476.691406 327.121094c-4.878906 0-8.828125-3.953125-8.828125-8.828125v-17.65625c0-4.875 3.949219-8.828125 8.828125-8.828125 4.875 0 8.824219 3.953125 8.824219 8.828125v17.65625c0 4.875-3.949219 8.828125-8.824219 8.828125zm0 0" fill="#b49aca"/><path d="m476.691406 274.15625c-4.878906 0-8.828125-3.953125-8.828125-8.828125v-8.828125c0-4.875 3.949219-8.828125 8.828125-8.828125 4.875 0 8.824219 3.953125 8.824219 8.828125v8.828125c0 4.875-3.949219 8.828125-8.824219 8.828125zm0 0" fill="#b49aca"/></svg>