<svg height="512pt" viewBox="0 0 512 512.00274" width="512pt" xmlns="http://www.w3.org/2000/svg"><path d="m512 35.308594v335.449218c0 19.503907-15.808594 35.3125-35.308594 35.3125h-156.25c-6.96875-.003906-13.285156 4.09375-16.125 10.460938l-40.421875 90.585938c-1.496093 2.992187-4.554687 4.882812-7.898437 4.882812s-6.398438-1.890625-7.894532-4.882812l-40.394531-90.585938c-2.84375-6.371094-9.171875-10.472656-16.148437-10.460938h-156.246094c-19.503906 0-35.3125-15.808593-35.3125-35.3125v-335.449218c0-19.5 15.808594-35.308594 35.3125-35.308594h441.378906c19.5 0 35.308594 15.808594 35.308594 35.308594zm0 0" fill="#804169"/><path d="m512 35.308594v335.449218c0 19.503907-15.808594 35.3125-35.308594 35.3125h-156.25c-6.992187-.023437-13.335937 4.101563-16.152344 10.503907l-40.429687 90.570312c-1.441406 3.019531-4.515625 4.914063-7.859375 4.855469v-512h220.691406c19.5 0 35.308594 15.808594 35.308594 35.308594zm0 0" fill="#cc66a1"/><path d="m373.230469 291.308594-25.773438 61.792968h-12.007812v-61.792968zm0 0" fill="#bdc3c7"/><path d="m264.828125 291.308594h70.621094v61.792968h-70.621094zm0 0" fill="#ecf0f1"/><path d="m194.207031 291.308594h70.621094v61.792968h-70.621094zm0 0" fill="#bdc3c7"/><path d="m123.585938 291.308594h70.621093v61.792968h-70.621093zm0 0" fill="#ecf0f1"/><path d="m123.585938 291.308594v61.792968h-52.964844c-9.738282-.027343-17.625-7.914062-17.652344-17.652343v-44.140625zm0 0" fill="#bdc3c7"/><path d="m52.96875 229.515625h70.617188v61.792969h-70.617188zm0 0" fill="#ecf0f1"/><path d="m194.207031 229.515625h70.621094v61.792969h-70.621094zm0 0" fill="#ecf0f1"/><path d="m398.921875 229.515625-25.691406 61.792969h-37.78125v-61.792969zm0 0" fill="#ecf0f1"/><path d="m406.070312 167.722656v44.667969l-7.148437 17.125h-63.472656v-61.792969zm0 0" fill="#bdc3c7"/><path d="m52.96875 167.722656h70.617188v61.792969h-70.617188zm0 0" fill="#bdc3c7"/><path d="m52.96875 105.929688h70.617188v61.792968h-70.617188zm0 0" fill="#ecf0f1"/><path d="m335.449219 105.929688h70.621093v61.792968h-70.621093zm0 0" fill="#ecf0f1"/><path d="m406.070312 70.621094v35.308594h-353.101562v-35.308594c.027344-9.738282 7.914062-17.625 17.652344-17.65625h317.792968c9.738282.03125 17.628907 7.917968 17.65625 17.65625zm0 0" fill="#fb7b76"/><path d="m123.585938 105.929688h70.621093v61.792968h-70.621093zm0 0" fill="#bdc3c7"/><path d="m194.207031 105.929688h70.621094v61.792968h-70.621094zm0 0" fill="#ecf0f1"/><g fill="#bdc3c7"><path d="m97.105469 79.449219c-4.875 0-8.828125-3.953125-8.828125-8.828125v-35.3125c0-4.875 3.953125-8.824219 8.828125-8.824219s8.828125 3.949219 8.828125 8.824219v35.3125c0 4.875-3.953125 8.828125-8.828125 8.828125zm0 0"/><path d="m141.242188 79.449219c-4.875 0-8.828126-3.953125-8.828126-8.828125v-35.3125c0-4.875 3.953126-8.824219 8.828126-8.824219s8.828124 3.949219 8.828124 8.824219v35.3125c0 4.875-3.953124 8.828125-8.828124 8.828125zm0 0"/><path d="m185.378906 79.449219c-4.875 0-8.824218-3.953125-8.824218-8.828125v-35.3125c0-4.875 3.949218-8.824219 8.824218-8.824219 4.878906 0 8.828125 3.949219 8.828125 8.824219v35.3125c0 4.875-3.949219 8.828125-8.828125 8.828125zm0 0"/><path d="m229.519531 79.449219c-4.875 0-8.828125-3.953125-8.828125-8.828125v-35.3125c0-4.875 3.953125-8.824219 8.828125-8.824219s8.828125 3.949219 8.828125 8.824219v35.3125c0 4.875-3.953125 8.828125-8.828125 8.828125zm0 0"/><path d="m273.65625 79.449219c-4.875 0-8.828125-3.953125-8.828125-8.828125v-35.3125c0-4.875 3.953125-8.824219 8.828125-8.824219s8.828125 3.949219 8.828125 8.824219v35.3125c0 4.875-3.953125 8.828125-8.828125 8.828125zm0 0"/><path d="m317.792969 79.449219c-4.875 0-8.824219-3.953125-8.824219-8.828125v-35.3125c0-4.875 3.949219-8.824219 8.824219-8.824219s8.828125 3.949219 8.828125 8.824219v35.3125c0 4.875-3.953125 8.828125-8.828125 8.828125zm0 0"/><path d="m361.933594 79.449219c-4.875 0-8.828125-3.953125-8.828125-8.828125v-35.3125c0-4.875 3.953125-8.824219 8.828125-8.824219s8.828125 3.949219 8.828125 8.824219v35.3125c0 4.875-3.953125 8.828125-8.828125 8.828125zm0 0"/><path d="m194.207031 167.722656h70.621094v61.792969h-70.621094zm0 0"/><path d="m123.585938 229.515625h70.621093v61.792969h-70.621093zm0 0"/></g><path d="m123.585938 167.722656h70.621093v61.792969h-70.621093zm0 0" fill="#ecf0f1"/><path d="m264.828125 229.515625h70.621094v61.792969h-70.621094zm0 0" fill="#bdc3c7"/><path d="m264.828125 167.722656h70.621094v61.792969h-70.621094zm0 0" fill="#ecf0f1"/><path d="m264.828125 105.929688h70.621094v61.792968h-70.621094zm0 0" fill="#bdc3c7"/><path d="m476.691406 291.308594c0 43.878906-35.570312 79.449218-79.449218 79.449218-43.878907 0-79.449219-35.570312-79.449219-79.449218 0-43.875 35.570312-79.445313 79.449219-79.445313 43.878906 0 79.449218 35.570313 79.449218 79.445313zm0 0" fill="#71c285"/><path d="m432.554688 273.65625h-17.65625v-17.65625c0-4.875-3.953126-8.828125-8.828126-8.828125h-17.65625c-4.875 0-8.828124 3.953125-8.828124 8.828125v17.65625h-17.652344c-4.875 0-8.828125 3.949219-8.828125 8.828125v17.652344c0 4.875 3.953125 8.828125 8.828125 8.828125h17.652344v17.65625c0 4.875 3.953124 8.828125 8.828124 8.828125h17.65625c4.875 0 8.828126-3.953125 8.828126-8.828125v-17.65625h17.65625c4.875 0 8.824218-3.953125 8.824218-8.828125v-17.652344c0-4.878906-3.949218-8.828125-8.824218-8.828125zm0 0" fill="#4c8056"/></svg>