<svg height="512pt" viewBox="-97 0 512 512" width="512pt" xmlns="http://www.w3.org/2000/svg"><path d="m35.308594 0h247.175781c19.5 0 35.308594 15.808594 35.308594 35.308594v441.382812c0 19.5-15.808594 35.308594-35.308594 35.308594h-247.175781c-19.5 0-35.308594-15.808594-35.308594-35.308594v-441.382812c0-19.5 15.808594-35.308594 35.308594-35.308594zm0 0" fill="#35495e"/><path d="m317.792969 423.722656v52.96875c0 19.5-15.808594 35.308594-35.308594 35.308594h-247.175781c-19.5 0-35.308594-15.808594-35.308594-35.308594v-52.96875zm0 0" fill="#7f8c8d"/><g fill="#2c3e50"><path d="m176.550781 44.136719h-35.308593c-4.875 0-8.828126-3.949219-8.828126-8.828125 0-4.875 3.953126-8.824219 8.828126-8.824219h35.308593c4.875 0 8.828125 3.949219 8.828125 8.824219 0 4.878906-3.953125 8.828125-8.828125 8.828125zm0 0"/><path d="m247.171875 44.136719c-1.152344-.011719-2.292969-.253907-3.355469-.703125-1.066406-.449219-2.054687-1.078125-2.910156-1.855469-.78125-.859375-1.40625-1.84375-1.855469-2.914063-.453125-1.058593-.691406-2.199218-.707031-3.355468 0-4.875 3.953125-8.824219 8.828125-8.824219s8.828125 3.949219 8.828125 8.824219c-.015625 1.15625-.253906 2.296875-.707031 3.355468-.449219 1.070313-1.074219 2.054688-1.851563 2.914063-.859375.777344-1.84375 1.40625-2.914062 1.855469-1.0625.449218-2.203125.691406-3.355469.703125zm0 0"/><path d="m282.484375 44.136719c-1.15625-.011719-2.292969-.253907-3.355469-.703125-1.070312-.449219-2.054687-1.078125-2.914062-1.855469-.777344-.859375-1.40625-1.84375-1.851563-2.914063-.453125-1.058593-.695312-2.199218-.707031-3.355468 0-4.875 3.949219-8.824219 8.828125-8.824219 4.875 0 8.824219 3.949219 8.824219 8.824219-.011719 1.15625-.253906 2.296875-.703125 3.355468-.453125 1.070313-1.078125 2.054688-1.855469 2.914063-.859375.777344-1.84375 1.40625-2.914062 1.855469-1.058594.449218-2.199219.691406-3.351563.703125zm0 0"/><path d="m176.550781 467.863281c0 9.75-7.902343 17.652344-17.652343 17.652344-9.753907 0-17.65625-7.902344-17.65625-17.652344s7.902343-17.65625 17.65625-17.65625c9.75 0 17.652343 7.90625 17.652343 17.65625zm0 0"/></g><path d="m88.277344 176.550781h141.238281c9.753906 0 17.65625 7.90625 17.65625 17.65625v176.550781c0 9.75-7.902344 17.65625-17.65625 17.65625h-141.238281c-9.753906 0-17.65625-7.90625-17.65625-17.65625v-176.550781c0-9.75 7.902344-17.65625 17.65625-17.65625zm0 0" fill="#84b5cb"/><path d="m105.929688 211.863281c-4.875 0-8.828126-3.953125-8.828126-8.828125v-44.136718c0-4.878907 3.953126-8.828126 8.828126-8.828126s8.828124 3.949219 8.828124 8.828126v44.136718c0 4.875-3.953124 8.828125-8.828124 8.828125zm0 0" fill="#ecf0f1"/><path d="m158.898438 211.863281c-4.878907 0-8.828126-3.953125-8.828126-8.828125v-44.136718c0-4.878907 3.949219-8.828126 8.828126-8.828126 4.875 0 8.824218 3.949219 8.824218 8.828126v44.136718c0 4.875-3.949218 8.828125-8.824218 8.828125zm0 0" fill="#ecf0f1"/><path d="m211.863281 211.863281c-4.875 0-8.828125-3.953125-8.828125-8.828125v-44.136718c0-4.878907 3.953125-8.828126 8.828125-8.828126s8.828125 3.949219 8.828125 8.828126v44.136718c0 4.875-3.953125 8.828125-8.828125 8.828125zm0 0" fill="#ecf0f1"/><path d="m185.378906 256c0 14.625-11.855468 26.484375-26.480468 26.484375-14.628907 0-26.484376-11.859375-26.484376-26.484375s11.855469-26.484375 26.484376-26.484375c14.625 0 26.480468 11.859375 26.480468 26.484375zm0 0" fill="#fdd7ad"/><path d="m194.207031 317.792969c0 19.5-15.808593 35.308593-35.308593 35.308593-19.503907 0-35.3125-15.808593-35.3125-35.308593s15.808593-35.308594 35.3125-35.308594c19.5 0 35.308593 15.808594 35.308593 35.308594zm0 0" fill="#e64c3c"/><path d="m114.757812 132.414062c-2.949218 0-5.707031-1.472656-7.34375-3.929687l-19.136718-28.734375v23.835938c0 4.875-3.953125 8.828124-8.828125 8.828124s-8.828125-3.953124-8.828125-8.828124v-52.964844c0-3.890625 2.542968-7.324219 6.269531-8.449219 3.722656-1.128906 7.742187.3125 9.902344 3.550781l19.136719 28.734375v-23.835937c0-4.875 3.953124-8.828125 8.828124-8.828125s8.828126 3.953125 8.828126 8.828125v52.964844c0 3.890624-2.546876 7.320312-6.265626 8.449218-.832031.253906-1.695312.378906-2.5625.378906zm0 0" fill="#cc66a1"/><path d="m167.722656 132.414062h-26.480468c-4.875 0-8.828126-3.953124-8.828126-8.828124v-52.964844c0-4.875 3.953126-8.828125 8.828126-8.828125h26.480468c4.875 0 8.828125 3.953125 8.828125 8.828125s-3.953125 8.828125-8.828125 8.828125h-17.652344v35.308593h17.652344c4.875 0 8.828125 3.953126 8.828125 8.828126s-3.953125 8.828124-8.828125 8.828124zm0 0" fill="#cc66a1"/><path d="m158.898438 105.929688h-17.65625c-4.875 0-8.828126-3.949219-8.828126-8.828126 0-4.875 3.953126-8.824218 8.828126-8.824218h17.65625c4.875 0 8.824218 3.949218 8.824218 8.824218 0 4.878907-3.949218 8.828126-8.824218 8.828126zm0 0" fill="#cc66a1"/><path d="m238.34375 132.414062c-2.617188 0-5.101562-1.160156-6.777344-3.167968l-15.289062-18.34375-15.289063 18.34375c-2.382812 2.851562-6.296875 3.910156-9.789062 2.644531-3.496094-1.265625-5.820313-4.585937-5.820313-8.304687v-52.964844c0-4.875 3.953125-8.828125 8.828125-8.828125s8.828125 3.953125 8.828125 8.828125v28.582031l6.460938-7.757813c1.734375-1.917968 4.195312-3.011718 6.78125-3.011718 2.582031 0 5.046875 1.09375 6.777344 3.011718l6.460937 7.757813v-28.582031c0-4.875 3.953125-8.828125 8.828125-8.828125s8.828125 3.953125 8.828125 8.828125v52.964844c0 4.875-3.953125 8.828124-8.828125 8.828124zm0 0" fill="#cc66a1"/></svg>