<svg height="504pt" viewBox="-1 0 504 504.06113" width="504pt" xmlns="http://www.w3.org/2000/svg"><path d="m377.609375 342.171875 118.105469 118.109375c9.558594 10.253906 9.277344 26.242188-.636719 36.15625s-25.898437 10.195312-36.15625.636719l-118.109375-118.109375zm0 0" fill="#894b9d"/><path d="m338.472656 168.179688v166.964843l-17.355468 55.710938v43.042969c0 9.585937-7.773438 17.355468-17.359376 17.355468h-286.371093c-9.585938 0-17.355469-7.769531-17.355469-17.355468v-416.542969c0-9.585938 7.769531-17.355469 17.355469-17.355469h286.371093c9.585938 0 17.359376 7.769531 17.359376 17.355469v95.109375zm0 0" fill="#f3d55b"/><path d="m95.488281 112.8125h-43.390625c-9.585937 0-17.355468-7.769531-17.355468-17.355469v-43.390625c0-9.585937 7.769531-17.355468 17.355468-17.355468h43.390625c9.585938 0 17.355469 7.769531 17.355469 17.355468v43.390625c0 9.585938-7.769531 17.355469-17.355469 17.355469zm-43.390625-60.746094v43.390625h43.390625v-43.390625zm0 0" fill="#894b9d"/><path d="m95.488281 216.949219h-43.390625c-9.585937 0-17.355468-7.769531-17.355468-17.355469v-43.390625c0-9.585937 7.769531-17.355469 17.355468-17.355469h43.390625c9.585938 0 17.355469 7.769532 17.355469 17.355469v43.390625c.019531 1.222656-.160156 2.445312-.539062 3.609375-.183594.5625-.425782 1.101563-.71875 1.613281-.113282 1.347656-.546876 2.648438-1.265626 3.792969-3.1875 5.136719-8.785156 8.285156-14.832031 8.339844zm-43.390625-60.746094v43.390625h43.390625c0-.121094 0-.234375 0-.355469v-43.035156zm0 0" fill="#894b9d"/><path d="m95.488281 321.085938h-43.390625c-9.585937 0-17.355468-7.773438-17.355468-17.355469v-43.390625c0-9.585938 7.769531-17.355469 17.355468-17.355469h43.390625c4.792969 0 8.679688 3.882813 8.679688 8.675781 0 4.792969-3.886719 8.679688-8.679688 8.679688h-43.390625v43.390625h43.390625c-.027343-4.855469 3.828125-8.84375 8.679688-8.984375 2.269531-.070313 4.46875.78125 6.105469 2.355468 1.632812 1.578126 2.558593 3.75 2.570312 6.019532v.609375c0 9.582031-7.769531 17.355469-17.355469 17.355469zm0 0" fill="#894b9d"/><path d="m95.488281 425.21875h-43.390625c-9.585937 0-17.355468-7.769531-17.355468-17.355469v-43.390625c0-9.582031 7.769531-17.355468 17.355468-17.355468h43.390625c9.585938 0 17.355469 7.773437 17.355469 17.355468v43.390625c0 9.585938-7.769531 17.355469-17.355469 17.355469zm-43.390625-60.746094v43.390625h43.390625v-43.390625zm0 0" fill="#894b9d"/><path d="m147.554688 69.421875h-8.675782c-4.792968 0-8.679687-3.882813-8.679687-8.675781 0-4.792969 3.886719-8.679688 8.679687-8.679688h8.675782c4.792968 0 8.679687 3.886719 8.679687 8.679688 0 4.792968-3.886719 8.675781-8.679687 8.675781zm0 0" fill="#3d324c"/><path d="m182.269531 69.421875h-8.679687c-4.792969 0-8.679688-3.882813-8.679688-8.675781 0-4.792969 3.886719-8.679688 8.679688-8.679688h8.679687c4.792969 0 8.675781 3.886719 8.675781 8.679688 0 4.792968-3.882812 8.675781-8.675781 8.675781zm0 0" fill="#3d324c"/><path d="m216.980469 69.421875h-8.679688c-4.792969 0-8.675781-3.882813-8.675781-8.675781 0-4.792969 3.882812-8.679688 8.675781-8.679688h8.679688c4.792969 0 8.675781 3.886719 8.675781 8.679688 0 4.792968-3.882812 8.675781-8.675781 8.675781zm0 0" fill="#3d324c"/><path d="m251.691406 69.421875h-8.679687c-4.789063 0-8.675781-3.882813-8.675781-8.675781 0-4.792969 3.886718-8.679688 8.675781-8.679688h8.679687c4.792969 0 8.679688 3.886719 8.679688 8.679688 0 4.792968-3.886719 8.675781-8.679688 8.675781zm0 0" fill="#3d324c"/><path d="m286.402344 69.421875h-8.675782c-4.792968 0-8.679687-3.882813-8.679687-8.675781 0-4.792969 3.886719-8.679688 8.679687-8.679688h8.675782c4.792968 0 8.679687 3.886719 8.679687 8.679688 0 4.792968-3.886719 8.675781-8.679687 8.675781zm0 0" fill="#3d324c"/><path d="m362.148438 141.207031c61 61.003907 61 159.90625 0 220.90625-61.003907 61-159.90625 61-220.90625 0s-61-159.902343 0-220.90625c61-61 159.902343-61 220.90625 0zm0 0" fill="#3d324c"/><path d="m250.277344 373.152344c-57.960938-.003906-107.847656-40.949219-119.148438-97.796875-11.304687-56.847657 19.121094-113.765625 72.671875-135.941407 53.546875-22.175781 115.308594-3.4375 147.503907 44.753907 32.199218 48.195312 25.871093 112.421875-15.117188 153.40625-22.730469 22.863281-53.667969 35.675781-85.910156 35.578125zm0 0" fill="#b0d3f0"/><g fill="#3d324c"><path d="m190.945312 260.339844h-8.675781c-4.792969 0-8.679687-3.886719-8.679687-8.679688 0-4.792968 3.886718-8.675781 8.679687-8.675781h8.675781c4.792969 0 8.679688 3.882813 8.679688 8.675781 0 4.792969-3.886719 8.679688-8.679688 8.679688zm0 0"/><path d="m225.65625 260.339844h-8.675781c-4.792969 0-8.679688-3.886719-8.679688-8.679688 0-4.792968 3.886719-8.675781 8.679688-8.675781h8.675781c4.792969 0 8.679688 3.882813 8.679688 8.675781 0 4.792969-3.886719 8.679688-8.679688 8.679688zm0 0"/><path d="m260.371094 260.339844h-8.679688c-4.792968 0-8.679687-3.886719-8.679687-8.679688 0-4.792968 3.886719-8.675781 8.679687-8.675781h8.679688c4.792968 0 8.675781 3.882813 8.675781 8.675781 0 4.792969-3.882813 8.679688-8.675781 8.679688zm0 0"/><path d="m295.082031 260.339844h-8.679687c-4.792969 0-8.675782-3.886719-8.675782-8.679688 0-4.792968 3.882813-8.675781 8.675782-8.675781h8.679687c4.792969 0 8.675781 3.882813 8.675781 8.675781 0 4.792969-3.882812 8.679688-8.675781 8.679688zm0 0"/><path d="m225.65625 338.441406h-8.675781c-4.792969 0-8.679688-3.886718-8.679688-8.679687s3.886719-8.675781 8.679688-8.675781h8.675781c4.792969 0 8.679688 3.882812 8.679688 8.675781s-3.886719 8.679687-8.679688 8.679687zm0 0"/><path d="m260.371094 338.441406h-8.679688c-4.792968 0-8.679687-3.886718-8.679687-8.679687s3.886719-8.675781 8.679687-8.675781h8.679688c4.792968 0 8.675781 3.882812 8.675781 8.675781s-3.882813 8.679687-8.675781 8.679687zm0 0"/><path d="m295.082031 338.441406h-8.679687c-4.792969 0-8.675782-3.886718-8.675782-8.679687s3.882813-8.675781 8.675782-8.675781h8.679687c4.792969 0 8.675781 3.882812 8.675781 8.675781s-3.882812 8.679687-8.675781 8.679687zm0 0"/><path d="m216.980469 182.238281h-8.679688c-4.792969 0-8.675781-3.886719-8.675781-8.679687 0-4.792969 3.882812-8.675782 8.675781-8.675782h8.679688c4.792969 0 8.675781 3.882813 8.675781 8.675782 0 4.792968-3.882812 8.679687-8.675781 8.679687zm0 0"/><path d="m251.691406 182.238281h-8.679687c-4.789063 0-8.675781-3.886719-8.675781-8.679687 0-4.792969 3.886718-8.675782 8.675781-8.675782h8.679687c4.792969 0 8.679688 3.882813 8.679688 8.675782 0 4.792968-3.886719 8.679687-8.679688 8.679687zm0 0"/><path d="m286.402344 182.238281h-8.675782c-4.792968 0-8.679687-3.886719-8.679687-8.679687 0-4.792969 3.886719-8.675782 8.679687-8.675782h8.675782c4.792968 0 8.679687 3.882813 8.679687 8.675782 0 4.792968-3.886719 8.679687-8.679687 8.679687zm0 0"/></g></svg>