<svg height="512pt" viewBox="0 0 512 512.00274" width="512pt" xmlns="http://www.w3.org/2000/svg"><path d="m512 35.308594v335.449218c0 19.503907-15.808594 35.3125-35.308594 35.3125h-156.25c-6.96875-.003906-13.285156 4.09375-16.125 10.460938l-40.421875 90.585938c-1.496093 2.992187-4.554687 4.882812-7.898437 4.882812s-6.398438-1.890625-7.894532-4.882812l-40.394531-90.585938c-2.84375-6.371094-9.171875-10.472656-16.148437-10.460938h-156.246094c-19.503906 0-35.3125-15.808593-35.3125-35.3125v-335.449218c0-19.5 15.808594-35.308594 35.3125-35.308594h441.378906c19.5 0 35.308594 15.808594 35.308594 35.308594zm0 0" fill="#f3d55b"/><path d="m512 35.308594v335.449218c0 19.503907-15.808594 35.3125-35.308594 35.3125h-156.25c-6.992187-.023437-13.335937 4.101563-16.152344 10.503907l-40.429687 90.570312c-1.441406 3.019531-4.515625 4.914063-7.859375 4.855469v-512h220.691406c19.5 0 35.308594 15.808594 35.308594 35.308594zm0 0" fill="#f0c419"/><path d="m383.199219 238.34375h-7.214844c-18.835937.546875-35.085937-13.125-37.773437-31.777344l-11.386719-105.933594c-.703125-10.308593 3.011719-20.429687 10.214843-27.839843 7.203126-7.410157 17.214844-11.410157 27.542969-11h30.011719c10.328125-.414063 20.347656 3.582031 27.554688 10.992187 7.207031 7.410156 10.921874 17.535156 10.21875 27.847656l-11.386719 105.933594c-2.683594 18.65625-18.941407 32.328125-37.78125 31.777344zm0 0" fill="#894b9d"/><path d="m370.761719 273.65625h17.652343c14.628907 0 26.484376 11.855469 26.484376 26.480469v17.65625c0 14.625-11.855469 26.484375-26.484376 26.484375h-17.652343c-14.628907 0-26.484375-11.859375-26.484375-26.484375v-17.65625c0-14.625 11.855468-26.480469 26.484375-26.480469zm0 0" fill="#894b9d"/><path d="m238.347656 317.792969v4.414062c0 18.714844-30.105468 34.339844-70.621094 38.578125v-42.992187c11.566407-10.316407 20.265626-23.457031 25.246094-38.136719 6.96875-18.863281 10.378906-38.859375 10.0625-58.964844l.972656-.882812c18.359376 20.125 34.339844 51.023437 34.339844 97.984375zm0 0" fill="#35495e"/><path d="m167.726562 317.792969v42.992187c-7.332031.789063-14.699218 1.171875-22.070312 1.144532-51.199219 0-92.6875-17.742188-92.6875-39.722657v-4.414062c0-54.554688 21.539062-87.480469 43.339844-106.8125l.796875.882812c8.402343 26.824219 20.621093 52.304688 36.28125 75.652344v.085937c8.429687 13.050782 20.316406 23.503907 34.339843 30.191407zm0 0" fill="#2c3e50"/><path d="m220.691406 132.414062c.941406 28.007813-10.183594 55.074219-30.542968 74.328126h-.089844c-6.839844 6.054687-15.050782 10.355468-23.921875 12.535156-3.808594.957031-7.722657 1.433594-11.652344 1.414062-1.414063 0-2.914063-.089844-4.324219-.179687-15.179687-1.699219-29.089844-9.269531-38.753906-21.097657-8.363281-9.804687-14.5625-21.265624-18.1875-33.632812 8.566406-3.882812 25.335938-13.242188 25.335938-28.335938 1.269531-18.199218 13.683593-33.707031 31.164062-38.929687 10.679688 10.417969 32.484375 24.980469 70.621094 25.070313.261718 2.914062.351562 5.828124.351562 8.828124zm0 0" fill="#fdd7ad"/><path d="m220.339844 123.585938c-38.136719-.089844-59.941406-14.652344-70.621094-25.070313-17.480469 5.222656-29.894531 20.730469-31.164062 38.929687 0 15.09375-16.769532 24.453126-25.335938 28.335938-3.308594-10.8125-4.972656-22.058594-4.941406-33.367188 0-48.730468 29.660156-88.277343 66.207031-88.277343 34.339844 0 62.585937 34.871093 65.855469 79.449219zm0 0" fill="#7f5b53"/><path d="m150.160156 220.511719-.089844.179687-16.683593 66.824219c-15.660157-23.347656-27.878907-48.828125-36.28125-75.652344l-.796875-.882812c4.734375-4.230469 9.78125-8.097657 15.097656-11.566407 9.664062 11.828126 23.574219 19.398438 38.753906 21.097657zm0 0" fill="#ecf0f1"/><path d="m204.007812 219.808594-.972656.882812c.316406 20.105469-3.09375 40.101563-10.0625 58.964844l-26.835937-60.378906c8.871093-2.179688 17.082031-6.480469 23.921875-12.535156h.089844c4.941406 4 9.574218 8.367187 13.859374 13.066406zm0 0" fill="#ecf0f1"/><path d="m192.972656 279.65625c-4.980468 14.679688-13.679687 27.820312-25.246094 38.136719-14.023437-6.6875-25.910156-17.140625-34.339843-30.191407v-.085937l16.683593-66.824219.089844-.179687c1.410156.089843 2.910156.179687 4.324219.179687 3.929687.019532 7.84375-.457031 11.652344-1.414062zm0 0" fill="#e64c3c"/></svg>