<svg height="512pt" viewBox="-61 0 511 512" width="512pt" xmlns="http://www.w3.org/2000/svg"><path d="m18.15625 35.308594h353.101562c9.75 0 17.65625 7.90625 17.65625 17.65625v441.378906c0 9.75-7.90625 17.65625-17.65625 17.65625h-353.101562c-9.75 0-17.65625-7.90625-17.65625-17.65625v-441.378906c0-9.75 7.90625-17.65625 17.65625-17.65625zm0 0" fill="#7f5b53"/><path d="m274.15625 70.621094h70.621094c4.875 0 8.824218 3.953125 8.824218 8.828125v388.414062c0 4.875-3.949218 8.828125-8.824218 8.828125h-300.140625c-4.875 0-8.828125-3.953125-8.828125-8.828125v-388.414062c0-4.875 3.953125-8.828125 8.828125-8.828125zm0 0" fill="#f9eab0"/><path d="m150.570312 194.207031-8.828124 70.621094-79.449219-35.3125 35.308593-52.964844zm0 0" fill="#4482c3"/><path d="m194.707031 406.070312-132.414062-176.554687 79.449219 35.3125zm0 0" fill="#285680"/><path d="m291.808594 176.550781-52.964844 17.65625h-88.273438l-52.96875-17.65625 35.3125-17.652343h123.585938zm0 0" fill="#285680"/><path d="m247.671875 264.828125h-105.929687l8.828124-70.621094h88.273438zm0 0" fill="#b0d3f0"/><path d="m327.121094 229.515625-79.449219 35.3125-8.828125-70.621094 52.964844-17.65625zm0 0" fill="#4482c3"/><path d="m247.671875 264.828125-52.964844 141.242187-52.964843-141.242187zm0 0" fill="#90bae1"/><path d="m327.121094 229.515625-132.414063 176.554687 52.964844-141.242187zm0 0" fill="#285680"/><path d="m159.398438 35.308594c0-19.5 15.808593-35.308594 35.308593-35.308594s35.308594 15.808594 35.308594 35.308594" fill="#bdc3c7"/><path d="m115.257812 35.308594h158.898438v35.3125c0 9.75-7.90625 17.65625-17.65625 17.65625h-123.585938c-9.75 0-17.65625-7.90625-17.65625-17.65625zm0 0" fill="#ecf0f1"/></svg>