<svg height="504pt" viewBox="-26 0 504 504.43409" width="504pt" xmlns="http://www.w3.org/2000/svg"><path d="m399.402344 268.539062v-119.929687l-112.8125-112.8125h-151.691406l-99.96875 96.410156v294.097657c.027343 9.574218 7.78125 17.328124 17.355468 17.355468h182.585938zm0 0" fill="#f3d55b"/><path d="m253.265625 287.457031h-166.269531c-4.792969 0-8.675782 3.886719-8.675782 8.679688v104.132812c0 4.792969 3.882813 8.679688 8.675782 8.679688h139.023437" fill="#f9eab0"/><path d="m228.535156 339.527344h-98.148437c-4.792969 0-8.679688-3.886719-8.679688-8.679688 0-4.792968 3.886719-8.679687 8.679688-8.679687h98.148437c4.792969 0 8.675782 3.886719 8.675782 8.679687 0 4.792969-3.882813 8.679688-8.675782 8.679688zm0 0" fill="#802f34"/><path d="m226.796875 374.238281h-96.410156c-4.792969 0-8.679688-3.886719-8.679688-8.679687 0-4.792969 3.886719-8.675782 8.679688-8.675782h96.410156c4.792969 0 8.679687 3.882813 8.679687 8.675782 0 4.792968-3.886718 8.679687-8.679687 8.679687zm0 0" fill="#802f34"/><path d="m451.472656 348.203125v56.40625c0 55.105469-50.507812 99.796875-112.816406 99.796875-39.792969.863281-77.234375-18.808594-99.101562-52.066406-8.914063-14.328125-13.664063-30.855469-13.710938-47.730469v-56.40625zm0 0" fill="#35495e"/><path d="m399.402344 148.609375h-95.457032c-9.585937 0-17.355468-7.769531-17.355468-17.355469v-95.457031zm0 0" fill="#f29c1f"/><path d="m26.683594 88.558594c-.257813 2.601562-.433594 5.292968-.433594 7.984375-.042969 12.414062 2.9375 24.65625 8.679688 35.664062 11.492187 23.09375 34.953124 37.808594 60.746093 38.097657 39.519531-1.242188 70.578125-34.238282 69.421875-73.761719.339844-26.734375-13.710937-51.59375-36.792968-65.085938-14.054688-8.054687-30.59375-10.617187-46.429688-7.203125zm0 0" fill="#cc4b4c"/><g fill="#802f34"><path d="m86.128906 37.097656 21.957032 20.394532c8.730468 7.222656 13.738281 18 13.621093 29.332031.554688 19.738281-14.972656 36.199219-34.710937 36.792969-10.097656-.023438-19.65625-4.578126-26.035156-12.410157l-19.089844-19.089843zm0 0"/><path d="m121.707031 226.710938h-34.710937c-4.792969 0-8.675782-3.882813-8.675782-8.675782 0-4.792968 3.882813-8.679687 8.675782-8.679687h34.710937c4.792969 0 8.679688 3.886719 8.679688 8.679687 0 4.792969-3.886719 8.675782-8.679688 8.675782zm0 0"/><path d="m243.199219 226.710938h-86.777344c-4.792969 0-8.679687-3.882813-8.679687-8.675782 0-4.792968 3.886718-8.679687 8.679687-8.679687h86.777344c4.792969 0 8.679687 3.886719 8.679687 8.679687 0 4.792969-3.886718 8.675782-8.679687 8.675782zm0 0"/><path d="m347.335938 226.710938h-69.425782c-4.789062 0-8.675781-3.882813-8.675781-8.675782 0-4.792968 3.886719-8.679687 8.675781-8.679687h69.425782c4.792968 0 8.675781 3.886719 8.675781 8.679687 0 4.792969-3.882813 8.675782-8.675781 8.675782zm0 0"/><path d="m208.488281 261.421875h-121.492187c-4.792969 0-8.675782-3.882813-8.675782-8.675781 0-4.792969 3.882813-8.679688 8.675782-8.679688h121.492187c4.792969 0 8.679688 3.886719 8.679688 8.679688 0 4.792968-3.886719 8.675781-8.679688 8.675781zm0 0"/><path d="m347.335938 261.421875h-95.457032c-4.792968 0-8.679687-3.882813-8.679687-8.675781 0-4.792969 3.886719-8.679688 8.679687-8.679688h95.457032c4.792968 0 8.675781 3.886719 8.675781 8.679688 0 4.792968-3.882813 8.675781-8.675781 8.675781zm0 0"/></g><path d="m451.472656 352.542969c0 55.105469-50.507812 99.796875-112.816406 99.796875-31.617188.386718-62.089844-11.820313-84.695312-33.933594-17.800782-17.308594-27.929688-41.03125-28.117188-65.863281 0-55.105469 50.507812-99.796875 112.8125-99.796875 54.933594 0 100.753906 34.796875 110.820312 80.792968 1.324219 6.246094 1.992188 12.617188 1.996094 19.003907zm0 0" fill="#90bae1"/><path d="m86.996094 46.105469c0-25.464844-19.425782-46.105469-43.390625-46.105469-23.960938 0-43.386719 20.640625-43.386719 46.105469 0 25.464843 19.425781 46.105469 43.386719 46.105469 23.964843 0 43.390625-20.640626 43.390625-46.105469zm0 0" fill="#fb7b76"/><path d="m449.476562 333.539062c-113.421874-27.078124-169.570312 35.839844-195.515624 84.867188-17.800782-17.308594-27.929688-41.03125-28.117188-65.863281 0-55.105469 50.507812-99.796875 112.8125-99.796875 54.933594 0 100.753906 34.796875 110.820312 80.792968zm0 0" fill="#b0d3f0"/><path d="m386.386719 413.289062c-2.300781 0-4.507813-.917968-6.136719-2.542968l-47.726562-47.730469c-1.628907-1.625-2.542969-3.832031-2.542969-6.132813v-69.425781c0-4.792969 3.882812-8.675781 8.675781-8.675781s8.679688 3.882812 8.679688 8.675781v65.832031l45.1875 45.1875c2.480468 2.480469 3.222656 6.210938 1.878906 9.453126-1.34375 3.242187-4.507813 5.359374-8.015625 5.359374zm0 0" fill="#7f8c8d"/></svg>