<svg height="512pt" viewBox="-97 0 512 512" width="512pt" xmlns="http://www.w3.org/2000/svg"><path d="m35.308594 0h247.175781c19.5 0 35.308594 15.808594 35.308594 35.308594v441.382812c0 19.5-15.808594 35.308594-35.308594 35.308594h-247.175781c-19.5 0-35.308594-15.808594-35.308594-35.308594v-441.382812c0-19.5 15.808594-35.308594 35.308594-35.308594zm0 0" fill="#35495e"/><path d="m317.792969 423.722656v52.96875c0 19.5-15.808594 35.308594-35.308594 35.308594h-247.175781c-19.5 0-35.308594-15.808594-35.308594-35.308594v-52.96875zm0 0" fill="#95a5a5"/><g fill="#2c3e50"><path d="m176.550781 44.136719h-35.308593c-4.875 0-8.828126-3.949219-8.828126-8.828125 0-4.875 3.953126-8.824219 8.828126-8.824219h35.308593c4.875 0 8.828125 3.949219 8.828125 8.824219 0 4.878906-3.953125 8.828125-8.828125 8.828125zm0 0"/><path d="m247.171875 44.136719c-1.152344-.011719-2.292969-.253907-3.355469-.703125-1.066406-.449219-2.054687-1.078125-2.910156-1.855469-.78125-.859375-1.40625-1.84375-1.855469-2.914063-.453125-1.058593-.691406-2.199218-.707031-3.355468 0-4.875 3.953125-8.824219 8.828125-8.824219s8.828125 3.949219 8.828125 8.824219c-.015625 1.15625-.253906 2.296875-.707031 3.355468-.449219 1.070313-1.074219 2.054688-1.851563 2.914063-.859375.777344-1.84375 1.40625-2.914062 1.855469-1.0625.449218-2.203125.691406-3.355469.703125zm0 0"/><path d="m282.484375 44.136719c-1.15625-.011719-2.292969-.253907-3.355469-.703125-1.070312-.449219-2.054687-1.078125-2.914062-1.855469-.777344-.859375-1.40625-1.84375-1.851563-2.914063-.453125-1.058593-.695312-2.199218-.707031-3.355468 0-4.875 3.949219-8.824219 8.828125-8.824219 4.875 0 8.824219 3.949219 8.824219 8.824219-.011719 1.15625-.253906 2.296875-.703125 3.355468-.453125 1.070313-1.078125 2.054688-1.855469 2.914063-.859375.777344-1.84375 1.40625-2.914062 1.855469-1.058594.449218-2.199219.691406-3.351563.703125zm0 0"/><path d="m176.550781 467.863281c0 9.75-7.902343 17.652344-17.652343 17.652344-9.753907 0-17.65625-7.902344-17.65625-17.652344s7.902343-17.65625 17.65625-17.65625c9.75 0 17.652343 7.90625 17.652343 17.65625zm0 0"/></g><path d="m61.792969 132.414062c-19.5 0-35.308594-15.808593-35.308594-35.3125 0-19.5 15.808594-35.308593 35.308594-35.308593s35.308593 15.808593 35.308593 35.308593c0 9.367188-3.71875 18.347657-10.339843 24.96875-6.621094 6.625-15.605469 10.34375-24.96875 10.34375zm0-52.964843c-9.75 0-17.65625 7.902343-17.65625 17.652343 0 9.753907 7.90625 17.65625 17.65625 17.65625s17.65625-7.902343 17.65625-17.65625c0-9.75-7.90625-17.652343-17.65625-17.652343zm0 0" fill="#cc4b4c"/><path d="m61.792969 105.929688c-2.953125.03125-5.722657-1.433594-7.359375-3.890626-1.640625-2.457031-1.925782-5.574218-.761719-8.289062.445313-1.070312 1.074219-2.054688 1.855469-2.914062 3.539062-3.265626 8.992187-3.265626 12.535156 0 .777344.859374 1.40625 1.84375 1.851562 2.914062 1.164063 2.714844.878907 5.832031-.761718 8.289062-1.636719 2.457032-4.40625 3.921876-7.359375 3.890626zm0 0" fill="#cc4b4c"/><path d="m282.484375 105.929688h-158.898437c-4.875 0-8.828126-3.949219-8.828126-8.828126 0-4.875 3.953126-8.824218 8.828126-8.824218h158.898437c4.875 0 8.824219 3.949218 8.824219 8.824218 0 4.878907-3.949219 8.828126-8.824219 8.828126zm0 0" fill="#547580"/><path d="m61.792969 220.691406c-19.5 0-35.308594-15.8125-35.308594-35.3125s15.808594-35.308594 35.308594-35.308594 35.308593 15.808594 35.308593 35.308594-15.808593 35.3125-35.308593 35.3125zm0-52.96875c-9.75 0-17.65625 7.90625-17.65625 17.65625s7.90625 17.65625 17.65625 17.65625 17.65625-7.90625 17.65625-17.65625-7.90625-17.65625-17.65625-17.65625zm0 0" fill="#cc4b4c"/><path d="m61.792969 194.207031c-2.347657.023438-4.609375-.898437-6.269531-2.558593-1.660157-1.660157-2.582032-3.921876-2.558594-6.269532-.03125-1.15625.210937-2.308594.707031-3.355468.445313-1.070313 1.074219-2.054688 1.855469-2.910157 3.539062-3.269531 8.992187-3.269531 12.535156 0 .777344.855469 1.40625 1.839844 1.851562 2.910157.492188 1.050781.734376 2.199218.707032 3.355468.023437 2.347656-.898438 4.609375-2.558594 6.269532-1.660156 1.660156-3.921875 2.582031-6.269531 2.558593zm0 0" fill="#cc4b4c"/><path d="m282.484375 194.207031h-158.898437c-4.875 0-8.828126-3.953125-8.828126-8.828125s3.953126-8.828125 8.828126-8.828125h158.898437c4.875 0 8.824219 3.953125 8.824219 8.828125s-3.949219 8.828125-8.824219 8.828125zm0 0" fill="#547580"/><path d="m61.792969 308.964844c-19.5 0-35.308594-15.808594-35.308594-35.308594 0-19.503906 15.808594-35.3125 35.308594-35.3125s35.308593 15.808594 35.308593 35.3125c0 19.5-15.808593 35.308594-35.308593 35.308594zm0-52.964844c-9.75 0-17.65625 7.90625-17.65625 17.65625s7.90625 17.652344 17.65625 17.652344 17.65625-7.902344 17.65625-17.652344-7.90625-17.65625-17.65625-17.65625zm0 0" fill="#cc4b4c"/><path d="m61.792969 282.484375c-1.152344-.015625-2.292969-.253906-3.355469-.707031-1.070312-.449219-2.054688-1.074219-2.910156-1.855469-.78125-.859375-1.40625-1.84375-1.855469-2.914063-.453125-1.058593-.691406-2.199218-.707031-3.351562 0-4.875 3.953125-8.828125 8.828125-8.828125s8.828125 3.953125 8.828125 8.828125c.023437 2.347656-.898438 4.605469-2.558594 6.265625-1.660156 1.664063-3.921875 2.585937-6.269531 2.5625zm0 0" fill="#cc4b4c"/><path d="m282.484375 282.484375h-158.898437c-4.875 0-8.828126-3.953125-8.828126-8.828125s3.953126-8.828125 8.828126-8.828125h158.898437c4.875 0 8.824219 3.953125 8.824219 8.828125s-3.949219 8.828125-8.824219 8.828125zm0 0" fill="#547580"/><path d="m61.792969 397.242188c-19.5 0-35.308594-15.808594-35.308594-35.3125 0-19.5 15.808594-35.308594 35.308594-35.308594s35.308593 15.808594 35.308593 35.308594c0 19.503906-15.808593 35.3125-35.308593 35.3125zm0-52.964844c-9.75 0-17.65625 7.902344-17.65625 17.652344 0 9.753906 7.90625 17.65625 17.65625 17.65625s17.65625-7.902344 17.65625-17.65625c0-9.75-7.90625-17.652344-17.65625-17.652344zm0 0" fill="#cc4b4c"/><path d="m61.792969 370.757812c-1.152344-.011718-2.292969-.253906-3.355469-.707031-1.078125-.425781-2.070312-1.054687-2.910156-1.851562-.78125-.859375-1.40625-1.84375-1.855469-2.914063-.945313-2.136718-.945313-4.570312 0-6.707031.425781-1.082031 1.054687-2.070313 1.855469-2.914063.414062-.378906.855468-.734374 1.3125-1.058593.496094-.335938 1.03125-.605469 1.597656-.796875.5-.253906 1.035156-.4375 1.589844-.539063 1.132812-.257812 2.308594-.257812 3.441406 0 .585938.089844 1.152344.269531 1.679688.539063.542968.175781 1.050781.445312 1.5.796875.503906.300781.980468.65625 1.414062 1.058593.796875.84375 1.425781 1.832032 1.851562 2.914063.945313 2.136719.945313 4.570313 0 6.707031-.800781 2.21875-2.546874 3.964844-4.765624 4.765625-1.0625.453125-2.203126.695313-3.355469.707031zm0 0" fill="#cc4b4c"/><path d="m282.484375 370.757812h-158.898437c-4.875 0-8.828126-3.953124-8.828126-8.828124s3.953126-8.828126 8.828126-8.828126h158.898437c4.875 0 8.824219 3.953126 8.824219 8.828126s-3.949219 8.828124-8.824219 8.828124zm0 0" fill="#547580"/></svg>