<svg height="512pt" viewBox="-26 0 512 512" width="512pt" xmlns="http://www.w3.org/2000/svg"><path d="m158.898438 450.207031h-141.242188c-9.738281-.027343-17.6289062-7.917969-17.65625-17.65625v-379.585937c.0273438-9.738282 7.917969-17.625 17.65625-17.65625h300.136719c9.738281.03125 17.625 7.917968 17.65625 17.65625v158.898437zm0 0" fill="#7f5b53"/><path d="m300.136719 209.089844v-129.640625c0-4.875-3.949219-8.828125-8.828125-8.828125h-247.171875c-4.875 0-8.828125 3.953125-8.828125 8.828125v326.621093c0 4.875 3.953125 8.828126 8.828125 8.828126h110.144531c2.886719 0 5.59375-1.417969 7.246094-3.789063l137.03125-196.980469c1.027344-1.476562 1.578125-3.238281 1.578125-5.039062zm0 0" fill="#f9eab0"/><path d="m132.414062 35.308594c0-19.5 15.808594-35.308594 35.308594-35.308594 19.503906 0 35.3125 15.808594 35.3125 35.308594" fill="#95a5a5"/><path d="m88.277344 35.308594h158.894531v35.3125c0 9.75-7.902344 17.65625-17.65625 17.65625h-123.585937c-9.75 0-17.652344-7.90625-17.652344-17.65625zm0 0" fill="#bdc3c7"/><g fill="#802f34"><path d="m97.101562 132.414062h-26.480468c-4.875 0-8.828125-3.953124-8.828125-8.828124s3.953125-8.828126 8.828125-8.828126h26.480468c4.878907 0 8.828126 3.953126 8.828126 8.828126s-3.949219 8.828124-8.828126 8.828124zm0 0"/><path d="m264.828125 132.414062h-132.414063c-4.875 0-8.828124-3.953124-8.828124-8.828124s3.953124-8.828126 8.828124-8.828126h132.414063c4.875 0 8.828125 3.953126 8.828125 8.828126s-3.953125 8.828124-8.828125 8.828124zm0 0"/><path d="m97.101562 176.550781h-26.480468c-4.875 0-8.828125-3.953125-8.828125-8.828125s3.953125-8.824218 8.828125-8.824218h26.480468c4.878907 0 8.828126 3.949218 8.828126 8.824218s-3.949219 8.828125-8.828126 8.828125zm0 0"/><path d="m264.828125 176.550781h-132.414063c-4.875 0-8.828124-3.953125-8.828124-8.828125s3.953124-8.824218 8.828124-8.824218h132.414063c4.875 0 8.828125 3.949218 8.828125 8.824218s-3.953125 8.828125-8.828125 8.828125zm0 0"/><path d="m97.101562 220.691406h-26.480468c-4.875 0-8.828125-3.953125-8.828125-8.828125s3.953125-8.828125 8.828125-8.828125h26.480468c4.878907 0 8.828126 3.953125 8.828126 8.828125s-3.949219 8.828125-8.828126 8.828125zm0 0"/><path d="m97.101562 264.828125h-26.480468c-4.875 0-8.828125-3.953125-8.828125-8.828125s3.953125-8.828125 8.828125-8.828125h26.480468c4.878907 0 8.828126 3.953125 8.828126 8.828125s-3.949219 8.828125-8.828126 8.828125zm0 0"/><path d="m97.101562 308.964844h-26.480468c-4.875 0-8.828125-3.953125-8.828125-8.828125s3.953125-8.828125 8.828125-8.828125h26.480468c4.878907 0 8.828126 3.953125 8.828126 8.828125s-3.949219 8.828125-8.828126 8.828125zm0 0"/><path d="m97.101562 353.101562h-26.480468c-4.875 0-8.828125-3.949218-8.828125-8.824218s3.953125-8.828125 8.828125-8.828125h26.480468c4.878907 0 8.828126 3.953125 8.828126 8.828125s-3.949219 8.824218-8.828126 8.824218zm0 0"/></g><path d="m211.863281 211.863281h-17.65625c-19.5 0-35.308593 15.808594-35.308593 35.308594v229.519531c0 19.5 15.808593 35.308594 35.308593 35.308594h229.515625c19.503906 0 35.3125-15.808594 35.3125-35.308594v-229.519531c0-19.5-15.808594-35.308594-35.3125-35.308594zm0 0" fill="#ecf0f1"/><path d="m224.609375 346.738281 27.804687-18.625c1.453126-.972656 3.164063-1.492187 4.910157-1.492187h25.160156c4.875 0 8.824219 3.953125 8.824219 8.828125v123.585937c0 4.875-3.949219 8.828125-8.824219 8.828125h-26.484375c-4.875 0-8.828125-3.953125-8.828125-8.828125v-70.621094c0-4.875-3.953125-8.828124-8.828125-8.828124h-8.828125c-4.875 0-8.824219-3.953126-8.824219-8.828126v-16.683593c0-2.945313 1.46875-5.699219 3.917969-7.335938zm0 0" fill="#802f34"/><path d="m330.539062 346.738281 27.808594-18.625c1.453125-.972656 3.160156-1.492187 4.90625-1.492187h25.160156c4.875 0 8.828126 3.953125 8.828126 8.828125v123.585937c0 4.875-3.953126 8.828125-8.828126 8.828125h-26.484374c-4.875 0-8.828126-3.953125-8.828126-8.828125v-70.621094c0-4.875-3.949218-8.828124-8.824218-8.828124h-8.828125c-4.875 0-8.828125-3.953126-8.828125-8.828126v-16.683593c0-2.945313 1.46875-5.699219 3.917968-7.335938zm0 0" fill="#802f34"/><path d="m459.035156 247.171875v44.136719h-300.136718v-44.136719c0-19.5 15.808593-35.308594 35.308593-35.308594h229.515625c19.503906 0 35.3125 15.808594 35.3125 35.308594zm0 0" fill="#cc4b4c"/><path d="m229.515625 167.722656c9.753906 0 17.65625 7.90625 17.65625 17.65625v52.964844c0 9.75-7.902344 17.65625-17.65625 17.65625-9.75 0-17.652344-7.90625-17.652344-17.65625v-52.964844c0-9.75 7.902344-17.65625 17.652344-17.65625zm0 0" fill="#bdc3c7"/><path d="m388.414062 167.722656c9.75 0 17.65625 7.90625 17.65625 17.65625v52.964844c0 9.75-7.90625 17.65625-17.65625 17.65625s-17.65625-7.90625-17.65625-17.65625v-52.964844c0-9.75 7.90625-17.65625 17.65625-17.65625zm0 0" fill="#bdc3c7"/></svg>