<svg height="512pt" viewBox="0 0 512 512" width="512pt" xmlns="http://www.w3.org/2000/svg"><path d="m450.207031 0h26.484375c19.5 0 35.308594 15.808594 35.308594 35.308594v370.761718c0 19.5-15.808594 35.308594-35.308594 35.308594h-441.382812c-19.5 0-35.308594-15.808594-35.308594-35.308594v-370.761718c0-19.5 15.808594-35.308594 35.308594-35.308594zm0 0" fill="#35495e"/><path d="m185.378906 441.378906h141.242188v35.3125h-141.242188zm0 0" fill="#7f8c8d"/><path d="m141.242188 476.691406h229.515624c14.625 0 26.484376 11.855469 26.484376 26.480469v8.828125h-282.484376v-8.828125c0-14.625 11.859376-26.480469 26.484376-26.480469zm0 0" fill="#95a5a5"/><path d="m52.964844 70.621094h185.378906c9.75 0 17.65625 7.902344 17.65625 17.65625 0 9.75-7.90625 17.652344-17.65625 17.652344h-185.378906c-9.75 0-17.65625-7.902344-17.65625-17.652344 0-9.753906 7.90625-17.65625 17.65625-17.65625zm0 0" fill="#cc66a1"/><path d="m52.964844 211.863281h291.3125c9.75 0 17.652344 7.902344 17.652344 17.652344 0 9.753906-7.902344 17.65625-17.652344 17.65625h-291.3125c-9.75 0-17.65625-7.902344-17.65625-17.65625 0-9.75 7.90625-17.652344 17.65625-17.652344zm0 0" fill="#cc66a1"/><path d="m167.722656 141.242188h70.621094c9.75 0 17.65625 7.902343 17.65625 17.65625 0 9.75-7.90625 17.652343-17.65625 17.652343h-70.621094c-9.75 0-17.652344-7.902343-17.652344-17.652343 0-9.753907 7.902344-17.65625 17.652344-17.65625zm0 0" fill="#84b5cb"/><path d="m52.964844 282.484375h88.277344c9.75 0 17.65625 7.902344 17.65625 17.652344s-7.90625 17.65625-17.65625 17.65625h-88.277344c-9.75 0-17.65625-7.90625-17.65625-17.65625s7.90625-17.652344 17.65625-17.652344zm0 0" fill="#84b5cb"/><path d="m370.757812 88.277344c0 19.5-15.808593 35.308594-35.308593 35.308594-19.503907 0-35.3125-15.808594-35.3125-35.308594 0-19.503906 15.808593-35.3125 35.3125-35.3125 19.5 0 35.308593 15.808594 35.308593 35.3125zm0 0" fill="#f18d46"/><path d="m476.691406 229.515625c0 19.503906-15.8125 35.3125-35.3125 35.3125s-35.308594-15.808594-35.308594-35.3125c0-19.5 15.808594-35.308594 35.308594-35.308594s35.3125 15.808594 35.3125 35.308594zm0 0" fill="#f18d46"/><path d="m441.378906 167.722656c-4.875 0-8.828125-3.949218-8.828125-8.824218v-61.796876h-26.480469c-4.875 0-8.828124-3.949218-8.828124-8.824218s3.953124-8.828125 8.828124-8.828125h35.308594c4.875 0 8.828125 3.953125 8.828125 8.828125v70.621094c0 4.875-3.953125 8.824218-8.828125 8.824218zm0 0" fill="#f3d55b"/><path d="m512 361.929688v44.140624c0 19.5-15.808594 35.308594-35.308594 35.308594h-441.382812c-19.5 0-35.308594-15.808594-35.308594-35.308594v-44.140624zm0 0" fill="#95a5a5"/></svg>