<svg height="512pt" viewBox="-61 0 511 512" width="512pt" xmlns="http://www.w3.org/2000/svg"><path d="m18.15625 35.308594h353.101562c9.75 0 17.65625 7.90625 17.65625 17.65625v441.378906c0 9.75-7.90625 17.65625-17.65625 17.65625h-353.101562c-9.75 0-17.65625-7.90625-17.65625-17.65625v-441.378906c0-9.75 7.90625-17.65625 17.65625-17.65625zm0 0" fill="#7f5b53"/><path d="m274.15625 70.621094h70.621094c4.875 0 8.824218 3.953125 8.824218 8.828125v388.414062c0 4.875-3.949218 8.828125-8.824218 8.828125h-300.140625c-4.875 0-8.828125-3.953125-8.828125-8.828125v-388.414062c0-4.875 3.953125-8.828125 8.828125-8.828125zm0 0" fill="#b49aca"/><path d="m148.539062 162.605469c12.046876 5.921875 19.679688 18.175781 19.683594 31.601562v8.828125h-70.621094v-8.828125c.007813-13.425781 7.640626-25.679687 19.6875-31.601562zm0 0" fill="#d25627"/><path d="m282.984375 203.035156h-52.96875c-9.75 0-17.652344-7.90625-17.652344-17.65625v-52.964844c0-9.75 7.902344-17.65625 17.652344-17.65625h8.828125c4.875 0 8.828125 3.953126 8.828125 8.828126s-3.953125 8.828124-8.828125 8.828124h-8.828125v52.964844h52.96875v-8.828125c0-4.875 3.949219-8.828125 8.824219-8.828125 4.878906 0 8.828125 3.953125 8.828125 8.828125v8.828125c0 9.75-7.902344 17.65625-17.652344 17.65625zm0 0" fill="#3d324c"/><path d="m256.5 176.550781c-2.339844 0-4.585938-.929687-6.242188-2.585937l-8.828124-8.828125c-3.34375-3.460938-3.296876-8.96875.109374-12.375 3.40625-3.402344 8.910157-3.453125 12.375-.105469l1.632813 1.632812 20.375-27.171874c1.890625-2.523438 4.984375-3.84375 8.117187-3.46875 3.128907.378906 5.824219 2.398437 7.0625 5.296874 1.238282 2.902344.835938 6.242188-1.058593 8.765626l-26.480469 35.308593c-1.53125 2.054688-3.878906 3.34375-6.4375 3.53125zm0 0" fill="#24ae5f"/><path d="m148.539062 286.191406c12.046876 5.921875 19.679688 18.175782 19.683594 31.601563v8.828125h-70.621094v-8.828125c.007813-13.425781 7.640626-25.679688 19.6875-31.601563zm0 0" fill="#d25627"/><path d="m282.984375 326.621094h-52.96875c-9.75 0-17.652344-7.90625-17.652344-17.65625v-52.964844c0-9.75 7.902344-17.65625 17.652344-17.65625h8.828125c4.875 0 8.828125 3.953125 8.828125 8.828125s-3.953125 8.828125-8.828125 8.828125h-8.828125v52.964844h52.96875v-8.828125c0-4.875 3.949219-8.828125 8.824219-8.828125 4.878906 0 8.828125 3.953125 8.828125 8.828125v8.828125c0 9.75-7.902344 17.65625-17.652344 17.65625zm0 0" fill="#3d324c"/><path d="m256.5 300.136719c-2.339844 0-4.585938-.929688-6.242188-2.585938l-8.828124-8.828125c-3.34375-3.460937-3.296876-8.96875.109374-12.375 3.40625-3.402344 8.910157-3.453125 12.375-.105468l1.632813 1.632812 20.375-27.171875c1.890625-2.523437 4.984375-3.84375 8.117187-3.46875 3.128907.378906 5.824219 2.398437 7.0625 5.296875 1.238282 2.902344.835938 6.242188-1.058593 8.765625l-26.480469 35.308594c-1.53125 2.058593-3.878906 3.34375-6.4375 3.53125zm0 0" fill="#24ae5f"/><path d="m148.539062 409.777344c12.046876 5.921875 19.679688 18.175781 19.683594 31.601562v8.828125h-70.621094v-8.828125c.007813-13.425781 7.640626-25.679687 19.6875-31.601562zm0 0" fill="#d25627"/><path d="m282.984375 450.207031h-52.96875c-9.75 0-17.652344-7.90625-17.652344-17.65625v-52.964843c0-9.75 7.902344-17.65625 17.652344-17.65625h8.828125c4.875 0 8.828125 3.953124 8.828125 8.828124s-3.953125 8.828126-8.828125 8.828126h-8.828125v52.964843h52.96875v-8.828125c0-4.875 3.949219-8.824218 8.824219-8.824218 4.878906 0 8.828125 3.949218 8.828125 8.824218v8.828125c0 9.75-7.902344 17.65625-17.652344 17.65625zm0 0" fill="#3d324c"/><path d="m256.5 423.722656c-2.339844 0-4.585938-.929687-6.242188-2.585937l-8.828124-8.828125c-3.34375-3.460938-3.296876-8.96875.109374-12.375 3.40625-3.402344 8.910157-3.449219 12.375-.105469l1.632813 1.632813 20.375-27.171876c1.890625-2.523437 4.984375-3.84375 8.117187-3.46875 3.128907.378907 5.824219 2.398438 7.0625 5.296876 1.238282 2.902343.835938 6.242187-1.058593 8.765624l-26.480469 35.308594c-1.53125 2.058594-3.878906 3.34375-6.4375 3.53125zm0 0" fill="#24ae5f"/><g fill="#fdd7ad"><path d="m159.398438 141.242188c0 14.625-11.859376 26.480468-26.484376 26.480468s-26.484374-11.855468-26.484374-26.480468 11.859374-26.484376 26.484374-26.484376 26.484376 11.859376 26.484376 26.484376zm0 0"/><path d="m159.398438 264.828125c0 14.625-11.859376 26.480469-26.484376 26.480469s-26.484374-11.855469-26.484374-26.480469 11.859374-26.484375 26.484374-26.484375 26.484376 11.859375 26.484376 26.484375zm0 0"/><path d="m159.398438 388.414062c0 14.625-11.859376 26.484376-26.484376 26.484376s-26.484374-11.859376-26.484374-26.484376 11.859374-26.484374 26.484374-26.484374 26.484376 11.859374 26.484376 26.484374zm0 0"/></g><path d="m159.398438 35.308594c0-19.5 15.808593-35.308594 35.308593-35.308594s35.308594 15.808594 35.308594 35.308594" fill="#bdc3c7"/><path d="m115.257812 35.308594h158.898438v35.3125c0 9.75-7.90625 17.65625-17.65625 17.65625h-123.585938c-9.75 0-17.65625-7.90625-17.65625-17.65625zm0 0" fill="#ecf0f1"/></svg>