<svg height="512pt" viewBox="0 0 512 512" width="512pt" xmlns="http://www.w3.org/2000/svg"><path d="m353.101562 256v-203.035156c-.027343-9.738282-7.914062-17.625-17.652343-17.65625h-317.792969c-9.738281.03125-17.6289062 7.917968-17.65625 17.65625v397.242187c.0273438 9.738281 7.917969 17.625 17.65625 17.65625h211.859375zm0 0" fill="#7f5b53"/><path d="m317.792969 253.917969v-174.46875c0-4.875-3.953125-8.828125-8.828125-8.828125h-264.828125c-4.875 0-8.828125 3.953125-8.828125 8.828125v344.273437c0 4.875 3.953125 8.828125 8.828125 8.828125h179.925781c3.34375 0 6.398438-1.890625 7.890625-4.878906l84.902344-169.808594c.617187-1.226562.9375-2.578125.9375-3.945312zm0 0" fill="#b49aca"/><path d="m141.242188 35.308594c0-19.5 15.808593-35.308594 35.308593-35.308594 19.503907 0 35.3125 15.808594 35.3125 35.308594" fill="#bdc3c7"/><path d="m97.101562 35.308594h158.898438v35.3125c0 9.75-7.90625 17.65625-17.65625 17.65625h-123.585938c-9.75 0-17.65625-7.90625-17.65625-17.65625zm0 0" fill="#ecf0f1"/><g fill="#3d324c"><path d="m70.621094 361.929688h35.308594c4.875 0 8.828124 3.953124 8.828124 8.828124v17.65625c0 4.875-3.953124 8.828126-8.828124 8.828126h-35.308594c-4.875 0-8.828125-3.953126-8.828125-8.828126v-17.65625c0-4.875 3.953125-8.828124 8.828125-8.828124zm0 0"/><path d="m70.621094 291.308594h35.308594c4.875 0 8.828124 3.953125 8.828124 8.828125v17.65625c0 4.875-3.953124 8.828125-8.828124 8.828125h-35.308594c-4.875 0-8.828125-3.953125-8.828125-8.828125v-17.65625c0-4.875 3.953125-8.828125 8.828125-8.828125zm0 0"/><path d="m70.621094 220.691406h35.308594c4.875 0 8.828124 3.949219 8.828124 8.824219v17.65625c0 4.875-3.953124 8.828125-8.828124 8.828125h-35.308594c-4.875 0-8.828125-3.953125-8.828125-8.828125v-17.65625c0-4.875 3.953125-8.824219 8.828125-8.824219zm0 0"/><path d="m158.898438 361.929688h35.308593c4.875 0 8.828125 3.953124 8.828125 8.828124v17.65625c0 4.875-3.953125 8.828126-8.828125 8.828126h-35.308593c-4.878907 0-8.828126-3.953126-8.828126-8.828126v-17.65625c0-4.875 3.949219-8.828124 8.828126-8.828124zm0 0"/><path d="m158.898438 291.308594h35.308593c4.875 0 8.828125 3.953125 8.828125 8.828125v17.65625c0 4.875-3.953125 8.828125-8.828125 8.828125h-35.308593c-4.878907 0-8.828126-3.953125-8.828126-8.828125v-17.65625c0-4.875 3.949219-8.828125 8.828126-8.828125zm0 0"/><path d="m158.898438 220.691406h35.308593c4.875 0 8.828125 3.949219 8.828125 8.824219v17.65625c0 4.875-3.953125 8.828125-8.828125 8.828125h-35.308593c-4.878907 0-8.828126-3.953125-8.828126-8.828125v-17.65625c0-4.875 3.949219-8.824219 8.828126-8.824219zm0 0"/><path d="m70.621094 150.070312h35.308594c4.875 0 8.828124 3.949219 8.828124 8.828126v17.652343c0 4.875-3.953124 8.828125-8.828124 8.828125h-35.308594c-4.875 0-8.828125-3.953125-8.828125-8.828125v-17.652343c0-4.878907 3.953125-8.828126 8.828125-8.828126zm0 0"/><path d="m220.691406 132.414062h-17.65625c-4.875 0-8.828125-3.953124-8.828125-8.828124s3.953125-8.828126 8.828125-8.828126h17.65625c4.875 0 8.824219 3.953126 8.824219 8.828126s-3.949219 8.828124-8.824219 8.828124zm0 0"/><path d="m282.484375 132.414062h-26.484375c-4.875 0-8.828125-3.953124-8.828125-8.828124s3.953125-8.828126 8.828125-8.828126h26.484375c4.875 0 8.824219 3.953126 8.824219 8.828126s-3.949219 8.828124-8.824219 8.828124zm0 0"/><path d="m282.484375 167.722656h-105.933594c-4.875 0-8.828125-3.949218-8.828125-8.824218 0-4.878907 3.953125-8.828126 8.828125-8.828126h105.933594c4.875 0 8.824219 3.949219 8.824219 8.828126 0 4.875-3.949219 8.824218-8.824219 8.824218zm0 0"/><path d="m282.484375 203.035156h-26.484375c-4.875 0-8.828125-3.953125-8.828125-8.828125s3.953125-8.828125 8.828125-8.828125h26.484375c4.875 0 8.824219 3.953125 8.824219 8.828125s-3.949219 8.828125-8.824219 8.828125zm0 0"/></g><path d="m512 423.722656v70.621094c-.027344 9.738281-7.917969 17.628906-17.65625 17.65625h-247.171875c-9.738281-.027344-17.625-7.917969-17.65625-17.65625v-70.621094h88.277344v26.484375c0 4.875 3.953125 8.828125 8.828125 8.828125h88.277344c4.875 0 8.824218-3.953125 8.824218-8.828125v-26.484375zm0 0" fill="#f3d55b"/><path d="m512 423.722656h-88.277344v26.484375c0 4.875-3.949218 8.828125-8.824218 8.828125h-88.277344c-4.875 0-8.828125-3.953125-8.828125-8.828125v-26.484375h-88.277344l57.558594-156.160156c2.542969-6.921875 9.128906-11.535156 16.507812-11.5625h134.355469c7.378906.027344 13.960938 4.640625 16.507812 11.5625zm0 0" fill="#f29c1f"/><path d="m370.757812 423.722656h13.242188c2.4375 0 4.414062-1.976562 4.414062-4.414062v-70.617188c0-2.4375 1.976563-4.414062 4.414063-4.414062h12.640625c1.710938-.003906 3.269531-.992188 3.996094-2.542969.726562-1.550781.488281-3.382813-.605469-4.695313l-34.710937-41.660156c-.839844-1.003906-2.082032-1.585937-3.390626-1.585937-1.308593 0-2.550781.582031-3.390624 1.585937l-34.71875 41.660156c-1.09375 1.3125-1.332032 3.144532-.605469 4.695313.726562 1.550781 2.285156 2.539063 3.996093 2.542969h12.652344c2.4375 0 4.410156 1.976562 4.410156 4.414062v70.617188c0 2.4375 1.976563 4.414062 4.414063 4.414062zm0 0" fill="#cc4b4c"/></svg>