<svg height="512pt" viewBox="-22 0 512 512" width="512pt" xmlns="http://www.w3.org/2000/svg"><path d="m211.863281 467.863281h-194.207031c-9.738281-.03125-17.6289062-7.917969-17.65625-17.65625v-397.242187c.0273438-9.738282 7.917969-17.625 17.65625-17.65625h317.792969c9.738281.03125 17.625 7.917968 17.652343 17.65625v264.828125zm0 0" fill="#7f5b53"/><path d="m256 70.621094h52.964844c4.875 0 8.828125 3.953125 8.828125 8.828125v234.890625c0 2.21875-.835938 4.355468-2.339844 5.988281l-100.941406 109.382813c-1.671875 1.808593-4.023438 2.839843-6.488281 2.839843h-163.886719c-4.875 0-8.828125-3.953125-8.828125-8.828125v-344.273437c0-4.875 3.953125-8.828125 8.828125-8.828125zm0 0" fill="#f9eab0"/><path d="m141.242188 35.308594c0-19.5 15.808593-35.308594 35.308593-35.308594 19.503907 0 35.3125 15.808594 35.3125 35.308594" fill="#ecf0f1"/><path d="m97.101562 35.308594h158.898438v35.3125c0 9.75-7.90625 17.65625-17.65625 17.65625h-123.585938c-9.75 0-17.65625-7.90625-17.65625-17.65625zm0 0" fill="#bdc3c7"/><path d="m157.023438 303.667969-54.226563-54.226563c-3.445313-3.449218-3.445313-9.035156 0-12.484375l12.484375-12.480469c3.445312-3.445312 9.035156-3.445312 12.480469 0l24.214843 24.214844c1.855469 1.851563 4.4375 2.785156 7.046876 2.546875 2.613281-.242187 4.980468-1.632812 6.46875-3.792969l74.070312-107.695312c1.328125-1.929688 3.363281-3.257812 5.667969-3.683594 2.304687-.425781 4.683593.078125 6.613281 1.40625l14.539062 9.949219c1.929688 1.324219 3.253907 3.363281 3.679688 5.667969.429688 2.300781-.078125 4.679687-1.402344 6.609375l-98.121094 142.699219c-1.480468 2.164062-3.847656 3.558593-6.457031 3.804687-2.613281.246094-5.199219-.683594-7.058593-2.535156zm0 0" fill="#24ae5f"/><path d="m229.515625 317.792969h220.691406c9.75 0 17.65625 7.90625 17.65625 17.65625v158.894531c0 9.75-7.90625 17.65625-17.65625 17.65625h-220.691406c-9.75 0-17.652344-7.90625-17.652344-17.65625v-158.894531c0-9.75 7.902344-17.65625 17.652344-17.65625zm0 0" fill="#f3d55b"/><path d="m388.414062 353.101562h35.308594c4.875 0 8.828125 3.953126 8.828125 8.828126v52.96875c0 4.875-3.953125 8.824218-8.828125 8.824218h-35.308594c-4.875 0-8.828124-3.949218-8.828124-8.824218v-52.96875c0-4.875 3.953124-8.828126 8.828124-8.828126zm0 0" fill="#cc4b4c"/><g fill="#802f34"><path d="m335.449219 397.242188h-88.277344c-4.875 0-8.828125-3.953126-8.828125-8.828126s3.953125-8.828124 8.828125-8.828124h88.277344c4.875 0 8.828125 3.953124 8.828125 8.828124s-3.953125 8.828126-8.828125 8.828126zm0 0"/><path d="m335.449219 432.550781h-88.277344c-4.875 0-8.828125-3.953125-8.828125-8.828125s3.953125-8.824218 8.828125-8.824218h88.277344c4.875 0 8.828125 3.949218 8.828125 8.824218s-3.953125 8.828125-8.828125 8.828125zm0 0"/><path d="m282.484375 467.863281h-35.3125c-4.875 0-8.828125-3.953125-8.828125-8.828125s3.953125-8.828125 8.828125-8.828125h35.3125c4.875 0 8.824219 3.953125 8.824219 8.828125s-3.949219 8.828125-8.824219 8.828125zm0 0"/></g></svg>