<svg height="511pt" viewBox="-44 0 511 511.98808" width="511pt" xmlns="http://www.w3.org/2000/svg"><path d="m355.496094 506.882812c-6.925782 6.808594-18.03125 6.808594-24.957032 0l-324.855468-320.882812c-3.320313-3.257812-5.191406-7.710938-5.191406-12.359375s1.871093-9.105469 5.191406-12.359375c6.925781-6.808594 18.03125-6.808594 24.957031 0l324.855469 320.882812c3.316406 3.253907 5.1875 7.707032 5.1875 12.359376 0 4.648437-1.871094 9.101562-5.1875 12.359374zm0 0" fill="#cb9080"/><path d="m280.539062 272.394531c-18.75-92.558593 62.464844-111.070312 62.464844-111.070312l-106.195312-104.898438c-48.03125-15.664062-100.257813 6.449219-122.441406 51.835938zm0 0" fill="#802f34"/><g fill="#cc4b4c"><path d="m36.90625 167.496094c6.25-67.875 74.964844-61.707032 74.964844-61.707032l168.667968 166.605469c-56.222656 43.191407-24.992187 111.066407-24.992187 111.066407zm0 0"/><path d="m236.808594 56.425781s93.703125-80.214843 187.410156-49.363281c-93.707031 104.898438-81.214844 154.261719-81.214844 154.261719"/></g></svg>