<svg height="512pt" viewBox="0 0 512 512" width="512pt" xmlns="http://www.w3.org/2000/svg"><path d="m0 512v-118.476562c1.078125-18.449219 16.855469-32.566407 35.308594-31.59375h441.382812c18.453125-.972657 34.230469 13.144531 35.308594 31.59375v118.476562zm0 0" fill="#955ba5"/><path d="m44.136719 450.207031h52.964843c4.878907 0 8.828126 3.953125 8.828126 8.828125v44.136719c0 4.875-3.949219 8.828125-8.828126 8.828125h-52.964843c-4.875 0-8.828125-3.953125-8.828125-8.828125v-44.136719c0-4.875 3.953125-8.828125 8.828125-8.828125zm0 0" fill="#3d324c"/><path d="m273.65625 450.207031h-132.414062c-4.875 0-8.828126-3.953125-8.828126-8.828125s3.953126-8.828125 8.828126-8.828125h132.414062c4.875 0 8.828125 3.953125 8.828125 8.828125s-3.953125 8.828125-8.828125 8.828125zm0 0" fill="#3d324c"/><path d="m176.550781 485.515625h-35.308593c-4.875 0-8.828126-3.949219-8.828126-8.824219 0-4.878906 3.953126-8.828125 8.828126-8.828125h35.308593c4.875 0 8.828125 3.949219 8.828125 8.828125 0 4.875-3.953125 8.824219-8.828125 8.824219zm0 0" fill="#3d324c"/><path d="m247.171875 485.515625h-35.308594c-4.875 0-8.828125-3.949219-8.828125-8.824219 0-4.878906 3.953125-8.828125 8.828125-8.828125h35.308594c4.875 0 8.828125 3.949219 8.828125 8.828125 0 4.875-3.953125 8.824219-8.828125 8.824219zm0 0" fill="#3d324c"/><path d="m467.863281 61.792969h8.828125c19.5 0 35.308594 15.808593 35.308594 35.308593v194.207032c0 19.503906-15.808594 35.3125-35.308594 35.3125h-441.382812c-19.5 0-35.308594-15.808594-35.308594-35.3125v-194.207032c0-19.5 15.808594-35.308593 35.308594-35.308593zm0 0" fill="#955ba5"/><g fill="#3d324c"><path d="m44.136719 158.898438h52.964843c4.878907 0 8.828126 3.949218 8.828126 8.824218v52.96875c0 4.875-3.949219 8.824219-8.828126 8.824219h-52.964843c-4.875 0-8.828125-3.949219-8.828125-8.824219v-52.96875c0-4.875 3.953125-8.824218 8.828125-8.824218zm0 0"/><path d="m247.347656 158.898438h-106.105468c-4.875 0-8.828126-3.953126-8.828126-8.828126s3.953126-8.828124 8.828126-8.828124h106.105468c4.875 0 8.828125 3.953124 8.828125 8.828124s-3.953125 8.828126-8.828125 8.828126zm0 0"/><path d="m176.550781 194.207031h-35.308593c-4.875 0-8.828126-3.953125-8.828126-8.828125s3.953126-8.828125 8.828126-8.828125h35.308593c4.875 0 8.828125 3.953125 8.828125 8.828125s-3.953125 8.828125-8.828125 8.828125zm0 0"/><path d="m229.515625 194.207031h-17.652344c-4.875 0-8.828125-3.953125-8.828125-8.828125s3.953125-8.828125 8.828125-8.828125h17.652344c4.878906 0 8.828125 3.953125 8.828125 8.828125s-3.949219 8.828125-8.828125 8.828125zm0 0"/><path d="m203.035156 247.171875h-61.792968c-4.875 0-8.828126-3.953125-8.828126-8.828125s3.953126-8.828125 8.828126-8.828125h61.792968c4.875 0 8.828125 3.953125 8.828125 8.828125s-3.953125 8.828125-8.828125 8.828125zm0 0"/></g><path d="m476.691406 98.867188c0 54.644531-55.351562 98.871093-123.589844 98.871093h-1.851562c-15.476562 28.882813-44.878906 47.613281-77.59375 49.433594 21.980469-16.507813 23.390625-43.167969 21.363281-61-39.019531-16.683594-65.503906-49.519531-65.503906-87.304687 0-54.640626 55.351563-98.867188 123.585937-98.867188 68.238282 0 123.589844 44.226562 123.589844 98.867188zm0 0" fill="#67b9cc"/></svg>