<svg height="512pt" viewBox="-97 0 512 512" width="512pt" xmlns="http://www.w3.org/2000/svg"><path d="m35.308594 0h247.175781c19.5 0 35.308594 15.808594 35.308594 35.308594v441.382812c0 19.5-15.808594 35.308594-35.308594 35.308594h-247.175781c-19.5 0-35.308594-15.808594-35.308594-35.308594v-441.382812c0-19.5 15.808594-35.308594 35.308594-35.308594zm0 0" fill="#35495e"/><path d="m0 211.863281h317.792969v141.238281h-317.792969zm0 0" fill="#cc66a1"/><path d="m0 70.621094h317.792969v141.242187h-317.792969zm0 0" fill="#b49aca"/><path d="m176.550781 44.136719h-35.308593c-4.875 0-8.828126-3.949219-8.828126-8.828125 0-4.875 3.953126-8.824219 8.828126-8.824219h35.308593c4.875 0 8.828125 3.949219 8.828125 8.824219 0 4.878906-3.953125 8.828125-8.828125 8.828125zm0 0" fill="#2c3e50"/><path d="m247.171875 44.136719c-1.152344-.011719-2.292969-.253907-3.355469-.703125-1.066406-.449219-2.054687-1.078125-2.910156-1.855469-.78125-.859375-1.40625-1.84375-1.855469-2.914063-.453125-1.058593-.691406-2.199218-.707031-3.355468 0-4.875 3.953125-8.824219 8.828125-8.824219s8.828125 3.949219 8.828125 8.824219c-.015625 1.15625-.253906 2.296875-.707031 3.355468-.449219 1.070313-1.074219 2.054688-1.851563 2.914063-.859375.777344-1.84375 1.40625-2.914062 1.855469-1.0625.449218-2.203125.691406-3.355469.703125zm0 0" fill="#2c3e50"/><path d="m282.484375 44.136719c-1.15625-.011719-2.292969-.253907-3.355469-.703125-1.070312-.449219-2.054687-1.078125-2.914062-1.855469-.777344-.859375-1.40625-1.84375-1.851563-2.914063-.453125-1.058593-.695312-2.199218-.707031-3.355468 0-4.875 3.949219-8.824219 8.828125-8.824219 4.875 0 8.824219 3.949219 8.824219 8.824219-.011719 1.15625-.253906 2.296875-.703125 3.355468-.453125 1.070313-1.078125 2.054688-1.855469 2.914063-.859375.777344-1.84375 1.40625-2.914062 1.855469-1.058594.449218-2.199219.691406-3.351563.703125zm0 0" fill="#2c3e50"/><path d="m97.101562 185.378906h-52.964843c-9.75 0-17.652344-7.902344-17.652344-17.65625v-52.964844c0-9.75 7.902344-17.65625 17.652344-17.65625h8.828125c4.875 0 8.828125 3.953126 8.828125 8.828126s-3.953125 8.828124-8.828125 8.828124h-8.828125v52.964844h52.964843v-8.824218c0-4.878907 3.953126-8.828126 8.828126-8.828126s8.828124 3.949219 8.828124 8.828126v8.824218c0 9.753906-7.902343 17.65625-17.65625 17.65625zm0 0" fill="#3d324c"/><path d="m70.621094 158.898438c-2.339844-.003907-4.585938-.933594-6.242188-2.589844l-8.828125-8.824219c-3.34375-3.464844-3.296875-8.972656.109375-12.375 3.40625-3.40625 8.910156-3.453125 12.375-.109375l1.851563 1.855469 29.132812-36.441407c1.96875-2.464843 5.105469-3.691406 8.226563-3.214843 3.121094.472656 5.75 2.578125 6.898437 5.515625 1.148438 2.941406.644531 6.269531-1.328125 8.734375l-35.308594 44.136719c-1.574218 1.960937-3.902343 3.15625-6.410156 3.292968zm0 0" fill="#4c8056"/><path d="m158.898438 114.757812h-17.65625c-4.875 0-8.828126-3.953124-8.828126-8.828124s3.953126-8.828126 8.828126-8.828126h17.65625c4.875 0 8.824218 3.953126 8.824218 8.828126s-3.949218 8.828124-8.824218 8.828124zm0 0" fill="#3d324c"/><path d="m282.484375 114.757812h-88.277344c-4.875 0-8.828125-3.953124-8.828125-8.828124s3.953125-8.828126 8.828125-8.828126h88.277344c4.875 0 8.824219 3.953126 8.824219 8.828126s-3.949219 8.828124-8.824219 8.828124zm0 0" fill="#3d324c"/><path d="m158.898438 185.378906h-17.65625c-4.875 0-8.828126-3.953125-8.828126-8.828125s3.953126-8.828125 8.828126-8.828125h17.65625c4.875 0 8.824218 3.953125 8.824218 8.828125s-3.949218 8.828125-8.824218 8.828125zm0 0" fill="#3d324c"/><path d="m282.484375 185.378906h-88.277344c-4.875 0-8.828125-3.953125-8.828125-8.828125s3.953125-8.828125 8.828125-8.828125h88.277344c4.875 0 8.824219 3.953125 8.824219 8.828125s-3.949219 8.828125-8.824219 8.828125zm0 0" fill="#3d324c"/><path d="m282.484375 150.070312h-141.242187c-4.875 0-8.828126-3.953124-8.828126-8.828124s3.953126-8.828126 8.828126-8.828126h141.242187c4.875 0 8.824219 3.953126 8.824219 8.828126s-3.949219 8.828124-8.824219 8.828124zm0 0" fill="#3d324c"/><path d="m97.101562 326.621094h-52.964843c-9.75 0-17.652344-7.90625-17.652344-17.65625v-52.964844c0-9.75 7.902344-17.65625 17.652344-17.65625h8.828125c4.875 0 8.828125 3.953125 8.828125 8.828125s-3.953125 8.828125-8.828125 8.828125h-8.828125v52.964844h52.964843v-8.828125c0-4.875 3.953126-8.828125 8.828126-8.828125s8.828124 3.953125 8.828124 8.828125v8.828125c0 9.75-7.902343 17.65625-17.65625 17.65625zm0 0" fill="#804169"/><path d="m70.621094 300.136719c-2.339844 0-4.585938-.929688-6.242188-2.585938l-8.828125-8.828125c-3.34375-3.460937-3.296875-8.96875.109375-12.375 3.40625-3.402344 8.910156-3.453125 12.375-.105468l1.851563 1.851562 29.132812-36.4375c1.96875-2.464844 5.105469-3.691406 8.226563-3.21875 3.121094.476562 5.75 2.578125 6.898437 5.519531 1.148438 2.9375.644531 6.269531-1.328125 8.734375l-35.308594 44.136719c-1.574218 1.957031-3.902343 3.15625-6.410156 3.292969zm0 0" fill="#4c8056"/><g fill="#804169"><path d="m158.898438 256h-17.65625c-4.875 0-8.828126-3.953125-8.828126-8.828125s3.953126-8.828125 8.828126-8.828125h17.65625c4.875 0 8.824218 3.953125 8.824218 8.828125s-3.949218 8.828125-8.824218 8.828125zm0 0"/><path d="m282.484375 256h-88.277344c-4.875 0-8.828125-3.953125-8.828125-8.828125s3.953125-8.828125 8.828125-8.828125h88.277344c4.875 0 8.824219 3.953125 8.824219 8.828125s-3.949219 8.828125-8.824219 8.828125zm0 0"/><path d="m158.898438 326.621094h-17.65625c-4.875 0-8.828126-3.953125-8.828126-8.828125s3.953126-8.828125 8.828126-8.828125h17.65625c4.875 0 8.824218 3.953125 8.824218 8.828125s-3.949218 8.828125-8.824218 8.828125zm0 0"/><path d="m282.484375 326.621094h-88.277344c-4.875 0-8.828125-3.953125-8.828125-8.828125s3.953125-8.828125 8.828125-8.828125h88.277344c4.875 0 8.824219 3.953125 8.824219 8.828125s-3.949219 8.828125-8.824219 8.828125zm0 0"/><path d="m282.484375 291.308594h-141.242187c-4.875 0-8.828126-3.949219-8.828126-8.824219 0-4.878906 3.953126-8.828125 8.828126-8.828125h141.242187c4.875 0 8.824219 3.949219 8.824219 8.828125 0 4.875-3.949219 8.824219-8.824219 8.824219zm0 0"/><path d="m123.585938 353.101562 35.3125 35.3125 35.308593-35.3125zm0 0"/></g><path d="m317.792969 423.722656v52.96875c0 19.5-15.808594 35.308594-35.308594 35.308594h-247.175781c-19.5 0-35.308594-15.808594-35.308594-35.308594v-52.96875zm0 0" fill="#95a5a5"/><path d="m176.550781 467.863281c0 9.75-7.902343 17.652344-17.652343 17.652344-9.753907 0-17.65625-7.902344-17.65625-17.652344s7.902343-17.65625 17.65625-17.65625c9.75 0 17.652343 7.90625 17.652343 17.65625zm0 0" fill="#35495e"/></svg>