<svg height="512pt" viewBox="-71 0 512 512" width="512pt" xmlns="http://www.w3.org/2000/svg"><path d="m353.101562 35.308594h-335.445312c-9.738281.03125-17.6289062 7.917968-17.65625 17.65625v441.378906c.0273438 9.738281 7.917969 17.628906 17.65625 17.65625h335.445312c9.742188-.027344 17.628907-7.917969 17.65625-17.65625v-441.378906c-.027343-9.738282-7.914062-17.625-17.65625-17.65625zm-185.378906 317.792968v-37.515624c-31.179687-8.070313-52.960937-36.203126-52.964844-68.414063v-97.101563c0-4.875 3.953126-8.828124 8.828126-8.828124h123.585937c4.875 0 8.828125 3.953124 8.828125 8.828124v97.101563c-.003906 32.210937-21.785156 60.34375-52.964844 68.414063zm0 0" fill="#cb9080"/><path d="m264.828125 70.621094h61.792969c4.875 0 8.828125 3.953125 8.828125 8.828125v388.414062c0 4.875-3.953125 8.828125-8.828125 8.828125h-282.484375c-4.875 0-8.828125-3.953125-8.828125-8.828125v-388.414062c0-4.875 3.953125-8.828125 8.828125-8.828125zm0 0" fill="#f9eab0"/><path d="m150.070312 35.308594c0-19.5 15.808594-35.308594 35.308594-35.308594s35.3125 15.808594 35.3125 35.308594" fill="#95a5a5"/><path d="m105.929688 35.308594h158.898437v35.3125c0 9.75-7.90625 17.65625-17.65625 17.65625h-123.585937c-9.75 0-17.65625-7.90625-17.65625-17.65625zm0 0" fill="#bdc3c7"/><path d="m123.585938 264.828125c-.949219-.003906-1.890626-.15625-2.789063-.460937-35.691406-11.898438-56.734375-42.960938-59.058594-67.496094-.753906-7.449219 1.683594-14.871094 6.707031-20.425782 5.023438-5.554687 12.164063-8.722656 19.652344-8.722656h35.488282c4.875 0 8.828124 3.953125 8.828124 8.828125s-3.953124 8.828125-8.828124 8.828125h-35.488282c-2.476562-.011718-4.84375 1.03125-6.503906 2.871094-1.71875 1.882812-2.554688 4.410156-2.296875 6.945312 4.785156 24.839844 22.894531 45.007813 47.078125 52.425782 4.113281 1.367187 6.625 5.515625 5.929688 9.792968-.691407 4.273438-4.386719 7.417969-8.71875 7.414063zm0 0" fill="#f18d46"/><path d="m247.171875 264.828125c-4.320313-.011719-8-3.148437-8.691406-7.414063-.695313-4.265624 1.804687-8.40625 5.902343-9.78125 24.183594-7.421874 42.292969-27.589843 47.078126-52.429687.257812-2.535156-.578126-5.0625-2.296876-6.945313-1.660156-1.84375-4.023437-2.890624-6.503906-2.878906h-35.488281c-4.875 0-8.828125-3.953125-8.828125-8.828125s3.953125-8.828125 8.828125-8.828125h35.488281c7.488282-.003906 14.625 3.160156 19.652344 8.710938 5.023438 5.550781 7.464844 12.972656 6.714844 20.421875-2.332032 24.53125-23.367188 55.613281-59.054688 67.496093-.902344.308594-1.847656.46875-2.800781.476563zm0 0" fill="#f18d46"/><path d="m203.035156 315.585938v37.515624s0 26.835938 23.304688 33.722657c7.246094 2.300781 12.125 9.082031 12.003906 16.683593v11.390626h-52.964844v-273.65625h61.792969c4.875 0 8.828125 3.953124 8.828125 8.828124v97.101563c-.003906 32.210937-21.785156 60.34375-52.964844 68.414063zm0 0" fill="#f3d55b"/><path d="m185.378906 141.242188v273.65625h-52.964844v-11.390626c-.121093-7.601562 4.757813-14.382812 12.003907-16.683593 23.304687-6.886719 23.304687-33.722657 23.304687-33.722657v-37.515624c-31.179687-8.070313-52.960937-36.203126-52.964844-68.414063v-97.101563c0-4.875 3.953126-8.828124 8.828126-8.828124zm0 0" fill="#f0c419"/></svg>