<svg xmlns="http://www.w3.org/2000/svg" height="512pt" version="1.1" viewBox="-26 0 512 512.00002" width="512pt">
<g id="surface1">
<path d="M 88.277344 344.277344 L 88.277344 185.378906 C 88.304688 175.640625 96.191406 167.753906 105.929688 167.722656 L 406.070312 167.722656 L 406.070312 17.65625 C 406.039062 7.917969 398.152344 0.0273438 388.414062 0 L 114.757812 0 L 114.757812 88.277344 C 114.757812 98.027344 106.855469 105.929688 97.105469 105.929688 L 0 105.929688 L 0 494.34375 C 0.0273438 504.082031 7.917969 511.96875 17.65625 512 L 388.414062 512 C 398.152344 511.96875 406.039062 504.082031 406.070312 494.34375 L 406.070312 361.929688 L 105.929688 361.929688 C 96.191406 361.902344 88.304688 354.015625 88.277344 344.277344 Z M 88.277344 344.277344 " style=" stroke:none;fill-rule:nonzero;fill:rgb(100%,91.372549%,80%);fill-opacity:1;" />
<path d="M 114.757812 512 L 388.414062 512 C 398.164062 512 406.070312 504.09375 406.070312 494.34375 L 406.070312 239.148438 C 357.847656 371.226562 249.707031 472.515625 114.757812 512 Z M 114.757812 512 " style=" stroke:none;fill-rule:nonzero;fill:rgb(100%,88.627451%,74.117647%);fill-opacity:1;" />
<path d="M 441.378906 167.722656 L 105.929688 167.722656 C 96.191406 167.753906 88.304688 175.640625 88.277344 185.378906 L 88.277344 344.273438 C 88.304688 354.015625 96.191406 361.902344 105.929688 361.929688 L 441.378906 361.929688 C 451.117188 361.902344 459.007812 354.015625 459.035156 344.273438 L 459.035156 185.378906 C 459.003906 175.640625 451.117188 167.753906 441.378906 167.722656 Z M 206.566406 317.792969 L 273.65625 211.863281 Z M 335.449219 317.792969 L 282.484375 317.792969 L 335.449219 264.828125 L 282.484375 317.792969 Z M 335.449219 317.792969 " style=" stroke:none;fill-rule:nonzero;fill:rgb(79.215686%,99.215686%,100%);fill-opacity:1;" />
<path d="M 114.757812 88.277344 L 114.757812 0 L 0 105.929688 L 97.105469 105.929688 C 106.855469 105.929688 114.757812 98.027344 114.757812 88.277344 Z M 114.757812 88.277344 " style=" stroke:none;fill-rule:nonzero;fill:rgb(100%,66.27451%,57.647059%);fill-opacity:1;" />
<path d="M 273.65625 220.691406 L 203.035156 220.691406 C 198.160156 220.691406 194.207031 216.738281 194.207031 211.863281 C 194.207031 206.988281 198.160156 203.035156 203.035156 203.035156 L 273.65625 203.035156 C 278.53125 203.035156 282.484375 206.988281 282.484375 211.863281 C 282.484375 216.738281 278.53125 220.691406 273.65625 220.691406 Z M 273.65625 220.691406 " style=" stroke:none;fill-rule:nonzero;fill:rgb(92.941176%,10.980392%,14.117647%);fill-opacity:1;" />
<path d="M 206.566406 326.621094 C 201.691406 326.609375 197.746094 322.652344 197.753906 317.777344 C 197.757812 316.109375 198.234375 314.476562 199.125 313.070312 L 266.214844 207.140625 C 268.824219 203.019531 274.277344 201.792969 278.394531 204.402344 C 282.515625 207.011719 283.742188 212.464844 281.132812 216.585938 L 214.042969 322.515625 C 212.421875 325.078125 209.597656 326.625 206.566406 326.621094 Z M 206.566406 326.621094 " style=" stroke:none;fill-rule:nonzero;fill:rgb(92.941176%,10.980392%,14.117647%);fill-opacity:1;" />
<path d="M 335.449219 326.621094 L 282.484375 326.621094 C 277.609375 326.621094 273.65625 322.667969 273.65625 317.792969 C 273.65625 315.449219 274.585938 313.207031 276.242188 311.550781 L 314.136719 273.65625 L 282.480469 273.65625 C 277.605469 273.65625 273.65625 269.703125 273.65625 264.828125 C 273.65625 259.953125 277.605469 256 282.480469 256 L 335.449219 256 C 340.324219 256 344.273438 259.953125 344.273438 264.828125 C 344.273438 267.167969 343.34375 269.414062 341.6875 271.070312 L 303.792969 308.964844 L 335.449219 308.964844 C 340.324219 308.964844 344.277344 312.917969 344.277344 317.792969 C 344.277344 322.667969 340.324219 326.621094 335.449219 326.621094 Z M 335.449219 326.621094 " style=" stroke:none;fill-rule:nonzero;fill:rgb(92.941176%,10.980392%,14.117647%);fill-opacity:1;" />
</g>
</svg>