<svg height="512pt" viewBox="0 0 512.00027 512" width="512pt" xmlns="http://www.w3.org/2000/svg"><path d="m512 467.863281v26.480469c-.027344 9.738281-7.917969 17.628906-17.65625 17.65625h-476.6875c-9.738281-.027344-17.6289062-7.917969-17.65625-17.65625v-26.480469zm0 0" fill="#e57e25"/><path d="m512 467.863281h-132.414062l-164.898438-147.070312-.441406-.703125 41.753906-28.78125-37.515625-22.949219 2.207031-3.53125 158.894532-70.621094h22.863281c7.460937 0 14.113281 4.703125 16.597656 11.742188zm0 0" fill="#f29c1f"/><path d="m379.585938 194.207031-158.894532 70.621094-2.207031 3.53125-117.585937-71.855469c2.628906-1.519531 5.617187-2.3125 8.652343-2.296875zm0 0" fill="#f0c419"/><path d="m256 291.308594-41.753906 28.78125-214.246094 147.773437 92.953125-261.914062c1.390625-4.023438 4.222656-7.390625 7.945313-9.445313l117.585937 71.855469zm0 0" fill="#f3d55b"/><path d="m379.585938 467.863281h-379.585938l214.246094-147.773437.441406.703125zm0 0" fill="#f0c419"/><path d="m353.101562 17.65625v335.449219h-35.308593v-335.449219c0-9.75 7.90625-17.65625 17.65625-17.65625s17.652343 7.90625 17.652343 17.65625zm0 0" fill="#bdc3c7"/><path d="m370.757812 361.929688h-70.621093c-4.875 0-8.828125-3.949219-8.828125-8.824219 0-4.878907 3.953125-8.828125 8.828125-8.828125h70.621093c4.875 0 8.828126 3.949218 8.828126 8.828125 0 4.875-3.953126 8.824219-8.828126 8.824219zm0 0" fill="#e57e25"/><path d="m508.054688 133.121094c-61.890626 39.625-154.953126-2.648438-154.953126-2.648438v-112.816406s84.789063 38.539062 146.328126 7.574219c2.722656-1.308594 5.929687-1.121094 8.484374.492187 2.554688 1.613282 4.097657 4.429688 4.085938 7.453125v92.519531c.023438 2.984376-1.460938 5.777344-3.945312 7.425782zm0 0" fill="#e64c3c"/><g fill="#c03a2b"><path d="m432.550781 79.449219c-19.449219.851562-38.855469-2.476563-56.910156-9.753907-4.328125-2.191406-6.078125-7.460937-3.917969-11.804687 2.15625-4.34375 7.414063-6.132813 11.773438-4.007813 15.648437 5.929688 32.335937 8.621094 49.054687 7.910157 4.875 0 8.828125 3.953125 8.828125 8.828125s-3.953125 8.828125-8.828125 8.828125zm0 0"/><path d="m476.691406 79.449219h-8.828125c-4.875 0-8.828125-3.953125-8.828125-8.828125s3.953125-8.828125 8.828125-8.828125h8.828125c4.875 0 8.824219 3.953125 8.824219 8.828125s-3.949219 8.828125-8.824219 8.828125zm0 0"/></g></svg>