<svg height="512pt" viewBox="0 0 512 512" width="512pt" xmlns="http://www.w3.org/2000/svg"><path d="m0 406.070312 93.574219-340.128906c2.046875-7.671875 9.007812-13 16.945312-12.976562h290.960938c7.9375-.023438 14.898437 5.304687 16.945312 12.976562l93.574219 340.128906zm0 0" fill="#b0d3f0"/><path d="m427.167969 361.929688h-342.335938c-5.488281-.003907-10.667969-2.558594-14.003906-6.917969-3.339844-4.359375-4.460937-10.023438-3.03125-15.328125l8.386719-31.070313 4.589844-17.304687 12.003906-44.488282 2.296875-8.476562 2.382812-8.828125 2.382813-8.824219 7.238281-26.835937 4.589844-17.304688 4.769531-17.652343 3.617188-13.417969c2.101562-7.6875 9.070312-13.03125 17.039062-13.066407h237.8125c7.96875.035157 14.9375 5.378907 17.039062 13.066407l3.617188 13.417969 4.769531 17.652343 4.589844 17.304688 7.238281 26.835937 2.382813 8.824219 2.382812 8.828125 2.296875 8.476562 12.003906 44.488282 4.589844 17.304687 8.386719 31.070313c1.429687 5.304687.308594 10.96875-3.03125 15.328125-3.335937 4.359375-8.515625 6.914062-14.003906 6.917969zm0 0" fill="#90bae1"/><path d="m494.34375 512h-476.6875c-9.75 0-17.65625-7.90625-17.65625-17.65625v-88.273438h512v88.273438c0 9.75-7.90625 17.65625-17.65625 17.65625zm0 0" fill="#90bae1"/><path d="m0 441.378906h512v35.3125h-512zm0 0" fill="#b0d3f0"/><path d="m150.070312 0c9.75 0 17.652344 7.90625 17.652344 17.65625v44.136719c0 9.75-7.902344 17.65625-17.652344 17.65625-9.753906 0-17.65625-7.90625-17.65625-17.65625v-44.136719c0-9.75 7.902344-17.65625 17.65625-17.65625zm0 0" fill="#ecf0f1"/><path d="m361.929688 0c9.753906 0 17.65625 7.90625 17.65625 17.65625v44.136719c0 9.75-7.902344 17.65625-17.65625 17.65625-9.75 0-17.652344-7.90625-17.652344-17.65625v-44.136719c0-9.75 7.902344-17.65625 17.652344-17.65625zm0 0" fill="#ecf0f1"/><path d="m256 0c9.75 0 17.65625 7.90625 17.65625 17.65625v44.136719c0 9.75-7.90625 17.65625-17.65625 17.65625s-17.65625-7.90625-17.65625-17.65625v-44.136719c0-9.75 7.90625-17.65625 17.65625-17.65625zm0 0" fill="#ecf0f1"/><g fill="#285680"><path d="m185.378906 132.414062c-.015625.5625-.074218 1.125-.175781 1.675782l-8.121094 42.460937-3.445312 17.65625-6.796875 35.308594-3.351563 17.65625-8.476562 44.136719-3.441407 17.65625-10.152343 52.964844h-17.832031c.015624-.5625.074218-1.121094.175781-1.675782l9.886719-51.289062 3.355468-17.65625 8.476563-44.136719 3.441406-17.65625 6.796875-35.308594 3.355469-17.65625 8.472656-44.136719zm0 0"/><path d="m238.34375 132.414062c.015625.324219-.015625.652344-.085938.972657l-4.945312 43.164062-2.03125 17.65625-4.148438 35.308594-2.03125 17.65625-5.03125 44.136719-2.027343 17.65625-6.179688 52.964844h-17.65625c-.015625-.324219.015625-.652344.089844-.96875l6-51.996094 2.03125-17.65625 5.121094-44.136719 2.03125-17.65625 4.058593-35.308594 2.03125-17.65625 5.121094-44.136719zm0 0"/><path d="m400.332031 176.550781h-288.664062l4.769531-17.652343h279.125zm0 0"/><path d="m416.925781 238.34375h-321.851562l2.382812-8.828125 2.382813-8.824219h312.320312l2.382813 8.824219zm0 0"/><path d="m435.816406 308.613281c-.707031.25-1.453125.371094-2.207031.351563h-355.21875c-.753906.019531-1.5-.101563-2.207031-.351563l4.589844-17.304687h350.453124zm0 0"/><path d="m388.414062 361.929688h-17.832031l-10.152343-52.964844-3.355469-17.65625-8.5625-44.136719-3.351563-17.65625-6.796875-35.308594-3.355469-17.65625-8.210937-42.460937c-.101563-.550782-.160156-1.113282-.175781-1.675782h17.832031l8.472656 44.136719 3.355469 17.65625 6.796875 35.308594 3.441406 17.65625 8.476563 44.136719 3.355468 17.65625 9.886719 51.289062c.101563.554688.160157 1.113282.175781 1.675782zm0 0"/><path d="m317.792969 361.929688h-17.65625l-6.089844-52.964844-2.117187-17.65625-5.03125-44.136719-2.03125-17.65625-4.0625-35.308594-2.117188-17.65625-4.945312-43.164062c-.070313-.320313-.101563-.648438-.085938-.972657h17.652344l5.121094 44.136719 2.03125 17.65625 4.058593 35.308594 2.03125 17.65625 5.121094 44.136719 2.03125 17.65625 6 51.996094c.074219.316406.105469.644531.089844.96875zm0 0"/></g><path d="m397.242188 335.449219c0 78.003906-63.238282 141.242187-141.242188 141.242187s-141.242188-63.238281-141.242188-141.242187c0-78.007813 63.238282-141.242188 141.242188-141.242188s141.242188 63.234375 141.242188 141.242188zm0 0" fill="#955ba5"/><path d="m326.621094 397.242188c-.074219 9.71875-7.933594 17.582031-17.65625 17.65625h-52.964844v-176.554688c9.71875.074219 17.582031 7.9375 17.65625 17.65625v17.65625c19.5 0 35.308594 15.808594 35.308594 35.308594v57.734375c-.136719 6.128906 3.035156 11.863281 8.296875 15.003906 5.746093 3.058594 9.339843 9.03125 9.359375 15.539063zm0 0" fill="#f3d55b"/><path d="m256 238.34375v176.554688h-51.996094c-9.378906.179687-17.382812-6.757813-18.535156-16.066407-.527344-5.21875 1.355469-10.386719 5.117188-14.039062 1.246093-1.230469 2.640624-2.296875 4.152343-3.175781 5.304688-3.0625 8.492188-8.796876 8.296875-14.917969v-57.734375c0-19.5 15.808594-35.308594 35.308594-35.308594v-17.65625c.03125-9.738281 7.917969-17.625 17.65625-17.65625zm0 0" fill="#f0c419"/><path d="m282.484375 388.414062h-52.96875c-4.875 0-8.824219-3.953124-8.824219-8.828124s3.949219-8.828126 8.824219-8.828126h52.96875c4.875 0 8.824219 3.953126 8.824219 8.828126s-3.949219 8.828124-8.824219 8.828124zm0 0" fill="#f9eab0"/></svg>