<svg height="512pt" viewBox="-26 0 512 512.05252" width="512pt" xmlns="http://www.w3.org/2000/svg"><path d="m17.679688 35.308594h423.726562c9.75 0 17.65625 7.90625 17.65625 17.65625v353.105468c0 9.75-7.90625 17.652344-17.65625 17.652344h-423.726562c-9.75 0-17.6523442-7.902344-17.6523442-17.652344v-353.105468c0-9.75 7.9023442-17.65625 17.6523442-17.65625zm0 0" fill="#b0d3f0"/><g fill="#35495e"><path d="m229.542969 176.550781c-4.875 0-8.828125-3.953125-8.828125-8.828125v-35.308594c0-4.875 3.953125-8.828124 8.828125-8.828124s8.828125 3.953124 8.828125 8.828124v35.308594c0 4.875-3.953125 8.828125-8.828125 8.828125zm0 0"/><path d="m194.234375 203.035156h-44.140625c-4.875 0-8.824219-3.953125-8.824219-8.828125s3.949219-8.828125 8.824219-8.828125h44.140625c4.875 0 8.828125 3.953125 8.828125 8.828125s-3.953125 8.828125-8.828125 8.828125zm0 0"/><path d="m308.992188 203.035156h-44.136719c-4.878907 0-8.828125-3.953125-8.828125-8.828125s3.949218-8.828125 8.828125-8.828125h44.136719c4.875 0 8.828124 3.953125 8.828124 8.828125s-3.953124 8.828125-8.828124 8.828125zm0 0"/><path d="m114.785156 256c-4.875 0-8.828125-3.953125-8.828125-8.828125v-26.480469c0-4.878906 3.953125-8.828125 8.828125-8.828125s8.828125 3.949219 8.828125 8.828125v26.480469c0 4.875-3.953125 8.828125-8.828125 8.828125zm0 0"/><path d="m229.542969 256c-4.875 0-8.828125-3.953125-8.828125-8.828125v-26.480469c0-4.878906 3.953125-8.828125 8.828125-8.828125s8.828125 3.949219 8.828125 8.828125v26.480469c0 4.875-3.953125 8.828125-8.828125 8.828125zm0 0"/><path d="m176.578125 300.136719c-4.875 0-8.828125-3.949219-8.828125-8.828125v-26.480469c0-4.875 3.953125-8.828125 8.828125-8.828125s8.828125 3.953125 8.828125 8.828125v26.480469c0 4.878906-3.953125 8.828125-8.828125 8.828125zm0 0"/><path d="m282.507812 300.136719c-4.875 0-8.828124-3.949219-8.828124-8.828125v-26.480469c0-4.875 3.953124-8.828125 8.828124-8.828125s8.828126 3.953125 8.828126 8.828125v26.480469c0 4.878906-3.953126 8.828125-8.828126 8.828125zm0 0"/><path d="m344.300781 256c-4.875 0-8.828125-3.953125-8.828125-8.828125v-26.480469c0-4.878906 3.953125-8.828125 8.828125-8.828125s8.828125 3.949219 8.828125 8.828125v26.480469c0 4.875-3.953125 8.828125-8.828125 8.828125zm0 0"/><path d="m388.441406 300.136719c-4.875 0-8.828125-3.949219-8.828125-8.828125v-26.480469h-300.140625v26.480469c0 4.878906-3.949218 8.828125-8.824218 8.828125s-8.828126-3.949219-8.828126-8.828125v-35.308594c0-4.875 3.953126-8.828125 8.828126-8.828125h317.792968c4.875 0 8.828125 3.953125 8.828125 8.828125v35.308594c0 4.878906-3.953125 8.828125-8.828125 8.828125zm0 0"/></g><path d="m211.886719 0h35.3125c9.75 0 17.65625 7.90625 17.65625 17.65625v17.652344h-70.621094v-17.652344c0-9.75 7.902344-17.65625 17.652344-17.65625zm0 0" fill="#7f5b53"/><path d="m185.777344 423.722656-27.894532 76.625c-3.503906 8.890625-13.445312 13.378906-22.433593 10.128906-8.984375-3.25-13.753907-13.058593-10.761719-22.132812l23.484375-64.621094" fill="#7f5b53"/><path d="m310.933594 423.722656 23.480468 64.621094c2.160157 5.925781.996094 12.558594-3.058593 17.394531-4.054688 4.835938-10.382813 7.140625-16.597657 6.046875-6.214843-1.09375-11.375-5.421875-13.535156-11.347656l-27.894531-76.714844" fill="#7f5b53"/><path d="m211.886719 423.722656h35.3125v70.621094c0 9.75-7.90625 17.65625-17.65625 17.65625s-17.65625-7.90625-17.65625-17.65625zm0 0" fill="#59474e"/><path d="m397.269531 423.722656h-335.449219l-6.082031-24.335937c-.660156-2.636719-.070312-5.433594 1.601563-7.578125 1.671875-2.140625 4.242187-3.394532 6.960937-3.394532h330.484375c2.722656 0 5.289063 1.253907 6.960938 3.394532 1.671875 2.144531 2.265625 4.941406 1.605468 7.578125zm0 0" fill="#cb9080"/><path d="m203.0625 79.449219h52.964844c9.75 0 17.652344 7.902343 17.652344 17.652343v17.65625c0 9.75-7.902344 17.65625-17.652344 17.65625h-52.964844c-9.753906 0-17.65625-7.90625-17.65625-17.65625v-17.65625c0-9.75 7.902344-17.652343 17.65625-17.652343zm0 0" fill="#d25627"/><path d="m211.886719 167.722656h35.3125c9.75 0 17.65625 7.90625 17.65625 17.65625v17.65625c0 9.75-7.90625 17.65625-17.65625 17.65625h-35.3125c-9.75 0-17.652344-7.90625-17.652344-17.65625v-17.65625c0-9.75 7.902344-17.65625 17.652344-17.65625zm0 0" fill="#e57e25"/><path d="m97.128906 167.722656h35.3125c9.75 0 17.652344 7.90625 17.652344 17.65625v17.65625c0 9.75-7.902344 17.65625-17.652344 17.65625h-35.3125c-9.75 0-17.65625-7.90625-17.65625-17.65625v-17.65625c0-9.75 7.90625-17.65625 17.65625-17.65625zm0 0" fill="#e57e25"/><path d="m52.992188 291.308594h35.308593c9.753907 0 17.65625 7.90625 17.65625 17.65625v17.65625c0 9.75-7.902343 17.65625-17.65625 17.65625h-35.308593c-9.75 0-17.65625-7.90625-17.65625-17.65625v-17.65625c0-9.75 7.90625-17.65625 17.65625-17.65625zm0 0" fill="#f29c1f"/><path d="m158.921875 291.308594h35.3125c9.75 0 17.652344 7.90625 17.652344 17.65625v17.65625c0 9.75-7.902344 17.65625-17.652344 17.65625h-35.3125c-9.75 0-17.652344-7.90625-17.652344-17.65625v-17.65625c0-9.75 7.902344-17.65625 17.652344-17.65625zm0 0" fill="#f29c1f"/><path d="m264.855469 291.308594h35.308593c9.75 0 17.65625 7.90625 17.65625 17.65625v17.65625c0 9.75-7.90625 17.65625-17.65625 17.65625h-35.308593c-9.753907 0-17.65625-7.90625-17.65625-17.65625v-17.65625c0-9.75 7.902343-17.65625 17.65625-17.65625zm0 0" fill="#f29c1f"/><path d="m370.785156 291.308594h35.308594c9.753906 0 17.65625 7.90625 17.65625 17.65625v17.65625c0 9.75-7.902344 17.65625-17.65625 17.65625h-35.308594c-9.75 0-17.65625-7.90625-17.65625-17.65625v-17.65625c0-9.75 7.90625-17.65625 17.65625-17.65625zm0 0" fill="#f29c1f"/><path d="m326.648438 167.722656h35.308593c9.75 0 17.65625 7.90625 17.65625 17.65625v17.65625c0 9.75-7.90625 17.65625-17.65625 17.65625h-35.308593c-9.753907 0-17.65625-7.90625-17.65625-17.65625v-17.65625c0-9.75 7.902343-17.65625 17.65625-17.65625zm0 0" fill="#e57e25"/></svg>