<svg height="512pt" viewBox="-26 0 512 512.05252" width="512pt" xmlns="http://www.w3.org/2000/svg"><path d="m17.679688 35.308594h423.726562c9.75 0 17.65625 7.90625 17.65625 17.65625v353.105468c0 9.75-7.90625 17.652344-17.65625 17.652344h-423.726562c-9.75 0-17.6523442-7.902344-17.6523442-17.652344v-353.105468c0-9.75 7.9023442-17.65625 17.6523442-17.65625zm0 0" fill="#b0d3f0"/><path d="m211.886719 0h35.3125c9.75 0 17.65625 7.90625 17.65625 17.65625v17.652344h-70.621094v-17.652344c0-9.75 7.902344-17.65625 17.652344-17.65625zm0 0" fill="#7f5b53"/><path d="m185.777344 423.722656-27.894532 76.625c-3.503906 8.890625-13.445312 13.378906-22.433593 10.128906-8.984375-3.25-13.753907-13.058593-10.761719-22.132812l23.484375-64.621094" fill="#7f5b53"/><path d="m310.933594 423.722656 23.480468 64.621094c2.160157 5.925781.996094 12.558594-3.058593 17.394531-4.054688 4.835938-10.382813 7.140625-16.597657 6.046875-6.214843-1.09375-11.375-5.421875-13.535156-11.347656l-27.894531-76.714844" fill="#7f5b53"/><path d="m211.886719 423.722656h35.3125v70.621094c0 9.75-7.90625 17.65625-17.65625 17.65625s-17.65625-7.90625-17.65625-17.65625zm0 0" fill="#59474e"/><path d="m397.269531 423.722656h-335.449219l-6.082031-24.335937c-.660156-2.636719-.070312-5.433594 1.601563-7.578125 1.671875-2.140625 4.242187-3.394532 6.960937-3.394532h330.484375c2.722656 0 5.289063 1.253907 6.960938 3.394532 1.671875 2.144531 2.265625 4.941406 1.605468 7.578125zm0 0" fill="#cb9080"/><path d="m229.542969 194.207031c-4.875 0-8.828125-3.953125-8.828125-8.828125v-52.964844c0-4.875 3.953125-8.828124 8.828125-8.828124s8.828125 3.953124 8.828125 8.828124v52.964844c0 4.875-3.953125 8.828125-8.828125 8.828125zm0 0" fill="#35495e"/><path d="m229.542969 132.414062h27.703125c1.570312 0 3.023437-.839843 3.816406-2.199218.789062-1.359375.792969-3.039063.011719-4.402344l-27.699219-48.484375c-.785156-1.371094-2.25-2.21875-3.832031-2.21875s-3.042969.847656-3.832031 2.21875l-27.699219 48.484375c-.78125 1.363281-.773438 3.042969.015625 4.402344.789062 1.359375 2.242187 2.199218 3.816406 2.199218zm0 0" fill="#cc66a1"/><path d="m194.234375 229.515625h-52.964844c-8.332031-.015625-16.175781-3.9375-21.1875-10.589844l-47.667969-63.558593c-2.925781-3.902344-2.136718-9.433594 1.765626-12.359376 3.898437-2.925781 9.433593-2.136718 12.355468 1.765626l47.671875 63.558593c1.664063 2.222657 4.28125 3.53125 7.0625 3.53125h52.964844c4.875 0 8.828125 3.949219 8.828125 8.828125 0 4.875-3.953125 8.824219-8.828125 8.824219zm0 0" fill="#35495e"/><path d="m44.164062 97.101562h70.621094c4.875 0 8.828125 3.953126 8.828125 8.828126v35.3125c0 4.875-3.953125 8.828124-8.828125 8.828124h-70.621094c-4.875 0-8.828124-3.953124-8.828124-8.828124v-35.3125c0-4.875 3.953124-8.828126 8.828124-8.828126zm0 0" fill="#24ae5f"/><g fill="#35495e"><path d="m344.300781 229.515625h-79.445312c-4.878907 0-8.828125-3.949219-8.828125-8.824219 0-4.878906 3.949218-8.828125 8.828125-8.828125h79.445312c4.875 0 8.828125-3.953125 8.828125-8.828125v-35.3125c0-4.875 3.953125-8.824218 8.828125-8.824218s8.828125 3.949218 8.828125 8.824218v35.3125c0 14.625-11.855468 26.480469-26.484375 26.480469zm0 0"/><path d="m229.542969 300.136719c-4.875 0-8.828125-3.949219-8.828125-8.828125v-35.308594c0-4.875 3.953125-8.828125 8.828125-8.828125s8.828125 3.953125 8.828125 8.828125v35.308594c0 4.878906-3.953125 8.828125-8.828125 8.828125zm0 0"/><path d="m154.078125 286.101562c-3.800781 0-7.175781-2.429687-8.375-6.035156-1.203125-3.605468.035156-7.574218 3.078125-9.855468l47.21875-35.398438c3.898438-2.925781 9.433594-2.132812 12.355469 1.765625 2.925781 3.902344 2.136719 9.433594-1.765625 12.359375l-47.226563 35.398438c-1.523437 1.148437-3.378906 1.769531-5.285156 1.765624zm0 0"/><path d="m308.992188 300.136719c-2.160157 0-4.246094-.789063-5.863282-2.222657l-53.050781-47.140624c-3.65625-3.238282-4-8.824219-.761719-12.480469 3.238282-3.65625 8.828125-3.996094 12.484375-.761719l53.050781 47.140625c2.773438 2.429687 3.742188 6.320313 2.4375 9.765625-1.304687 3.445312-4.613281 5.71875-8.296874 5.699219zm0 0"/></g><path d="m264.855469 220.691406c0 19.5-15.8125 35.308594-35.3125 35.308594s-35.308594-15.808594-35.308594-35.308594c0-19.503906 15.808594-35.3125 35.308594-35.3125s35.3125 15.808594 35.3125 35.3125zm0 0" fill="#d25627"/><path d="m344.832031 145.832031c-.359375 1.382813-.539062 2.808594-.53125 4.238281 0 9.75 7.90625 17.652344 17.65625 17.652344s17.65625-7.902344 17.65625-17.652344c.007813-1.429687-.171875-2.855468-.53125-4.238281l1.058594-.351562c2.070313 8.40625 9.933594 14.074219 18.5625 13.378906 8.632813-.699219 15.484375-7.550781 16.179687-16.179687.695313-8.632813-4.96875-16.496094-13.378906-18.5625l.175782-.53125c12.191406 0 22.070312-9.878907 22.070312-22.070313 0-12.1875-9.878906-22.066406-22.070312-22.066406-4.972657-.03125-9.804688 1.652343-13.679688 4.765625-2.003906-8.789063-10.304688-14.660156-19.257812-13.617188-8.953126 1.042969-15.683594 8.664063-15.613282 17.679688-.007812 1.429687.167969 2.851562.53125 4.234375l-1.058594.355469c-2.164062-8.636719-10.421874-14.3125-19.261718-13.234376-8.839844 1.078126-15.492188 8.566407-15.519532 17.46875.011719.828126.070313 1.652344.175782 2.472657-2.722656-1.625-5.835938-2.480469-9.003906-2.472657-9.75 0-17.65625 7.90625-17.65625 17.65625s7.90625 17.65625 17.65625 17.65625c.828124-.011718 1.652343-.070312 2.472656-.175781-1.628906 2.71875-2.480469 5.832031-2.472656 9.003907.027343 8.902343 6.679687 16.394531 15.519531 17.46875 8.839843 1.078124 17.097656-4.59375 19.261719-13.230469zm0 0" fill="#24ae5f"/><path d="m84.949219 335.800781c-.339844 1.386719-.503907 2.808594-.496094 4.238281-.429687 6.183594 2.628906 12.09375 7.925781 15.316407 5.296875 3.222656 11.949219 3.222656 17.246094 0 5.296875-3.222657 8.351562-9.132813 7.921875-15.316407.011719-1.429687-.15625-2.851562-.492187-4.238281l.996093-.351562c1.609375 7.640625 8.242188 13.183593 16.050781 13.417969 9.429688-.339844 16.816407-8.222657 16.550782-17.65625.117187-7.882813-5.023438-14.878907-12.582032-17.125l.167969-.53125c11.648438-.734376 20.71875-10.398438 20.71875-22.066407 0-11.671875-9.070312-21.332031-20.71875-22.070312-4.710937-.011719-9.265625 1.679687-12.824219 4.765625-1.554687-7.738282-8.246093-13.378906-16.136718-13.59375-9.429688.339844-16.820313 8.222656-16.550782 17.65625-.011718 1.425781.15625 2.851562.492188 4.238281l-.988281.351563c-1.609375-7.640626-8.242188-13.1875-16.046875-13.417969-9.429688.339843-16.820313 8.222656-16.554688 17.65625.011719.824219.070313 1.648437.167969 2.46875-2.515625-1.613281-5.445313-2.472657-8.4375-2.46875-9.75 0-17.65625 7.902343-17.65625 17.652343 0 9.753907 7.90625 17.65625 17.65625 17.65625.773437-.011718 1.546875-.070312 2.3125-.175781-1.53125 2.753907-2.328125 5.855469-2.3125 9.003907-.269531 9.433593 7.121094 17.316406 16.550781 17.65625 7.804688-.234376 14.4375-5.777344 16.046875-13.417969zm0 0" fill="#cc66a1"/><path d="m317.820312 291.308594h70.621094c4.875 0 8.828125 3.953125 8.828125 8.828125v35.3125c0 4.875-3.953125 8.828125-8.828125 8.828125h-70.621094c-4.875 0-8.828124-3.953125-8.828124-8.828125v-35.3125c0-4.875 3.953124-8.828125 8.828124-8.828125zm0 0" fill="#d25627"/><path d="m264.855469 326.621094c0 19.5-15.8125 35.308594-35.3125 35.308594s-35.308594-15.808594-35.308594-35.308594 15.808594-35.3125 35.308594-35.3125 35.3125 15.8125 35.3125 35.3125zm0 0" fill="#24ae5f"/></svg>