<svg xmlns="http://www.w3.org/2000/svg" height="512pt" version="1.1" viewBox="-26 0 512 512.00002" width="512pt">
<g id="surface1">
<path d="M 88.277344 344.277344 L 88.277344 185.378906 C 88.304688 175.640625 96.191406 167.753906 105.929688 167.722656 L 406.070312 167.722656 L 406.070312 17.65625 C 406.039062 7.917969 398.152344 0.0273438 388.414062 0 L 114.757812 0 L 114.757812 88.277344 C 114.757812 98.027344 106.855469 105.929688 97.105469 105.929688 L 0 105.929688 L 0 494.34375 C 0.0273438 504.082031 7.917969 511.96875 17.65625 512 L 388.414062 512 C 398.152344 511.96875 406.039062 504.082031 406.070312 494.34375 L 406.070312 361.929688 L 105.929688 361.929688 C 96.191406 361.902344 88.304688 354.015625 88.277344 344.277344 Z M 88.277344 344.277344 " style=" stroke:none;fill-rule:nonzero;fill:rgb(100%,91.372549%,80%);fill-opacity:1;" />
<path d="M 114.757812 512 L 388.414062 512 C 398.164062 512 406.070312 504.09375 406.070312 494.34375 L 406.070312 239.148438 C 357.847656 371.226562 249.707031 472.515625 114.757812 512 Z M 114.757812 512 " style=" stroke:none;fill-rule:nonzero;fill:rgb(100%,88.627451%,74.117647%);fill-opacity:1;" />
<path d="M 441.378906 167.722656 L 105.929688 167.722656 C 96.191406 167.753906 88.304688 175.640625 88.277344 185.378906 L 88.277344 344.273438 C 88.304688 354.015625 96.191406 361.902344 105.929688 361.929688 L 441.378906 361.929688 C 451.117188 361.902344 459.007812 354.015625 459.035156 344.273438 L 459.035156 185.378906 C 459.003906 175.640625 451.117188 167.753906 441.378906 167.722656 Z M 141.242188 317.792969 L 176.550781 317.792969 C 186.300781 317.792969 194.207031 309.886719 194.207031 300.136719 C 194.207031 309.886719 186.300781 317.792969 176.550781 317.792969 L 141.242188 317.792969 C 131.492188 317.792969 123.585938 309.886719 123.585938 300.136719 L 123.585938 229.515625 C 123.585938 219.765625 131.492188 211.863281 141.242188 211.863281 L 176.550781 211.863281 C 186.300781 211.863281 194.207031 219.765625 194.207031 229.515625 C 194.207031 219.765625 186.300781 211.863281 176.550781 211.863281 L 141.242188 211.863281 C 131.492188 211.863281 123.585938 219.765625 123.585938 229.515625 L 123.585938 300.136719 C 123.585938 309.886719 131.492188 317.792969 141.242188 317.792969 Z M 300.136719 229.515625 C 300.382812 220.011719 292.875 212.113281 283.371094 211.867188 C 283.226562 211.863281 283.078125 211.863281 282.933594 211.863281 L 247.171875 211.863281 C 237.421875 211.863281 229.515625 219.765625 229.515625 229.515625 L 229.515625 247.171875 C 229.515625 256.921875 237.421875 264.828125 247.171875 264.828125 L 282.480469 264.828125 C 292.230469 264.828125 300.136719 272.730469 300.136719 282.480469 L 300.136719 300.136719 C 300.136719 309.886719 292.230469 317.792969 282.480469 317.792969 L 247.171875 317.792969 C 237.511719 317.792969 229.640625 310.027344 229.515625 300.367188 C 229.640625 310.027344 237.511719 317.792969 247.171875 317.792969 L 282.480469 317.792969 C 292.230469 317.792969 300.136719 309.886719 300.136719 300.136719 L 300.136719 282.480469 C 300.136719 272.730469 292.230469 264.828125 282.480469 264.828125 L 247.171875 264.828125 C 237.421875 264.828125 229.515625 256.921875 229.515625 247.171875 L 229.515625 229.515625 C 229.515625 219.765625 237.421875 211.863281 247.171875 211.863281 L 282.933594 211.863281 C 292.4375 211.863281 300.144531 219.574219 300.144531 229.078125 C 300.144531 229.226562 300.140625 229.371094 300.136719 229.515625 Z M 379.585938 317.792969 L 335.449219 211.863281 L 379.585938 317.792969 L 423.722656 211.863281 Z M 379.585938 317.792969 " style=" stroke:none;fill-rule:nonzero;fill:rgb(79.215686%,99.215686%,100%);fill-opacity:1;" />
<path d="M 114.757812 88.277344 L 114.757812 0 L 0 105.929688 L 97.105469 105.929688 C 106.855469 105.929688 114.757812 98.027344 114.757812 88.277344 Z M 114.757812 88.277344 " style=" stroke:none;fill-rule:nonzero;fill:rgb(100%,66.27451%,57.647059%);fill-opacity:1;" />
<path d="M 176.550781 326.621094 L 141.242188 326.621094 C 126.617188 326.621094 114.761719 314.761719 114.761719 300.136719 L 114.761719 229.515625 C 114.761719 214.890625 126.617188 203.035156 141.242188 203.035156 L 176.550781 203.035156 C 191.179688 203.035156 203.035156 214.890625 203.035156 229.515625 C 203.035156 234.390625 199.082031 238.34375 194.207031 238.34375 C 189.332031 238.34375 185.378906 234.390625 185.378906 229.515625 C 185.378906 224.640625 181.425781 220.691406 176.550781 220.691406 L 141.242188 220.691406 C 136.367188 220.691406 132.414062 224.640625 132.414062 229.515625 L 132.414062 300.136719 C 132.414062 305.011719 136.367188 308.964844 141.242188 308.964844 L 176.550781 308.964844 C 181.425781 308.964844 185.378906 305.011719 185.378906 300.136719 C 185.378906 295.261719 189.332031 291.308594 194.207031 291.308594 C 199.082031 291.308594 203.035156 295.261719 203.035156 300.136719 C 203.035156 314.765625 191.179688 326.621094 176.550781 326.621094 Z M 176.550781 326.621094 " style=" stroke:none;fill-rule:nonzero;fill:rgb(92.941176%,10.980392%,14.117647%);fill-opacity:1;" />
<path d="M 282.484375 273.65625 L 247.171875 273.65625 C 232.546875 273.65625 220.691406 261.796875 220.691406 247.171875 L 220.691406 229.519531 C 220.691406 214.890625 232.546875 203.035156 247.171875 203.035156 L 282.933594 203.035156 C 297.320312 203.042969 308.980469 214.707031 308.972656 229.097656 C 308.972656 229.296875 308.96875 229.496094 308.964844 229.695312 C 308.917969 234.570312 304.925781 238.484375 300.050781 238.433594 C 295.175781 238.386719 291.261719 234.394531 291.308594 229.519531 C 291.417969 227.179688 290.558594 224.898438 288.925781 223.214844 C 287.355469 221.597656 285.191406 220.683594 282.933594 220.691406 L 247.171875 220.691406 C 242.296875 220.691406 238.34375 224.644531 238.34375 229.519531 L 238.34375 247.171875 C 238.34375 252.050781 242.296875 256 247.171875 256 L 282.484375 256 C 287.359375 256 291.308594 259.953125 291.308594 264.828125 C 291.308594 269.703125 287.359375 273.65625 282.484375 273.65625 Z M 282.484375 273.65625 " style=" stroke:none;fill-rule:nonzero;fill:rgb(92.941176%,10.980392%,14.117647%);fill-opacity:1;" />
<path d="M 282.484375 326.621094 L 247.171875 326.621094 C 232.703125 326.570312 220.929688 314.949219 220.691406 300.480469 C 220.625 295.597656 224.496094 291.566406 229.375 291.433594 L 229.519531 291.433594 C 234.308594 291.375 238.25 295.1875 238.34375 299.976562 C 238.304688 304.894531 242.253906 308.917969 247.171875 308.964844 L 282.484375 308.964844 C 287.359375 308.964844 291.308594 305.011719 291.308594 300.136719 L 291.308594 282.480469 C 291.308594 277.605469 287.359375 273.65625 282.484375 273.65625 L 247.171875 273.65625 C 242.296875 273.65625 238.34375 269.703125 238.34375 264.828125 C 238.34375 259.953125 242.296875 256 247.171875 256 L 282.484375 256 C 297.109375 256 308.964844 267.855469 308.964844 282.480469 L 308.964844 300.136719 C 308.964844 314.765625 297.109375 326.621094 282.484375 326.621094 Z M 282.484375 326.621094 " style=" stroke:none;fill-rule:nonzero;fill:rgb(92.941176%,10.980392%,14.117647%);fill-opacity:1;" />
<path d="M 379.585938 326.621094 C 376.023438 326.621094 372.808594 324.480469 371.4375 321.191406 L 327.300781 215.261719 C 325.421875 210.761719 327.550781 205.589844 332.046875 203.714844 C 336.546875 201.835938 341.71875 203.964844 343.59375 208.464844 L 379.585938 294.839844 L 415.574219 208.464844 C 417.453125 203.964844 422.621094 201.835938 427.121094 203.714844 C 431.621094 205.589844 433.746094 210.761719 431.871094 215.261719 L 387.730469 321.191406 C 386.363281 324.480469 383.148438 326.621094 379.585938 326.621094 Z M 379.585938 326.621094 " style=" stroke:none;fill-rule:nonzero;fill:rgb(92.941176%,10.980392%,14.117647%);fill-opacity:1;" />
</g>
</svg>