<svg height="512pt" viewBox="0 0 512 512" width="512pt" xmlns="http://www.w3.org/2000/svg"><path d="m512 370.757812h-189.882812c37.253906-.265624 141.683593-7.503906 163.398437-79.710937l1.414063-.441406zm0 0" fill="#f29c1f"/><path d="m512 370.757812v132.414063c0 4.875-3.953125 8.828125-8.828125 8.828125h-494.34375c-4.875 0-8.828125-3.953125-8.828125-8.828125v-132.414063l86.332031-276.300781c1.164063-3.699219 4.601563-6.203125 8.476563-6.179687h187.675781l185.378906 141.238281 19.066407 61.089844-1.414063.441406c-43.078125 34.515625-119.878906-15.183594-123.496094-17.566406 17.476563 35.308593-53.054687 97.011719-53.054687 97.011719s4.148437.265624 11.210937.265624zm0 0" fill="#f0c419"/><path d="m512 370.757812v132.414063c0 4.875-3.953125 8.828125-8.828125 8.828125h-494.34375c-4.875 0-8.828125-3.953125-8.828125-8.828125v-132.414063zm0 0" fill="#e57e25"/><path d="m485.515625 291.046875c-21.714844 72.207031-126.144531 79.445313-163.398437 79.710937h-1.941407c-7.0625 0-11.210937-.265624-11.210937-.265624s70.53125-61.703126 53.054687-97.011719c3.617188 2.382812 80.417969 52.082031 123.496094 17.566406zm0 0" fill="#e57e25"/><g fill="#d25627"><path d="m97.101562 406.070312c0 4.875-3.949218 8.828126-8.824218 8.828126h-88.277344v-17.65625h88.277344c4.875 0 8.824218 3.953124 8.824218 8.828124zm0 0"/><path d="m512 397.242188v17.65625h-344.277344c-4.875 0-8.824218-3.953126-8.824218-8.828126s3.949218-8.828124 8.824218-8.828124zm0 0"/><path d="m97.101562 476.691406c0 4.875-3.949218 8.824219-8.824218 8.824219h-88.277344v-17.652344h88.277344c4.875 0 8.824218 3.949219 8.824218 8.828125zm0 0"/><path d="m512 467.863281v17.652344h-344.277344c-4.875 0-8.824218-3.949219-8.824218-8.824219 0-4.878906 3.949218-8.828125 8.824218-8.828125zm0 0"/><path d="m512 432.550781v17.65625h-88.277344c-4.875 0-8.824218-3.953125-8.824218-8.828125s3.949218-8.828125 8.824218-8.828125zm0 0"/><path d="m353.101562 441.378906c0 4.875-3.949218 8.828125-8.824218 8.828125h-344.277344v-17.65625h344.277344c4.875 0 8.824218 3.953125 8.824218 8.828125zm0 0"/></g><path d="m300.136719 0h194.207031c9.75 0 17.65625 7.90625 17.65625 17.65625v194.207031c0 9.75-7.90625 17.652344-17.65625 17.652344h-194.207031c-9.75 0-17.652344-7.902344-17.652344-17.652344v-194.207031c0-9.75 7.902344-17.65625 17.652344-17.65625zm0 0" fill="#e64c3c"/><path d="m398.917969 123.585938h-3.355469c-9.066406 0-16.660156-6.867188-17.566406-15.890626l-5.296875-52.964843c-.496094-4.964844 1.128906-9.90625 4.476562-13.609375 3.34375-3.699219 8.101563-5.8125 13.09375-5.8125h13.945313c4.988281 0 9.746094 2.113281 13.09375 5.8125 3.347656 3.703125 4.972656 8.644531 4.472656 13.609375l-5.296875 52.964843c-.90625 9.023438-8.5 15.890626-17.566406 15.890626zm0 0" fill="#f0c419"/><path d="m397.242188 158.898438c9.75 0 17.65625 7.902343 17.65625 17.652343s-7.90625 17.65625-17.65625 17.65625-17.65625-7.90625-17.65625-17.65625 7.90625-17.652343 17.65625-17.652343zm0 0" fill="#f0c419"/></svg>