<svg height="512pt" viewBox="0 0 512 512" width="512pt" xmlns="http://www.w3.org/2000/svg"><path d="m512 370.757812h-189.882812c37.253906-.265624 141.683593-7.503906 163.398437-79.710937l1.414063-.441406zm0 0" fill="#f29c1f"/><path d="m512 370.757812v132.414063c0 4.875-3.953125 8.828125-8.828125 8.828125h-494.34375c-4.875 0-8.828125-3.953125-8.828125-8.828125v-132.414063l86.332031-276.300781c1.164063-3.699219 4.601563-6.203125 8.476563-6.179687h187.675781l185.378906 141.238281 19.066407 61.089844-1.414063.441406c-43.078125 34.515625-119.878906-15.183594-123.496094-17.566406 17.476563 35.308593-53.054687 97.011719-53.054687 97.011719s4.148437.265624 11.210937.265624zm0 0" fill="#f0c419"/><path d="m512 370.757812v132.414063c0 4.875-3.953125 8.828125-8.828125 8.828125h-494.34375c-4.875 0-8.828125-3.953125-8.828125-8.828125v-132.414063zm0 0" fill="#e57e25"/><path d="m485.515625 291.046875c-21.714844 72.207031-126.144531 79.445313-163.398437 79.710937h-1.941407c-7.0625 0-11.210937-.265624-11.210937-.265624s70.53125-61.703126 53.054687-97.011719c3.617188 2.382812 80.417969 52.082031 123.496094 17.566406zm0 0" fill="#e57e25"/><g fill="#d25627"><path d="m97.101562 406.070312c0 4.875-3.949218 8.828126-8.824218 8.828126h-88.277344v-17.65625h88.277344c4.875 0 8.824218 3.953124 8.824218 8.828124zm0 0"/><path d="m512 397.242188v17.65625h-344.277344c-4.875 0-8.824218-3.953126-8.824218-8.828126s3.949218-8.828124 8.824218-8.828124zm0 0"/><path d="m97.101562 476.691406c0 4.875-3.949218 8.824219-8.824218 8.824219h-88.277344v-17.652344h88.277344c4.875 0 8.824218 3.949219 8.824218 8.828125zm0 0"/><path d="m512 467.863281v17.652344h-344.277344c-4.875 0-8.824218-3.949219-8.824218-8.824219 0-4.878906 3.949218-8.828125 8.824218-8.828125zm0 0"/><path d="m512 432.550781v17.65625h-88.277344c-4.875 0-8.824218-3.953125-8.824218-8.828125s3.949218-8.828125 8.824218-8.828125zm0 0"/><path d="m353.101562 441.378906c0 4.875-3.949218 8.828125-8.824218 8.828125h-344.277344v-17.65625h344.277344c4.875 0 8.824218 3.953125 8.824218 8.828125zm0 0"/></g><path d="m300.136719 0h194.207031c9.75 0 17.65625 7.90625 17.65625 17.65625v194.207031c0 9.75-7.90625 17.652344-17.65625 17.652344h-194.207031c-9.75 0-17.652344-7.902344-17.652344-17.652344v-194.207031c0-9.75 7.902344-17.65625 17.652344-17.65625zm0 0" fill="#4482c3"/><path d="m467.863281 203.035156h-141.242187c-4.875 0-8.828125-3.953125-8.828125-8.828125v-88.277343c0-4.875 3.953125-8.828126 8.828125-8.828126h35.308594c4.875 0 8.828124 3.953126 8.828124 8.828126s-3.953124 8.828124-8.828124 8.828124h-26.480469v70.621094h123.585937v-70.621094h-26.484375c-4.875 0-8.828125-3.953124-8.828125-8.828124s3.953125-8.828126 8.828125-8.828126h35.3125c4.875 0 8.828125 3.953126 8.828125 8.828126v88.277343c0 4.875-3.953125 8.828125-8.828125 8.828125zm0 0" fill="#2c3e50"/><path d="m432.550781 79.449219c-2.339843 0-4.585937-.933594-6.238281-2.585938l-29.070312-29.070312-29.070313 29.070312c-3.464844 3.34375-8.96875 3.296875-12.375-.109375s-3.453125-8.910156-.105469-12.375l35.308594-35.308594c3.449219-3.445312 9.035156-3.445312 12.484375 0l35.308594 35.308594c2.523437 2.523438 3.277343 6.320313 1.914062 9.621094-1.367187 3.296875-4.585937 5.449219-8.15625 5.449219zm0 0" fill="#2c3e50"/><path d="m397.242188 158.898438c-4.875 0-8.828126-3.953126-8.828126-8.828126v-114.761718c0-4.875 3.953126-8.824219 8.828126-8.824219s8.828124 3.949219 8.828124 8.824219v114.761718c0 4.875-3.953124 8.828126-8.828124 8.828126zm0 0" fill="#2c3e50"/></svg>