<svg height="512pt" viewBox="0 0 512 512.00024" width="512pt" xmlns="http://www.w3.org/2000/svg"><path d="m370.757812 36.546875v-18.890625c.03125-9.738281 7.917969-17.625 17.65625-17.65625 4.683594-.0234375 9.175782 1.855469 12.445313 5.207031 3.355469 3.273438 5.234375 7.765625 5.210937 12.449219v18.890625zm0 0" fill="#e57e25"/><path d="m512 441.378906h-191.824219c35.398438 0 143.273438-6.179687 165.339844-79.710937l1.414063-.441407zm0 0" fill="#285680"/><path d="m486.929688 361.226562-1.414063.441407c-43.078125 34.515625-119.875-15.183594-123.496094-17.570313 17.480469 35.3125-53.054687 97.015625-53.054687 97.015625s4.148437.265625 11.210937.265625h-320.175781l86.332031-276.304687c1.164063-3.695313 4.601563-6.199219 8.476563-6.175781h170.019531l191.207031 103.371093zm0 0" fill="#b0d3f0"/><path d="m512 441.378906v52.964844c-.027344 9.738281-7.917969 17.628906-17.65625 17.65625h-476.6875c-9.738281-.027344-17.6289062-7.917969-17.65625-17.65625v-52.964844zm0 0" fill="#4482c3"/><path d="m485.515625 361.667969c-22.066406 73.53125-129.941406 79.710937-165.339844 79.710937-7.0625 0-11.210937-.265625-11.210937-.265625s70.535156-61.703125 53.054687-97.015625c3.621094 2.386719 80.417969 52.085938 123.496094 17.570313zm0 0" fill="#90bae1"/><path d="m97.105469 476.691406c0 4.875-3.953125 8.824219-8.828125 8.824219h-88.277344v-17.652344h88.277344c4.875 0 8.828125 3.953125 8.828125 8.828125zm0 0" fill="#285680"/><path d="m512 467.863281v17.652344h-344.277344c-4.875 0-8.824218-3.949219-8.824218-8.824219s3.949218-8.828125 8.824218-8.828125zm0 0" fill="#285680"/><path d="m512 158.898438c0 68.253906-55.332031 123.585937-123.585938 123.585937-68.253906 0-123.585937-55.332031-123.585937-123.585937 0-68.257813 55.332031-123.585938 123.585937-123.585938 68.253907 0 123.585938 55.328125 123.585938 123.585938zm0 0" fill="#f29c1f"/><path d="m476.691406 158.898438c-.066406 42.179687-29.964844 78.421874-71.363281 86.503906-41.398437 8.082031-82.734375-14.253906-98.65625-53.3125-4.339844-10.527344-6.558594-21.808594-6.535156-33.191406.097656-45.234376 34.285156-83.117188 79.273437-87.835938 2.914063-.265625 6.003906-.441406 9.003906-.441406 43.882813.039062 81.074219 32.304687 87.304688 75.742187.679688 4.140625 1.003906 8.335938.972656 12.535157zm0 0" fill="#90bae1"/><g fill="#285680"><path d="m132.414062 220.691406h-17.65625c-4.875 0-8.828124-3.953125-8.828124-8.828125s3.953124-8.828125 8.828124-8.828125h17.65625c4.875 0 8.828126 3.953125 8.828126 8.828125s-3.953126 8.828125-8.828126 8.828125zm0 0"/><path d="m238.34375 220.691406h-70.621094c-4.875 0-8.824218-3.953125-8.824218-8.828125s3.949218-8.828125 8.824218-8.828125h70.621094c4.875 0 8.828125 3.953125 8.828125 8.828125s-3.953125 8.828125-8.828125 8.828125zm0 0"/><path d="m123.585938 264.828125h-17.65625c-4.875 0-8.824219-3.953125-8.824219-8.828125s3.949219-8.828125 8.824219-8.828125h17.65625c4.875 0 8.828124 3.953125 8.828124 8.828125s-3.953124 8.828125-8.828124 8.828125zm0 0"/><path d="m247.171875 264.828125h-88.273437c-4.878907 0-8.828126-3.953125-8.828126-8.828125s3.949219-8.828125 8.828126-8.828125h88.273437c4.875 0 8.828125 3.953125 8.828125 8.828125s-3.953125 8.828125-8.828125 8.828125zm0 0"/><path d="m114.757812 308.964844h-17.652343c-4.878907 0-8.828125-3.953125-8.828125-8.828125s3.949218-8.824219 8.828125-8.824219h17.652343c4.875 0 8.828126 3.949219 8.828126 8.824219s-3.953126 8.828125-8.828126 8.828125zm0 0"/><path d="m282.484375 308.964844h-132.414063c-4.875 0-8.828124-3.953125-8.828124-8.828125s3.953124-8.824219 8.828124-8.824219h132.414063c4.875 0 8.824219 3.949219 8.824219 8.824219s-3.949219 8.828125-8.824219 8.828125zm0 0"/><path d="m105.929688 353.105469h-17.652344c-4.875 0-8.828125-3.953125-8.828125-8.828125s3.953125-8.828125 8.828125-8.828125h17.652344c4.875 0 8.828124 3.953125 8.828124 8.828125s-3.953124 8.828125-8.828124 8.828125zm0 0"/><path d="m300.136719 353.105469h-158.894531c-4.875 0-8.828126-3.953125-8.828126-8.828125s3.953126-8.828125 8.828126-8.828125h158.894531c4.875 0 8.828125 3.953125 8.828125 8.828125s-3.953125 8.828125-8.828125 8.828125zm0 0"/><path d="m97.105469 397.242188h-17.65625c-4.875 0-8.828125-3.953126-8.828125-8.828126s3.953125-8.828124 8.828125-8.828124h17.65625c4.875 0 8.824219 3.953124 8.824219 8.828124s-3.949219 8.828126-8.824219 8.828126zm0 0"/><path d="m308.964844 397.242188h-176.550782c-4.875 0-8.828124-3.953126-8.828124-8.828126s3.953124-8.828124 8.828124-8.828124h176.550782c4.875 0 8.828125 3.953124 8.828125 8.828124s-3.953125 8.828126-8.828125 8.828126zm0 0"/></g><path d="m475.71875 146.363281c-92.867188-12.714843-143.535156 18.800781-169.046875 45.726563-4.339844-10.527344-6.558594-21.808594-6.535156-33.191406.097656-45.234376 34.285156-83.117188 79.273437-87.835938 2.914063-.265625 6.003906-.441406 9.003906-.441406 43.882813.039062 81.074219 32.304687 87.304688 75.742187zm0 0" fill="#b0d3f0"/><path d="m423.722656 203.035156c-2.339844 0-4.585937-.929687-6.238281-2.585937l-35.3125-35.3125c-1.65625-1.652344-2.585937-3.898438-2.585937-6.238281v-52.96875c0-4.875 3.953124-8.824219 8.828124-8.824219s8.828126 3.949219 8.828126 8.824219v49.3125l32.722656 32.722656c2.523437 2.527344 3.277344 6.320312 1.914062 9.621094-1.367187 3.296874-4.585937 5.449218-8.15625 5.449218zm0 0" fill="#7f8c8d"/></svg>