<svg xmlns="http://www.w3.org/2000/svg" height="464pt" version="1.1" viewBox="-48 0 464 464" width="464pt">
<g id="surface1">
<path d="M 16 464 L 352 464 C 360.835938 464 368 456.835938 368 448 L 368 16 C 368 7.164062 360.835938 0 352 0 L 104 0 L 104 80 C 104 88.835938 96.835938 96 88 96 L 0 96 L 0 448 C 0 456.835938 7.164062 464 16 464 Z M 80 192 C 88.835938 192 96 199.164062 96 208 C 96 216.835938 88.835938 224 80 224 C 71.164062 224 64 216.835938 64 208 C 64 199.164062 71.164062 192 80 192 Z M 48 352 L 112 256 L 150.71875 314.078125 L 112 256 L 48 352 L 128 352 L 224 192 L 320 352 Z M 48 352 " style=" stroke:none;fill-rule:nonzero;fill:rgb(100%,91.372549%,80%);fill-opacity:1;" />
<path d="M 104 464 L 352 464 C 360.835938 464 368 456.835938 368 448 L 368 216.726562 C 324.300781 336.425781 226.296875 428.21875 104 464 Z M 104 464 " style=" stroke:none;fill-rule:nonzero;fill:rgb(100%,88.627451%,74.117647%);fill-opacity:1;" />
<path d="M 320 352 L 224 192 L 128 352 Z M 320 352 " style=" stroke:none;fill-rule:nonzero;fill:rgb(49.411765%,74.117647%,31.372549%);fill-opacity:1;" />
<path d="M 104 80 L 104 0 L 0 96 L 88 96 C 96.835938 96 104 88.835938 104 80 Z M 104 80 " style=" stroke:none;fill-rule:nonzero;fill:rgb(100%,66.27451%,57.647059%);fill-opacity:1;" />
<path d="M 96 208 C 96 216.835938 88.835938 224 80 224 C 71.164062 224 64 216.835938 64 208 C 64 199.164062 71.164062 192 80 192 C 88.835938 192 96 199.164062 96 208 Z M 96 208 " style=" stroke:none;fill-rule:nonzero;fill:rgb(100%,31.372549%,13.72549%);fill-opacity:1;" />
<path d="M 150.71875 314.078125 L 112 256 L 48 352 L 128 352 Z M 150.71875 314.078125 " style=" stroke:none;fill-rule:nonzero;fill:rgb(59.607843%,79.215686%,45.098039%);fill-opacity:1;" />
<path d="M 328 360 L 40 360 C 35.582031 360 32 356.417969 32 352 C 32 347.582031 35.582031 344 40 344 L 328 344 C 332.417969 344 336 347.582031 336 352 C 336 356.417969 332.417969 360 328 360 Z M 328 360 " style=" stroke:none;fill-rule:nonzero;fill:rgb(37.254902%,55.686275%,23.529412%);fill-opacity:1;" />
</g>
</svg>