<svg height="512pt" viewBox="0 0 512 512.00139" width="512pt" xmlns="http://www.w3.org/2000/svg"><path d="m338.007812 406.070312h-329.179687c-4.875 0-8.828125-3.953124-8.828125-8.828124v-344.277344h441.378906v143.007812" fill="#ecf0f1"/><path d="m0 52.964844h88.277344v88.277344h-88.277344zm0 0" fill="#ecf0f1"/><path d="m88.277344 52.964844h88.273437v88.277344h-88.273437zm0 0" fill="#bdc3c7"/><path d="m176.550781 52.964844h88.277344v88.277344h-88.277344zm0 0" fill="#ecf0f1"/><path d="m264.828125 52.964844h88.277344v88.277344h-88.277344zm0 0" fill="#bdc3c7"/><path d="m353.105469 52.964844h88.273437v88.277344h-88.273437zm0 0" fill="#ecf0f1"/><path d="m0 141.242188h88.277344v88.273437h-88.277344zm0 0" fill="#bdc3c7"/><path d="m88.277344 141.242188h88.273437v88.273437h-88.273437zm0 0" fill="#ecf0f1"/><path d="m176.550781 141.242188h88.277344v88.273437h-88.277344zm0 0" fill="#bdc3c7"/><path d="m264.828125 229.515625v-88.273437h88.277344" fill="#ecf0f1"/><path d="m353.105469 141.242188h88.273437v88.273437h-88.273437zm0 0" fill="#bdc3c7"/><path d="m0 229.515625h88.277344v88.277344h-88.277344zm0 0" fill="#ecf0f1"/><path d="m88.277344 229.515625h88.273437v88.277344h-88.273437zm0 0" fill="#bdc3c7"/><path d="m176.550781 229.515625h88.277344v88.277344h-88.277344zm0 0" fill="#ecf0f1"/><path d="m264.828125 229.515625h88.277344v88.277344h-88.277344zm0 0" fill="#bdc3c7"/><path d="m0 317.792969h88.277344v88.277343h-79.449219c-4.875 0-8.828125-3.953124-8.828125-8.828124zm0 0" fill="#bdc3c7"/><path d="m88.277344 317.792969h88.273437v88.277343h-88.273437zm0 0" fill="#ecf0f1"/><path d="m176.550781 317.792969h88.277344v88.277343h-88.277344zm0 0" fill="#bdc3c7"/><path d="m264.828125 317.792969h88.277344v88.277343h-88.277344zm0 0" fill="#ecf0f1"/><path d="m353.105469 317.792969h88.273437v88.277343h-88.273437zm0 0" fill="#bdc3c7"/><path d="m353.105469 229.515625h88.273437v88.277344h-88.273437zm0 0" fill="#ecf0f1"/><path d="m432.550781 0-52.964843 52.964844h-52.964844l52.964844-52.964844zm0 0" fill="#802f34"/><path d="m379.585938 0-52.964844 52.964844h-52.964844l52.964844-52.964844zm0 0" fill="#cc4b4c"/><path d="m326.621094 0-52.964844 52.964844h-52.964844l52.964844-52.964844zm0 0" fill="#802f34"/><path d="m273.65625 0-52.964844 52.964844h-52.964844l52.964844-52.964844zm0 0" fill="#cc4b4c"/><path d="m220.691406 0-52.964844 52.964844h-52.96875l52.96875-52.964844zm0 0" fill="#802f34"/><path d="m167.726562 0-52.96875 52.964844h-52.964843l52.964843-52.964844zm0 0" fill="#cc4b4c"/><path d="m114.757812 0-52.964843 52.964844h-52.964844l52.964844-52.964844zm0 0" fill="#802f34"/><path d="m61.792969 0-52.964844 52.964844h-8.828125v-44.136719c0-4.875 3.953125-8.828125 8.828125-8.828125zm0 0" fill="#cc4b4c"/><path d="m441.378906 8.828125v44.136719h-61.792968l52.964843-52.964844c4.878907 0 8.828125 3.953125 8.828125 8.828125zm0 0" fill="#cc4b4c"/><path d="m512 467.863281v4.414063c0 18.714844-30.101562 34.335937-70.621094 38.574218v-42.988281c11.570313-10.316406 20.269532-23.457031 25.246094-38.136719 6.96875-18.867187 10.382812-38.859374 10.066406-58.96875l.96875-.882812c18.363282 20.128906 34.339844 51.023438 34.339844 97.988281zm0 0" fill="#35495e"/><path d="m441.378906 467.863281v42.988281c-7.328125.792969-14.695312 1.175782-22.066406 1.148438-51.203125 0-92.691406-17.742188-92.691406-39.722656v-4.414063c0-54.554687 21.539062-87.484375 43.34375-106.816406l.792968.882813c8.40625 26.828124 20.625 52.308593 36.28125 75.652343v.089844c8.429688 13.050781 20.320313 23.5 34.339844 30.191406zm0 0" fill="#2c3e50"/><path d="m494.34375 282.484375c.941406 28.007813-10.179688 55.070313-30.542969 74.328125h-.085937c-6.84375 6.050781-15.050782 10.351562-23.921875 12.535156-3.8125.957032-7.726563 1.429688-11.65625 1.410156-1.410157 0-2.910157-.085937-4.324219-.175781-15.175781-1.699219-29.085938-9.273437-38.753906-21.097656-8.363282-9.804687-14.558594-21.265625-18.183594-33.632813 8.5625-3.882812 25.335938-13.242187 25.335938-28.335937 1.269531-18.199219 13.679687-33.707031 31.160156-38.929687 10.683594 10.414062 32.484375 24.980468 70.621094 25.070312.265624 2.910156.351562 5.824219.351562 8.828125zm0 0" fill="#fdd7ad"/><path d="m493.992188 273.65625c-38.136719-.089844-59.9375-14.65625-70.621094-25.070312-17.480469 5.222656-29.890625 20.730468-31.160156 38.929687 0 15.09375-16.773438 24.453125-25.335938 28.335937-3.308594-10.8125-4.976562-22.0625-4.941406-33.367187 0-48.730469 29.660156-88.277344 66.203125-88.277344 34.339843 0 62.589843 34.867188 65.855469 79.449219zm0 0" fill="#7f5b53"/><path d="m423.8125 370.582031-.085938.175781-16.6875 66.824219c-15.65625-23.34375-27.875-48.824219-36.28125-75.652343l-.792968-.882813c4.730468-4.230469 9.777344-8.09375 15.09375-11.5625 9.667968 11.824219 23.578125 19.398437 38.753906 21.097656zm0 0" fill="#ecf0f1"/><path d="m477.660156 369.875-.96875.882812c.316406 20.109376-3.097656 40.101563-10.066406 58.96875l-26.832031-60.378906c8.871093-2.183594 17.078125-6.484375 23.921875-12.535156h.085937c4.941407 4 9.574219 8.367188 13.859375 13.0625zm0 0" fill="#ecf0f1"/><path d="m466.625 429.726562c-4.976562 14.679688-13.675781 27.820313-25.246094 38.136719-14.019531-6.691406-25.910156-17.140625-34.339844-30.191406v-.089844l16.6875-66.824219.085938-.175781c1.414062.089844 2.914062.175781 4.324219.175781 3.929687.019532 7.84375-.453124 11.65625-1.410156zm0 0" fill="#e64c3c"/></svg>