<svg xmlns="http://www.w3.org/2000/svg" height="512pt" version="1.1" viewBox="-26 0 512 512.00002" width="512pt">
<g id="surface1">
<path d="M 88.277344 344.277344 L 88.277344 185.378906 C 88.304688 175.640625 96.191406 167.753906 105.929688 167.722656 L 406.070312 167.722656 L 406.070312 17.65625 C 406.039062 7.917969 398.152344 0.0273438 388.414062 0 L 114.757812 0 L 114.757812 88.277344 C 114.757812 98.027344 106.855469 105.929688 97.105469 105.929688 L 0 105.929688 L 0 494.34375 C 0.0273438 504.082031 7.917969 511.96875 17.65625 512 L 388.414062 512 C 398.152344 511.96875 406.039062 504.082031 406.070312 494.34375 L 406.070312 361.929688 L 105.929688 361.929688 C 96.191406 361.902344 88.304688 354.015625 88.277344 344.277344 Z M 88.277344 344.277344 " style=" stroke:none;fill-rule:nonzero;fill:rgb(100%,91.372549%,80%);fill-opacity:1;" />
<path d="M 114.757812 512 L 388.414062 512 C 398.164062 512 406.070312 504.09375 406.070312 494.34375 L 406.070312 239.148438 C 357.847656 371.226562 249.707031 472.515625 114.757812 512 Z M 114.757812 512 " style=" stroke:none;fill-rule:nonzero;fill:rgb(100%,88.627451%,74.117647%);fill-opacity:1;" />
<path d="M 441.378906 167.722656 L 105.929688 167.722656 C 96.191406 167.753906 88.304688 175.640625 88.277344 185.378906 L 88.277344 344.273438 C 88.304688 354.015625 96.191406 361.902344 105.929688 361.929688 L 441.378906 361.929688 C 451.117188 361.902344 459.007812 354.015625 459.035156 344.273438 L 459.035156 185.378906 C 459.003906 175.640625 451.117188 167.753906 441.378906 167.722656 Z M 203.035156 282.484375 C 203.035156 301.984375 187.226562 317.792969 167.726562 317.792969 C 148.222656 317.792969 132.414062 301.984375 132.414062 282.484375 C 132.414062 301.984375 148.222656 317.792969 167.726562 317.792969 C 187.226562 317.792969 203.035156 301.984375 203.035156 282.484375 Z M 308.964844 247.171875 C 308.964844 256.921875 301.0625 264.828125 291.3125 264.828125 L 256 264.828125 C 246.25 264.828125 238.347656 272.730469 238.347656 282.480469 L 238.347656 300.136719 C 238.347656 309.886719 246.25 317.792969 256 317.792969 C 246.25 317.792969 238.347656 309.886719 238.347656 300.136719 L 238.347656 282.480469 C 238.347656 272.730469 246.25 264.828125 256 264.828125 L 291.3125 264.828125 C 301.0625 264.828125 308.964844 256.921875 308.964844 247.171875 L 308.964844 229.515625 C 308.964844 219.765625 301.0625 211.863281 291.3125 211.863281 L 256 211.863281 C 246.25 211.863281 238.347656 219.765625 238.347656 229.515625 C 238.347656 219.765625 246.25 211.863281 256 211.863281 L 291.3125 211.863281 C 301.0625 211.863281 308.964844 219.765625 308.964844 229.515625 Z M 414.898438 317.792969 L 344.277344 256 L 414.898438 211.859375 L 344.277344 256 Z M 414.898438 317.792969 " style=" stroke:none;fill-rule:nonzero;fill:rgb(79.215686%,99.215686%,100%);fill-opacity:1;" />
<path d="M 114.757812 88.277344 L 114.757812 0 L 0 105.929688 L 97.105469 105.929688 C 106.855469 105.929688 114.757812 98.027344 114.757812 88.277344 Z M 114.757812 88.277344 " style=" stroke:none;fill-rule:nonzero;fill:rgb(100%,66.27451%,57.647059%);fill-opacity:1;" />
<path d="M 167.726562 326.621094 C 143.359375 326.589844 123.617188 306.847656 123.585938 282.480469 C 123.585938 277.605469 127.539062 273.65625 132.414062 273.65625 C 137.289062 273.65625 141.242188 277.605469 141.242188 282.480469 C 141.242188 297.109375 153.097656 308.964844 167.722656 308.964844 C 182.347656 308.964844 194.207031 297.109375 194.207031 282.480469 L 194.207031 211.859375 C 194.207031 206.984375 198.160156 203.035156 203.035156 203.035156 C 207.910156 203.035156 211.863281 206.984375 211.863281 211.859375 L 211.863281 282.480469 C 211.832031 306.847656 192.089844 326.589844 167.726562 326.621094 Z M 167.726562 326.621094 " style=" stroke:none;fill-rule:nonzero;fill:rgb(92.941176%,10.980392%,14.117647%);fill-opacity:1;" />
<path d="M 291.308594 273.65625 L 256 273.65625 C 251.125 273.65625 247.171875 269.703125 247.171875 264.828125 C 247.171875 259.953125 251.125 256 256 256 L 291.308594 256 C 296.183594 256 300.136719 252.046875 300.136719 247.171875 L 300.136719 229.519531 C 300.136719 224.644531 296.183594 220.691406 291.308594 220.691406 L 256 220.691406 C 251.125 220.691406 247.171875 224.644531 247.171875 229.519531 C 247.171875 234.394531 243.21875 238.34375 238.34375 238.34375 C 233.46875 238.34375 229.519531 234.394531 229.519531 229.519531 C 229.519531 214.890625 241.375 203.035156 256 203.035156 L 291.308594 203.035156 C 305.9375 203.035156 317.792969 214.890625 317.792969 229.519531 L 317.792969 247.171875 C 317.792969 261.796875 305.9375 273.65625 291.308594 273.65625 Z M 291.308594 273.65625 " style=" stroke:none;fill-rule:nonzero;fill:rgb(92.941176%,10.980392%,14.117647%);fill-opacity:1;" />
<path d="M 308.734375 326.621094 L 256 326.621094 C 241.375 326.621094 229.519531 314.761719 229.519531 300.136719 L 229.519531 282.484375 C 229.519531 267.855469 241.375 256 256 256 L 291.308594 256 C 296.183594 256 300.136719 259.953125 300.136719 264.828125 C 300.136719 269.703125 296.183594 273.65625 291.308594 273.65625 L 256 273.65625 C 251.125 273.65625 247.171875 277.609375 247.171875 282.484375 L 247.171875 300.136719 C 247.171875 305.011719 251.125 308.964844 256 308.964844 L 308.734375 308.964844 C 313.609375 308.964844 317.5625 312.917969 317.5625 317.792969 C 317.5625 322.667969 313.609375 326.621094 308.734375 326.621094 Z M 308.734375 326.621094 " style=" stroke:none;fill-rule:nonzero;fill:rgb(92.941176%,10.980392%,14.117647%);fill-opacity:1;" />
<path d="M 344.277344 326.621094 C 339.402344 326.621094 335.449219 322.667969 335.449219 317.792969 L 335.449219 211.863281 C 335.449219 206.988281 339.402344 203.035156 344.277344 203.035156 C 349.152344 203.035156 353.105469 206.988281 353.105469 211.863281 L 353.105469 317.792969 C 353.105469 322.667969 349.152344 326.621094 344.277344 326.621094 Z M 344.277344 326.621094 " style=" stroke:none;fill-rule:nonzero;fill:rgb(92.941176%,10.980392%,14.117647%);fill-opacity:1;" />
<path d="M 414.898438 326.621094 C 412.757812 326.621094 410.691406 325.847656 409.078125 324.441406 L 338.457031 262.648438 C 334.792969 259.433594 334.425781 253.855469 337.636719 250.191406 C 338.207031 249.542969 338.867188 248.980469 339.597656 248.523438 L 410.21875 204.382812 C 414.363281 201.800781 419.816406 203.066406 422.398438 207.210938 C 424.984375 211.355469 423.71875 216.808594 419.574219 219.390625 L 359.035156 257.226562 L 420.714844 311.191406 C 424.359375 314.425781 424.695312 320.003906 421.457031 323.652344 C 419.792969 325.53125 417.40625 326.609375 414.898438 326.621094 Z M 414.898438 326.621094 " style=" stroke:none;fill-rule:nonzero;fill:rgb(92.941176%,10.980392%,14.117647%);fill-opacity:1;" />
</g>
</svg>