<svg height="512pt" viewBox="0 0 512 512.0151" width="512pt" xmlns="http://www.w3.org/2000/svg"><path d="m8.808594 0h423.699218c4.898438 0 8.800782 4 8.800782 8.800781v44.199219h-441.3007815v-44.199219c0-4.800781 3.9999995-8.800781 8.8007815-8.800781zm0 0" fill="#ff5364"/><path d="m252.507812 406.101562h-243.699218c-4.902344 0-8.8007815-4-8.8007815-8.800781v-344.300781h441.3984375v143zm0 0" fill="#4482c3"/><path d="m264.808594 53h88.300781v88.300781h-88.300781zm0 0" fill="#b0d3f0"/><path d="m.0078125 53h88.3007815v88.300781h-88.3007815zm0 0" fill="#90bae1"/><path d="m88.308594 53h88.300781v88.300781h-88.300781zm0 0" fill="#b0d3f0"/><path d="m176.609375 53h88.296875v88.300781h-88.296875zm0 0" fill="#90bae1"/><path d="m353.109375 53h88.296875v88.300781h-88.296875zm0 0" fill="#90bae1"/><path d="m176.609375 141.199219h88.296875v88.300781h-88.296875zm0 0" fill="#b0d3f0"/><path d="m264.808594 141.199219h88.300781v88.300781h-88.300781zm0 0" fill="#90bae1"/><path d="m353.109375 141.199219h88.296875v88.300781h-88.296875zm0 0" fill="#b0d3f0"/><path d="m176.609375 229.5h88.296875v88.300781h-88.296875zm0 0" fill="#90bae1"/><path d="m264.808594 229.5h88.300781v88.300781h-88.300781zm0 0" fill="#b0d3f0"/><path d="m441.40625 318.800781h-88.296875c-.601563 0-1-.402343-1-1v-88.300781c0-.601562.398437-1 1-1h88.296875c.601562 0 1 .398438 1 1v88.300781c0 .5-.5 1-1 1zm-87.296875-2h86.296875v-86.300781h-86.296875zm0 0"/><path d="m176.609375 317.800781h88.296875v88.300781h-88.296875zm0 0" fill="#b0d3f0"/><path d="m264.808594 317.800781h88.300781v88.300781h-88.300781zm0 0" fill="#4482c3"/><path d="m441.40625 407.101562h-88.296875c-.601563 0-1-.402343-1-1v-88.300781c0-.601562.398437-1 1-1h88.296875c.601562 0 1 .398438 1 1v88.300781c0 .5-.5 1-1 1zm-87.296875-2h86.296875v-86.300781h-86.296875zm0 0"/><path d="m.0078125 141.199219h88.3007815v88.300781h-88.3007815zm0 0" fill="#b0d3f0"/><path d="m88.308594 141.199219h88.300781v88.300781h-88.300781zm0 0" fill="#90bae1"/><path d="m.0078125 229.5h88.3007815v88.300781h-88.3007815zm0 0" fill="#90bae1"/><path d="m88.308594 229.5h88.300781v88.300781h-88.300781zm0 0" fill="#b0d3f0"/><path d="m.0078125 317.800781h88.3007815v88.300781h-79.5c-4.902344 0-8.8007815-4-8.8007815-8.800781zm0 0" fill="#b0d3f0"/><path d="m88.308594 317.800781h88.300781v88.300781h-88.300781zm0 0" fill="#90bae1"/><path d="m432.609375 388.398438v4.402343c0 18.699219-30.101563 34.300781-70.601563 38.597657v-43c11.601563-10.296876 20.300782-23.5 25.199219-38.097657 7-18.902343 10.402344-38.902343 10.101563-59l1-.902343c18.300781 20.203124 34.300781 51.101562 34.300781 98zm0 0" fill="#35495e"/><path d="m361.90625 388.398438v43c-7.296875.800781-14.699219 1.203124-22.097656 1.101562-51.199219 0-92.699219-17.699219-92.699219-39.699219v-4.402343c0-54.597657 21.5-87.5 43.296875-106.796876l.800781.898438c8.402344 26.800781 20.601563 52.300781 36.300781 75.699219v.101562c8.5 13 20.398438 23.398438 34.398438 30.097657zm0 0" fill="#35495e"/><path d="m414.90625 203c.902344 28-10.199219 55.101562-30.5 74.300781h-.097656c-6.800782 6.097657-15.101563 10.398438-23.902344 12.5-3.796875 1-7.699219 1.398438-11.699219 1.398438-1.398437 0-2.898437-.097657-4.300781-.199219-15.199219-1.699219-29.097656-9.300781-38.796875-21.101562-8.402344-9.796876-14.601563-21.296876-18.203125-33.597657 8.601562-3.902343 25.300781-13.199219 25.300781-28.300781 1.300781-18.199219 13.699219-33.699219 31.199219-38.898438 10.703125 10.398438 32.5 25 70.601562 25.097657.300782 2.902343.398438 5.800781.398438 8.800781zm0 0" fill="#fdd7ad"/><path d="m414.507812 194.199219c-38.101562-.097657-59.898437-14.699219-70.601562-25.097657-17.5 5.199219-29.898438 20.699219-31.199219 38.898438 0 15.101562-16.800781 24.5-25.300781 28.300781-3.296875-10.800781-5-22.101562-4.898438-33.402343 0-48.699219 29.699219-88.296876 66.199219-88.296876 34.300781.199219 62.601563 35 65.800781 79.597657zm0 0" fill="#7f5b53"/><path d="m344.40625 291.101562-.097656.199219-16.699219 66.800781c-15.703125-23.300781-27.902344-48.800781-36.300781-75.703124l-.800782-.898438c4.699219-4.199219 9.800782-8.101562 15.101563-11.601562 9.699219 12 23.597656 19.5 38.796875 21.203124zm0 0" fill="#ecf0f1"/><path d="m398.207031 290.398438-1 .902343c.300781 20.097657-3.097656 40.097657-10.097656 59l-26.800781-60.402343c8.898437-2.199219 17.097656-6.5 23.898437-12.5h.101563c5 4 9.597656 8.300781 13.898437 13zm0 0" fill="#ecf0f1"/><path d="m387.207031 350.300781c-5 14.699219-13.699219 27.800781-25.199219 38.097657-14-6.699219-25.898437-17.097657-34.300781-30.199219v-.097657l16.699219-66.800781.101562-.199219c1.398438.097657 2.898438.199219 4.300782.199219 3.898437 0 7.800781-.5 11.699218-1.402343zm0 0" fill="#24ae5f"/><g fill="#c03a2b"><path d="m167.707031 0-52.898437 53h-53l53-53zm0 0"/><path d="m273.707031 0-53 53h-53l53-53zm0 0"/><path d="m379.609375 0-53 53h-52.902344l52.902344-53zm0 0"/><path d="m441.40625 8.800781v44.199219h-61.796875l53-53c4.796875 0 8.796875 4 8.796875 8.800781zm0 0"/><path d="m61.808594 0-53 53h-8.8007815v-44.199219c0-4.800781 3.9999995-8.800781 8.8007815-8.800781zm0 0"/></g><path d="m512.007812 467.898438v4.402343c0 18.699219-30.101562 34.300781-70.601562 38.597657v-43c11.601562-10.296876 20.300781-23.5 25.203125-38.097657 7-18.902343 10.398437-38.902343 10.097656-59l1-.902343c18.300781 20.101562 34.300781 51 34.300781 98zm0 0" fill="#35495e"/><path d="m441.40625 467.898438v43c-7.296875.800781-14.699219 1.203124-22.097656 1.101562-51.199219 0-92.699219-17.699219-92.699219-39.699219v-4.402343c0-54.597657 21.5-87.5 43.296875-106.796876l.800781.898438c8.402344 26.800781 20.601563 52.300781 36.300781 75.699219v.101562c8.5 12.898438 20.398438 23.398438 34.398438 30.097657zm0 0" fill="#2c3e50"/><path d="m494.308594 282.5c.898437 28-10.199219 55.101562-30.5 74.300781h-.101563c-6.800781 6.097657-15.097656 10.398438-23.898437 12.5-3.800782 1-7.699219 1.398438-11.699219 1.398438-1.402344 0-2.902344-.097657-4.300781-.199219-15.199219-1.699219-29.101563-9.300781-38.800782-21.101562-8.398437-9.796876-14.601562-21.296876-18.199218-33.597657 8.597656-3.902343 25.300781-13.199219 25.300781-28.300781 1.296875-18.199219 13.699219-33.699219 31.199219-38.898438 10.699218 10.398438 32.5 25 70.597656 25.097657.402344 2.902343.402344 5.800781.402344 8.800781zm0 0" fill="#fdd7ad"/><path d="m494.007812 273.699219c-38.101562-.097657-59.898437-14.699219-70.601562-25.097657-17.5 5.199219-29.898438 20.699219-31.199219 38.898438 0 15.101562-16.800781 24.5-25.300781 28.300781-3.296875-10.800781-5-22.101562-4.898438-33.402343 0-48.699219 29.699219-88.296876 66.199219-88.296876 34.300781.097657 62.5 35 65.800781 79.597657zm0 0" fill="#7f5b53"/><path d="m423.808594 370.601562-.101563.199219-16.699219 66.800781c-15.699218-23.300781-27.898437-48.800781-36.300781-75.703124l-.699219-.898438c4.699219-4.199219 9.800782-8.101562 15.101563-11.601562 9.597656 11.902343 23.5 19.5 38.699219 21.203124zm0 0" fill="#ecf0f1"/><path d="m477.707031 369.898438-1 .902343c.300781 20.097657-3.097656 40.097657-10.097656 59l-26.800781-60.402343c8.898437-2.199219 17.097656-6.5 23.898437-12.5h.101563c4.898437 3.902343 9.597656 8.300781 13.898437 13zm0 0" fill="#ecf0f1"/><path d="m466.609375 429.699219c-5 14.699219-13.703125 27.800781-25.203125 38.101562-14-6.699219-25.898438-17.101562-34.296875-30.199219v-.101562l16.699219-66.800781.097656-.199219c1.402344.101562 2.902344.199219 4.300781.199219 3.902344 0 7.800781-.5 11.699219-1.398438zm0 0" fill="#e64c3c"/></svg>