<svg xmlns="http://www.w3.org/2000/svg" height="464pt" version="1.1" viewBox="-48 0 464 464" width="464pt">
<g id="surface1">
<path d="M 16 464 L 352 464 C 360.835938 464 368 456.835938 368 448 L 368 16 C 368 7.164062 360.835938 0 352 0 L 104 0 L 104 80 C 104 88.835938 96.835938 96 88 96 L 0 96 L 0 448 C 0 456.835938 7.164062 464 16 464 Z M 120 280 C 133.253906 280 144 290.746094 144 304 L 144 176 L 272 144 L 272 272 C 272 285.253906 261.253906 296 248 296 C 234.746094 296 224 285.253906 224 272 C 224 258.746094 234.746094 248 248 248 C 261.253906 248 272 258.746094 272 272 L 272 144 L 144 176 L 144 304 C 144 317.253906 133.253906 328 120 328 C 106.746094 328 96 317.253906 96 304 C 96 290.746094 106.746094 280 120 280 Z M 120 280 " style=" stroke:none;fill-rule:nonzero;fill:rgb(100%,91.372549%,80%);fill-opacity:1;" />
<path d="M 104 80 L 104 0 L 0 96 L 88 96 C 96.835938 96 104 88.835938 104 80 Z M 104 80 " style=" stroke:none;fill-rule:nonzero;fill:rgb(100%,66.27451%,57.647059%);fill-opacity:1;" />
<path d="M 144 304 C 144 317.253906 133.253906 328 120 328 C 106.746094 328 96 317.253906 96 304 C 96 290.746094 106.746094 280 120 280 C 133.253906 280 144 290.746094 144 304 Z M 144 304 " style=" stroke:none;fill-rule:nonzero;fill:rgb(100%,91.372549%,80%);fill-opacity:1;" />
<path d="M 272 272 C 272 285.253906 261.253906 296 248 296 C 234.746094 296 224 285.253906 224 272 C 224 258.746094 234.746094 248 248 248 C 261.253906 248 272 258.746094 272 272 Z M 272 272 " style=" stroke:none;fill-rule:nonzero;fill:rgb(100%,91.372549%,80%);fill-opacity:1;" />
<path d="M 104 464 L 352 464 C 360.835938 464 368 456.835938 368 448 L 368 216.726562 C 324.300781 336.425781 226.296875 428.21875 104 464 Z M 104 464 " style=" stroke:none;fill-rule:nonzero;fill:rgb(100%,88.627451%,74.117647%);fill-opacity:1;" />
<path d="M 144 312 C 139.582031 312 136 308.417969 136 304 L 136 176 C 136 172.328125 138.5 169.128906 142.0625 168.238281 L 270.0625 136.238281 C 272.453125 135.644531 274.984375 136.179688 276.925781 137.695312 C 278.863281 139.210938 280 141.539062 280 144 L 280 272 C 280 276.417969 276.417969 280 272 280 C 267.582031 280 264 276.417969 264 272 L 264 154.246094 L 152 182.246094 L 152 304 C 152 308.417969 148.417969 312 144 312 Z M 144 312 " style=" stroke:none;fill-rule:nonzero;fill:rgb(92.941176%,10.980392%,14.117647%);fill-opacity:1;" />
<path d="M 120 336 C 102.328125 336 88 321.671875 88 304 C 88 286.328125 102.328125 272 120 272 C 137.671875 272 152 286.328125 152 304 C 152 321.671875 137.671875 336 120 336 Z M 120 288 C 111.164062 288 104 295.164062 104 304 C 104 312.835938 111.164062 320 120 320 C 128.835938 320 136 312.835938 136 304 C 136 295.164062 128.835938 288 120 288 Z M 120 288 " style=" stroke:none;fill-rule:nonzero;fill:rgb(92.941176%,10.980392%,14.117647%);fill-opacity:1;" />
<path d="M 248 304 C 230.328125 304 216 289.671875 216 272 C 216 254.328125 230.328125 240 248 240 C 265.671875 240 280 254.328125 280 272 C 280 289.671875 265.671875 304 248 304 Z M 248 256 C 239.164062 256 232 263.164062 232 272 C 232 280.835938 239.164062 288 248 288 C 256.835938 288 264 280.835938 264 272 C 264 263.164062 256.835938 256 248 256 Z M 248 256 " style=" stroke:none;fill-rule:nonzero;fill:rgb(92.941176%,10.980392%,14.117647%);fill-opacity:1;" />
</g>
</svg>