<svg height="512pt" viewBox="-26 0 512 512" width="512pt" xmlns="http://www.w3.org/2000/svg"><path d="m344.277344 52.964844h97.101562c9.738282.03125 17.625 7.917968 17.65625 17.65625v423.722656c-.03125 9.738281-7.917968 17.628906-17.65625 17.65625h-423.722656c-9.738281-.027344-17.6289062-7.917969-17.65625-17.65625v-423.722656c.0273438-9.738282 7.917969-17.625 17.65625-17.65625zm0 0" fill="#f3d55b"/><path d="m423.722656 97.101562v35.3125h-388.414062v-35.3125c0-4.875 3.953125-8.824218 8.828125-8.824218h370.761719c4.875 0 8.824218 3.949218 8.824218 8.824218zm0 0" fill="#e57e25"/><path d="m423.722656 132.414062v273.65625c0 4.875-3.949218 8.828126-8.824218 8.828126h-105.933594l-21.183594 28.246093c-3.347656 4.433594-8.574219 7.042969-14.125 7.0625h-88.277344c-5.550781-.019531-10.777344-2.628906-14.125-7.0625l-21.183594-28.246093h-105.933593c-4.875 0-8.828125-3.953126-8.828125-8.828126v-273.65625zm0 0" fill="#f29c1f"/><path d="m132.414062 0h194.207032c9.75 0 17.65625 7.90625 17.65625 17.65625v194.207031c0 9.75-7.90625 17.652344-17.65625 17.652344h-194.207032c-9.75 0-17.65625-7.902344-17.65625-17.652344v-194.207031c0-9.75 7.90625-17.65625 17.65625-17.65625zm0 0" fill="#955ba5"/><g fill="#f0c419"><path d="m231.195312 123.585938h-3.355468c-9.066406 0-16.660156-6.867188-17.566406-15.890626l-5.296876-52.964843c-.5-4.964844 1.125-9.90625 4.472657-13.609375 3.347656-3.699219 8.105469-5.8125 13.09375-5.8125h13.949219c4.988281 0 9.746093 2.113281 13.09375 5.8125 3.347656 3.703125 4.972656 8.644531 4.472656 13.609375l-5.296875 52.964843c-.90625 9.023438-8.5 15.890626-17.566407 15.890626zm0 0"/><path d="m229.515625 158.898438c9.753906 0 17.65625 7.902343 17.65625 17.652343s-7.902344 17.65625-17.65625 17.65625c-9.75 0-17.652344-7.90625-17.652344-17.65625s7.902344-17.652343 17.652344-17.652343zm0 0"/></g></svg>