<svg xmlns="http://www.w3.org/2000/svg" height="464pt" version="1.1" viewBox="-26 0 464 464" width="464pt">
<g id="surface1">
<path d="M 16 464 L 352 464 C 360.824219 463.972656 367.972656 456.824219 368 448 L 368 401.921875 L 360 388.078125 L 326.160156 329.519531 C 278.125 348.140625 223.699219 328.789062 198.203125 284.023438 C 172.707031 239.261719 183.820312 182.578125 224.335938 150.757812 C 264.851562 118.941406 322.554688 121.578125 360 156.960938 C 362.890625 159.566406 365.5625 162.402344 368 165.441406 L 368 16 C 367.972656 7.175781 360.824219 0.0273438 352 0 L 104 0 L 104 80 C 104 88.835938 96.835938 96 88 96 L 0 96 L 0 448 C 0.0273438 456.824219 7.175781 463.972656 16 464 Z M 176 160 Z M 88 160 Z M 160 208 Z M 160 256 Z M 176 304 Z M 224 352 Z M 224 352 " style=" stroke:none;fill-rule:nonzero;fill:rgb(100%,91.372549%,80%);fill-opacity:1;" />
<path d="M 104 464 L 352 464 C 360.835938 464 368 456.835938 368 448 L 368 216.726562 C 324.300781 336.425781 226.296875 428.21875 104 464 Z M 104 464 " style=" stroke:none;fill-rule:nonzero;fill:rgb(100%,88.627451%,74.117647%);fill-opacity:1;" />
<path d="M 368.527344 231.425781 C 368.527344 231.832031 368.59375 232.222656 368.59375 232.648438 C 368.59375 232.238281 368.535156 231.832031 368.527344 231.425781 Z M 368.527344 231.425781 " style=" stroke:none;fill-rule:nonzero;fill:rgb(100%,91.372549%,80%);fill-opacity:1;" />
<path d="M 368 242.230469 L 368 242.183594 C 368.386719 239.019531 368.582031 235.835938 368.585938 232.648438 C 368.585938 232.238281 368.527344 231.847656 368.519531 231.425781 C 368.496094 228.601562 368.320312 225.78125 368 222.976562 L 368 222.878906 Z M 368 242.230469 " style=" stroke:none;fill-rule:nonzero;fill:rgb(100%,91.372549%,80%);fill-opacity:1;" />
<path d="M 360 156.960938 C 322.554688 121.578125 264.851562 118.941406 224.335938 150.757812 C 183.820312 182.578125 172.707031 239.261719 198.203125 284.023438 C 223.699219 328.789062 278.125 348.140625 326.160156 329.519531 C 331.152344 327.558594 335.992188 325.234375 340.640625 322.558594 C 345.28125 319.871094 349.71875 316.851562 353.921875 313.519531 C 356 311.839844 358.078125 310 360 308.160156 C 362.828125 305.519531 365.5 302.714844 368 299.761719 C 396.390625 266.246094 400.679688 218.515625 378.71875 180.480469 C 375.65625 175.121094 372.0625 170.085938 368 165.441406 C 365.5625 162.402344 362.890625 159.566406 360 156.960938 Z M 368 222.976562 C 368.320312 225.78125 368.492188 228.601562 368.511719 231.425781 C 368.511719 231.832031 368.574219 232.222656 368.574219 232.648438 C 368.578125 235.835938 368.382812 239.019531 368 242.183594 L 368 242.320312 C 367.636719 245.109375 367.128906 247.878906 366.472656 250.617188 C 366.335938 251.191406 366.175781 251.769531 366.023438 252.34375 C 365.457031 254.550781 364.796875 256.734375 364.039062 258.894531 C 363.816406 259.527344 363.601562 260.167969 363.367188 260.800781 C 362.378906 263.441406 361.253906 266.03125 360 268.558594 C 346.765625 294.785156 320.214844 311.644531 290.847656 312.460938 C 261.484375 313.28125 234.035156 297.929688 219.359375 272.480469 C 204.839844 247.714844 204.707031 217.066406 219.003906 192.175781 C 233.300781 167.28125 259.84375 151.957031 288.550781 152.019531 C 317.257812 152.082031 343.730469 167.523438 357.921875 192.480469 C 358.640625 193.761719 359.359375 195.039062 360 196.398438 C 361.332031 199.054688 362.511719 201.78125 363.535156 204.566406 C 363.761719 205.167969 363.96875 205.777344 364.175781 206.382812 C 364.976562 208.6875 365.664062 211.007812 366.238281 213.34375 C 366.375 213.886719 366.527344 214.425781 366.648438 214.945312 C 367.234375 217.511719 367.683594 220.105469 368 222.71875 Z M 368 222.976562 " style=" stroke:none;fill-rule:nonzero;fill:rgb(100%,78.823529%,73.72549%);fill-opacity:1;" />
<path d="M 364.039062 258.894531 C 363.816406 259.527344 363.609375 260.167969 363.367188 260.800781 C 363.601562 260.167969 363.816406 259.527344 364.039062 258.894531 Z M 364.039062 258.894531 " style=" stroke:none;fill-rule:nonzero;fill:rgb(100%,91.372549%,80%);fill-opacity:1;" />
<path d="M 366.238281 213.34375 C 366.367188 213.886719 366.527344 214.425781 366.648438 214.945312 C 366.527344 214.398438 366.398438 213.886719 366.238281 213.34375 Z M 366.238281 213.34375 " style=" stroke:none;fill-rule:nonzero;fill:rgb(100%,91.372549%,80%);fill-opacity:1;" />
<path d="M 368 222.976562 C 368.316406 225.78125 368.488281 228.601562 368.511719 231.425781 C 368.492188 228.601562 368.320312 225.78125 368 222.976562 Z M 368 222.976562 " style=" stroke:none;fill-rule:nonzero;fill:rgb(100%,91.372549%,80%);fill-opacity:1;" />
<path d="M 363.535156 204.566406 C 363.761719 205.167969 363.96875 205.777344 364.175781 206.382812 C 364 205.777344 363.761719 205.167969 363.535156 204.566406 Z M 363.535156 204.566406 " style=" stroke:none;fill-rule:nonzero;fill:rgb(100%,91.372549%,80%);fill-opacity:1;" />
<path d="M 366.472656 250.617188 C 366.335938 251.191406 366.175781 251.769531 366.023438 252.34375 C 366.175781 251.769531 366.335938 251.199219 366.472656 250.617188 Z M 366.472656 250.617188 " style=" stroke:none;fill-rule:nonzero;fill:rgb(100%,91.372549%,80%);fill-opacity:1;" />
<path d="M 368.59375 232.648438 C 368.585938 235.835938 368.390625 239.019531 368 242.183594 C 368.390625 239.019531 368.585938 235.835938 368.59375 232.648438 Z M 368.59375 232.648438 " style=" stroke:none;fill-rule:nonzero;fill:rgb(100%,91.372549%,80%);fill-opacity:1;" />
<path d="M 360 196.398438 C 361.332031 199.054688 362.511719 201.78125 363.535156 204.566406 C 362.511719 201.78125 361.332031 199.054688 360 196.398438 Z M 360 196.398438 " style=" stroke:none;fill-rule:nonzero;fill:rgb(100%,91.372549%,80%);fill-opacity:1;" />
<path d="M 366.023438 252.34375 C 365.457031 254.550781 364.796875 256.734375 364.039062 258.894531 C 364.792969 256.734375 365.453125 254.550781 366.023438 252.34375 Z M 366.023438 252.34375 " style=" stroke:none;fill-rule:nonzero;fill:rgb(100%,91.372549%,80%);fill-opacity:1;" />
<path d="M 363.367188 260.800781 C 362.378906 263.441406 361.253906 266.03125 360 268.558594 C 361.253906 266.03125 362.378906 263.441406 363.367188 260.800781 Z M 363.367188 260.800781 " style=" stroke:none;fill-rule:nonzero;fill:rgb(100%,91.372549%,80%);fill-opacity:1;" />
<path d="M 366.472656 250.617188 C 367.128906 247.878906 367.636719 245.109375 368 242.320312 L 368 242.230469 C 367.640625 245.050781 367.128906 247.851562 366.472656 250.617188 Z M 366.472656 250.617188 " style=" stroke:none;fill-rule:nonzero;fill:rgb(100%,91.372549%,80%);fill-opacity:1;" />
<path d="M 368 222.878906 L 368 222.71875 C 367.683594 220.113281 367.230469 217.527344 366.648438 214.96875 C 367.234375 217.582031 367.683594 220.222656 368 222.878906 Z M 368 222.878906 " style=" stroke:none;fill-rule:nonzero;fill:rgb(100%,91.372549%,80%);fill-opacity:1;" />
<path d="M 364.175781 206.398438 C 364.976562 208.703125 365.664062 211.023438 366.238281 213.359375 C 365.664062 211.011719 364.976562 208.691406 364.175781 206.398438 Z M 364.175781 206.398438 " style=" stroke:none;fill-rule:nonzero;fill:rgb(100%,91.372549%,80%);fill-opacity:1;" />
<path d="M 368 222.878906 C 367.683594 220.222656 367.234375 217.582031 366.648438 214.96875 C 366.527344 214.425781 366.367188 213.886719 366.238281 213.367188 C 365.664062 211.03125 364.976562 208.710938 364.175781 206.40625 C 363.96875 205.800781 363.761719 205.191406 363.535156 204.59375 C 362.511719 201.796875 361.332031 199.0625 360 196.398438 C 359.359375 195.039062 358.640625 193.761719 357.921875 192.480469 C 335.828125 154.214844 286.902344 141.105469 248.636719 163.199219 C 210.375 185.289062 197.265625 234.21875 219.355469 272.480469 C 241.449219 310.742188 290.378906 323.851562 328.640625 301.761719 C 342.128906 294.015625 353.035156 282.46875 360 268.558594 C 361.253906 266.03125 362.378906 263.441406 363.367188 260.800781 C 363.609375 260.167969 363.816406 259.527344 364.039062 258.894531 C 364.792969 256.734375 365.453125 254.550781 366.023438 252.34375 C 366.175781 251.769531 366.335938 251.191406 366.472656 250.617188 C 367.128906 247.851562 367.640625 245.050781 368 242.230469 Z M 331.054688 210.039062 C 330.742188 209.375 330.367188 208.761719 330.207031 208.441406 C 316.964844 185.496094 287.636719 177.617188 264.679688 190.839844 C 287.636719 177.617188 316.964844 185.496094 330.207031 208.441406 C 330.367188 208.71875 330.742188 209.335938 331.054688 210.039062 L 331.464844 210.839844 Z M 331.054688 210.039062 " style=" stroke:none;fill-rule:nonzero;fill:rgb(79.215686%,99.215686%,100%);fill-opacity:1;" />
<path d="M 104 80 L 104 0 L 0 96 L 88 96 C 96.835938 96 104 88.835938 104 80 Z M 104 80 " style=" stroke:none;fill-rule:nonzero;fill:rgb(100%,66.27451%,57.647059%);fill-opacity:1;" />
<path d="M 326.160156 329.519531 L 360 388.078125 L 368 401.921875 L 382.800781 427.601562 C 385.65625 432.546875 390.929688 435.59375 396.640625 435.601562 C 399.449219 435.582031 402.203125 434.839844 404.640625 433.441406 C 412.277344 429.015625 414.890625 419.246094 410.480469 411.601562 L 368 337.921875 L 360 324.078125 L 353.921875 313.519531 C 349.71875 316.851562 345.28125 319.871094 340.640625 322.558594 C 335.992188 325.234375 331.152344 327.558594 326.160156 329.519531 Z M 326.160156 329.519531 " style=" stroke:none;fill-rule:nonzero;fill:rgb(100%,78.823529%,73.72549%);fill-opacity:1;" />
<path d="M 160 216 L 56 216 C 51.582031 216 48 212.417969 48 208 C 48 203.582031 51.582031 200 56 200 L 160 200 C 164.417969 200 168 203.582031 168 208 C 168 212.417969 164.417969 216 160 216 Z M 160 216 " style=" stroke:none;fill-rule:nonzero;fill:rgb(100%,47.45098%,33.72549%);fill-opacity:1;" />
<path d="M 160 264 L 56 264 C 51.582031 264 48 260.417969 48 256 C 48 251.582031 51.582031 248 56 248 L 160 248 C 164.417969 248 168 251.582031 168 256 C 168 260.417969 164.417969 264 160 264 Z M 160 264 " style=" stroke:none;fill-rule:nonzero;fill:rgb(100%,47.45098%,33.72549%);fill-opacity:1;" />
<path d="M 176 312 L 56 312 C 51.582031 312 48 308.417969 48 304 C 48 299.582031 51.582031 296 56 296 L 176 296 C 180.417969 296 184 299.582031 184 304 C 184 308.417969 180.417969 312 176 312 Z M 176 312 " style=" stroke:none;fill-rule:nonzero;fill:rgb(100%,47.45098%,33.72549%);fill-opacity:1;" />
<path d="M 224 360 L 56 360 C 51.582031 360 48 356.417969 48 352 C 48 347.582031 51.582031 344 56 344 L 224 344 C 228.417969 344 232 347.582031 232 352 C 232 356.417969 228.417969 360 224 360 Z M 224 360 " style=" stroke:none;fill-rule:nonzero;fill:rgb(100%,47.45098%,33.72549%);fill-opacity:1;" />
<path d="M 176 168 L 120 168 C 115.582031 168 112 164.417969 112 160 C 112 155.582031 115.582031 152 120 152 L 176 152 C 180.417969 152 184 155.582031 184 160 C 184 164.417969 180.417969 168 176 168 Z M 176 168 " style=" stroke:none;fill-rule:nonzero;fill:rgb(100%,47.45098%,33.72549%);fill-opacity:1;" />
<path d="M 88 168 L 56 168 C 51.582031 168 48 164.417969 48 160 C 48 155.582031 51.582031 152 56 152 L 88 152 C 92.417969 152 96 155.582031 96 160 C 96 164.417969 92.417969 168 88 168 Z M 88 168 " style=" stroke:none;fill-rule:nonzero;fill:rgb(100%,47.45098%,33.72549%);fill-opacity:1;" />
<path d="M 331.472656 218.863281 C 328.414062 218.871094 325.621094 217.136719 324.273438 214.390625 L 323.398438 212.703125 C 316.230469 200.214844 302.9375 192.503906 288.535156 192.480469 C 281.5625 192.492188 274.710938 194.332031 268.671875 197.824219 C 264.84375 200.03125 259.949219 198.71875 257.738281 194.890625 C 255.53125 191.0625 256.84375 186.167969 260.671875 183.960938 C 287.453125 168.523438 321.679688 177.707031 337.136719 204.480469 C 337.535156 205.183594 337.9375 205.886719 338.289062 206.632812 L 338.632812 207.34375 C 340.578125 211.308594 338.941406 216.101562 334.976562 218.046875 C 333.886719 218.585938 332.6875 218.863281 331.472656 218.863281 Z M 331.472656 218.863281 " style=" stroke:none;fill-rule:nonzero;fill:rgb(94.509804%,94.901961%,94.901961%);fill-opacity:1;" />
</g>
</svg>