<svg height="512pt" viewBox="0 -31 512 512" width="512pt" xmlns="http://www.w3.org/2000/svg"><path d="m326.621094 0h-291.3125c-9.738282.0273438-17.625 7.917969-17.652344 17.65625v353.101562h476.6875v-353.101562c-.027344-9.738281-7.914062-17.6289062-17.652344-17.65625zm0 0" fill="#2c3e50"/><path d="m512 379.585938v35.3125c0 19.5-15.808594 35.308593-35.308594 35.308593h-441.382812c-19.5 0-35.308594-15.808593-35.308594-35.308593v-35.3125c0-4.875 3.953125-8.828126 8.828125-8.828126h494.34375c4.875 0 8.828125 3.953126 8.828125 8.828126zm0 0" fill="#9bc8c2"/><g fill="#41767f"><path d="m315.710938 406.070312h-119.421876c-6.6875 0-12.800781-3.78125-15.792968-9.765624l-12.773438-25.546876h176.554688l-12.773438 25.546876c-2.992187 5.984374-9.105468 9.765624-15.792968 9.765624zm0 0"/><path d="m114.757812 406.070312c0 4.875-3.953124 8.828126-8.828124 8.828126h-105.929688v-17.65625h105.929688c4.875 0 8.828124 3.953124 8.828124 8.828124zm0 0"/><path d="m150.070312 414.898438h-8.828124c-4.875 0-8.828126-3.953126-8.828126-8.828126s3.953126-8.828124 8.828126-8.828124h8.828124c4.875 0 8.828126 3.953124 8.828126 8.828124s-3.953126 8.828126-8.828126 8.828126zm0 0"/><path d="m512 397.242188v17.65625h-105.929688c-4.875 0-8.828124-3.953126-8.828124-8.828126s3.953124-8.828124 8.828124-8.828124zm0 0"/><path d="m370.757812 414.898438h-8.828124c-4.875 0-8.828126-3.953126-8.828126-8.828126s3.953126-8.828124 8.828126-8.828124h8.828124c4.875 0 8.828126 3.953124 8.828126 8.828124s-3.953126 8.828126-8.828126 8.828126zm0 0"/></g><path d="m123.585938 123.585938h-52.964844c-9.75 0-17.65625-7.902344-17.65625-17.65625v-52.964844c0-9.75 7.90625-17.65625 17.65625-17.65625h17.65625c4.875 0 8.824218 3.953125 8.824218 8.828125s-3.949218 8.828125-8.824218 8.828125h-17.65625v52.964844h52.964844v-8.828126c0-4.875 3.953124-8.824218 8.828124-8.824218s8.828126 3.949218 8.828126 8.824218v8.828126c0 9.753906-7.90625 17.65625-17.65625 17.65625zm0 0" fill="#bdc3c7"/><path d="m97.101562 97.101562c-2.339843 0-4.585937-.929687-6.238281-2.585937l-8.828125-8.828125c-3.347656-3.460938-3.296875-8.96875.105469-12.371094 3.40625-3.40625 8.914063-3.453125 12.375-.109375l1.855469 1.855469 29.128906-36.433594c3.046875-3.808594 8.601562-4.429687 12.414062-1.386718 3.808594 3.046874 4.429688 8.601562 1.386719 12.414062l-35.3125 44.136719c-1.570312 1.960937-3.898437 3.164062-6.40625 3.300781zm0 0" fill="#4fba6f"/><path d="m176.550781 44.136719h264.828125c4.875 0 8.828125 3.953125 8.828125 8.828125v52.964844c0 4.875-3.953125 8.828124-8.828125 8.828124h-264.828125c-4.875 0-8.828125-3.953124-8.828125-8.828124v-52.964844c0-4.875 3.953125-8.828125 8.828125-8.828125zm0 0" fill="#894b9d"/><path d="m450.207031 158.898438v52.964843c0 4.875-3.953125 8.828125-8.828125 8.828125h-97.101562v-70.621094h97.101562c4.875 0 8.828125 3.949219 8.828125 8.828126zm0 0" fill="#cc66a1"/><path d="m344.277344 150.070312v70.621094h-167.726563c-4.875 0-8.828125-3.953125-8.828125-8.828125v-52.964843c0-4.878907 3.953125-8.828126 8.828125-8.828126zm0 0" fill="#894b9d"/><path d="m123.585938 229.515625h-52.964844c-9.75 0-17.65625-7.902344-17.65625-17.652344v-52.964843c0-9.753907 7.90625-17.65625 17.65625-17.65625h52.964844c9.75 0 17.65625 7.902343 17.65625 17.65625v52.964843c0 9.75-7.90625 17.652344-17.65625 17.652344zm-52.964844-70.617187v52.964843h52.964844v-52.964843zm0 0" fill="#bdc3c7"/><path d="m273.65625 256v70.621094h-97.105469c-4.875 0-8.828125-3.953125-8.828125-8.828125v-52.964844c0-4.875 3.953125-8.828125 8.828125-8.828125zm0 0" fill="#894b9d"/><path d="m450.207031 264.828125v52.964844c0 4.875-3.953125 8.828125-8.828125 8.828125h-167.722656v-70.621094h167.722656c4.875 0 8.828125 3.953125 8.828125 8.828125zm0 0" fill="#cc66a1"/><path d="m123.585938 335.449219h-52.964844c-9.75 0-17.65625-7.90625-17.65625-17.65625v-52.964844c0-9.75 7.90625-17.65625 17.65625-17.65625h52.964844c9.75 0 17.65625 7.90625 17.65625 17.65625v52.964844c0 9.75-7.90625 17.65625-17.65625 17.65625zm-52.964844-70.621094v52.964844h52.964844v-52.964844zm0 0" fill="#bdc3c7"/></svg>