<svg xmlns="http://www.w3.org/2000/svg" height="464pt" version="1.1" viewBox="-24 0 464 464" width="464pt">
<g id="surface1">
<path d="M 352 416 L 16 416 C 7.164062 416 0 408.835938 0 400 L 0 96 L 104 0 L 352 0 C 360.835938 0 368 7.164062 368 16 L 368 400 C 368 408.835938 360.835938 416 352 416 Z M 352 416 " style=" stroke:none;fill-rule:nonzero;fill:rgb(100%,91.372549%,80%);fill-opacity:1;" />
<path d="M 104 416 L 352 416 C 360.835938 416 368 408.835938 368 400 L 368 168.726562 C 324.300781 288.425781 226.296875 380.21875 104 416 Z M 104 416 " style=" stroke:none;fill-rule:nonzero;fill:rgb(100%,88.627451%,74.117647%);fill-opacity:1;" />
<path d="M 104 80 L 104 0 L 0 96 L 88 96 C 96.835938 96 104 88.835938 104 80 Z M 104 80 " style=" stroke:none;fill-rule:nonzero;fill:rgb(100%,91.372549%,80%);fill-opacity:1;" />
<path d="M 208 256 L 208 0 L 160 0 L 160 256 Z M 184 24 Z M 184 56 Z M 184 88 Z M 184 120 Z M 184 152 Z M 184 184 Z M 184 216 Z M 184 216 " style=" stroke:none;fill-rule:nonzero;fill:rgb(100%,91.372549%,80%);fill-opacity:1;" />
<path d="M 136.800781 314.054688 C 134.828125 318.980469 135.429688 324.5625 138.398438 328.960938 C 141.371094 333.355469 146.328125 335.992188 151.632812 336 L 216.367188 336 C 221.671875 335.992188 226.628906 333.355469 229.601562 328.960938 C 232.570312 324.5625 233.171875 318.980469 231.199219 314.054688 L 208 256 L 160 256 Z M 200 304 Z M 200 304 " style=" stroke:none;fill-rule:nonzero;fill:rgb(100%,91.372549%,80%);fill-opacity:1;" />
<path d="M 296 288 L 376 288 L 376 352 L 296 352 Z M 296 288 " style=" stroke:none;fill-rule:nonzero;fill:rgb(100%,91.372549%,80%);fill-opacity:1;" />
<path d="M 104 80 L 104 0 L 0 96 L 88 96 C 96.835938 96 104 88.835938 104 80 Z M 104 80 " style=" stroke:none;fill-rule:nonzero;fill:rgb(100%,66.27451%,57.647059%);fill-opacity:1;" />
<path d="M 376 288 L 376 352 L 296 352 L 296 288 L 256 288 L 256 464 L 280 464 L 280 384 L 392 384 L 392 464 L 416 464 L 416 320.238281 L 382.3125 288 Z M 376 288 " style=" stroke:none;fill-rule:nonzero;fill:rgb(100%,58.039216%,47.058824%);fill-opacity:1;" />
<path d="M 280 384 L 280 464 L 392 464 L 392 384 Z M 312 440 Z M 312 408 Z M 312 408 " style=" stroke:none;fill-rule:nonzero;fill:rgb(87.843137%,87.843137%,88.627451%);fill-opacity:1;" />
<path d="M 296 288 L 376 288 L 376 352 L 296 352 Z M 296 288 " style=" stroke:none;fill-rule:nonzero;fill:rgb(67.45098%,67.058824%,69.411765%);fill-opacity:1;" />
<path d="M 208 256 L 208 0 L 160 0 L 160 256 Z M 184 24 Z M 184 56 Z M 184 88 Z M 184 120 Z M 184 152 Z M 184 184 Z M 184 216 Z M 184 216 " style=" stroke:none;fill-rule:nonzero;fill:rgb(100%,89.803922%,46.666667%);fill-opacity:1;" />
<path d="M 136.800781 314.054688 C 134.828125 318.980469 135.429688 324.5625 138.398438 328.960938 C 141.371094 333.355469 146.328125 335.992188 151.632812 336 L 216.367188 336 C 221.671875 335.992188 226.628906 333.355469 229.601562 328.960938 C 232.570312 324.5625 233.171875 318.980469 231.199219 314.054688 L 208 256 L 160 256 Z M 200 304 Z M 200 304 " style=" stroke:none;fill-rule:nonzero;fill:rgb(79.215686%,99.215686%,100%);fill-opacity:1;" />
<path d="M 176 24 L 192 24 L 192 40 L 176 40 Z M 176 24 " style=" stroke:none;fill-rule:nonzero;fill:rgb(100%,47.45098%,33.72549%);fill-opacity:1;" />
<path d="M 176 56 L 192 56 L 192 72 L 176 72 Z M 176 56 " style=" stroke:none;fill-rule:nonzero;fill:rgb(100%,47.45098%,33.72549%);fill-opacity:1;" />
<path d="M 176 88 L 192 88 L 192 104 L 176 104 Z M 176 88 " style=" stroke:none;fill-rule:nonzero;fill:rgb(100%,47.45098%,33.72549%);fill-opacity:1;" />
<path d="M 176 120 L 192 120 L 192 136 L 176 136 Z M 176 120 " style=" stroke:none;fill-rule:nonzero;fill:rgb(100%,47.45098%,33.72549%);fill-opacity:1;" />
<path d="M 176 152 L 192 152 L 192 168 L 176 168 Z M 176 152 " style=" stroke:none;fill-rule:nonzero;fill:rgb(100%,47.45098%,33.72549%);fill-opacity:1;" />
<path d="M 176 184 L 192 184 L 192 200 L 176 200 Z M 176 184 " style=" stroke:none;fill-rule:nonzero;fill:rgb(100%,47.45098%,33.72549%);fill-opacity:1;" />
<path d="M 176 216 L 192 216 L 192 232 L 176 232 Z M 176 216 " style=" stroke:none;fill-rule:nonzero;fill:rgb(100%,47.45098%,33.72549%);fill-opacity:1;" />
<path d="M 200 312 L 168 312 C 163.582031 312 160 308.417969 160 304 C 160 299.582031 163.582031 296 168 296 L 200 296 C 204.417969 296 208 299.582031 208 304 C 208 308.417969 204.417969 312 200 312 Z M 200 312 " style=" stroke:none;fill-rule:nonzero;fill:rgb(100%,47.45098%,33.72549%);fill-opacity:1;" />
<path d="M 360 416 L 312 416 C 307.582031 416 304 412.417969 304 408 C 304 403.582031 307.582031 400 312 400 L 360 400 C 364.417969 400 368 403.582031 368 408 C 368 412.417969 364.417969 416 360 416 Z M 360 416 " style=" stroke:none;fill-rule:nonzero;fill:rgb(100%,18.823529%,31.764706%);fill-opacity:1;" />
<path d="M 360 448 L 312 448 C 307.582031 448 304 444.417969 304 440 C 304 435.582031 307.582031 432 312 432 L 360 432 C 364.417969 432 368 435.582031 368 440 C 368 444.417969 364.417969 448 360 448 Z M 360 448 " style=" stroke:none;fill-rule:nonzero;fill:rgb(100%,18.823529%,31.764706%);fill-opacity:1;" />
</g>
</svg>