<svg height="512pt" viewBox="0 0 512 512" width="512pt" xmlns="http://www.w3.org/2000/svg"><path d="m450.207031 0h26.484375c19.5 0 35.308594 15.808594 35.308594 35.308594v370.761718c0 19.5-15.808594 35.308594-35.308594 35.308594h-441.382812c-19.5 0-35.308594-15.808594-35.308594-35.308594v-370.761718c0-19.5 15.808594-35.308594 35.308594-35.308594zm0 0" fill="#35495e"/><path d="m123.585938 114.757812h-52.964844c-9.75 0-17.65625-7.902343-17.65625-17.65625v-52.964843c0-9.75 7.90625-17.652344 17.65625-17.652344h17.65625c4.875 0 8.824218 3.949219 8.824218 8.824219 0 4.878906-3.949218 8.828125-8.824218 8.828125h-17.65625v52.964843h52.964844v-8.824218c0-4.875 3.953124-8.828125 8.828124-8.828125s8.828126 3.953125 8.828126 8.828125v8.824218c0 9.753907-7.90625 17.65625-17.65625 17.65625zm0 0" fill="#bdc3c7"/><path d="m97.101562 88.277344c-2.339843-.003906-4.585937-.933594-6.238281-2.589844l-8.828125-8.824219c-3.347656-3.464843-3.296875-8.972656.105469-12.375 3.40625-3.40625 8.914063-3.453125 12.375-.109375l1.855469 1.855469 29.128906-36.433594c3.046875-3.808593 8.601562-4.429687 12.414062-1.386719 3.808594 3.046876 4.429688 8.601563 1.386719 12.414063l-35.3125 44.136719c-1.570312 1.964844-3.898437 3.164062-6.40625 3.300781zm0 0" fill="#4fba6f"/><path d="m176.550781 35.308594h264.828125c4.875 0 8.828125 3.953125 8.828125 8.828125v52.964843c0 4.878907-3.953125 8.828126-8.828125 8.828126h-264.828125c-4.875 0-8.828125-3.949219-8.828125-8.828126v-52.964843c0-4.875 3.953125-8.828125 8.828125-8.828125zm0 0" fill="#894b9d"/><path d="m123.585938 326.621094h-52.964844c-9.75 0-17.65625-7.90625-17.65625-17.65625v-52.964844c0-9.75 7.90625-17.65625 17.65625-17.65625h17.65625c4.875 0 8.824218 3.953125 8.824218 8.828125s-3.949218 8.828125-8.824218 8.828125h-17.65625v52.964844h52.964844v-8.828125c0-4.875 3.953124-8.828125 8.828124-8.828125s8.828126 3.953125 8.828126 8.828125v8.828125c0 9.75-7.90625 17.65625-17.65625 17.65625zm0 0" fill="#bdc3c7"/><path d="m97.101562 300.136719c-2.339843 0-4.585937-.929688-6.238281-2.585938l-8.828125-8.828125c-3.347656-3.460937-3.296875-8.96875.105469-12.375 3.40625-3.402344 8.914063-3.453125 12.375-.105468l1.855469 1.851562 29.128906-36.429688c3.046875-3.808593 8.601562-4.429687 12.414062-1.386718 3.808594 3.046875 4.429688 8.601562 1.386719 12.414062l-35.3125 44.136719c-1.570312 1.960937-3.898437 3.164063-6.40625 3.300781zm0 0" fill="#4fba6f"/><path d="m176.550781 247.171875h264.828125c4.875 0 8.828125 3.953125 8.828125 8.828125v52.964844c0 4.875-3.953125 8.828125-8.828125 8.828125h-264.828125c-4.875 0-8.828125-3.953125-8.828125-8.828125v-52.964844c0-4.875 3.953125-8.828125 8.828125-8.828125zm0 0" fill="#894b9d"/><path d="m450.207031 150.070312v52.964844c0 4.875-3.953125 8.828125-8.828125 8.828125h-97.101562v-70.621093h97.101562c4.875 0 8.828125 3.953124 8.828125 8.828124zm0 0" fill="#cc66a1"/><path d="m344.277344 141.242188v70.621093h-167.726563c-4.875 0-8.828125-3.953125-8.828125-8.828125v-52.964844c0-4.875 3.953125-8.828124 8.828125-8.828124zm0 0" fill="#894b9d"/><path d="m123.585938 220.691406h-52.964844c-9.75 0-17.65625-7.90625-17.65625-17.65625v-52.964844c0-9.753906 7.90625-17.65625 17.65625-17.65625h52.964844c9.75 0 17.65625 7.902344 17.65625 17.65625v52.964844c0 9.75-7.90625 17.65625-17.65625 17.65625zm-52.964844-70.621094v52.964844h52.964844v-52.964844zm0 0" fill="#bdc3c7"/><path d="m185.378906 441.378906h141.242188v35.3125h-141.242188zm0 0" fill="#41767f"/><g fill="#9bc8c2"><path d="m141.242188 476.691406h229.515624c14.625 0 26.484376 11.855469 26.484376 26.480469v8.828125h-282.484376v-8.828125c0-14.625 11.859376-26.480469 26.484376-26.480469zm0 0"/><path d="m512 353.101562v52.96875c0 19.5-15.808594 35.308594-35.308594 35.308594h-441.382812c-19.5 0-35.308594-15.808594-35.308594-35.308594v-52.96875zm0 0"/></g></svg>