<svg height="508pt" viewBox="-34 0 508 508.55759" width="508pt" xmlns="http://www.w3.org/2000/svg"><path d="m435.03125 65.75-39.523438-38.800781v467.085937h35.929688c4.90625.039063 8.921875-3.894531 8.980469-8.804687v-406.632813c.003906-4.832031-1.9375-9.464844-5.386719-12.847656zm0 0" fill="#7d6599"/><path d="m440.417969 440.140625v45.089844c-.058594 4.910156-4.074219 8.84375-8.980469 8.804687h-44.914062l8.984374-98.808594zm0 0" fill="#3d324c"/><path d="m440.417969 350.316406v89.824219l-44.910157-44.914063v-89.824218zm0 0" fill="#b49aca"/><path d="m440.417969 251.507812v98.808594l-44.910157-44.914062v-98.804688zm0 0" fill="#3d324c"/><path d="m440.417969 161.683594v89.824218l-44.910157-44.910156v-89.824218zm0 0" fill="#b49aca"/><path d="m440.417969 78.597656v83.085938l-44.910157-44.910156v-89.824219l39.523438 38.800781c3.449219 3.382812 5.390625 8.015625 5.386719 12.847656zm0 0" fill="#3d324c"/><path d="m263.734375 503.015625h113.808594c9.910156-.027344 17.933593-8.054687 17.964843-17.964844v-467.085937c-.03125-9.910156-8.054687-17.933594-17.964843-17.964844h-323.371094c-9.90625.03125-17.933594 8.054688-17.964844 17.964844v467.085937c.03125 9.910157 8.058594 17.9375 17.964844 17.964844zm0 0" fill="#7f5b53"/><path d="m251.789062 71.859375h-107.789062c-9.910156.03125-17.9375 8.054687-17.96875 17.964844v62.878906c.03125 9.90625 8.058594 17.933594 17.96875 17.964844h251.507812v-98.808594zm0 0" fill="#e4c05c"/><g fill="#9bc8c2"><path d="m63.15625 71.859375h-53.894531c-4.960938 0-8.984375-4.019531-8.984375-8.980469 0-4.960937 4.023437-8.984375 8.984375-8.984375h53.894531c4.960938 0 8.980469 4.023438 8.980469 8.984375 0 4.960938-4.019531 8.980469-8.980469 8.980469zm0 0"/><path d="m63.15625 125.753906h-53.894531c-4.960938 0-8.984375-4.019531-8.984375-8.980468 0-4.960938 4.023437-8.984376 8.984375-8.984376h53.894531c4.960938 0 8.980469 4.023438 8.980469 8.984376 0 4.960937-4.019531 8.980468-8.980469 8.980468zm0 0"/><path d="m63.15625 179.648438h-53.894531c-4.960938 0-8.984375-4.019532-8.984375-8.980469 0-4.960938 4.023437-8.984375 8.984375-8.984375h53.894531c4.960938 0 8.980469 4.023437 8.980469 8.984375 0 4.960937-4.019531 8.980469-8.980469 8.980469zm0 0"/><path d="m63.15625 233.542969h-53.894531c-4.960938 0-8.984375-4.019531-8.984375-8.980469s4.023437-8.984375 8.984375-8.984375h53.894531c4.960938 0 8.980469 4.023437 8.980469 8.984375s-4.019531 8.980469-8.980469 8.980469zm0 0"/><path d="m63.15625 287.4375h-53.894531c-4.960938 0-8.984375-4.019531-8.984375-8.980469 0-4.960937 4.023437-8.984375 8.984375-8.984375h53.894531c4.960938 0 8.980469 4.023438 8.980469 8.984375 0 4.960938-4.019531 8.980469-8.980469 8.980469zm0 0"/><path d="m63.15625 341.332031h-53.894531c-4.960938 0-8.984375-4.019531-8.984375-8.980469 0-4.960937 4.023437-8.984374 8.984375-8.984374h53.894531c4.960938 0 8.980469 4.023437 8.980469 8.984374 0 4.960938-4.019531 8.980469-8.980469 8.980469zm0 0"/><path d="m63.15625 395.226562h-53.894531c-4.960938 0-8.984375-4.019531-8.984375-8.980468 0-4.960938 4.023437-8.984375 8.984375-8.984375h53.894531c4.960938 0 8.980469 4.023437 8.980469 8.984375 0 4.960937-4.019531 8.980468-8.980469 8.980468zm0 0"/><path d="m63.15625 449.121094h-53.894531c-4.960938 0-8.984375-4.019532-8.984375-8.980469s4.023437-8.984375 8.984375-8.984375h53.894531c4.960938 0 8.980469 4.023438 8.980469 8.984375s-4.019531 8.980469-8.980469 8.980469zm0 0"/></g><path d="m315.257812 506.296875-27.539062-48.191406-27.542969 48.191406c-1.007812 1.765625-3.082031 2.632813-5.050781 2.109375-1.964844-.523438-3.335938-2.300781-3.335938-4.335938v-504.070312h71.859376v504.070312c-.003907 2.035157-1.371094 3.8125-3.339844 4.335938s-4.039063-.34375-5.050782-2.109375zm0 0" fill="#ff5364"/></svg>