<svg xmlns="http://www.w3.org/2000/svg" height="512pt" version="1.1" viewBox="-26 0 512 512.00002" width="512pt">
<g id="surface1">
<path d="M 88.277344 344.277344 L 88.277344 185.378906 C 88.304688 175.640625 96.191406 167.753906 105.929688 167.722656 L 406.070312 167.722656 L 406.070312 17.65625 C 406.039062 7.917969 398.152344 0.0273438 388.414062 0 L 114.757812 0 L 114.757812 88.277344 C 114.757812 98.027344 106.855469 105.929688 97.105469 105.929688 L 0 105.929688 L 0 494.34375 C 0.0273438 504.082031 7.917969 511.96875 17.65625 512 L 388.414062 512 C 398.152344 511.96875 406.039062 504.082031 406.070312 494.34375 L 406.070312 361.929688 L 105.929688 361.929688 C 96.191406 361.902344 88.304688 354.015625 88.277344 344.277344 Z M 88.277344 344.277344 " style=" stroke:none;fill-rule:nonzero;fill:rgb(100%,91.372549%,80%);fill-opacity:1;" />
<path d="M 114.757812 512 L 388.414062 512 C 398.164062 512 406.070312 504.09375 406.070312 494.34375 L 406.070312 239.148438 C 357.847656 371.226562 249.707031 472.515625 114.757812 512 Z M 114.757812 512 " style=" stroke:none;fill-rule:nonzero;fill:rgb(100%,88.627451%,74.117647%);fill-opacity:1;" />
<path d="M 441.378906 167.722656 L 105.929688 167.722656 C 96.191406 167.753906 88.304688 175.640625 88.277344 185.378906 L 88.277344 344.273438 C 88.304688 354.015625 96.191406 361.902344 105.929688 361.929688 L 441.378906 361.929688 C 451.117188 361.902344 459.007812 354.015625 459.035156 344.273438 L 459.035156 185.378906 C 459.003906 175.640625 451.117188 167.753906 441.378906 167.722656 Z M 176.550781 211.863281 Z M 282.484375 211.863281 Z M 353.105469 211.863281 L 353.105469 264.828125 Z M 353.105469 211.863281 " style=" stroke:none;fill-rule:nonzero;fill:rgb(79.215686%,99.215686%,100%);fill-opacity:1;" />
<path d="M 114.757812 88.277344 L 114.757812 0 L 0 105.929688 L 97.105469 105.929688 C 106.855469 105.929688 114.757812 98.027344 114.757812 88.277344 Z M 114.757812 88.277344 " style=" stroke:none;fill-rule:nonzero;fill:rgb(100%,66.27451%,57.647059%);fill-opacity:1;" />
<path d="M 176.550781 326.621094 C 171.675781 326.621094 167.726562 322.667969 167.726562 317.792969 L 167.726562 211.863281 C 167.726562 206.988281 171.675781 203.035156 176.550781 203.035156 C 181.425781 203.035156 185.378906 206.988281 185.378906 211.863281 L 185.378906 317.792969 C 185.378906 322.667969 181.425781 326.621094 176.550781 326.621094 Z M 176.550781 326.621094 " style=" stroke:none;fill-rule:nonzero;fill:rgb(92.941176%,10.980392%,14.117647%);fill-opacity:1;" />
<path d="M 211.863281 220.691406 L 141.242188 220.691406 C 136.367188 220.691406 132.414062 216.738281 132.414062 211.863281 C 132.414062 206.988281 136.367188 203.035156 141.242188 203.035156 L 211.863281 203.035156 C 216.738281 203.035156 220.691406 206.988281 220.691406 211.863281 C 220.691406 216.738281 216.738281 220.691406 211.863281 220.691406 Z M 211.863281 220.691406 " style=" stroke:none;fill-rule:nonzero;fill:rgb(92.941176%,10.980392%,14.117647%);fill-opacity:1;" />
<path d="M 282.484375 326.621094 C 277.609375 326.621094 273.65625 322.667969 273.65625 317.792969 L 273.65625 211.863281 C 273.65625 206.988281 277.609375 203.035156 282.484375 203.035156 C 287.359375 203.035156 291.308594 206.988281 291.308594 211.863281 L 291.308594 317.792969 C 291.308594 322.667969 287.359375 326.621094 282.484375 326.621094 Z M 282.484375 326.621094 " style=" stroke:none;fill-rule:nonzero;fill:rgb(92.941176%,10.980392%,14.117647%);fill-opacity:1;" />
<path d="M 317.792969 220.691406 L 247.171875 220.691406 C 242.296875 220.691406 238.34375 216.738281 238.34375 211.863281 C 238.34375 206.988281 242.296875 203.035156 247.171875 203.035156 L 317.792969 203.035156 C 322.667969 203.035156 326.621094 206.988281 326.621094 211.863281 C 326.621094 216.738281 322.667969 220.691406 317.792969 220.691406 Z M 317.792969 220.691406 " style=" stroke:none;fill-rule:nonzero;fill:rgb(92.941176%,10.980392%,14.117647%);fill-opacity:1;" />
<path d="M 353.105469 326.621094 C 348.226562 326.621094 344.277344 322.667969 344.277344 317.792969 L 344.277344 211.863281 C 344.277344 206.988281 348.226562 203.035156 353.105469 203.035156 C 357.980469 203.035156 361.929688 206.988281 361.929688 211.863281 L 361.929688 317.792969 C 361.929688 322.667969 357.980469 326.621094 353.105469 326.621094 Z M 353.105469 326.621094 " style=" stroke:none;fill-rule:nonzero;fill:rgb(92.941176%,10.980392%,14.117647%);fill-opacity:1;" />
<path d="M 406.070312 220.691406 L 353.105469 220.691406 C 348.226562 220.691406 344.277344 216.738281 344.277344 211.863281 C 344.277344 206.988281 348.226562 203.035156 353.105469 203.035156 L 406.070312 203.035156 C 410.945312 203.035156 414.898438 206.988281 414.898438 211.863281 C 414.898438 216.738281 410.945312 220.691406 406.070312 220.691406 Z M 406.070312 220.691406 " style=" stroke:none;fill-rule:nonzero;fill:rgb(92.941176%,10.980392%,14.117647%);fill-opacity:1;" />
<path d="M 388.414062 273.65625 L 353.105469 273.65625 C 348.230469 273.65625 344.277344 269.703125 344.277344 264.828125 C 344.277344 259.953125 348.230469 256 353.105469 256 L 388.414062 256 C 393.289062 256 397.242188 259.953125 397.242188 264.828125 C 397.242188 269.703125 393.289062 273.65625 388.414062 273.65625 Z M 388.414062 273.65625 " style=" stroke:none;fill-rule:nonzero;fill:rgb(92.941176%,10.980392%,14.117647%);fill-opacity:1;" />
</g>
</svg>