<svg xmlns="http://www.w3.org/2000/svg" height="512pt" version="1.1" viewBox="-26 0 512 512.00002" width="512pt">
<g id="surface1">
<path d="M 88.277344 344.277344 L 88.277344 185.378906 C 88.304688 175.640625 96.191406 167.753906 105.929688 167.722656 L 406.070312 167.722656 L 406.070312 17.65625 C 406.039062 7.917969 398.152344 0.0273438 388.414062 0 L 114.757812 0 L 114.757812 88.277344 C 114.757812 98.027344 106.855469 105.929688 97.105469 105.929688 L 0 105.929688 L 0 494.34375 C 0.0273438 504.082031 7.917969 511.96875 17.65625 512 L 388.414062 512 C 398.152344 511.96875 406.039062 504.082031 406.070312 494.34375 L 406.070312 361.929688 L 105.929688 361.929688 C 96.191406 361.902344 88.304688 354.015625 88.277344 344.277344 Z M 88.277344 344.277344 " style=" stroke:none;fill-rule:nonzero;fill:rgb(100%,91.372549%,80%);fill-opacity:1;" />
<path d="M 114.757812 512 L 388.414062 512 C 398.164062 512 406.070312 504.09375 406.070312 494.34375 L 406.070312 239.148438 C 357.847656 371.226562 249.707031 472.515625 114.757812 512 Z M 114.757812 512 " style=" stroke:none;fill-rule:nonzero;fill:rgb(100%,88.627451%,74.117647%);fill-opacity:1;" />
<path d="M 441.378906 167.722656 L 105.929688 167.722656 C 96.191406 167.753906 88.304688 175.640625 88.277344 185.378906 L 88.277344 344.273438 C 88.304688 354.015625 96.191406 361.902344 105.929688 361.929688 L 441.378906 361.929688 C 451.117188 361.902344 459.007812 354.015625 459.035156 344.273438 L 459.035156 185.378906 C 459.003906 175.640625 451.117188 167.753906 441.378906 167.722656 Z M 194.207031 317.792969 L 167.726562 247.171875 L 141.242188 317.792969 L 132.414062 211.863281 L 141.242188 317.792969 L 167.726562 247.171875 L 194.207031 317.792969 L 203.035156 211.863281 Z M 282.484375 300.136719 C 282.484375 309.886719 274.578125 317.792969 264.828125 317.792969 L 247.171875 317.792969 C 237.421875 317.792969 229.519531 309.886719 229.519531 300.136719 L 229.519531 229.515625 C 229.519531 219.765625 237.421875 211.863281 247.171875 211.863281 L 264.828125 211.863281 C 274.578125 211.863281 282.484375 219.765625 282.484375 229.515625 Z M 344.277344 264.828125 L 308.964844 264.828125 L 308.964844 211.863281 L 308.964844 264.828125 Z M 414.898438 264.828125 L 379.585938 264.828125 L 379.585938 211.863281 L 379.585938 264.828125 Z M 414.898438 264.828125 " style=" stroke:none;fill-rule:nonzero;fill:rgb(79.215686%,99.215686%,100%);fill-opacity:1;" />
<path d="M 114.757812 88.277344 L 114.757812 0 L 0 105.929688 L 97.105469 105.929688 C 106.855469 105.929688 114.757812 98.027344 114.757812 88.277344 Z M 114.757812 88.277344 " style=" stroke:none;fill-rule:nonzero;fill:rgb(100%,66.27451%,57.647059%);fill-opacity:1;" />
<path d="M 247.171875 211.863281 L 264.828125 211.863281 C 274.578125 211.863281 282.484375 219.765625 282.484375 229.515625 L 282.484375 300.136719 C 282.484375 309.886719 274.578125 317.792969 264.828125 317.792969 L 247.171875 317.792969 C 237.421875 317.792969 229.519531 309.886719 229.519531 300.136719 L 229.519531 229.515625 C 229.515625 219.765625 237.421875 211.863281 247.171875 211.863281 Z M 247.171875 211.863281 " style=" stroke:none;fill-rule:nonzero;fill:rgb(79.215686%,99.215686%,100%);fill-opacity:1;" />
<path d="M 379.585938 326.621094 C 374.710938 326.621094 370.757812 322.667969 370.757812 317.792969 L 370.757812 211.863281 C 370.757812 206.988281 374.710938 203.035156 379.585938 203.035156 C 384.460938 203.035156 388.414062 206.988281 388.414062 211.863281 L 388.414062 317.792969 C 388.414062 322.667969 384.460938 326.621094 379.585938 326.621094 Z M 379.585938 326.621094 " style=" stroke:none;fill-rule:nonzero;fill:rgb(92.941176%,10.980392%,14.117647%);fill-opacity:1;" />
<path d="M 423.722656 220.691406 L 379.585938 220.691406 C 374.710938 220.691406 370.757812 216.738281 370.757812 211.863281 C 370.757812 206.988281 374.710938 203.035156 379.585938 203.035156 L 423.722656 203.035156 C 428.597656 203.035156 432.550781 206.988281 432.550781 211.863281 C 432.550781 216.738281 428.597656 220.691406 423.722656 220.691406 Z M 423.722656 220.691406 " style=" stroke:none;fill-rule:nonzero;fill:rgb(92.941176%,10.980392%,14.117647%);fill-opacity:1;" />
<path d="M 414.898438 273.65625 L 379.585938 273.65625 C 374.710938 273.65625 370.757812 269.703125 370.757812 264.828125 C 370.757812 259.953125 374.710938 256 379.585938 256 L 414.898438 256 C 419.773438 256 423.722656 259.953125 423.722656 264.828125 C 423.722656 269.703125 419.773438 273.65625 414.898438 273.65625 Z M 414.898438 273.65625 " style=" stroke:none;fill-rule:nonzero;fill:rgb(92.941176%,10.980392%,14.117647%);fill-opacity:1;" />
<path d="M 308.964844 326.621094 C 304.089844 326.621094 300.140625 322.667969 300.140625 317.792969 L 300.140625 211.863281 C 300.140625 206.988281 304.089844 203.035156 308.964844 203.035156 C 313.839844 203.035156 317.792969 206.988281 317.792969 211.863281 L 317.792969 317.792969 C 317.792969 322.667969 313.839844 326.621094 308.964844 326.621094 Z M 308.964844 326.621094 " style=" stroke:none;fill-rule:nonzero;fill:rgb(92.941176%,10.980392%,14.117647%);fill-opacity:1;" />
<path d="M 353.105469 220.691406 L 308.964844 220.691406 C 304.089844 220.691406 300.136719 216.738281 300.136719 211.863281 C 300.136719 206.988281 304.089844 203.035156 308.964844 203.035156 L 353.105469 203.035156 C 357.980469 203.035156 361.929688 206.988281 361.929688 211.863281 C 361.929688 216.738281 357.980469 220.691406 353.105469 220.691406 Z M 353.105469 220.691406 " style=" stroke:none;fill-rule:nonzero;fill:rgb(92.941176%,10.980392%,14.117647%);fill-opacity:1;" />
<path d="M 344.277344 273.65625 L 308.964844 273.65625 C 304.089844 273.65625 300.140625 269.703125 300.140625 264.828125 C 300.140625 259.953125 304.089844 256 308.964844 256 L 344.277344 256 C 349.152344 256 353.105469 259.953125 353.105469 264.828125 C 353.105469 269.703125 349.152344 273.65625 344.277344 273.65625 Z M 344.277344 273.65625 " style=" stroke:none;fill-rule:nonzero;fill:rgb(92.941176%,10.980392%,14.117647%);fill-opacity:1;" />
<path d="M 264.828125 326.621094 L 247.171875 326.621094 C 232.546875 326.621094 220.691406 314.761719 220.691406 300.136719 L 220.691406 229.515625 C 220.691406 214.890625 232.546875 203.035156 247.171875 203.035156 L 264.828125 203.035156 C 279.453125 203.035156 291.308594 214.890625 291.308594 229.515625 L 291.308594 300.136719 C 291.308594 314.765625 279.453125 326.621094 264.828125 326.621094 Z M 247.171875 220.691406 C 242.296875 220.691406 238.34375 224.640625 238.34375 229.515625 L 238.34375 300.136719 C 238.34375 305.011719 242.296875 308.964844 247.171875 308.964844 L 264.828125 308.964844 C 269.703125 308.964844 273.65625 305.011719 273.65625 300.136719 L 273.65625 229.515625 C 273.65625 224.640625 269.703125 220.691406 264.828125 220.691406 Z M 247.171875 220.691406 " style=" stroke:none;fill-rule:nonzero;fill:rgb(92.941176%,10.980392%,14.117647%);fill-opacity:1;" />
<path d="M 194.207031 326.621094 C 190.523438 326.621094 187.226562 324.339844 185.933594 320.890625 L 167.722656 272.3125 L 149.511719 320.863281 C 147.847656 325.449219 142.785156 327.8125 138.203125 326.148438 C 134.941406 324.964844 132.679688 321.984375 132.414062 318.527344 L 123.585938 212.59375 C 123.179688 207.71875 126.804688 203.4375 131.679688 203.035156 C 136.554688 202.628906 140.835938 206.253906 141.242188 211.128906 L 146.800781 277.894531 L 159.480469 244.074219 C 161.179688 239.507812 166.265625 237.183594 170.832031 238.886719 C 173.234375 239.78125 175.125 241.675781 176.019531 244.074219 L 188.699219 277.894531 L 194.207031 211.128906 C 194.609375 206.253906 198.890625 202.628906 203.765625 203.035156 C 208.640625 203.4375 212.265625 207.71875 211.863281 212.59375 L 203.035156 318.527344 C 202.691406 322.644531 199.539062 325.976562 195.441406 326.539062 C 195.03125 326.59375 194.621094 326.621094 194.207031 326.621094 Z M 194.207031 326.621094 " style=" stroke:none;fill-rule:nonzero;fill:rgb(92.941176%,10.980392%,14.117647%);fill-opacity:1;" />
</g>
</svg>