<svg height="512pt" viewBox="0 0 512 512" width="512pt" xmlns="http://www.w3.org/2000/svg"><path d="m494.34375 512h-476.6875c-9.75 0-17.65625-7.90625-17.65625-17.65625v-88.273438h512v88.273438c0 9.75-7.90625 17.65625-17.65625 17.65625zm0 0" fill="#894b9d"/><path d="m0 441.378906h512v35.3125h-512zm0 0" fill="#3d324c"/><path d="m0 406.070312 93.574219-340.128906c2.046875-7.671875 9.007812-13 16.945312-12.976562h290.960938c7.9375-.023438 14.898437 5.304687 16.945312 12.976562l93.574219 340.128906zm0 0" fill="#955ba5"/><g fill="#bdc3c7"><path d="m150.070312 0c9.75 0 17.652344 7.90625 17.652344 17.65625v44.136719c0 9.75-7.902344 17.65625-17.652344 17.65625-9.753906 0-17.65625-7.90625-17.65625-17.65625v-44.136719c0-9.75 7.902344-17.65625 17.65625-17.65625zm0 0"/><path d="m361.929688 0c9.753906 0 17.65625 7.90625 17.65625 17.65625v44.136719c0 9.75-7.902344 17.65625-17.65625 17.65625-9.75 0-17.652344-7.90625-17.652344-17.65625v-44.136719c0-9.75 7.902344-17.65625 17.652344-17.65625zm0 0"/><path d="m256 0c9.75 0 17.65625 7.90625 17.65625 17.65625v44.136719c0 9.75-7.90625 17.65625-17.65625 17.65625s-17.65625-7.90625-17.65625-17.65625v-44.136719c0-9.75 7.90625-17.65625 17.65625-17.65625zm0 0"/></g><path d="m256 114.757812h125.519531c4.050781 0 7.578125 2.753907 8.5625 6.683594l57.378907 229.515625c.660156 2.640625.070312 5.433594-1.601563 7.578125-1.675781 2.144532-4.242187 3.394532-6.960937 3.394532h-365.796876c-2.71875 0-5.285156-1.25-6.960937-3.394532-1.671875-2.144531-2.261719-4.9375-1.601563-7.578125l57.378907-229.515625c.984375-3.929687 4.511719-6.683594 8.5625-6.683594zm0 0" fill="#f0c419"/><path d="m256 256h11.527344c8.632812 0 16-6.238281 17.417968-14.75l11.765626-70.621094c.855468-5.121094-.585938-10.355468-3.941407-14.316406s-8.28125-6.246094-13.472656-6.242188h-46.59375c-5.191406-.003906-10.117187 2.28125-13.472656 6.242188s-4.796875 9.195312-3.941407 14.316406l11.765626 70.621094c1.417968 8.511719 8.785156 14.75 17.417968 14.75zm0 0" fill="#d25627"/><path d="m247.171875 291.308594h17.65625c9.75 0 17.65625 7.90625 17.65625 17.65625s-7.90625 17.65625-17.65625 17.65625h-17.65625c-9.75 0-17.65625-7.90625-17.65625-17.65625s7.90625-17.65625 17.65625-17.65625zm0 0" fill="#d25627"/></svg>