<svg height="512pt" viewBox="0 0 512 512" width="512pt" xmlns="http://www.w3.org/2000/svg"><path d="m441.113281 198.269531c.179688 1.582031.269531 3.171875.265625 4.765625v256c0 29.25-23.714844 52.964844-52.964844 52.964844h-335.449218c-29.25 0-52.964844-23.714844-52.964844-52.964844v-256c0-29.253906 23.714844-52.964844 52.964844-52.964844h268.359375zm0 0" fill="#b49aca"/><path d="m374.730469 196.589844-118.730469 130.03125 80.597656-155.542969zm0 0" fill="#ecf0f1"/><g fill="#3d324c"><path d="m70.621094 211.863281h-17.65625c-4.875 0-8.828125-3.953125-8.828125-8.828125s3.953125-8.828125 8.828125-8.828125h17.65625c4.875 0 8.828125 3.953125 8.828125 8.828125s-3.953125 8.828125-8.828125 8.828125zm0 0"/><path d="m247.171875 211.863281h-141.242187c-4.875 0-8.828126-3.953125-8.828126-8.828125s3.953126-8.828125 8.828126-8.828125h141.242187c4.875 0 8.828125 3.953125 8.828125 8.828125s-3.953125 8.828125-8.828125 8.828125zm0 0"/><path d="m70.621094 432.550781h-17.65625c-4.875 0-8.828125-3.953125-8.828125-8.828125s3.953125-8.824218 8.828125-8.824218h17.65625c4.875 0 8.828125 3.949218 8.828125 8.824218s-3.953125 8.828125-8.828125 8.828125zm0 0"/><path d="m247.171875 432.550781h-141.242187c-4.875 0-8.828126-3.953125-8.828126-8.828125s3.953126-8.824218 8.828126-8.824218h141.242187c4.875 0 8.828125 3.949218 8.828125 8.824218s-3.953125 8.828125-8.828125 8.828125zm0 0"/><path d="m70.621094 300.136719h-17.65625c-4.875 0-8.828125-3.949219-8.828125-8.828125 0-4.875 3.953125-8.824219 8.828125-8.824219h17.65625c4.875 0 8.828125 3.949219 8.828125 8.824219 0 4.878906-3.953125 8.828125-8.828125 8.828125zm0 0"/><path d="m203.035156 300.136719h-97.105468c-4.875 0-8.828126-3.949219-8.828126-8.828125 0-4.875 3.953126-8.824219 8.828126-8.824219h97.105468c4.875 0 8.828125 3.949219 8.828125 8.824219 0 4.878906-3.953125 8.828125-8.828125 8.828125zm0 0"/><path d="m150.070312 256h-97.105468c-4.875 0-8.828125-3.953125-8.828125-8.828125s3.953125-8.828125 8.828125-8.828125h97.105468c4.875 0 8.828126 3.953125 8.828126 8.828125s-3.953126 8.828125-8.828126 8.828125zm0 0"/><path d="m247.171875 256h-61.792969c-4.875 0-8.828125-3.953125-8.828125-8.828125s3.953125-8.828125 8.828125-8.828125h61.792969c4.875 0 8.828125 3.953125 8.828125 8.828125s-3.953125 8.828125-8.828125 8.828125zm0 0"/><path d="m247.171875 388.414062h-97.101563c-4.875 0-8.828124-3.953124-8.828124-8.828124s3.953124-8.828126 8.828124-8.828126h97.101563c4.875 0 8.828125 3.953126 8.828125 8.828126s-3.953125 8.828124-8.828125 8.828124zm0 0"/><path d="m114.757812 388.414062h-61.792968c-4.875 0-8.828125-3.953124-8.828125-8.828124s3.953125-8.828126 8.828125-8.828126h61.792968c4.875 0 8.828126 3.953126 8.828126 8.828126s-3.953126 8.828124-8.828126 8.828124zm0 0"/><path d="m150.070312 344.277344h-97.105468c-4.875 0-8.828125-3.953125-8.828125-8.828125s3.953125-8.828125 8.828125-8.828125h97.105468c4.875 0 8.828126 3.953125 8.828126 8.828125s-3.953126 8.828125-8.828126 8.828125zm0 0"/><path d="m211.863281 344.277344h-26.484375c-4.875 0-8.828125-3.953125-8.828125-8.828125s3.953125-8.828125 8.828125-8.828125h26.484375c4.875 0 8.828125 3.953125 8.828125 8.828125s-3.953125 8.828125-8.828125 8.828125zm0 0"/></g><path d="m512 101.515625c0 44.261719-28.683594 83.414063-70.886719 96.753906-9.898437 3.167969-20.234375 4.773438-30.628906 4.765625-28.003906.085938-54.773437-11.492187-73.886719-31.957031-17.773437-18.796875-27.664062-43.691406-27.632812-69.5625 0-56.066406 45.453125-101.515625 101.519531-101.515625s101.515625 45.449219 101.515625 101.515625zm0 0" fill="#e64c3c"/><path d="m344.277344 110.34375c-4.875 0-8.828125-3.949219-8.828125-8.828125.046875-41.417969 33.613281-74.984375 75.035156-75.03125 4.875 0 8.824219 3.949219 8.824219 8.824219 0 4.878906-3.949219 8.828125-8.824219 8.828125-31.675781.039062-57.34375 25.707031-57.382813 57.378906 0 4.878906-3.949218 8.828125-8.824218 8.828125zm0 0" fill="#ecf0f1"/><path d="m362.355469 155.761719c-2.433594.003906-4.757813-1-6.425781-2.769531-4.421876-4.652344-8.222657-9.863282-11.300782-15.492188-2.320312-4.292969-.722656-9.652344 3.566406-11.972656 4.289063-2.320313 9.648438-.722656 11.96875 3.566406 2.347657 4.289062 5.246094 8.25 8.617188 11.785156 2.417969 2.566406 3.078125 6.320313 1.679688 9.554688-1.394532 3.234375-4.582032 5.332031-8.105469 5.328125zm0 0" fill="#ecf0f1"/></svg>