<svg height="512pt" viewBox="-30 0 512 512" width="512pt" xmlns="http://www.w3.org/2000/svg"><path d="m451.253906 208.269531v95.460938h-89.730468l-23.082032 25.945312v78.1875h-112.8125v-85.5625l-14.40625-18.570312h-98.410156v-95.460938h104.222656l8.59375-9.890625v-85.566406h112.8125v78.191406l17.269532 17.265625zm0 0" fill="#ecf0f1"/><path d="m451.253906 112.8125v95.457031h-95.542968l-17.269532-17.265625v-78.191406zm0 0" fill="#b49aca"/><path d="m451.253906 303.730469v104.132812h-112.8125v-78.1875l23.082032-25.945312zm0 0" fill="#b49aca"/><path d="m225.628906 112.8125v85.566406l-8.59375 9.890625h-104.222656v-95.457031zm0 0" fill="#b49aca"/><path d="m225.628906 322.300781v85.5625h-112.816406v-104.132812h98.410156zm0 0" fill="#b49aca"/><path d="m373.152344 260.339844c0 47.925781-38.851563 86.777344-86.78125 86.777344-47.925782 0-86.777344-38.851563-86.777344-86.777344 0-47.929688 38.851562-86.78125 86.777344-86.78125 47.929687 0 86.78125 38.851562 86.78125 86.78125zm0 0" fill="#fb7b76"/><path d="m451.253906 78.101562v34.710938h-451.253906v-34.710938c0-19.171874 15.542969-34.710937 34.710938-34.710937h381.832031c19.171875 0 34.710937 15.539063 34.710937 34.710937zm0 0" fill="#7d6599"/><path d="m0 112.8125h112.8125v95.457031h-112.8125zm0 0" fill="#ecf0f1"/><path d="m0 208.269531h112.8125v95.460938h-112.8125zm0 0" fill="#b49aca"/><path d="m0 303.730469h112.8125v104.132812h-112.8125zm0 0" fill="#ecf0f1"/><path d="m112.8125 407.863281h112.816406v104.136719h-112.816406zm0 0" fill="#ecf0f1"/><path d="m112.8125 407.863281v104.136719h-78.101562c-19.167969 0-34.710938-15.542969-34.710938-34.710938v-69.425781zm0 0" fill="#b49aca"/><path d="m225.628906 407.863281h112.8125v104.136719h-112.8125zm0 0" fill="#b49aca"/><path d="m451.253906 407.863281v69.425781c0 19.167969-15.539062 34.710938-34.710937 34.710938h-78.101563v-104.136719zm0 0" fill="#ecf0f1"/><g fill="#bdc3c7"><path d="m43.390625 86.78125c-4.792969 0-8.679687-3.886719-8.679687-8.679688v-69.421874c0-4.792969 3.886718-8.679688 8.679687-8.679688s8.675781 3.886719 8.675781 8.679688v69.421874c0 4.792969-3.882812 8.679688-8.675781 8.679688zm0 0"/><path d="m104.136719 86.78125c-4.792969 0-8.679688-3.886719-8.679688-8.679688v-69.421874c0-4.792969 3.886719-8.679688 8.679688-8.679688s8.675781 3.886719 8.675781 8.679688v69.421874c0 4.792969-3.882812 8.679688-8.675781 8.679688zm0 0"/><path d="m164.882812 86.78125c-4.792968 0-8.679687-3.886719-8.679687-8.679688v-69.421874c0-4.792969 3.886719-8.679688 8.679687-8.679688 4.792969 0 8.675782 3.886719 8.675782 8.679688v69.421874c0 4.792969-3.882813 8.679688-8.675782 8.679688zm0 0"/><path d="m286.371094 86.78125c-4.789063 0-8.675782-3.886719-8.675782-8.679688v-69.421874c0-4.792969 3.886719-8.679688 8.675782-8.679688 4.792968 0 8.679687 3.886719 8.679687 8.679688v69.421874c0 4.792969-3.886719 8.679688-8.679687 8.679688zm0 0"/><path d="m347.117188 86.78125c-4.792969 0-8.675782-3.886719-8.675782-8.679688v-69.421874c0-4.792969 3.882813-8.679688 8.675782-8.679688 4.792968 0 8.679687 3.886719 8.679687 8.679688v69.421874c0 4.792969-3.886719 8.679688-8.679687 8.679688zm0 0"/><path d="m407.863281 86.78125c-4.792969 0-8.675781-3.886719-8.675781-8.679688v-69.421874c0-4.792969 3.882812-8.679688 8.675781-8.679688s8.679688 3.886719 8.679688 8.679688v69.421874c0 4.792969-3.886719 8.679688-8.679688 8.679688zm0 0"/><path d="m225.628906 86.78125c-4.792968 0-8.679687-3.886719-8.679687-8.679688v-69.421874c0-4.792969 3.886719-8.679688 8.679687-8.679688 4.789063 0 8.675782 3.886719 8.675782 8.679688v69.421874c0 4.792969-3.886719 8.679688-8.675782 8.679688zm0 0"/></g><path d="m286.371094 355.796875c-52.71875 0-95.457032-42.738281-95.457032-95.457031s42.738282-95.457032 95.457032-95.457032c52.722656 0 95.460937 42.738282 95.460937 95.457032-.058593 52.695312-42.761719 95.398437-95.460937 95.457031zm0-173.558594c-43.132813 0-78.101563 34.964844-78.101563 78.101563 0 43.132812 34.96875 78.101562 78.101563 78.101562 43.136718 0 78.101562-34.96875 78.101562-78.101562-.046875-43.117188-34.984375-78.054688-78.101562-78.101563zm0 0" fill="#cc4b4c"/><path d="m286.371094 182.238281c-4.789063 0-8.675782-3.886719-8.675782-8.679687v-26.03125c0-4.792969 3.886719-8.679688 8.675782-8.679688 4.792968 0 8.679687 3.886719 8.679687 8.679688v26.03125c0 4.792968-3.886719 8.679687-8.679687 8.679687zm0 0" fill="#802f34"/><path d="m286.371094 381.832031c-4.789063 0-8.675782-3.886719-8.675782-8.679687v-26.035156c0-4.792969 3.886719-8.675782 8.675782-8.675782 4.792968 0 8.679687 3.882813 8.679687 8.675782v26.035156c0 4.792968-3.886719 8.679687-8.679687 8.679687zm0 0" fill="#802f34"/><path d="m199.59375 269.015625h-26.035156c-4.792969 0-8.675782-3.882813-8.675782-8.675781 0-4.792969 3.882813-8.679688 8.675782-8.679688h26.035156c4.792969 0 8.675781 3.886719 8.675781 8.679688 0 4.792968-3.882812 8.675781-8.675781 8.675781zm0 0" fill="#802f34"/><path d="m399.1875 269.015625h-26.035156c-4.792969 0-8.679688-3.882813-8.679688-8.675781 0-4.792969 3.886719-8.679688 8.679688-8.679688h26.035156c4.792969 0 8.675781 3.886719 8.675781 8.679688 0 4.792968-3.882812 8.675781-8.675781 8.675781zm0 0" fill="#802f34"/><path d="m286.371094 312.40625c-28.753906 0-52.066406-23.3125-52.066406-52.066406 0-28.757813 23.3125-52.070313 52.066406-52.070313 28.757812 0 52.070312 23.3125 52.070312 52.070313-.035156 28.742187-23.324218 52.035156-52.070312 52.066406zm0-86.777344c-19.167969 0-34.710938 15.539063-34.710938 34.710938s15.542969 34.710937 34.710938 34.710937c19.171875 0 34.714844-15.539062 34.714844-34.710937s-15.542969-34.710938-34.714844-34.710938zm0 0" fill="#cc4b4c"/><path d="m286.371094 242.984375c-4.789063 0-8.675782-3.886719-8.675782-8.679687v-26.035157c0-4.792969 3.886719-8.675781 8.675782-8.675781 4.792968 0 8.679687 3.882812 8.679687 8.675781v26.035157c0 4.792968-3.886719 8.679687-8.679687 8.679687zm0 0" fill="#802f34"/><path d="m286.371094 321.085938c-4.789063 0-8.675782-3.886719-8.675782-8.679688v-26.035156c0-4.789063 3.886719-8.675782 8.675782-8.675782 4.792968 0 8.679687 3.886719 8.679687 8.675782v26.035156c0 4.792969-3.886719 8.679688-8.679687 8.679688zm0 0" fill="#802f34"/><path d="m260.339844 269.015625h-26.035156c-4.792969 0-8.675782-3.882813-8.675782-8.675781 0-4.792969 3.882813-8.679688 8.675782-8.679688h26.035156c4.792968 0 8.675781 3.886719 8.675781 8.679688 0 4.792968-3.882813 8.675781-8.675781 8.675781zm0 0" fill="#802f34"/><path d="m338.441406 269.015625h-26.035156c-4.792969 0-8.675781-3.882813-8.675781-8.675781 0-4.792969 3.882812-8.679688 8.675781-8.679688h26.035156c4.792969 0 8.675782 3.886719 8.675782 8.679688 0 4.792968-3.882813 8.675781-8.675782 8.675781zm0 0" fill="#802f34"/><path d="m286.371094 407.863281c.007812 2.304688-.894532 4.519531-2.515625 6.164063l-52.066407 52.066406c-1.652343 1.605469-3.859374 2.507812-6.160156 2.515625v-21l39.742188-39.746094zm0 0" fill="#3d324c"/><path d="m338.441406 407.863281c.007813 2.304688-.898437 4.519531-2.515625 6.164063l-97.976562 97.972656h-12.320313v-12.324219l91.8125-91.8125zm0 0" fill="#3d324c"/><path d="m338.441406 442.578125v21l-48.421875 48.421875h-21.003906c-.003906-2.304688.898437-4.519531 2.519531-6.160156l60.746094-60.746094c1.640625-1.621094 3.855469-2.523438 6.160156-2.515625zm0 0" fill="#3d324c"/><path d="m399.1875 407.863281c.003906 2.304688-.898438 4.519531-2.519531 6.164063l-52.066407 52.066406c-1.648437 1.605469-3.859374 2.507812-6.160156 2.515625v-21l39.746094-39.746094zm0 0" fill="#3d324c"/><path d="m451.253906 407.863281c.007813 2.304688-.898437 4.519531-2.515625 6.164063l-97.976562 97.972656h-12.320313v-12.324219l91.8125-91.8125zm0 0" fill="#3d324c"/><path d="m451.253906 442.578125v21l-48.421875 48.421875h-21c-.007812-2.304688.894531-4.519531 2.515625-6.160156l60.746094-60.746094c1.640625-1.621094 3.855469-2.523438 6.160156-2.515625zm0 0" fill="#3d324c"/></svg>