<svg height="512pt" viewBox="0 -26 512.00306 512" width="512pt" xmlns="http://www.w3.org/2000/svg"><path d="m512.003906 265.183594v52.964844c-.03125 9.738281-7.917968 17.625-17.65625 17.65625h-44.136718v-88.277344h44.136718c9.738282.027344 17.625 7.917968 17.65625 17.65625zm0 0" fill="#2fa8cc"/><path d="m450.210938 247.527344v88.277344h-254.941407l16.59375-88.277344zm0 0" fill="#285680"/><path d="m353.105469 247.527344c.007812 2.34375-.914063 4.597656-2.558594 6.265625l-82.007813 82.011719h-21.363281c-.007812-2.347657.914063-4.601563 2.558594-6.269532l82.007813-82.007812zm0 0" fill="#2c3e50"/><path d="m406.070312 247.527344c.007813 2.34375-.910156 4.597656-2.558593 6.265625l-82.007813 82.011719h-21.363281c-.007813-2.347657.914063-4.601563 2.558594-6.269532l82.011719-82.007812zm0 0" fill="#2c3e50"/><path d="m450.210938 247.527344v12.535156l-75.742188 75.742188h-21.363281c-.003907-2.347657.914062-4.601563 2.5625-6.269532l82.007812-82.007812zm0 0" fill="#2c3e50"/><path d="m229.519531 318.148438c13.683594 12.269531 47.582031 36.722656 65.324219 41.578124l.257812.050782c13.433594 3.175781 22.867188 15.25 22.695313 29.054687v44.074219c0 14.625-11.859375 26.484375-26.484375 26.484375h-264.828125c-14.625 0-26.48046875-11.859375-26.48046875-26.484375v-44.074219c-.17187525-13.804687 9.26171875-25.878906 22.69531275-29.054687l.253906-.050782c17.746094-4.855468 51.644531-29.308593 65.324219-41.578124zm0 0" fill="#cbb292"/><path d="m76.980469 459.390625h-50.496094c-14.625 0-26.48046875-11.859375-26.48046875-26.484375v-44.050781c-.19921825-13.808594 9.24218775-25.890625 22.68749975-29.042969.070313-.066406.167969-.097656.261719-.085938 4.824219-1.425781 9.46875-3.378906 13.859375-5.828124l.621094 1.238281c-2.648438 16.769531-9.183594 81.652343 39.546875 104.253906zm0 0" fill="#285680"/><path d="m317.796875 388.855469v44.050781c0 14.625-11.859375 26.484375-26.484375 26.484375h-50.492188c48.726563-22.601563 42.195313-87.484375 39.546876-104.253906l.617187-1.238281c4.390625 2.449218 9.039063 4.402343 13.859375 5.828124.097656-.011718.195312.019532.265625.085938 13.445313 3.152344 22.886719 15.234375 22.6875 29.042969zm0 0" fill="#285680"/><path d="m512.003906 18.011719v52.964843c-.03125 9.738282-7.917968 17.625-17.65625 17.652344h-26.484375v-88.273437h26.484375c9.738282.027343 17.625 7.914062 17.65625 17.65625zm0 0" fill="#2fa8cc"/><path d="m467.863281.355469v88.273437h-195.175781l-5.914062-5.472656-89.246094-82.800781zm0 0" fill="#285680"/><path d="m512.003906 141.597656v52.964844c-.03125 9.738281-7.917968 17.625-17.65625 17.652344h-105.929687v-88.273438h105.929687c9.738282.027344 17.625 7.914063 17.65625 17.65625zm0 0" fill="#2fa8cc"/><path d="m388.417969 123.941406v88.273438h-167.726563l8.828125-88.273438zm0 0" fill="#285680"/><g fill="#2c3e50"><path d="m317.796875.355469c.007813 2.34375-.914063 4.597656-2.5625 6.265625l-47.84375 47.847656c-3.480469 3.414062-9.054687 3.414062-12.535156 0-3.441407-3.46875-3.441407-9.066406 0-12.535156l41.578125-41.578125zm0 0"/><path d="m370.761719.355469c.007812 2.34375-.914063 4.597656-2.558594 6.265625l-82.007813 82.007812h-13.507812l-5.914062-5.472656c.175781-.285156.382812-.550781.617187-.792969l82.007813-82.007812zm0 0"/><path d="m423.726562.355469c.007813 2.34375-.914062 4.597656-2.558593 6.265625l-82.007813 82.007812h-21.363281c-.007813-2.34375.914063-4.597656 2.558594-6.265625l82.007812-82.007812zm0 0"/><path d="m344.277344 123.941406c.007812 2.34375-.910156 4.597656-2.558594 6.265625l-67.972656 67.972657c-3.480469 3.414062-9.054688 3.414062-12.535156 0-3.441407-3.46875-3.441407-9.066407 0-12.535157l61.707031-61.703125zm0 0"/><path d="m388.417969 123.941406v12.535156l-75.742188 75.738282h-21.363281c-.007812-2.34375.914062-4.597656 2.5625-6.265625l82.007812-82.007813zm0 0"/><path d="m467.863281.355469v12.535156l-75.738281 75.738281h-21.363281c-.007813-2.34375.914062-4.597656 2.558593-6.265625l82.007813-82.007812zm0 0"/></g><path d="m140.539062.355469c2.648438-.2656252 4.148438-.355469 4.148438-.355469h28.6875s1.503906.0898438 4.152344.355469c18.183594 2.03125 90.746094 14.566406 95.160156 88.273437.101562.613282.160156 1.234375.175781 1.855469.617188 12.710937.796875 23.835937.796875 33.457031-.089844 53.316406-7.769531 64.882813-8.386718 88.273438-.089844 1.0625-.089844 2.121094-.089844 3.179687 0 11.121094 1.058594 21.714844.792968 32.132813.261719 20.601562-8.359374 40.316406-23.65625 54.113281-9.984374 10.289063-18.671874 21.761719-25.863281 34.164063-9.625 15.269531-17.039062 26.128906-35.398437 26.128906h-44.050782c-30.632812 0-30.632812-30.191406-61.265624-60.292969-30.628907-30.101563-22.863282-56.054687-22.863282-86.246094 0-30.191406-11.5625-38.753906-7.679687-124.910156 3.355469-75.386719 76.976562-88.097656 95.339843-90.128906" fill="#fdd7ad"/></svg>