<svg height="512pt" viewBox="-40 0 512 512" width="512pt" xmlns="http://www.w3.org/2000/svg"><path d="m254.058594 467.863281h-236.402344c-9.738281-.03125-17.6289062-7.917969-17.65625-17.65625v-397.242187c.0273438-9.738282 7.917969-17.625 17.65625-17.65625h317.792969c9.738281.03125 17.625 7.917968 17.652343 17.65625v273.65625zm0 0" fill="#7f5b53"/><path d="m256 70.621094h52.964844c4.875 0 8.828125 3.953125 8.828125 8.828125v261.488281c0 2.148438-.785157 4.226562-2.207031 5.835938l-73.011719 82.785156c-1.675781 1.902344-4.085938 2.992187-6.621094 2.992187h-191.816406c-4.875 0-8.828125-3.953125-8.828125-8.828125v-344.273437c0-4.875 3.953125-8.828125 8.828125-8.828125zm0 0" fill="#b49aca"/><path d="m141.242188 35.308594c0-19.5 15.808593-35.308594 35.308593-35.308594 19.503907 0 35.3125 15.808594 35.3125 35.308594" fill="#95a5a5"/><path d="m97.101562 35.308594h158.898438v35.3125c0 9.75-7.90625 17.65625-17.65625 17.65625h-123.585938c-9.75 0-17.65625-7.90625-17.65625-17.65625zm0 0" fill="#bdc3c7"/><path d="m335.449219 326.621094c-4.875 0-8.828125-3.953125-8.828125-8.828125v-35.308594c0-4.878906 3.953125-8.828125 8.828125-8.828125s8.828125 3.949219 8.828125 8.828125v35.308594c0 4.875-3.953125 8.828125-8.828125 8.828125zm0 0" fill="#2c3e50"/><path d="m317.792969 247.171875h35.308593c9.753907 0 17.65625 7.90625 17.65625 17.65625s-7.902343 17.65625-17.65625 17.65625h-35.308593c-9.75 0-17.65625-7.90625-17.65625-17.65625s7.90625-17.65625 17.65625-17.65625zm0 0" fill="#35495e"/><g fill="#955ba5"><path d="m70.621094 361.929688h35.308594c4.875 0 8.828124 3.953124 8.828124 8.828124v17.65625c0 4.875-3.953124 8.828126-8.828124 8.828126h-35.308594c-4.875 0-8.828125-3.953126-8.828125-8.828126v-17.65625c0-4.875 3.953125-8.828124 8.828125-8.828124zm0 0"/><path d="m70.621094 291.308594h35.308594c4.875 0 8.828124 3.953125 8.828124 8.828125v17.65625c0 4.875-3.953124 8.828125-8.828124 8.828125h-35.308594c-4.875 0-8.828125-3.953125-8.828125-8.828125v-17.65625c0-4.875 3.953125-8.828125 8.828125-8.828125zm0 0"/><path d="m70.621094 220.691406h35.308594c4.875 0 8.828124 3.949219 8.828124 8.824219v17.65625c0 4.875-3.953124 8.828125-8.828124 8.828125h-35.308594c-4.875 0-8.828125-3.953125-8.828125-8.828125v-17.65625c0-4.875 3.953125-8.824219 8.828125-8.824219zm0 0"/><path d="m158.898438 361.929688h35.308593c4.875 0 8.828125 3.953124 8.828125 8.828124v17.65625c0 4.875-3.953125 8.828126-8.828125 8.828126h-35.308593c-4.878907 0-8.828126-3.953126-8.828126-8.828126v-17.65625c0-4.875 3.949219-8.828124 8.828126-8.828124zm0 0"/><path d="m158.898438 291.308594h35.308593c4.875 0 8.828125 3.953125 8.828125 8.828125v17.65625c0 4.875-3.953125 8.828125-8.828125 8.828125h-35.308593c-4.878907 0-8.828126-3.953125-8.828126-8.828125v-17.65625c0-4.875 3.949219-8.828125 8.828126-8.828125zm0 0"/><path d="m158.898438 220.691406h35.308593c4.875 0 8.828125 3.949219 8.828125 8.824219v17.65625c0 4.875-3.953125 8.828125-8.828125 8.828125h-35.308593c-4.878907 0-8.828126-3.953125-8.828126-8.828125v-17.65625c0-4.875 3.949219-8.824219 8.828126-8.824219zm0 0"/><path d="m70.621094 150.070312h35.308594c4.875 0 8.828124 3.949219 8.828124 8.828126v17.652343c0 4.875-3.953124 8.828125-8.828124 8.828125h-35.308594c-4.875 0-8.828125-3.953125-8.828125-8.828125v-17.652343c0-4.878907 3.953125-8.828126 8.828125-8.828126zm0 0"/></g><path d="m220.691406 132.414062h-17.65625c-4.875 0-8.828125-3.953124-8.828125-8.828124s3.953125-8.828126 8.828125-8.828126h17.65625c4.875 0 8.824219 3.953126 8.824219 8.828126s-3.949219 8.828124-8.824219 8.828124zm0 0" fill="#3d324c"/><path d="m282.484375 132.414062h-26.484375c-4.875 0-8.828125-3.953124-8.828125-8.828124s3.953125-8.828126 8.828125-8.828126h26.484375c4.875 0 8.824219 3.953126 8.824219 8.828126s-3.949219 8.828124-8.824219 8.828124zm0 0" fill="#3d324c"/><path d="m282.484375 167.722656h-105.933594c-4.875 0-8.828125-3.949218-8.828125-8.824218 0-4.878907 3.953125-8.828126 8.828125-8.828126h105.933594c4.875 0 8.824219 3.949219 8.824219 8.828126 0 4.875-3.949219 8.824218-8.824219 8.824218zm0 0" fill="#3d324c"/><path d="m282.484375 203.035156h-26.484375c-4.875 0-8.828125-3.953125-8.828125-8.828125s3.953125-8.828125 8.828125-8.828125h26.484375c4.875 0 8.824219 3.953125 8.824219 8.828125s-3.949219 8.828125-8.824219 8.828125zm0 0" fill="#3d324c"/><path d="m432.550781 414.898438c0 53.625-43.472656 97.101562-97.101562 97.101562-53.628907 0-97.105469-43.476562-97.105469-97.101562 0-53.628907 43.476562-97.105469 97.105469-97.105469 53.628906 0 97.101562 43.476562 97.101562 97.105469zm0 0" fill="#35495e"/><path d="m397.242188 414.898438c.027343 26.113281-16.382813 49.421874-40.976563 58.203124-24.597656 8.78125-52.058594 1.132813-68.574219-19.097656-9.105468-10.996094-14.070312-24.832031-14.035156-39.105468 0-34.128907 27.664062-61.796876 61.792969-61.796876 34.125 0 61.792969 27.667969 61.792969 61.796876zm0 0" fill="#90bae1"/><path d="m394.238281 395.828125c-42.734375 1.390625-82.273437 22.976563-106.546875 58.175781-9.105468-10.996094-14.070312-24.832031-14.035156-39.105468-.023438-30.417969 22.097656-56.328126 52.140625-61.078126 30.042969-4.753906 59.078125 13.066407 68.441406 42.007813zm0 0" fill="#b0d3f0"/><path d="m353.101562 441.378906c-2.339843 0-4.585937-.929687-6.238281-2.585937l-17.65625-17.65625c-1.65625-1.652344-2.585937-3.898438-2.585937-6.238281v-35.3125c0-4.875 3.953125-8.828126 8.828125-8.828126s8.828125 3.953126 8.828125 8.828126v31.65625l15.066406 15.070312c2.523438 2.523438 3.28125 6.320312 1.914062 9.617188-1.367187 3.296874-4.585937 5.449218-8.15625 5.449218zm0 0" fill="#7f8c8d"/></svg>