<svg height="512pt" viewBox="0 0 512 512" width="512pt" xmlns="http://www.w3.org/2000/svg"><path d="m494.34375 187.234375v245.316406h-476.6875v-353.101562c.027344-9.738281 7.914062-17.628907 17.652344-17.65625h246.113281zm0 0" fill="#35495e"/><path d="m512 441.378906v35.3125c0 19.5-15.808594 35.308594-35.308594 35.308594h-441.382812c-19.5 0-35.308594-15.808594-35.308594-35.308594v-35.3125c0-4.875 3.953125-8.828125 8.828125-8.828125h494.34375c4.875 0 8.828125 3.953125 8.828125 8.828125zm0 0" fill="#95a5a5"/><path d="m315.710938 467.863281h-119.421876c-6.6875 0-12.800781-3.78125-15.792968-9.765625l-12.773438-25.546875h176.554688l-12.773438 25.546875c-2.992187 5.984375-9.105468 9.765625-15.792968 9.765625zm0 0" fill="#7f8c8d"/><path d="m114.757812 467.863281c0 4.875-3.953124 8.828125-8.828124 8.828125h-105.929688v-17.65625h105.929688c4.875 0 8.828124 3.953125 8.828124 8.828125zm0 0" fill="#7f8c8d"/><path d="m150.070312 476.691406h-8.828124c-4.875 0-8.828126-3.953125-8.828126-8.828125s3.953126-8.828125 8.828126-8.828125h8.828124c4.875 0 8.828126 3.953125 8.828126 8.828125s-3.953126 8.828125-8.828126 8.828125zm0 0" fill="#7f8c8d"/><path d="m512 459.035156v17.65625h-105.929688c-4.875 0-8.828124-3.953125-8.828124-8.828125s3.953124-8.828125 8.828124-8.828125zm0 0" fill="#7f8c8d"/><path d="m370.757812 476.691406h-8.828124c-4.875 0-8.828126-3.953125-8.828126-8.828125s3.953126-8.828125 8.828126-8.828125h8.828124c4.875 0 8.828126 3.953125 8.828126 8.828125s-3.953126 8.828125-8.828126 8.828125zm0 0" fill="#7f8c8d"/><path d="m123.585938 185.378906h-52.964844c-9.75 0-17.65625-7.902344-17.65625-17.65625v-52.964844c0-9.75 7.90625-17.65625 17.65625-17.65625h17.65625c4.875 0 8.824218 3.953126 8.824218 8.828126s-3.949218 8.828124-8.824218 8.828124h-17.65625v52.964844h52.964844v-8.824218c0-4.878907 3.953124-8.828126 8.828124-8.828126s8.828126 3.949219 8.828126 8.828126v8.824218c0 9.753906-7.90625 17.65625-17.65625 17.65625zm0 0" fill="#bdc3c7"/><path d="m97.101562 158.898438c-2.339843-.003907-4.585937-.933594-6.238281-2.589844l-8.828125-8.824219c-3.347656-3.464844-3.296875-8.972656.105469-12.375 3.40625-3.40625 8.914063-3.453125 12.375-.109375l1.855469 1.855469 29.128906-36.441407c3.050781-3.808593 8.609375-4.429687 12.417969-1.382812 3.808593 3.046875 4.429687 8.605469 1.382812 12.417969l-35.3125 44.136719c-1.570312 1.960937-3.902343 3.15625-6.40625 3.292968zm0 0" fill="#24ae5f"/><path d="m266.0625 105.929688h-89.511719c-4.875 0-8.828125 3.953124-8.828125 8.828124v52.964844c0 4.875 3.953125 8.828125 8.828125 8.828125h100.195313zm0 0" fill="#955ba5"/><path d="m450.207031 230.578125v43.078125c0 4.875-3.953125 8.828125-8.828125 8.828125h-97.101562v-65.324219zm0 0" fill="#894b9d"/><path d="m344.277344 217.160156v65.324219h-167.726563c-4.875 0-8.828125-3.953125-8.828125-8.828125v-52.964844c0-4.878906 3.953125-8.828125 8.828125-8.828125h125.441407zm0 0" fill="#955ba5"/><path d="m123.585938 291.308594h-52.964844c-9.75 0-17.65625-7.902344-17.65625-17.652344v-52.964844c0-9.753906 7.90625-17.65625 17.65625-17.65625h52.964844c9.75 0 17.65625 7.902344 17.65625 17.65625v52.964844c0 9.75-7.90625 17.652344-17.65625 17.652344zm-52.964844-70.617188v52.964844h52.964844v-52.964844zm0 0" fill="#bdc3c7"/><path d="m450.207031 326.621094v52.964844c0 4.875-3.953125 8.828124-8.828125 8.828124h-167.722656v-70.621093h167.722656c4.875 0 8.828125 3.953125 8.828125 8.828125zm0 0" fill="#894b9d"/><path d="m273.65625 317.792969v70.621093h-97.105469c-4.875 0-8.828125-3.953124-8.828125-8.828124v-52.964844c0-4.875 3.953125-8.828125 8.828125-8.828125zm0 0" fill="#955ba5"/><path d="m123.585938 397.242188h-52.964844c-9.75 0-17.65625-7.90625-17.65625-17.65625v-52.964844c0-9.75 7.90625-17.65625 17.65625-17.65625h52.964844c9.75 0 17.65625 7.90625 17.65625 17.65625v52.964844c0 9.75-7.90625 17.65625-17.65625 17.65625zm-52.964844-70.621094v52.964844h52.964844v-52.964844zm0 0" fill="#bdc3c7"/><path d="m512 123.585938c0 68.253906-55.332031 123.585937-123.585938 123.585937-68.253906 0-123.585937-55.332031-123.585937-123.585937 0-68.253907 55.332031-123.585938 123.585937-123.585938 68.253907 0 123.585938 55.332031 123.585938 123.585938zm0 0" fill="#24ae5f"/><g fill="#ecf0f1"><path d="m353.101562 193.554688c-1.550781 0-3.074218-.410157-4.410156-1.191407-31.113281-17.992187-46.273437-54.628906-36.96875-89.34375 9.304688-34.714843 40.753906-58.859375 76.691406-58.882812 4.875 0 8.828126 3.953125 8.828126 8.828125s-3.953126 8.828125-8.828126 8.828125c-27.960937.007812-52.433593 18.789062-59.667968 45.796875-7.238282 27.007812 4.5625 55.511718 28.769531 69.5 3.453125 2.003906 5.132813 6.070312 4.097656 9.921875-1.03125 3.851562-4.519531 6.535156-8.511719 6.542969zm0 0"/><path d="m388.414062 61.792969c-1.96875.003906-3.882812-.660157-5.429687-1.878907l-24.585937-19.210937c-2.605469-1.898437-3.96875-5.070313-3.554688-8.269531.417969-3.199219 2.542969-5.917969 5.550781-7.089844 3.003907-1.171875 6.410157-.609375 8.882813 1.464844l24.53125 19.210937c2.953125 2.316407 4.121094 6.25 2.90625 9.800781-1.214844 3.554688-4.546875 5.949219-8.300782 5.972657zm0 0"/><path d="m369.195312 86.324219c-3.371093-.003907-6.445312-1.933594-7.921874-4.964844-1.476563-3.035156-1.09375-6.644531.984374-9.300781l19.207032-24.53125c3.0625-3.644532 8.457031-4.207032 12.203125-1.273438 3.746093 2.929688 4.496093 8.304688 1.691406 12.148438l-19.207031 24.578125c-1.683594 2.121093-4.246094 3.355469-6.957032 3.34375zm0 0"/><path d="m388.414062 200.835938c-4.875 0-8.828124-3.953126-8.828124-8.828126s3.953124-8.828124 8.828124-8.828124c27.964844 0 52.445313-18.785157 59.683594-45.796876 7.238282-27.015624-4.566406-55.523437-28.789062-69.507812-3.992188-2.539062-5.273438-7.769531-2.90625-11.867188 2.367187-4.09375 7.542968-5.597656 11.734375-3.402343 31.121093 17.984375 46.289062 54.628906 36.984375 89.347656-9.304688 34.71875-40.761719 58.867187-76.707032 58.882813zm0 0"/><path d="m412.9375 220.035156c-1.96875.003906-3.882812-.660156-5.429688-1.878906l-24.53125-19.199219c-3.644531-3.058593-4.207031-8.457031-1.277343-12.203125 2.933593-3.746094 8.308593-4.496094 12.152343-1.691406l24.574219 19.199219c2.964844 2.324219 4.128907 6.269531 2.898438 9.828125-1.226563 3.558594-4.578125 5.945312-8.34375 5.945312zm0 0"/><path d="m388.414062 200.835938c-3.375-.003907-6.449218-1.933594-7.921874-4.964844-1.476563-3.035156-1.09375-6.644532.984374-9.300782l19.207032-24.53125c1.902344-2.605468 5.070312-3.96875 8.269531-3.554687s5.917969 2.542969 7.089844 5.546875c1.171875 3.007812.609375 6.414062-1.464844 8.882812l-19.207031 24.53125c-1.675782 2.140626-4.242188 3.390626-6.957032 3.390626zm0 0"/></g></svg>