<svg height="512pt" viewBox="-4 0 512 512" width="512pt" xmlns="http://www.w3.org/2000/svg"><path d="m503.320312 442.578125h-188.570312c34.796875 0 140.84375-6.078125 162.539062-78.363281l1.386719-.433594zm0 0" fill="#f29c1f"/><path d="m478.675781 363.78125-1.386719.433594c-42.347656 33.929687-117.847656-14.925782-121.40625-17.269532 17.183594 34.710938-52.152343 95.371094-52.152343 95.371094s4.078125.261719 11.019531.261719h-314.75l84.871094-271.621094c1.140625-3.636719 4.519531-6.097656 8.332031-6.074219h316.917969c3.808594-.023437 7.1875 2.4375 8.332031 6.074219zm0 0" fill="#f3d55b"/><path d="m503.320312 442.578125v52.066406c-.027343 9.574219-7.78125 17.328125-17.355468 17.355469h-468.609375c-9.574219-.027344-17.3281252-7.78125-17.355469-17.355469v-52.066406zm0 0" fill="#e57e25"/><path d="m477.289062 364.214844c-21.695312 72.285156-127.742187 78.363281-162.539062 78.363281-6.941406 0-11.019531-.261719-11.019531-.261719s69.335937-60.660156 52.152343-95.371094c3.558594 2.34375 79.058594 51.199219 121.40625 17.269532zm0 0" fill="#f0c419"/><path d="m95.457031 477.289062c0 4.792969-3.882812 8.675782-8.675781 8.675782h-86.78125v-17.355469h86.78125c4.792969 0 8.675781 3.886719 8.675781 8.679687zm0 0" fill="#d25627"/><path d="m503.320312 468.609375v17.355469h-338.4375c-4.792968 0-8.679687-3.882813-8.679687-8.675782 0-4.792968 3.886719-8.679687 8.679687-8.679687zm0 0" fill="#d25627"/><path d="m251.660156 251.660156c-57.511718 0-104.132812-46.621094-104.132812-104.132812 0-57.515625 46.621094-104.136719 104.132812-104.136719 57.511719 0 104.136719 46.621094 104.136719 104.136719-.0625 57.484375-46.648437 104.070312-104.136719 104.132812zm0 0" fill="#e64c3c"/><path d="m321.085938 147.527344c0 38.339844-31.082032 69.421875-69.425782 69.421875-38.339844 0-69.421875-31.082031-69.421875-69.421875 0-38.34375 31.082031-69.425782 69.421875-69.425782 38.34375 0 69.425782 31.082032 69.425782 69.425782zm0 0" fill="#ecf0f1"/><path d="m286.371094 147.527344c0 19.167968-15.539063 34.710937-34.710938 34.710937s-34.710937-15.542969-34.710937-34.710937c0-19.171875 15.539062-34.714844 34.710937-34.714844s34.710938 15.542969 34.710938 34.714844zm0 0" fill="#e64c3c"/><path d="m251.660156 156.203125c-3.507812 0-6.671875-2.113281-8.015625-5.355469-1.34375-3.242187-.601562-6.976562 1.882813-9.457031l138.847656-138.847656c3.402344-3.289063 8.816406-3.242188 12.164062.105469 3.347657 3.347656 3.394532 8.761718.105469 12.164062l-138.847656 138.847656c-1.628906 1.628906-3.835937 2.542969-6.136719 2.542969zm0 0" fill="#7f5b53"/><path d="m390.507812 52.066406h-34.710937c-4.792969 0-8.679687-3.882812-8.679687-8.675781v-34.710937c0-4.792969 3.886718-8.679688 8.679687-8.679688s8.675781 3.886719 8.675781 8.679688v26.03125h26.035156c4.792969 0 8.679688 3.886718 8.679688 8.679687s-3.886719 8.675781-8.679688 8.675781zm0 0" fill="#e64c3c"/></svg>