<svg height="512pt" viewBox="-88 0 512 512" width="512pt" xmlns="http://www.w3.org/2000/svg"><path d="m77.683594 432.550781h-60.027344c-9.738281-.027343-17.6289062-7.914062-17.65625-17.652343v-361.933594c.0273438-9.738282 7.917969-17.625 17.65625-17.65625h300.136719c9.738281.03125 17.625 7.917968 17.65625 17.65625v361.933594c-.03125 9.738281-7.917969 17.625-17.65625 17.652343zm0 0" fill="#7f5b53"/><path d="m250.703125 397.242188h40.605469c4.878906 0 8.828125-3.953126 8.828125-8.828126v-308.964843c0-4.875-3.949219-8.828125-8.828125-8.828125h-247.171875c-4.875 0-8.828125 3.953125-8.828125 8.828125v308.964843c0 4.875 3.953125 8.828126 8.828125 8.828126zm0 0" fill="#f9eab0"/><path d="m132.414062 35.308594c0-19.5 15.808594-35.308594 35.308594-35.308594 19.503906 0 35.3125 15.808594 35.3125 35.308594" fill="#bdc3c7"/><path d="m88.277344 35.308594h158.894531v35.3125c0 9.75-7.902344 17.65625-17.65625 17.65625h-123.585937c-9.75 0-17.652344-7.90625-17.652344-17.65625zm0 0" fill="#ecf0f1"/><path d="m167.722656 317.792969v150.070312l105.933594 44.136719-43.433594-216.980469zm0 0" fill="#4482c3"/><path d="m167.722656 317.792969v150.070312l-105.929687 44.136719 43.433593-216.980469zm0 0" fill="#285680"/><path d="m264.828125 220.691406c0 53.628906-43.476563 97.101563-97.105469 97.101563s-97.101562-43.472657-97.101562-97.101563 43.472656-97.105468 97.101562-97.105468 97.105469 43.476562 97.105469 97.105468zm0 0" fill="#e64c3c"/><path d="m74.238281 194.382812 44.933594 41.84375-10.945313 61.175782 1.941407 1.5 57.554687-28.953125 57.558594 28.953125 1.941406-1.5-10.945312-61.175782 44.929687-41.84375-1.234375-4.058593-62.234375-8.652344-30.015625-58.085937-30.011718 58.085937-62.234376 8.652344zm0 0" fill="#f0c419"/></svg>