<svg height="512pt" viewBox="0 0 512 512.00274" width="512pt" xmlns="http://www.w3.org/2000/svg"><path d="m512 35.308594v335.449218c0 19.503907-15.808594 35.3125-35.308594 35.3125h-156.25c-6.96875-.003906-13.285156 4.09375-16.125 10.460938l-40.421875 90.585938c-1.496093 2.992187-4.554687 4.882812-7.898437 4.882812s-6.398438-1.890625-7.894532-4.882812l-40.394531-90.585938c-2.84375-6.371094-9.171875-10.472656-16.148437-10.460938h-156.246094c-19.503906 0-35.3125-15.808593-35.3125-35.3125v-335.449218c0-19.5 15.808594-35.308594 35.3125-35.308594h441.378906c19.5 0 35.308594 15.808594 35.308594 35.308594zm0 0" fill="#f3d55b"/><path d="m512 35.308594v335.449218c0 19.503907-15.808594 35.3125-35.308594 35.3125h-156.25c-6.992187-.023437-13.335937 4.101563-16.152344 10.503907l-40.429687 90.570312c-1.441406 3.019531-4.515625 4.914063-7.859375 4.855469v-512h220.691406c19.5 0 35.308594 15.808594 35.308594 35.308594zm0 0" fill="#f0c419"/><path d="m264.828125 52.964844v35.3125h-211.859375v-35.3125c0-4.875 3.949219-8.828125 8.824219-8.828125h194.207031c4.875 0 8.828125 3.953125 8.828125 8.828125zm0 0" fill="#ff5364"/><path d="m264.828125 88.277344v220.6875c-52.964844 8.828125-70.621094-17.65625-70.621094-17.65625-8.828125 44.140625-132.414062 70.621094-132.414062 70.621094-4.875 0-8.824219-3.949219-8.824219-8.828126v-264.824218zm0 0" fill="#ecf0f1"/><path d="m264.828125 308.964844c-49.257813 49.257812-167.195313 52.703125-183.523437 52.964844h-19.511719s123.585937-26.480469 132.414062-70.621094c0 0 17.65625 26.484375 70.621094 17.65625zm0 0" fill="#bdc3c7"/><path d="m264.828125 308.964844v44.136718c0 4.878907-3.953125 8.828126-8.828125 8.828126h-174.695312c16.328124-.261719 134.265624-3.707032 183.523437-52.964844zm0 0" fill="#95a5a5"/><g fill="#bdc3c7"><path d="m88.277344 114.757812c-4.875 0-8.828125-3.953124-8.828125-8.828124v-26.480469c0-4.875 3.953125-8.828125 8.828125-8.828125s8.828125 3.953125 8.828125 8.828125v26.480469c0 4.875-3.953125 8.828124-8.828125 8.828124zm0 0"/><path d="m123.585938 114.757812c-4.875 0-8.824219-3.953124-8.824219-8.828124v-26.480469c0-4.875 3.949219-8.828125 8.824219-8.828125 4.878906 0 8.828124 3.953125 8.828124 8.828125v26.480469c0 4.875-3.949218 8.828124-8.828124 8.828124zm0 0"/><path d="m158.898438 114.757812c-4.875 0-8.828126-3.953124-8.828126-8.828124v-26.480469c0-4.875 3.953126-8.828125 8.828126-8.828125s8.828124 3.953125 8.828124 8.828125v26.480469c0 4.875-3.953124 8.828124-8.828124 8.828124zm0 0"/><path d="m194.207031 114.757812c-4.875 0-8.828125-3.953124-8.828125-8.828124v-26.480469c0-4.875 3.953125-8.828125 8.828125-8.828125s8.828125 3.953125 8.828125 8.828125v26.480469c0 4.875-3.953125 8.828124-8.828125 8.828124zm0 0"/><path d="m229.519531 114.757812c-4.875 0-8.828125-3.953124-8.828125-8.828124v-26.480469c0-4.875 3.953125-8.828125 8.828125-8.828125s8.828125 3.953125 8.828125 8.828125v26.480469c0 4.875-3.953125 8.828124-8.828125 8.828124zm0 0"/></g><path d="m370.761719 247.171875h-61.792969c-4.878906 0-8.828125-3.953125-8.828125-8.828125v-70.621094c0-4.875 3.949219-8.824218 8.828125-8.824218h61.792969zm0 0" fill="#df4d60"/><path d="m370.761719 203.035156v84.621094c0 3.570312 2.148437 6.789062 5.449219 8.152344 3.296874 1.367187 7.09375.613281 9.617187-1.910156l90.863281-90.863282-90.863281-90.863281c-2.523437-2.523437-6.320313-3.277344-9.617187-1.914063-3.300782 1.367188-5.449219 4.585938-5.449219 8.15625zm0 0" fill="#ff5364"/></svg>