<svg height="512pt" viewBox="-15 0 512 512.00009" width="512pt" xmlns="http://www.w3.org/2000/svg"><path d="m432.550781 459.035156-27.453125 41.136719c-4.902344 7.398437-13.191406 11.84375-22.070312 11.828125h-356.542969c-6.8125.019531-13.363281-2.609375-18.273437-7.328125l58.085937-51.640625v-2.734375l4.324219-.089844h354.78125zm0 0" fill="#7f8c8d"/><path d="m425.402344 450.207031h-354.78125l-4.324219.089844-4.503906-353.195313-61.792969 61.796876v-97.105469l61.792969-61.792969zm0 0" fill="#35495e"/><path d="m66.296875 450.296875v2.734375l-58.085937 51.640625c-5.230469-5-8.195313-11.917969-8.210938-19.15625v-326.617187l61.792969-61.796876zm0 0" fill="#95a5a5"/><path d="m464.15625 459.035156h-314.085938c-71.769531-32.574218-85.628906-180.789062-88.011718-256-.882813-26.660156-.265625-44.136718-.265625-44.136718v-61.796876h361.929687v61.796876s-6.621094 191.734374 54.554688 271.976562c4.03125 5.332031 4.6875 12.492188 1.691406 18.46875-3 5.976562-9.128906 9.734375-15.8125 9.691406zm0 0" fill="#d1d4d1"/><path d="m150.070312 459.035156h-70.621093c-9.738281-.03125-17.628907-7.917968-17.65625-17.65625v-238.34375h.265625c2.382812 75.210938 16.242187 223.425782 88.011718 256zm0 0" fill="#bdc3c7"/><path d="m397.242188 0h-335.449219v97.101562h361.929687v-70.617187c0-14.628906-11.855468-26.484375-26.480468-26.484375zm0 0" fill="#e64c3c"/><path d="m415.957031 7.769531-89.335937 89.332031h-52.964844l97.101562-97.101562h26.484376c7.023437 0 13.757812 2.792969 18.714843 7.769531zm0 0" fill="#4482c3"/><path d="m370.757812 0-97.101562 97.101562h-52.964844l97.101563-97.101562zm0 0" fill="#285680"/><path d="m317.792969 0-97.101563 97.101562h-52.96875l97.105469-97.101562zm0 0" fill="#4482c3"/><path d="m264.828125 0-97.105469 97.101562h-52.964844l97.105469-97.101562zm0 0" fill="#285680"/><path d="m211.863281 0-97.105469 97.101562h-52.964843l97.105469-97.101562zm0 0" fill="#4482c3"/><path d="m158.898438 0-97.105469 97.101562v-52.964843l44.136719-44.136719zm0 0" fill="#285680"/><path d="m105.929688 0-44.136719 44.136719v-44.136719zm0 0" fill="#4482c3"/><path d="m423.722656 26.484375v26.480469l-44.136718 44.136718h-52.964844l89.335937-89.332031c4.972657 4.957031 7.769531 11.691407 7.765625 18.714844zm0 0" fill="#285680"/><path d="m423.722656 52.964844v44.136718h-44.136718zm0 0" fill="#4482c3"/><path d="m379.585938 273.65625c0 73.128906-59.285157 132.414062-132.414063 132.414062s-132.414063-59.285156-132.414063-132.414062c0-73.132812 59.285157-132.414062 132.414063-132.414062s132.414063 59.28125 132.414063 132.414062zm0 0" fill="#e64c3c"/><path d="m247.171875 370.757812c-53.628906 0-97.101563-43.472656-97.101563-97.101562s43.472657-97.105469 97.101563-97.105469 97.105469 43.476563 97.105469 97.105469c-.058594 53.601562-43.5 97.042969-97.105469 97.101562zm0 0" fill="#ecf0f1"/><path d="m308.964844 273.65625c0 34.125-27.664063 61.792969-61.792969 61.792969-34.125 0-61.792969-27.667969-61.792969-61.792969 0-34.128906 27.667969-61.792969 61.792969-61.792969 34.128906 0 61.792969 27.664063 61.792969 61.792969zm0 0" fill="#e64c3c"/><path d="m273.65625 273.65625c0 14.625-11.859375 26.480469-26.484375 26.480469s-26.480469-11.855469-26.480469-26.480469c0-14.628906 11.855469-26.484375 26.480469-26.484375s26.484375 11.855469 26.484375 26.484375zm0 0" fill="#ecf0f1"/><path d="m247.171875 282.484375c-3.570313-.003906-6.789063-2.152344-8.152344-5.453125-1.367187-3.296875-.613281-7.09375 1.910157-9.617188l141.242187-141.242187c3.464844-3.34375 8.96875-3.296875 12.375.109375 3.40625 3.402344 3.453125 8.910156.109375 12.375l-141.242188 141.238281c-1.65625 1.65625-3.902343 2.585938-6.242187 2.589844zm0 0" fill="#cb9080"/><path d="m397.242188 167.722656h-35.3125c-4.875 0-8.828126-3.949218-8.828126-8.824218v-35.3125c0-4.875 3.953126-8.828126 8.828126-8.828126s8.828124 3.953126 8.828124 8.828126v26.484374h26.484376c4.875 0 8.828124 3.949219 8.828124 8.828126 0 4.875-3.953124 8.824218-8.828124 8.824218zm0 0" fill="#e64c3c"/></svg>