<svg height="512pt" viewBox="-61 0 512 512" width="512pt" xmlns="http://www.w3.org/2000/svg"><path d="m34.710938 8.679688h242.984374c19.171876 0 34.710938 15.539062 34.710938 34.710937v433.898437c0 19.167969-15.539062 34.710938-34.710938 34.710938h-242.984374c-19.167969 0-34.710938-15.542969-34.710938-34.710938v-433.898437c0-19.171875 15.542969-34.710937 34.710938-34.710937zm0 0" fill="#35495e"/><path d="m312.40625 425.21875v52.070312c0 19.167969-15.539062 34.710938-34.710938 34.710938h-242.984374c-19.167969 0-34.710938-15.542969-34.710938-34.710938v-52.070312zm0 0" fill="#7f8c8d"/><g fill="#2c3e50"><path d="m173.558594 52.066406h-34.710938c-4.792968 0-8.679687-3.882812-8.679687-8.675781s3.886719-8.679687 8.679687-8.679687h34.710938c4.792968 0 8.679687 3.886718 8.679687 8.679687s-3.886719 8.675781-8.679687 8.675781zm0 0"/><path d="m242.984375 52.066406c-1.136719-.011718-2.253906-.25-3.300781-.691406-1.050782-.441406-2.019532-1.058594-2.863282-1.824219-.761718-.84375-1.378906-1.8125-1.820312-2.863281-.445312-1.042969-.679688-2.164062-.695312-3.296875 0-4.792969 3.886718-8.679687 8.679687-8.679687s8.675781 3.886718 8.675781 8.679687c-.011718 1.132813-.25 2.253906-.695312 3.296875-.441406 1.050781-1.058594 2.019531-1.820313 2.863281-.84375.765625-1.8125 1.382813-2.863281 1.824219-1.042969.441406-2.164062.679688-3.296875.691406zm0 0"/><path d="m277.695312 52.066406c-1.132812-.011718-2.253906-.25-3.296874-.691406-1.050782-.441406-2.019532-1.058594-2.863282-1.824219-.765625-.84375-1.382812-1.8125-1.824218-2.863281-.445313-1.042969-.679688-2.164062-.695313-3.296875 0-4.792969 3.886719-8.679687 8.679687-8.679687 4.792969 0 8.675782 3.886718 8.675782 8.679687-.011719 1.132813-.246094 2.253906-.691406 3.296875-.445313 1.050781-1.058594 2.019531-1.824219 2.863281-.84375.765625-1.8125 1.382813-2.863281 1.824219-1.042969.441406-2.164063.679688-3.296876.691406zm0 0"/><path d="m173.558594 468.609375c0 9.585937-7.769532 17.355469-17.355469 17.355469s-17.355469-7.769532-17.355469-17.355469 7.769532-17.355469 17.355469-17.355469 17.355469 7.769532 17.355469 17.355469zm0 0"/></g><path d="m312.40625 234.304688c0 86.269531-69.933594 156.203124-156.203125 156.203124s-156.203125-69.933593-156.203125-156.203124c0-86.269532 69.933594-156.203126 156.203125-156.203126s156.203125 69.933594 156.203125 156.203126zm0 0" fill="#e64c3c"/><path d="m156.203125 355.796875c-67.097656 0-121.492187-54.394531-121.492187-121.492187 0-67.097657 54.394531-121.492188 121.492187-121.492188s121.492187 54.394531 121.492187 121.492188c-.078124 67.066406-54.425781 121.414062-121.492187 121.492187zm0 0" fill="#ecf0f1"/><path d="m156.203125 321.085938c-47.925781 0-86.78125-38.855469-86.78125-86.78125 0-47.925782 38.855469-86.777344 86.78125-86.777344s86.78125 38.851562 86.78125 86.777344c-.054687 47.90625-38.875 86.726562-86.78125 86.78125zm0 0" fill="#e64c3c"/><path d="m208.269531 234.304688c0 28.757812-23.308593 52.066406-52.066406 52.066406s-52.066406-23.308594-52.066406-52.066406c0-28.753907 23.308593-52.066407 52.066406-52.066407s52.066406 23.3125 52.066406 52.066407zm0 0" fill="#ecf0f1"/><path d="m156.203125 242.984375c-3.507813-.003906-6.671875-2.117187-8.015625-5.359375s-.601562-6.972656 1.878906-9.457031l225.628906-225.625c3.40625-3.289063 8.816407-3.242188 12.164063.105469 3.347656 3.347656 3.394531 8.761718.105469 12.164062l-225.625 225.628906c-1.628906 1.625-3.835938 2.542969-6.136719 2.542969zm0 0" fill="#cb9080"/><path d="m381.832031 60.746094h-43.390625c-4.792968 0-8.679687-3.886719-8.679687-8.679688v-43.386718c0-4.792969 3.886719-8.679688 8.679687-8.679688 4.792969 0 8.675782 3.886719 8.675782 8.679688v34.710937h34.714843c4.792969 0 8.675781 3.882813 8.675781 8.675781 0 4.792969-3.882812 8.679688-8.675781 8.679688zm0 0" fill="#e64c3c"/></svg>