<svg height="512pt" viewBox="-35 0 512 512" width="512pt" xmlns="http://www.w3.org/2000/svg"><path d="m70.621094 249.554688v244.789062c.027344 9.738281 7.917968 17.628906 17.65625 17.65625h335.445312c9.738282-.027344 17.628906-7.917969 17.65625-17.65625v-344.273438l-114.757812-114.761718h-104.34375zm0 0" fill="#b49aca"/><path d="m264.828125 132.414062c0 73.128907-59.285156 132.414063-132.414063 132.414063-73.128906 0-132.414062-59.285156-132.414062-132.414063 0-73.128906 59.285156-132.414062 132.414062-132.414062 73.128907 0 132.414063 59.285156 132.414063 132.414062zm0 0" fill="#35495e"/><path d="m229.515625 132.414062c0 3-.175781 5.914063-.441406 8.828126-4.273438 46.625-41.207031 83.558593-87.832031 87.832031-2.914063.265625-5.828126.441406-8.828126.441406s-5.914062-.175781-8.828124-.441406c-46.625-4.273438-83.558594-41.207031-87.835938-87.832031-.261719-2.914063-.441406-5.828126-.441406-8.828126s.179687-5.914062.441406-8.828124c4.277344-46.625 41.210938-83.558594 87.835938-87.835938 2.914062-.261719 5.828124-.441406 8.828124-.441406s5.914063.179687 8.828126.441406c39.5625 3.582031 72.941406 30.941406 84.214843 69.035156 1.890625 6.113282 3.105469 12.421875 3.617188 18.800782.265625 2.914062.441406 5.828124.441406 8.828124zm0 0" fill="#90bae1"/><path d="m225.457031 104.785156c-101.78125 3.53125-149.453125 48.019532-171.519531 84.742188-10.34375-14.140625-16.632812-30.835938-18.1875-48.285156-.261719-2.914063-.441406-5.828126-.441406-8.828126s.179687-5.914062.441406-8.828124c4.277344-46.625 41.210938-83.558594 87.835938-87.835938 2.914062-.261719 5.828124-.441406 8.828124-.441406s5.914063.179687 8.828126.441406c39.5625 3.582031 72.941406 30.941406 84.214843 69.035156zm0 0" fill="#b0d3f0"/><path d="m441.378906 150.070312h-97.101562c-9.753906 0-17.65625-7.90625-17.65625-17.65625v-97.105468zm0 0" fill="#7d6599"/><g fill="#95a5a5"><path d="m141.242188 35.75v26.042969c0 4.875-3.953126 8.828125-8.828126 8.828125s-8.828124-3.953125-8.828124-8.828125v-26.042969c2.914062-.261719 5.828124-.441406 8.828124-.441406s5.914063.179687 8.828126.441406zm0 0"/><path d="m141.242188 203.035156v26.039063c-2.914063.265625-5.828126.441406-8.828126.441406s-5.914062-.175781-8.828124-.441406v-26.039063c0-4.875 3.953124-8.828125 8.828124-8.828125s8.828126 3.953125 8.828126 8.828125zm0 0"/><path d="m70.621094 132.414062c0 4.875-3.953125 8.828126-8.828125 8.828126h-26.042969c-.261719-2.914063-.441406-5.828126-.441406-8.828126s.179687-5.914062.441406-8.828124h26.042969c4.875 0 8.828125 3.953124 8.828125 8.828124zm0 0"/><path d="m229.515625 132.414062c0 3-.175781 5.914063-.441406 8.828126h-26.039063c-4.875 0-8.828125-3.953126-8.828125-8.828126s3.953125-8.828124 8.828125-8.828124h26.039063c.265625 2.914062.441406 5.828124.441406 8.828124zm0 0"/><path d="m185.378906 176.550781c-1.742187 0-3.441406-.515625-4.890625-1.480469l-38.222656-25.511718c-3.960937-2.742188-4.992187-8.148438-2.324219-12.15625 2.671875-4.007813 8.0625-5.132813 12.113282-2.535156l38.222656 25.511718c3.238281 2.160156 4.679687 6.179688 3.550781 9.90625-1.125 3.722656-4.558594 6.265625-8.449219 6.265625zm0 0"/><path d="m121.125 127.734375c-2.628906.003906-5.117188-1.160156-6.800781-3.175781l-32.835938-39.460938c-2.019531-2.425781-2.589843-5.742187-1.5-8.703125 1.089844-2.960937 3.679688-5.113281 6.789063-5.648437s6.269531.628906 8.285156 3.050781l32.839844 39.460937c2.191406 2.632813 2.664062 6.292969 1.210937 9.394532-1.449219 3.101562-4.566406 5.082031-7.988281 5.082031zm0 0"/></g><path d="m273.65625 229.515625h123.585938c4.875 0 8.828124 3.953125 8.828124 8.828125v114.757812c0 4.878907-3.953124 8.828126-8.828124 8.828126h-123.585938c-4.875 0-8.828125-3.949219-8.828125-8.828126v-114.757812c0-4.875 3.953125-8.828125 8.828125-8.828125zm0 0" fill="#3d324c"/><path d="m317.792969 335.449219c-2.339844 0-4.585938-.933594-6.242188-2.585938l-17.652343-17.65625c-3.347657-3.464843-3.300782-8.96875.105468-12.375s8.910156-3.453125 12.375-.109375l10.910156 10.914063 46.785157-54.554688c2.011719-2.535156 5.242187-3.765625 8.429687-3.214843 3.183594.554687 5.8125 2.804687 6.851563 5.867187 1.035156 3.0625.316406 6.449219-1.878907 8.824219l-52.964843 61.792968c-1.601563 1.867188-3.90625 2.984376-6.367188 3.078126zm0 0" fill="#4fba6f"/><path d="m273.65625 406.070312h-8.828125c-4.875 0-8.828125-3.953124-8.828125-8.828124s3.953125-8.828126 8.828125-8.828126h8.828125c4.875 0 8.828125 3.953126 8.828125 8.828126s-3.953125 8.828124-8.828125 8.828124zm0 0" fill="#3d324c"/><path d="m406.070312 406.070312h-97.105468c-4.875 0-8.828125-3.953124-8.828125-8.828124s3.953125-8.828126 8.828125-8.828126h97.105468c4.875 0 8.828126 3.953126 8.828126 8.828126s-3.953126 8.828124-8.828126 8.828124zm0 0" fill="#3d324c"/><path d="m273.65625 441.378906h-8.828125c-4.875 0-8.828125-3.953125-8.828125-8.828125s3.953125-8.828125 8.828125-8.828125h8.828125c4.875 0 8.828125 3.953125 8.828125 8.828125s-3.953125 8.828125-8.828125 8.828125zm0 0" fill="#3d324c"/><path d="m406.070312 441.378906h-97.105468c-4.875 0-8.828125-3.953125-8.828125-8.828125s3.953125-8.828125 8.828125-8.828125h97.105468c4.875 0 8.828126 3.953125 8.828126 8.828125s-3.953126 8.828125-8.828126 8.828125zm0 0" fill="#3d324c"/><path d="m273.65625 476.691406h-8.828125c-4.875 0-8.828125-3.953125-8.828125-8.828125s3.953125-8.828125 8.828125-8.828125h8.828125c4.875 0 8.828125 3.953125 8.828125 8.828125s-3.953125 8.828125-8.828125 8.828125zm0 0" fill="#3d324c"/><path d="m406.070312 476.691406h-97.105468c-4.875 0-8.828125-3.953125-8.828125-8.828125s3.953125-8.828125 8.828125-8.828125h97.105468c4.875 0 8.828126 3.953125 8.828126 8.828125s-3.953126 8.828125-8.828126 8.828125zm0 0" fill="#3d324c"/><path d="m123.585938 397.242188h17.65625c4.875 0 8.828124 3.953124 8.828124 8.828124v52.964844c0 4.875-3.953124 8.828125-8.828124 8.828125h-17.65625c-4.875 0-8.828126-3.953125-8.828126-8.828125v-52.964844c0-4.875 3.953126-8.828124 8.828126-8.828124zm0 0" fill="#f3d55b"/><path d="m194.207031 300.136719h17.65625c4.875 0 8.828125 3.953125 8.828125 8.828125v150.070312c0 4.875-3.953125 8.828125-8.828125 8.828125h-17.65625c-4.875 0-8.828125-3.953125-8.828125-8.828125v-150.070312c0-4.875 3.953125-8.828125 8.828125-8.828125zm0 0" fill="#f3d55b"/><path d="m150.070312 132.414062c0 9.75-7.90625 17.65625-17.65625 17.65625s-17.65625-7.90625-17.65625-17.65625 7.90625-17.65625 17.65625-17.65625 17.65625 7.90625 17.65625 17.65625zm0 0" fill="#7f8c8d"/></svg>