<svg height="512pt" viewBox="-71 0 512 512" width="512pt" xmlns="http://www.w3.org/2000/svg"><path d="m17.65625 35.308594h335.445312c9.753907 0 17.65625 7.90625 17.65625 17.65625v441.378906c0 9.75-7.902343 17.65625-17.65625 17.65625h-335.445312c-9.75 0-17.65625-7.90625-17.65625-17.65625v-441.378906c0-9.75 7.90625-17.65625 17.65625-17.65625zm0 0" fill="#7f5b53"/><path d="m264.828125 70.621094h61.792969c4.875 0 8.828125 3.953125 8.828125 8.828125v388.414062c0 4.875-3.953125 8.828125-8.828125 8.828125h-282.484375c-4.875 0-8.828125-3.953125-8.828125-8.828125v-388.414062c0-4.875 3.953125-8.828125 8.828125-8.828125zm0 0" fill="#b0d3f0"/><path d="m150.070312 35.308594c0-19.5 15.808594-35.308594 35.308594-35.308594s35.3125 15.808594 35.3125 35.308594" fill="#bdc3c7"/><path d="m105.929688 35.308594h158.898437v35.3125c0 9.75-7.90625 17.65625-17.65625 17.65625h-123.585937c-9.75 0-17.65625-7.90625-17.65625-17.65625zm0 0" fill="#ecf0f1"/><g fill="#547580"><path d="m123.585938 150.070312h-43.324219c-2.589844-.003906-5.046875 1.125-6.726563 3.09375-1.679687 1.96875-2.414062 4.574219-2.003906 7.128907 2.621094 17.554687 12.753906 51.570312 52.054688 51.570312zm0 0"/><path d="m247.171875 150.070312h43.328125c2.585938-.003906 5.042969 1.125 6.722656 3.09375 1.683594 1.96875 2.414063 4.574219 2.007813 7.128907-2.625 17.554687-12.757813 51.570312-52.058594 51.570312zm0 0"/><path d="m123.585938 247.171875h-43.324219c-2.589844-.003906-5.046875 1.128906-6.726563 3.09375-1.679687 1.96875-2.414062 4.574219-2.003906 7.128906 2.621094 17.558594 12.753906 51.570313 52.054688 51.570313zm0 0"/><path d="m247.171875 247.171875h43.328125c2.585938-.003906 5.042969 1.128906 6.722656 3.09375 1.683594 1.96875 2.414063 4.574219 2.007813 7.128906-2.625 17.558594-12.757813 51.570313-52.058594 51.570313zm0 0"/><path d="m123.585938 344.277344h-43.324219c-2.589844-.003906-5.046875 1.125-6.726563 3.09375-1.679687 1.964844-2.414062 4.574218-2.003906 7.128906 2.621094 17.554688 12.753906 51.570312 52.054688 51.570312zm0 0"/><path d="m247.171875 344.277344h43.328125c2.585938-.003906 5.042969 1.125 6.722656 3.09375 1.683594 1.964844 2.414063 4.574218 2.007813 7.128906-2.625 17.554688-12.757813 51.570312-52.058594 51.570312zm0 0"/></g><path d="m132.414062 132.414062h105.929688c4.875 0 8.828125 3.953126 8.828125 8.828126v282.480468c0 4.875-3.953125 8.828125-8.828125 8.828125h-105.929688c-4.875 0-8.828124-3.953125-8.828124-8.828125v-282.480468c0-4.875 3.953124-8.828126 8.828124-8.828126zm0 0" fill="#35495e"/><path d="m211.863281 194.207031c0 14.625-11.859375 26.484375-26.484375 26.484375s-26.480468-11.859375-26.480468-26.484375 11.855468-26.484375 26.480468-26.484375 26.484375 11.859375 26.484375 26.484375zm0 0" fill="#e64c3c"/><path d="m211.863281 282.484375c0 14.625-11.859375 26.480469-26.484375 26.480469s-26.480468-11.855469-26.480468-26.480469c0-14.628906 11.855468-26.484375 26.480468-26.484375s26.484375 11.855469 26.484375 26.484375zm0 0" fill="#f0c419"/><path d="m211.863281 370.757812c0 14.625-11.859375 26.484376-26.484375 26.484376s-26.480468-11.859376-26.480468-26.484376 11.855468-26.480468 26.480468-26.480468 26.484375 11.855468 26.484375 26.480468zm0 0" fill="#24ae5f"/></svg>