<svg height="512pt" viewBox="-4 0 512 512" width="512pt" xmlns="http://www.w3.org/2000/svg"><path d="m401.183594 104.136719h67.425781c9.574219.027343 17.328125 7.78125 17.355469 17.355469v312.40625h-468.609375v-312.40625c.027343-9.574219 7.78125-17.328126 17.355469-17.355469zm0 0" fill="#35495e"/><path d="m416.542969 173.558594c.039062 28.953125-7.597657 57.398437-22.128907 82.441406-.785156 1.496094-1.652343 2.945312-2.605468 4.339844h-280.296875c-.949219-1.394532-1.820313-2.84375-2.601563-4.339844-26.898437-46.484375-29.425781-103.171875-6.769531-151.863281 2.011719-4.460938 4.273437-8.808594 6.769531-13.019531 29.460938-50.976563 83.871094-82.371094 142.75-82.371094s113.289063 31.394531 142.753906 82.371094c2.496094 4.210937 4.753907 8.558593 6.769532 13.019531 7.808594 16.628906 12.710937 34.476562 14.492187 52.761719.59375 5.53125.882813 11.09375.867188 16.660156zm0 0" fill="#90bae1"/><path d="m415.675781 156.898438c-186.144531-39.574219-268.324219 47.121093-301.039062 103.441406h-3.125c-.949219-1.394532-1.820313-2.84375-2.601563-4.339844-26.898437-46.484375-29.425781-103.171875-6.769531-151.863281 2.011719-4.460938 4.273437-8.808594 6.769531-13.019531 29.460938-50.976563 83.871094-82.371094 142.75-82.371094s113.289063 31.394531 142.753906 82.371094c2.496094 4.210937 4.753907 8.558593 6.769532 13.019531 7.808594 16.628906 12.710937 34.476562 14.492187 52.761719zm0 0" fill="#b0d3f0"/><path d="m503.320312 442.578125v34.710937c0 19.167969-15.539062 34.710938-34.710937 34.710938h-433.898437c-19.167969 0-34.710938-15.542969-34.710938-34.710938v-34.710937c0-4.792969 3.886719-8.679687 8.679688-8.679687h485.964843c4.792969 0 8.675781 3.886718 8.675781 8.679687zm0 0" fill="#95a5a5"/><path d="m310.359375 468.609375h-117.394531c-6.578125 0-12.585938-3.714844-15.527344-9.597656l-12.554688-25.113281h173.558594l-12.558594 25.113281c-2.9375 5.882812-8.949218 9.597656-15.523437 9.597656zm0 0" fill="#7f8c8d"/><path d="m112.8125 468.609375c0 4.792969-3.882812 8.679687-8.675781 8.679687h-104.136719v-17.355468h104.136719c4.792969 0 8.675781 3.882812 8.675781 8.675781zm0 0" fill="#7f8c8d"/><path d="m147.527344 477.289062h-8.679688c-4.792968 0-8.679687-3.886718-8.679687-8.679687s3.886719-8.675781 8.679687-8.675781h8.679688c4.789062 0 8.675781 3.882812 8.675781 8.675781s-3.886719 8.679687-8.675781 8.679687zm0 0" fill="#7f8c8d"/><path d="m503.320312 459.933594v17.355468h-104.132812c-4.792969 0-8.679688-3.886718-8.679688-8.679687s3.886719-8.675781 8.679688-8.675781zm0 0" fill="#7f8c8d"/><path d="m364.472656 477.289062h-8.675781c-4.792969 0-8.679687-3.886718-8.679687-8.679687s3.886718-8.675781 8.679687-8.675781h8.675781c4.792969 0 8.679688 3.882812 8.679688 8.675781s-3.886719 8.679687-8.679688 8.679687zm0 0" fill="#7f8c8d"/><g fill="#95a5a5"><path d="m251.660156 43.390625c-4.792968 0-8.675781-3.886719-8.675781-8.679687v-26.03125c0-4.792969 3.882813-8.679688 8.675781-8.679688 4.792969 0 8.679688 3.886719 8.679688 8.679688v26.03125c0 4.792968-3.886719 8.679687-8.679688 8.679687zm0 0"/><path d="m182.238281 61.996094c-3.105469.003906-5.972656-1.652344-7.523437-4.339844l-13.019532-22.5625c-2.355468-4.148438-.925781-9.417969 3.207032-11.804688 4.128906-2.386718 9.410156-.988281 11.824218 3.125l13.015626 22.5625c1.550781 2.683594 1.550781 5.992188.003906 8.675782s-4.410156 4.339844-7.507813 4.34375zm0 0"/><path d="m131.410156 112.8125c-1.523437.003906-3.019531-.398438-4.339844-1.160156l-22.5625-13.019532c-2.707031-1.539062-4.382812-4.410156-4.386718-7.523437-.007813-3.113281 1.652344-5.992187 4.355468-7.542969 2.699219-1.550781 6.023438-1.539062 8.710938.039063l22.5625 13.015625c3.402344 1.964844 5.058594 5.96875 4.042969 9.761718-1.015625 3.792969-4.453125 6.429688-8.382813 6.429688zm0 0"/><path d="m394.441406 264.679688c-1.527344 0-3.023437-.402344-4.339844-1.164063l-22.5625-13.015625c-4.117187-2.414062-5.511718-7.695312-3.128906-11.828125 2.386719-4.128906 7.660156-5.5625 11.804688-3.203125l22.5625 13.015625c3.402344 1.964844 5.0625 5.96875 4.042968 9.761719-1.015624 3.792968-4.453124 6.433594-8.378906 6.433594zm0 0"/><path d="m112.8125 182.238281h-26.03125c-4.792969 0-8.679688-3.886719-8.679688-8.679687 0-4.792969 3.886719-8.675782 8.679688-8.675782h26.03125c4.792969 0 8.679688 3.882813 8.679688 8.675782 0 4.792968-3.886719 8.679687-8.679688 8.679687zm0 0"/><path d="m416.542969 182.238281h-26.035157c-4.792968 0-8.675781-3.886719-8.675781-8.679687 0-4.792969 3.882813-8.675782 8.675781-8.675782h26.035157c4.792969 0 8.675781 3.882813 8.675781 8.675782 0 4.792968-3.882812 8.679687-8.675781 8.679687zm0 0"/><path d="m108.882812 264.679688c-3.929687 0-7.367187-2.640626-8.382812-6.433594-1.015625-3.792969.640625-7.796875 4.042969-9.761719l22.5625-13.015625c2.6875-1.574219 6.011719-1.589844 8.710937-.039062 2.699219 1.550781 4.363282 4.429687 4.355469 7.542968-.003906 3.113282-1.679687 5.988282-4.386719 7.527344l-22.5625 13.015625c-1.320312.761719-2.816406 1.164063-4.339844 1.164063zm0 0"/><path d="m371.910156 112.8125c-3.925781 0-7.363281-2.636719-8.378906-6.429688-1.019531-3.792968.640625-7.796874 4.042969-9.761718l22.5625-13.015625c2.683593-1.578125 6.007812-1.589844 8.710937-.039063 2.699219 1.550782 4.359375 4.429688 4.355469 7.542969-.007813 3.113281-1.683594 5.984375-4.390625 7.523437l-22.5625 13.019532c-1.316406.761718-2.816406 1.164062-4.339844 1.160156zm0 0"/><path d="m321.085938 61.996094c-3.101563-.003906-5.960938-1.660156-7.511719-4.34375-1.546875-2.683594-1.546875-5.992188.003906-8.675782l13.015625-22.5625c2.414062-4.113281 7.695312-5.511718 11.828125-3.125 4.128906 2.386719 5.5625 7.65625 3.203125 11.804688l-13.015625 22.5625c-1.550781 2.6875-4.421875 4.34375-7.523437 4.339844zm0 0"/><path d="m347.117188 216.949219c-1.011719-.003907-2.015626-.179688-2.964844-.53125l-71.074219-25.859375c-4.410156-1.703125-6.644531-6.621094-5.027344-11.0625 1.617188-4.441406 6.492188-6.773438 10.964844-5.242188l71.070313 25.859375c3.960937 1.4375 6.316406 5.515625 5.585937 9.664063-.730469 4.152344-4.339844 7.175781-8.554687 7.171875zm0 0"/><path d="m244.535156 157.246094c-3.871094-.003906-7.273437-2.570313-8.339844-6.292969l-27.59375-96.5c-1.320312-4.609375 1.347657-9.417969 5.957032-10.738281 4.609375-1.320313 9.417968 1.347656 10.738281 5.957031l27.597656 96.5c.632813 2.214844.359375 4.589844-.757812 6.601563-1.117188 2.015624-2.992188 3.5-5.207031 4.132812-.777344.21875-1.582032.332031-2.394532.339844zm0 0"/></g><path d="m86.78125 338.441406h-17.359375c-9.582031 0-17.355469-7.769531-17.355469-17.355468v-17.355469c0-9.585938 7.773438-17.359375 17.355469-17.359375h17.359375c9.582031 0 17.355469 7.773437 17.355469 17.359375v17.355469c0 9.585937-7.773438 17.355468-17.355469 17.355468zm-17.359375-34.710937v17.355469h17.359375v-17.355469zm0 0" fill="#bdc3c7"/><path d="m442.578125 303.730469v17.355469c0 4.792968-3.886719 8.675781-8.679687 8.675781h-156.203126v-34.710938h156.203126c4.792968 0 8.679687 3.886719 8.679687 8.679688zm0 0" fill="#ff5364"/><path d="m277.695312 295.050781v34.710938h-138.847656c-4.792968 0-8.679687-3.882813-8.679687-8.675781v-17.355469c0-4.792969 3.886719-8.679688 8.679687-8.679688zm0 0" fill="#fb7b76"/><path d="m86.78125 407.863281h-17.359375c-9.582031 0-17.355469-7.769531-17.355469-17.355469v-17.355468c0-9.585938 7.773438-17.355469 17.355469-17.355469h17.359375c9.582031 0 17.355469 7.769531 17.355469 17.355469v17.355468c0 9.585938-7.773438 17.355469-17.355469 17.355469zm-17.359375-34.710937v17.355468h17.359375v-17.355468zm0 0" fill="#bdc3c7"/><path d="m442.578125 373.152344v17.355468c0 4.792969-3.886719 8.679688-8.679687 8.679688h-156.203126v-34.714844h156.203126c4.792968 0 8.679687 3.886719 8.679687 8.679688zm0 0" fill="#ff5364"/><path d="m277.695312 364.472656v34.714844h-138.847656c-4.792968 0-8.679687-3.886719-8.679687-8.679688v-17.355468c0-4.792969 3.886719-8.679688 8.679687-8.679688zm0 0" fill="#fb7b76"/><path d="m391.800781 269.015625c-3.214843-.003906-6.160156-1.785156-7.660156-4.625-1.5-2.84375-1.308594-6.28125.5-8.9375.769531-1.117187 1.46875-2.273437 2.101563-3.472656 13.839843-23.816407 21.128906-50.875 21.121093-78.421875.078125-22.714844-4.886719-45.167969-14.535156-65.734375-1.902344-4.207031-4.03125-8.308594-6.378906-12.289063-27.890625-48.324218-79.441407-78.101562-135.238281-78.117187-55.796876-.015625-107.367188 29.730469-135.289063 78.039062-2.34375 3.96875-4.472656 8.0625-6.375 12.261719-9.675781 20.597656-14.660156 43.085938-14.589844 65.839844.007813 27.421875 7.234375 54.359375 20.957031 78.101562.683594 1.308594 1.4375 2.578125 2.265626 3.800782 1.800781 2.5625 2.082031 5.890624.738281 8.71875-1.34375 2.824218-4.105469 4.707031-7.226563 4.929687-3.121094.21875-6.121094-1.257813-7.847656-3.867187-1.128906-1.679688-2.160156-3.414063-3.097656-5.207032-15.164063-26.296875-23.144532-56.121094-23.144532-86.476562-.082031-25.265625 5.441407-50.238282 16.175782-73.109375 2.128906-4.710938 4.519531-9.300781 7.160156-13.746094 31.03125-53.632813 88.304688-86.6523438 150.269531-86.6367188 61.960938.015625 119.214844 33.0664058 150.222657 86.7148438 2.636718 4.453125 5.027343 9.050781 7.160156 13.769531 10.707031 22.84375 16.214844 47.78125 16.128906 73.007813.011719 30.472656-8.027344 60.410156-23.296875 86.78125-.894531 1.675781-1.875 3.304687-2.945313 4.875-1.613281 2.378906-4.300781 3.800781-7.175781 3.800781zm0 0" fill="#547580"/><path d="m442.578125 269.015625h-381.832031c-4.792969 0-8.679688-3.882813-8.679688-8.675781 0-4.792969 3.886719-8.679688 8.679688-8.679688h381.832031c4.789063 0 8.675781 3.886719 8.675781 8.679688 0 4.792968-3.886718 8.675781-8.675781 8.675781zm0 0" fill="#2c3e50"/><path d="m277.695312 173.558594c0 14.378906-11.65625 26.035156-26.035156 26.035156s-26.03125-11.65625-26.03125-26.035156 11.652344-26.03125 26.03125-26.03125 26.035156 11.652344 26.035156 26.03125zm0 0" fill="#7f8c8d"/></svg>