<svg height="512pt" viewBox="0 0 512 512" width="512pt" xmlns="http://www.w3.org/2000/svg"><path d="m297.753906 176.550781h196.589844c9.738281.03125 17.628906 7.917969 17.65625 17.65625v300.136719c-.027344 9.738281-7.917969 17.628906-17.65625 17.65625h-406.066406c-9.738282-.027344-17.628906-7.917969-17.65625-17.65625v-216.980469zm0 0" fill="#f3d55b"/><path d="m397.242188 211.863281h70.621093c4.875 0 8.828125 3.949219 8.828125 8.828125v105.929688c0 4.875-3.953125 8.828125-8.828125 8.828125h-70.621093c-4.875 0-8.828126-3.953125-8.828126-8.828125v-105.929688c0-4.878906 3.953126-8.828125 8.828126-8.828125zm0 0" fill="#e64c3c"/><g fill="#d25627"><path d="m141.242188 370.757812h-35.3125c-4.875 0-8.828126-3.953124-8.828126-8.828124s3.953126-8.828126 8.828126-8.828126h35.3125c4.875 0 8.828124 3.953126 8.828124 8.828126s-3.953124 8.828124-8.828124 8.828124zm0 0"/><path d="m344.277344 370.757812h-158.898438c-4.875 0-8.828125-3.953124-8.828125-8.828124s3.953125-8.828126 8.828125-8.828126h158.898438c4.875 0 8.824218 3.953126 8.824218 8.828126s-3.949218 8.828124-8.824218 8.828124zm0 0"/><path d="m211.863281 406.070312h-105.933593c-4.875 0-8.828126-3.953124-8.828126-8.828124s3.953126-8.828126 8.828126-8.828126h105.933593c4.875 0 8.828125 3.953126 8.828125 8.828126s-3.953125 8.828124-8.828125 8.828124zm0 0"/><path d="m317.792969 406.070312h-61.792969c-4.875 0-8.828125-3.953124-8.828125-8.828124s3.953125-8.828126 8.828125-8.828126h61.792969c4.875 0 8.828125 3.953126 8.828125 8.828126s-3.953125 8.828124-8.828125 8.828124zm0 0"/><path d="m273.65625 441.378906h-167.726562c-4.875 0-8.828126-3.953125-8.828126-8.828125s3.953126-8.828125 8.828126-8.828125h167.726562c4.875 0 8.828125 3.953125 8.828125 8.828125s-3.953125 8.828125-8.828125 8.828125zm0 0"/></g><path d="m150.070312 300.136719c-82.882812 0-150.070312-67.1875-150.070312-150.066407 0-82.882812 67.1875-150.070312 150.070312-150.070312 82.878907 0 150.066407 67.1875 150.066407 150.070312-.089844 82.839844-67.226563 149.976563-150.066407 150.066407zm0 0" fill="#35495e"/><path d="m264.828125 150.070312c-.011719 59.6875-45.777344 109.402344-105.261719 114.339844-59.484375 4.941406-112.824218-36.542968-122.679687-95.410156-9.859375-58.871094 27.058593-115.464844 84.90625-130.175781 57.847656-14.707031 117.3125 17.386719 136.765625 73.816406 4.152344 12.042969 6.269531 24.691406 6.269531 37.429687zm0 0" fill="#90bae1"/><path d="m258.558594 112.640625c-102.75 3.707031-169.222656 47.402344-210.183594 90.570313-19.964844-38.15625-16.886719-84.273438 7.964844-119.441407 24.855468-35.164062 67.304687-53.457031 109.933594-47.371093 42.628906 6.085937 78.265624 35.527343 92.285156 76.242187zm0 0" fill="#b0d3f0"/><path d="m150.070312 158.898438h-61.792968c-4.875 0-8.828125-3.953126-8.828125-8.828126s3.953125-8.828124 8.828125-8.828124h52.964844v-70.621094c0-4.875 3.953124-8.828125 8.828124-8.828125s8.828126 3.953125 8.828126 8.828125v79.449218c0 4.875-3.953126 8.828126-8.828126 8.828126zm0 0" fill="#7f8c8d"/></svg>