<svg height="512pt" viewBox="-71 0 512 512" width="512pt" xmlns="http://www.w3.org/2000/svg"><path d="m17.65625 35.308594h335.445312c9.753907 0 17.65625 7.90625 17.65625 17.65625v441.378906c0 9.75-7.902343 17.65625-17.65625 17.65625h-335.445312c-9.75 0-17.65625-7.90625-17.65625-17.65625v-441.378906c0-9.75 7.90625-17.65625 17.65625-17.65625zm0 0" fill="#7f5b53"/><path d="m264.828125 70.621094h61.792969c4.875 0 8.828125 3.953125 8.828125 8.828125v388.414062c0 4.875-3.953125 8.828125-8.828125 8.828125h-282.484375c-4.875 0-8.828125-3.953125-8.828125-8.828125v-388.414062c0-4.875 3.953125-8.828125 8.828125-8.828125zm0 0" fill="#f9eab0"/><path d="m150.070312 35.308594c0-19.5 15.808594-35.308594 35.308594-35.308594s35.3125 15.808594 35.3125 35.308594" fill="#95a5a5"/><path d="m105.929688 35.308594h158.898437v35.3125c0 9.75-7.90625 17.65625-17.65625 17.65625h-123.585937c-9.75 0-17.65625-7.90625-17.65625-17.65625zm0 0" fill="#bdc3c7"/><path d="m238.34375 141.242188c0 29.25-23.710938 52.964843-52.964844 52.964843-29.25 0-52.964844-23.714843-52.964844-52.964843 0-29.253907 23.714844-52.964844 52.964844-52.964844 29.253906 0 52.964844 23.710937 52.964844 52.964844zm0 0" fill="#955ba5"/><path d="m238.34375 282.484375c0 29.25-23.710938 52.964844-52.964844 52.964844-29.25 0-52.964844-23.714844-52.964844-52.964844 0-29.253906 23.714844-52.96875 52.964844-52.96875 29.253906 0 52.964844 23.714844 52.964844 52.96875zm0 0" fill="#4fba6f"/><path d="m238.34375 423.722656c0 29.253906-23.710938 52.96875-52.964844 52.96875-29.25 0-52.964844-23.714844-52.964844-52.96875 0-29.25 23.714844-52.964844 52.964844-52.964844 29.253906 0 52.964844 23.714844 52.964844 52.964844zm0 0" fill="#cc4b4c"/><path d="m185.378906 150.070312c-4.875 0-8.828125-3.953124-8.828125-8.828124v-26.484376c0-4.875 3.953125-8.828124 8.828125-8.828124s8.828125 3.953124 8.828125 8.828124v26.484376c0 4.875-3.953125 8.828124-8.828125 8.828124zm0 0" fill="#3d324c"/><path d="m185.378906 176.550781c-1.152344-.011719-2.292968-.253906-3.355468-.707031-1.078126-.425781-2.066407-1.054688-2.910157-1.851562-1.664062-1.660157-2.585937-3.917969-2.5625-6.269532 0-4.875 3.953125-8.824218 8.828125-8.824218s8.828125 3.949218 8.828125 8.824218c.019531 2.347656-.902343 4.605469-2.558593 6.269532-1.6875 1.625-3.929688 2.539062-6.269532 2.558593zm0 0" fill="#3d324c"/><path d="m181.847656 308.964844c-2.679687 0-5.21875-1.214844-6.894531-3.308594l-14.125-17.65625c-3.046875-3.808594-2.425781-9.367188 1.382813-12.414062 3.808593-3.050782 9.371093-2.429688 12.417968 1.378906l6.175782 7.742187 14.65625-24.425781c2.507812-4.179688 7.929687-5.535156 12.109374-3.027344 4.183594 2.507813 5.539063 7.929688 3.03125 12.109375l-21.1875 35.3125c-1.488281 2.476563-4.09375 4.070313-6.972656 4.261719zm0 0" fill="#4c8056"/><g fill="#802f34"><path d="m203.035156 450.207031c-2.339844 0-4.585937-.929687-6.242187-2.585937l-35.308594-35.3125c-3.347656-3.460938-3.300781-8.96875.105469-12.375 3.40625-3.402344 8.910156-3.449219 12.375-.105469l35.3125 35.308594c2.523437 2.527343 3.277344 6.324219 1.910156 9.621093-1.363281 3.296876-4.582031 5.449219-8.152344 5.449219zm0 0"/><path d="m167.722656 450.207031c-3.566406 0-6.785156-2.152343-8.152344-5.449219-1.367187-3.296874-.609374-7.09375 1.914063-9.621093l35.308594-35.308594c3.464843-3.34375 8.96875-3.296875 12.375.105469 3.40625 3.40625 3.453125 8.914062.109375 12.375l-35.3125 35.3125c-1.65625 1.65625-3.898438 2.585937-6.242188 2.585937zm0 0"/></g></svg>