<svg height="504pt" viewBox="-26 0 504 504.47579" width="504pt" xmlns="http://www.w3.org/2000/svg"><path d="m243.222656 442.578125h-225.628906c-9.574219-.03125-17.328125-7.785156-17.355469-17.359375v-373.152344c.027344-9.570312 7.78125-17.324218 17.355469-17.355468h295.050781c9.574219.03125 17.328125 7.785156 17.355469 17.355468v156.203125" fill="#7f5b53"/><path d="m268.996094 457.589844-21.4375 37.054687c-4.988282 7.847657-15.277344 10.371094-23.332032 5.714844-8.050781-4.65625-11.003906-14.828125-6.691406-23.070313l21.867188-37.75zm0 0" fill="#2c3e50"/><path d="m403.070312 439.625 22.039063 38.183594c3.421875 5.378906 3.617187 12.203125.511719 17.769531-3.109375 5.566406-9.015625 8.980469-15.390625 8.894531-6.375-.085937-12.191407-3.660156-15.144531-9.308594l-21.609376-37.488281zm0 0" fill="#2c3e50"/><path d="m295.289062 206.464844v-128.363282c0-4.792968-3.886718-8.679687-8.679687-8.679687h-242.980469c-4.792968 0-8.679687 3.886719-8.679687 8.679687v321.085938c0 4.792969 3.886719 8.675781 8.679687 8.675781h159.1875c3.453125.003907 6.578125-2.042969 7.957032-5.207031l83.796874-192.71875c.472657-1.09375.71875-2.277344.71875-3.472656zm0 0" fill="#f9eab0"/><path d="m130.40625 34.710938c0-19.167969 15.542969-34.710938 34.714844-34.710938 19.167968 0 34.710937 15.542969 34.710937 34.710938" fill="#95a5a5"/><path d="m87.015625 34.710938h156.207031v34.710937c0 9.585937-7.773437 17.359375-17.359375 17.359375h-121.488281c-9.585938 0-17.359375-7.773438-17.359375-17.359375zm0 0" fill="#bdc3c7"/><g fill="#802f34"><path d="m95.695312 130.167969h-26.035156c-4.792968 0-8.675781-3.882813-8.675781-8.675781 0-4.792969 3.882813-8.679688 8.675781-8.679688h26.035156c4.792969 0 8.679688 3.886719 8.679688 8.679688 0 4.792968-3.886719 8.675781-8.679688 8.675781zm0 0"/><path d="m260.578125 130.167969h-130.171875c-4.792969 0-8.675781-3.882813-8.675781-8.675781 0-4.792969 3.882812-8.679688 8.675781-8.679688h130.171875c4.792969 0 8.675781 3.886719 8.675781 8.679688 0 4.792968-3.882812 8.675781-8.675781 8.675781zm0 0"/><path d="m95.695312 173.558594h-26.035156c-4.792968 0-8.675781-3.882813-8.675781-8.675782 0-4.792968 3.882813-8.679687 8.675781-8.679687h26.035156c4.792969 0 8.679688 3.886719 8.679688 8.679687 0 4.792969-3.886719 8.675782-8.679688 8.675782zm0 0"/><path d="m173.796875 173.558594h-43.390625c-4.792969 0-8.675781-3.882813-8.675781-8.675782 0-4.792968 3.882812-8.679687 8.675781-8.679687h43.390625c4.792969 0 8.679687 3.886719 8.679687 8.679687 0 4.792969-3.886718 8.675782-8.679687 8.675782zm0 0"/><path d="m173.796875 216.949219h-43.390625c-4.792969 0-8.675781-3.886719-8.675781-8.679688s3.882812-8.675781 8.675781-8.675781h43.390625c4.792969 0 8.679687 3.882812 8.679687 8.675781s-3.886718 8.679688-8.679687 8.679688zm0 0"/><path d="m173.796875 260.339844h-43.390625c-4.792969 0-8.675781-3.886719-8.675781-8.679688 0-4.792968 3.882812-8.675781 8.675781-8.675781h43.390625c4.792969 0 8.679687 3.882813 8.679687 8.675781 0 4.792969-3.886718 8.679688-8.679687 8.679688zm0 0"/><path d="m156.441406 303.730469h-26.035156c-4.792969 0-8.675781-3.886719-8.675781-8.679688s3.882812-8.679687 8.675781-8.679687h26.035156c4.792969 0 8.679688 3.886718 8.679688 8.679687s-3.886719 8.679688-8.679688 8.679688zm0 0"/><path d="m156.441406 347.117188h-26.035156c-4.792969 0-8.675781-3.882813-8.675781-8.675782 0-4.792968 3.882812-8.679687 8.675781-8.679687h26.035156c4.792969 0 8.679688 3.886719 8.679688 8.679687 0 4.792969-3.886719 8.675782-8.679688 8.675782zm0 0"/><path d="m95.695312 216.949219h-26.035156c-4.792968 0-8.675781-3.886719-8.675781-8.679688s3.882813-8.675781 8.675781-8.675781h26.035156c4.792969 0 8.679688 3.882812 8.679688 8.675781s-3.886719 8.679688-8.679688 8.679688zm0 0"/><path d="m95.695312 260.339844h-26.035156c-4.792968 0-8.675781-3.886719-8.675781-8.679688 0-4.792968 3.882813-8.675781 8.675781-8.675781h26.035156c4.792969 0 8.679688 3.882813 8.679688 8.675781 0 4.792969-3.886719 8.679688-8.679688 8.679688zm0 0"/><path d="m95.695312 303.730469h-26.035156c-4.792968 0-8.675781-3.886719-8.675781-8.679688s3.882813-8.679687 8.675781-8.679687h26.035156c4.792969 0 8.679688 3.886718 8.679688 8.679687s-3.886719 8.679688-8.679688 8.679688zm0 0"/><path d="m95.695312 347.117188h-26.035156c-4.792968 0-8.675781-3.882813-8.675781-8.675782 0-4.792968 3.882813-8.679687 8.675781-8.679687h26.035156c4.792969 0 8.679688 3.886719 8.679688 8.679687 0 4.792969-3.886719 8.675782-8.679688 8.675782zm0 0"/></g><path d="m451.492188 338.441406c0 71.890625-58.277344 130.167969-130.167969 130.167969s-130.171875-58.277344-130.171875-130.167969 58.28125-130.171875 130.171875-130.171875 130.167969 58.28125 130.167969 130.171875zm0 0" fill="#35495e"/><path d="m321.324219 433.898438c-52.722657 0-95.460938-42.738282-95.460938-95.457032s42.738281-95.457031 95.460938-95.457031c52.71875 0 95.457031 42.738281 95.457031 95.457031-.058594 52.695313-42.761719 95.398438-95.457031 95.457032zm0 0" fill="#b0d3f0"/><path d="m211.6875 174.273438 7.109375-4.976563c11.777344-8.25 28.011719-5.386719 36.257813 6.390625l4.976562 7.109375-49.757812 34.84375-4.976563-7.109375c-8.25-11.777344-5.386719-28.011719 6.390625-36.257812zm0 0" fill="#2c3e50"/><path d="m431.828125 216.953125-49.757813-34.84375 4.976563-7.105469c8.246094-11.777344 24.480469-14.640625 36.257813-6.394531l7.109374 4.976563c11.777344 8.246093 14.640626 24.480468 6.394532 36.257812zm0 0" fill="#2c3e50"/><path d="m321.324219 286.371094c-4.792969 0-8.679688-3.882813-8.679688-8.675782v-8.679687c0-4.792969 3.886719-8.675781 8.679688-8.675781s8.675781 3.882812 8.675781 8.675781v8.679687c0 4.792969-3.882812 8.675782-8.675781 8.675782zm0 0" fill="#7f8c8d"/><path d="m321.324219 416.542969c-4.792969 0-8.679688-3.886719-8.679688-8.679688v-8.675781c0-4.792969 3.886719-8.679688 8.679688-8.679688s8.675781 3.886719 8.675781 8.679688v8.675781c0 4.792969-3.882812 8.679688-8.675781 8.679688zm0 0" fill="#7f8c8d"/><path d="m260.578125 347.117188h-8.679687c-4.792969 0-8.675782-3.882813-8.675782-8.675782 0-4.792968 3.882813-8.679687 8.675782-8.679687h8.679687c4.792969 0 8.675781 3.886719 8.675781 8.679687 0 4.792969-3.882812 8.675782-8.675781 8.675782zm0 0" fill="#7f8c8d"/><path d="m390.746094 347.117188h-8.675782c-4.792968 0-8.679687-3.882813-8.679687-8.675782 0-4.792968 3.886719-8.679687 8.679687-8.679687h8.675782c4.792968 0 8.679687 3.886719 8.679687 8.679687 0 4.792969-3.886719 8.675782-8.679687 8.675782zm0 0" fill="#7f8c8d"/><path d="m321.324219 347.117188c-1.878907.007812-3.707031-.605469-5.207031-1.734376l-34.714844-26.035156c-2.480469-1.859375-3.777344-4.902344-3.40625-7.980468.371094-3.078126 2.355468-5.722657 5.207031-6.941407s6.132813-.820312 8.613281 1.039063l28.699219 21.511718 38.070313-38.070312c3.40625-3.289062 8.816406-3.242188 12.164062.105469 3.347656 3.347656 3.394531 8.761719.105469 12.164062l-43.390625 43.390625c-1.625 1.632813-3.835938 2.550782-6.140625 2.550782zm0 0" fill="#7f8c8d"/></svg>