<svg height="512pt" viewBox="-26 0 512 512.05252" width="512pt" xmlns="http://www.w3.org/2000/svg"><path d="m17.679688 35.300781h423.726562c9.75 0 17.65625 7.90625 17.65625 17.65625v353.101563c0 9.753906-7.90625 17.65625-17.65625 17.65625h-423.726562c-9.75 0-17.6523442-7.902344-17.6523442-17.65625v-353.101563c0-9.75 7.9023442-17.65625 17.6523442-17.65625zm0 0" fill="#f3d55b"/><path d="m211.886719 0h35.3125c9.75 0 17.65625 7.90625 17.65625 17.65625v17.652344h-70.621094v-17.652344c0-9.75 7.902344-17.65625 17.652344-17.65625zm0 0" fill="#cb9080"/><path d="m185.777344 423.722656-27.894532 76.625c-3.503906 8.890625-13.445312 13.378906-22.433593 10.128906-8.984375-3.25-13.753907-13.058593-10.761719-22.132812l23.484375-64.621094zm0 0" fill="#7f5b53"/><path d="m310.933594 423.722656 23.480468 64.621094c2.160157 5.925781.996094 12.558594-3.058593 17.394531-4.054688 4.835938-10.382813 7.140625-16.597657 6.046875-6.214843-1.09375-11.375-5.421875-13.535156-11.347656l-27.894531-76.714844zm0 0" fill="#7f5b53"/><path d="m211.886719 423.722656h35.3125v70.621094c0 9.75-7.90625 17.65625-17.65625 17.65625s-17.65625-7.90625-17.65625-17.65625zm0 0" fill="#59474e"/><g fill="#f18d46"><path d="m194.234375 238.34375h-114.761719c-4.875 0-8.824218-3.949219-8.824218-8.828125 0-4.875 3.949218-8.824219 8.824218-8.824219h114.761719c4.875 0 8.828125 3.949219 8.828125 8.824219 0 4.878906-3.953125 8.828125-8.828125 8.828125zm0 0"/><path d="m379.613281 238.34375h-114.757812c-4.878907 0-8.828125-3.949219-8.828125-8.828125 0-4.875 3.949218-8.824219 8.828125-8.824219h114.757812c4.875 0 8.828125 3.949219 8.828125 8.824219 0 4.878906-3.953125 8.828125-8.828125 8.828125zm0 0"/><path d="m229.542969 203.035156c-4.875 0-8.828125-3.953125-8.828125-8.828125v-88.277343c0-4.875 3.953125-8.828126 8.828125-8.828126s8.828125 3.953126 8.828125 8.828126v88.277343c0 4.875-3.953125 8.828125-8.828125 8.828125zm0 0"/><path d="m229.542969 361.929688c-4.875 0-8.828125-3.949219-8.828125-8.828126v-88.273437c0-4.875 3.953125-8.828125 8.828125-8.828125s8.828125 3.953125 8.828125 8.828125v88.273437c0 4.878907-3.953125 8.828126-8.828125 8.828126zm0 0"/><path d="m106.320312 319.910156c-3.234374.003906-6.210937-1.757812-7.761718-4.597656l-36.015625-66.03125c-1.554688-2.773438-1.5-6.167969.144531-8.886719 1.648438-2.722656 4.628906-4.347656 7.808594-4.257812 3.175781.09375 6.0625 1.886719 7.546875 4.699219l36.019531 66.027343c1.492188 2.734375 1.429688 6.054688-.15625 8.730469-1.589844 2.679688-4.472656 4.324219-7.585938 4.328125zm0 0"/><path d="m131.203125 134.886719c-4.257813 0-7.910156-3.035157-8.683594-7.222657-.777343-4.1875 1.546875-8.328124 5.523438-9.851562l81.921875-31.433594c4.539062-1.707031 9.605468.570313 11.34375 5.097656 1.738281 4.527344-.5 9.609376-5.015625 11.382813l-81.917969 31.433594c-1.011719.390625-2.085938.589843-3.171875.59375zm0 0"/><path d="m388.800781 222.808594c-3.230469.003906-6.210937-1.761719-7.757812-4.597656l-36.015625-66.03125c-1.558594-2.773438-1.503906-6.167969.144531-8.890626 1.644531-2.71875 4.628906-4.347656 7.804687-4.253906 3.179688.089844 6.0625 1.886719 7.550782 4.695313l36.015625 66.03125c1.492187 2.734375 1.433593 6.050781-.15625 8.730469-1.585938 2.679687-4.46875 4.324218-7.585938 4.324218zm0 0"/><path d="m243.050781 368.199219c-3.710937.003906-7.027343-2.3125-8.300781-5.796875s-.230469-7.394532 2.605469-9.785156l50.230469-42.285157c2.398437-2.136719 5.769531-2.804687 8.800781-1.738281 3.03125 1.0625 5.246093 3.691406 5.78125 6.859375.53125 3.167969-.699219 6.378906-3.214844 8.378906l-50.226563 42.285157c-1.585937 1.34375-3.597656 2.082031-5.675781 2.082031zm0 0"/><path d="m319.585938 303.757812c-3.710938.003907-7.027344-2.3125-8.300782-5.796874-1.273437-3.484376-.230468-7.394532 2.605469-9.785157l64.175781-54.023437c2.398438-2.140625 5.769532-2.808594 8.800782-1.742188 3.035156 1.066406 5.246093 3.691406 5.78125 6.863282.535156 3.167968-.695313 6.375-3.210938 8.375l-64.175781 54.027343c-1.585938 1.34375-3.597657 2.082031-5.675781 2.082031zm0 0"/><path d="m327.882812 134.886719c-1.078124 0-2.152343-.199219-3.160156-.582031l-81.9375-31.4375c-4.515625-1.773438-6.753906-6.855469-5.015625-11.382813s6.804688-6.800781 11.34375-5.097656l81.921875 31.433593c3.976563 1.523438 6.300782 5.667969 5.523438 9.851563-.773438 4.1875-4.425782 7.226563-8.683594 7.222656zm0 0"/><path d="m70.285156 222.808594c-3.113281-.003906-5.996094-1.644532-7.585937-4.324219-1.589844-2.679687-1.648438-6-.15625-8.730469l36.015625-66.03125c1.488281-2.8125 4.371094-4.605468 7.550781-4.695312 3.179687-.09375 6.160156 1.53125 7.804687 4.253906 1.648438 2.71875 1.703126 6.117188.148438 8.890625l-36.019531 66.027344c-1.546875 2.84375-4.523438 4.609375-7.757813 4.609375zm0 0"/><path d="m213.125 373.230469c-1.082031 0-2.152344-.199219-3.160156-.582031l-81.9375-31.4375c-4.515625-1.769532-6.753906-6.851563-5.015625-11.378907 1.738281-4.527343 6.804687-6.804687 11.34375-5.101562l81.921875 31.4375c3.976562 1.519531 6.300781 5.664062 5.523437 9.851562-.773437 4.1875-4.425781 7.222657-8.683593 7.21875zm0 0"/></g><path d="m264.855469 229.515625c0 19.503906-15.8125 35.3125-35.3125 35.3125s-35.308594-15.808594-35.308594-35.3125c0-19.5 15.808594-35.308594 35.308594-35.308594s35.3125 15.808594 35.3125 35.308594zm0 0" fill="#3d324c"/><path d="m132.441406 132.414062c0 9.75-7.90625 17.65625-17.65625 17.65625s-17.65625-7.90625-17.65625-17.65625 7.90625-17.65625 17.65625-17.65625 17.65625 7.90625 17.65625 17.65625zm0 0" fill="#894b9d"/><path d="m132.441406 326.621094c0 9.75-7.90625 17.65625-17.65625 17.65625s-17.65625-7.90625-17.65625-17.65625 7.90625-17.65625 17.65625-17.65625 17.65625 7.90625 17.65625 17.65625zm0 0" fill="#894b9d"/><path d="m326.648438 308.964844c0 9.75-7.90625 17.65625-17.65625 17.65625s-17.65625-7.90625-17.65625-17.65625 7.90625-17.65625 17.65625-17.65625 17.65625 7.90625 17.65625 17.65625zm0 0" fill="#894b9d"/><path d="m79.472656 229.515625c0 9.753906-7.902344 17.65625-17.652344 17.65625s-17.65625-7.902344-17.65625-17.65625c0-9.75 7.90625-17.652344 17.65625-17.652344s17.652344 7.902344 17.652344 17.652344zm0 0" fill="#894b9d"/><path d="m361.957031 132.414062c0 9.75-7.902343 17.65625-17.65625 17.65625-9.75 0-17.652343-7.90625-17.652343-17.65625s7.902343-17.65625 17.652343-17.65625c9.753907 0 17.65625 7.90625 17.65625 17.65625zm0 0" fill="#894b9d"/><path d="m414.921875 229.515625c0 9.753906-7.902344 17.65625-17.652344 17.65625-9.753906 0-17.65625-7.902344-17.65625-17.65625 0-9.75 7.902344-17.652344 17.65625-17.652344 9.75 0 17.652344 7.902344 17.652344 17.652344zm0 0" fill="#894b9d"/><path d="m247.199219 88.277344c0 9.75-7.90625 17.652344-17.65625 17.652344s-17.65625-7.902344-17.65625-17.652344c0-9.753906 7.90625-17.65625 17.65625-17.65625s17.65625 7.902344 17.65625 17.65625zm0 0" fill="#894b9d"/><path d="m247.199219 370.757812c0 9.75-7.90625 17.65625-17.65625 17.65625s-17.65625-7.90625-17.65625-17.65625 7.90625-17.65625 17.65625-17.65625 17.65625 7.90625 17.65625 17.65625zm0 0" fill="#894b9d"/></svg>