<svg height="512pt" viewBox="-97 0 512 512" width="512pt" xmlns="http://www.w3.org/2000/svg"><path d="m35.308594 0h247.175781c19.5 0 35.308594 15.808594 35.308594 35.308594v441.382812c0 19.5-15.808594 35.308594-35.308594 35.308594h-247.175781c-19.5 0-35.308594-15.808594-35.308594-35.308594v-441.382812c0-19.5 15.808594-35.308594 35.308594-35.308594zm0 0" fill="#35495e"/><g fill="#2c3e50"><path d="m176.550781 44.136719h-35.308593c-4.875 0-8.828126-3.949219-8.828126-8.828125 0-4.875 3.953126-8.824219 8.828126-8.824219h35.308593c4.875 0 8.828125 3.949219 8.828125 8.824219 0 4.878906-3.953125 8.828125-8.828125 8.828125zm0 0"/><path d="m247.171875 44.136719c-1.152344-.011719-2.292969-.253907-3.355469-.703125-1.066406-.449219-2.054687-1.078125-2.910156-1.855469-.78125-.859375-1.40625-1.84375-1.855469-2.914063-.453125-1.058593-.691406-2.199218-.707031-3.355468 0-4.875 3.953125-8.824219 8.828125-8.824219s8.828125 3.949219 8.828125 8.824219c-.015625 1.15625-.253906 2.296875-.707031 3.355468-.449219 1.070313-1.074219 2.054688-1.851563 2.914063-.859375.777344-1.84375 1.40625-2.914062 1.855469-1.0625.449218-2.203125.691406-3.355469.703125zm0 0"/><path d="m282.484375 44.136719c-1.15625-.011719-2.292969-.253907-3.355469-.703125-1.070312-.449219-2.054687-1.078125-2.914062-1.855469-.777344-.859375-1.40625-1.84375-1.851563-2.914063-.453125-1.058593-.695312-2.199218-.707031-3.355468 0-4.875 3.949219-8.824219 8.828125-8.824219 4.875 0 8.824219 3.949219 8.824219 8.824219-.011719 1.15625-.253906 2.296875-.703125 3.355468-.453125 1.070313-1.078125 2.054688-1.855469 2.914063-.859375.777344-1.84375 1.40625-2.914062 1.855469-1.058594.449218-2.199219.691406-3.351563.703125zm0 0"/></g><path d="m229.515625 132.414062h-26.480469c-4.875 0-8.828125-3.953124-8.828125-8.828124v-52.964844c0-4.875 3.953125-8.828125 8.828125-8.828125h26.480469c4.878906 0 8.828125 3.953125 8.828125 8.828125s-3.949219 8.828125-8.828125 8.828125h-17.652344v35.308593h17.652344c4.878906 0 8.828125 3.953126 8.828125 8.828126s-3.949219 8.828124-8.828125 8.828124zm0 0" fill="#f3d55b"/><path d="m220.691406 105.929688h-17.65625c-4.875 0-8.828125-3.949219-8.828125-8.828126 0-4.875 3.953125-8.824218 8.828125-8.824218h17.65625c4.875 0 8.824219 3.949218 8.824219 8.824218 0 4.878907-3.949219 8.828126-8.824219 8.828126zm0 0" fill="#f3d55b"/><path d="m264.828125 370.757812c-.074219 9.722657-7.933594 17.582032-17.65625 17.65625h-88.273437v-229.515624c9.738281.027343 17.625 7.914062 17.652343 17.652343v19.421875c41.089844 8.421875 70.597657 44.566406 70.621094 86.511719v48.636719c.371094 10.359375 4.851563 20.140625 12.449219 27.191406 3.3125 3.296875 5.1875 7.769531 5.207031 12.445312zm0 0" fill="#f3d55b"/><path d="m158.898438 158.898438v229.515624h-87.308594c-9.378906.179688-17.378906-6.753906-18.535156-16.066406-.527344-5.214844 1.355468-10.386718 5.117187-14.035156l.265625-.265625c7.511719-6.941406 11.902344-16.613281 12.183594-26.835937v-48.726563c.050781-41.9375 29.546875-78.066406 70.621094-86.511719v-18.363281c-.25-8.894531 5.933593-16.679687 14.652343-18.449219.992188-.171875 1.996094-.257812 3.003907-.261718zm0 0" fill="#f0c419"/><path d="m114.757812 353.101562h-8.828124c-4.875 0-8.828126-3.949218-8.828126-8.824218s3.953126-8.828125 8.828126-8.828125h8.828124c4.875 0 8.828126 3.953125 8.828126 8.828125s-3.953126 8.824218-8.828126 8.824218zm0 0" fill="#f9eab0"/><path d="m211.863281 353.101562h-61.792969c-4.875 0-8.828124-3.949218-8.828124-8.824218s3.953124-8.828125 8.828124-8.828125h61.792969c4.875 0 8.828125 3.953125 8.828125 8.828125s-3.953125 8.824218-8.828125 8.824218zm0 0" fill="#f9eab0"/><path d="m158.898438 132.414062c-14.628907 0-26.484376-11.855468-26.484376-26.484374v-35.308594c0-4.875 3.953126-8.828125 8.828126-8.828125s8.828124 3.953125 8.828124 8.828125v35.308594c0 4.875 3.949219 8.828124 8.828126 8.828124 4.875 0 8.824218-3.953124 8.824218-8.828124v-35.308594c0-4.875 3.953125-8.828125 8.828125-8.828125s8.828125 3.953125 8.828125 8.828125v35.308594c0 14.628906-11.855468 26.484374-26.480468 26.484374zm0 0" fill="#f3d55b"/><path d="m97.101562 132.414062h-17.652343c-4.875 0-8.828125-3.953124-8.828125-8.828124v-52.964844c0-4.875 3.953125-8.828125 8.828125-8.828125h17.652343c14.628907 0 26.484376 11.855469 26.484376 26.484375v17.652344c0 14.628906-11.855469 26.484374-26.484376 26.484374zm-8.824218-17.65625h8.824218c4.878907 0 8.828126-3.953124 8.828126-8.828124v-17.652344c0-4.875-3.949219-8.828125-8.828126-8.828125h-8.824218zm0 0" fill="#f3d55b"/><path d="m317.792969 423.722656v52.96875c0 19.5-15.808594 35.308594-35.308594 35.308594h-247.175781c-19.5 0-35.308594-15.808594-35.308594-35.308594v-52.96875zm0 0" fill="#95a5a5"/><path d="m176.550781 467.863281c0 9.75-7.902343 17.652344-17.652343 17.652344-9.753907 0-17.65625-7.902344-17.65625-17.652344s7.902343-17.65625 17.65625-17.65625c9.75 0 17.652343 7.90625 17.652343 17.65625zm0 0" fill="#35495e"/></svg>