<svg height="512pt" viewBox="0 0 512 512" width="512pt" xmlns="http://www.w3.org/2000/svg"><path d="m512 494.34375c0 9.75-7.90625 17.65625-17.65625 17.65625h-476.6875c-9.75 0-17.65625-7.90625-17.65625-17.65625v-17.652344h512zm0 0" fill="#f29c1f"/><path d="m512 476.691406-88.277344-97.105468h-335.445312l-88.277344 97.105468zm0 0" fill="#f3d55b"/><path d="m414.898438 247.171875v44.136719c0 29.222656-71.152344 52.96875-158.898438 52.96875s-158.898438-23.746094-158.898438-52.96875v-44.136719zm0 0" fill="#cc4b4c"/><path d="m217.601562 342.6875 38.398438 98.691406 38.398438-98.691406zm0 0" fill="#bdc3c7"/><path d="m336.066406 201.445312c47.140625 9.179688 78.832032 26.21875 78.832032 45.726563 0 29.21875-71.152344 52.964844-158.898438 52.964844s-158.898438-23.746094-158.898438-52.964844c0-19.507813 31.691407-36.546875 78.832032-45.726563zm0 0" fill="#fb7b76"/><path d="m322.261719 238.34375c5.351562 0 10.417969-2.429688 13.769531-6.609375 3.347656-4.175781 4.621094-9.648437 3.460938-14.875l-3.425782-15.414063-22.511718-101.164062h-115.109376l-22.511718 101.164062-3.425782 15.414063c-1.160156 5.226563.113282 10.699219 3.460938 14.875 3.351562 4.179687 8.417969 6.609375 13.769531 6.609375zm0 0" fill="#802f34"/><path d="m361.929688 35.308594v35.3125c0 19.507812-47.402344 35.308594-105.929688 35.308594s-105.929688-15.800782-105.929688-35.308594v-35.3125zm0 0" fill="#cc4b4c"/><path d="m361.929688 35.308594c0-19.5-47.425782-35.308594-105.929688-35.308594s-105.929688 15.808594-105.929688 35.308594c0 19.503906 47.425782 35.3125 105.929688 35.3125s105.929688-15.808594 105.929688-35.3125zm0 0" fill="#fb7b76"/></svg>