<svg height="512pt" viewBox="0 0 512 512" width="512pt" xmlns="http://www.w3.org/2000/svg"><path d="m256 119.464844c-4.710938 0-8.535156-3.820313-8.535156-8.53125v-51.199219c0-4.714844 3.824218-8.535156 8.535156-8.535156s8.535156 3.820312 8.535156 8.535156v51.199219c0 4.710937-3.824218 8.53125-8.535156 8.53125zm0 0" fill="#802f34"/><path d="m281.601562 34.132812c0 14.140626-11.464843 25.601563-25.601562 25.601563s-25.601562-11.460937-25.601562-25.601563c0-14.136718 11.464843-25.597656 25.601562-25.597656s25.601562 11.460938 25.601562 25.597656zm0 0" fill="#cc4b4c"/><path d="m256 460.800781c-4.710938 0-8.535156-3.820312-8.535156-8.535156v-51.199219c0-4.710937 3.824218-8.53125 8.535156-8.53125s8.535156 3.820313 8.535156 8.53125v51.199219c0 4.714844-3.824218 8.535156-8.535156 8.535156zm0 0" fill="#802f34"/><path d="m281.601562 477.867188c0 14.136718-11.464843 25.597656-25.601562 25.597656s-25.601562-11.460938-25.601562-25.597656c0-14.140626 11.464843-25.601563 25.601562-25.601563s25.601562 11.460937 25.601562 25.601563zm0 0" fill="#cc4b4c"/><path d="m136.535156 187.734375c-1.5 0-2.972656-.394531-4.269531-1.144531l-44.371094-25.601563c-2.664062-1.511719-4.308593-4.335937-4.316406-7.398437s1.628906-5.890625 4.28125-7.417969c2.65625-1.523437 5.925781-1.511719 8.566406.039063l44.375 25.597656c3.34375 1.933594 4.972657 5.871094 3.976563 9.601562-1 3.730469-4.382813 6.324219-8.242188 6.324219zm0 0" fill="#802f34"/><path d="m82.820312 118.625c12.242188 7.070312 16.4375 22.726562 9.371094 34.96875-7.070312 12.246094-22.726562 16.441406-34.972656 9.371094-12.242188-7.070313-16.4375-22.726563-9.371094-34.96875 7.070313-12.246094 22.726563-16.441406 34.972656-9.371094zm0 0" fill="#cc4b4c"/><path d="m419.839844 366.933594c-1.5.003906-2.96875-.390625-4.265625-1.144532l-44.375-25.597656c-2.660157-1.515625-4.308594-4.339844-4.316407-7.402344-.003906-3.0625 1.628907-5.890624 4.285157-7.417968 2.65625-1.523438 5.921875-1.507813 8.566406.039062l44.371094 25.601563c3.347656 1.929687 4.976562 5.867187 3.976562 9.597656s-4.378906 6.324219-8.242187 6.324219zm0 0" fill="#802f34"/><path d="m454.765625 349.042969c12.246094 7.070312 16.441406 22.726562 9.371094 34.96875-7.070313 12.242187-22.726563 16.4375-34.96875 9.371093-12.246094-7.070312-16.441407-22.726562-9.371094-34.972656 7.070313-12.242187 22.726563-16.4375 34.96875-9.367187zm0 0" fill="#cc4b4c"/><path d="m92.160156 366.933594c-3.863281 0-7.242187-2.59375-8.242187-6.324219s.628906-7.667969 3.976562-9.597656l44.371094-25.601563c2.644531-1.546875 5.910156-1.5625 8.566406-.039062 2.65625 1.527344 4.289063 4.355468 4.285157 7.417968-.007813 3.0625-1.65625 5.886719-4.316407 7.402344l-44.375 25.597656c-1.296875.753907-2.765625 1.148438-4.265625 1.144532zm0 0" fill="#802f34"/><path d="m92.191406 358.402344c7.070313 12.242187 2.875 27.898437-9.371094 34.96875-12.242187 7.070312-27.898437 2.875-34.96875-9.371094-7.070312-12.242188-2.875-27.898438 9.371094-34.96875 12.242188-7.070312 27.898438-2.875 34.96875 9.371094zm0 0" fill="#cc4b4c"/><path d="m375.464844 187.734375c-3.859375 0-7.242188-2.59375-8.242188-6.324219-.996094-3.730468.632813-7.667968 3.976563-9.601562l44.375-25.597656c2.640625-1.550782 5.910156-1.5625 8.566406-.039063 2.652344 1.527344 4.289063 4.355469 4.28125 7.417969s-1.652344 5.886718-4.316406 7.398437l-44.371094 25.601563c-1.296875.75-2.769531 1.144531-4.269531 1.144531zm0 0" fill="#802f34"/><path d="m464.144531 128.003906c7.070313 12.242188 2.875 27.902344-9.371093 34.96875-12.242188 7.070313-27.898438 2.875-34.96875-9.367187-7.070313-12.246094-2.875-27.902344 9.371093-34.972657 12.242188-7.070312 27.898438-2.875 34.96875 9.371094zm0 0" fill="#cc4b4c"/><g fill="#3d324c"><path d="m332.800781 17.066406h-17.066406c-4.714844 0-8.535156-3.820312-8.535156-8.53125 0-4.714844 3.820312-8.535156 8.535156-8.535156h17.066406c4.710938 0 8.53125 3.820312 8.53125 8.535156 0 4.710938-3.820312 8.53125-8.53125 8.53125zm0 0"/><path d="m392.535156 17.066406h-25.601562c-4.714844 0-8.535156-3.820312-8.535156-8.53125 0-4.714844 3.820312-8.535156 8.535156-8.535156h25.601562c4.710938 0 8.53125 3.820312 8.53125 8.535156 0 4.710938-3.820312 8.53125-8.53125 8.53125zm0 0"/><path d="m392.535156 51.199219h-76.800781c-4.714844 0-8.535156-3.820313-8.535156-8.53125 0-4.714844 3.820312-8.535157 8.535156-8.535157h76.800781c4.710938 0 8.53125 3.820313 8.53125 8.535157 0 4.710937-3.820312 8.53125-8.53125 8.53125zm0 0"/><path d="m341.332031 85.332031h-25.597656c-4.714844 0-8.535156-3.820312-8.535156-8.53125 0-4.714843 3.820312-8.535156 8.535156-8.535156h25.597656c4.714844 0 8.535157 3.820313 8.535157 8.535156 0 4.710938-3.820313 8.53125-8.535157 8.53125zm0 0"/><path d="m443.734375 204.800781h-17.066406c-4.714844 0-8.535157-3.820312-8.535157-8.535156 0-4.710937 3.820313-8.53125 8.535157-8.53125h17.066406c4.710937 0 8.53125 3.820313 8.53125 8.53125 0 4.714844-3.820313 8.535156-8.53125 8.535156zm0 0"/><path d="m503.464844 204.800781h-25.597656c-4.714844 0-8.535157-3.820312-8.535157-8.535156 0-4.710937 3.820313-8.53125 8.535157-8.53125h25.597656c4.714844 0 8.535156 3.820313 8.535156 8.53125 0 4.714844-3.820312 8.535156-8.535156 8.535156zm0 0"/><path d="m503.464844 238.933594h-76.796875c-4.714844 0-8.535157-3.820313-8.535157-8.535156 0-4.710938 3.820313-8.53125 8.535157-8.53125h76.796875c4.714844 0 8.535156 3.820312 8.535156 8.53125 0 4.714843-3.820312 8.535156-8.535156 8.535156zm0 0"/><path d="m452.265625 273.066406h-25.597656c-4.714844 0-8.535157-3.820312-8.535157-8.53125 0-4.714844 3.820313-8.535156 8.535157-8.535156h25.597656c4.714844 0 8.535156 3.820312 8.535156 8.535156 0 4.710938-3.820312 8.53125-8.535156 8.53125zm0 0"/><path d="m85.332031 204.800781h-17.066406c-4.710937 0-8.53125-3.820312-8.53125-8.535156 0-4.710937 3.820313-8.53125 8.53125-8.53125h17.066406c4.714844 0 8.535157 3.820313 8.535157 8.53125 0 4.714844-3.820313 8.535156-8.535157 8.535156zm0 0"/><path d="m34.132812 204.800781h-25.597656c-4.714844 0-8.535156-3.820312-8.535156-8.535156 0-4.710937 3.820312-8.53125 8.535156-8.53125h25.597656c4.714844 0 8.535157 3.820313 8.535157 8.53125 0 4.714844-3.820313 8.535156-8.535157 8.535156zm0 0"/><path d="m85.332031 238.933594h-76.796875c-4.714844 0-8.535156-3.820313-8.535156-8.535156 0-4.710938 3.820312-8.53125 8.535156-8.53125h76.796875c4.714844 0 8.535157 3.820312 8.535157 8.53125 0 4.714843-3.820313 8.535156-8.535157 8.535156zm0 0"/><path d="m85.332031 273.066406h-25.597656c-4.714844 0-8.535156-3.820312-8.535156-8.53125 0-4.714844 3.820312-8.535156 8.535156-8.535156h25.597656c4.714844 0 8.535157 3.820312 8.535157 8.535156 0 4.710938-3.820313 8.53125-8.535157 8.53125zm0 0"/><path d="m443.734375 435.199219h-17.066406c-4.714844 0-8.535157-3.820313-8.535157-8.53125 0-4.714844 3.820313-8.535157 8.535157-8.535157h17.066406c4.710937 0 8.53125 3.820313 8.53125 8.535157 0 4.710937-3.820313 8.53125-8.53125 8.53125zm0 0"/><path d="m503.464844 435.199219h-25.597656c-4.714844 0-8.535157-3.820313-8.535157-8.53125 0-4.714844 3.820313-8.535157 8.535157-8.535157h25.597656c4.714844 0 8.535156 3.820313 8.535156 8.535157 0 4.710937-3.820312 8.53125-8.535156 8.53125zm0 0"/><path d="m503.464844 469.332031h-76.796875c-4.714844 0-8.535157-3.820312-8.535157-8.53125 0-4.714843 3.820313-8.535156 8.535157-8.535156h76.796875c4.714844 0 8.535156 3.820313 8.535156 8.535156 0 4.710938-3.820312 8.53125-8.535156 8.53125zm0 0"/><path d="m452.265625 503.464844h-25.597656c-4.714844 0-8.535157-3.820313-8.535157-8.53125 0-4.714844 3.820313-8.535156 8.535157-8.535156h25.597656c4.714844 0 8.535156 3.820312 8.535156 8.535156 0 4.710937-3.820312 8.53125-8.535156 8.53125zm0 0"/><path d="m196.265625 443.734375h-17.066406c-4.710938 0-8.53125-3.820313-8.53125-8.535156 0-4.710938 3.820312-8.53125 8.53125-8.53125h17.066406c4.714844 0 8.535156 3.820312 8.535156 8.53125 0 4.714843-3.820312 8.535156-8.535156 8.535156zm0 0"/><path d="m145.066406 443.734375h-25.601562c-4.710938 0-8.53125-3.820313-8.53125-8.535156 0-4.710938 3.820312-8.53125 8.53125-8.53125h25.601562c4.714844 0 8.535156 3.820312 8.535156 8.53125 0 4.714843-3.820312 8.535156-8.535156 8.535156zm0 0"/><path d="m196.265625 477.867188h-76.800781c-4.710938 0-8.53125-3.820313-8.53125-8.535157 0-4.710937 3.820312-8.53125 8.53125-8.53125h76.800781c4.714844 0 8.535156 3.820313 8.535156 8.53125 0 4.714844-3.820312 8.535157-8.535156 8.535157zm0 0"/><path d="m196.265625 512h-25.597656c-4.714844 0-8.535157-3.820312-8.535157-8.535156 0-4.710938 3.820313-8.53125 8.535157-8.53125h25.597656c4.714844 0 8.535156 3.820312 8.535156 8.53125 0 4.714844-3.820312 8.535156-8.535156 8.535156zm0 0"/></g><path d="m375.464844 179.199219-43.773438 25.003906-75.691406-42.070313-75.691406 42.070313-43.773438-25.003906 119.464844-68.265625zm0 0" fill="#f3d55b"/><path d="m256 349.867188v51.199218l-119.464844-68.265625v-153.601562l43.773438 25.003906-1.109375.597656v102.398438zm0 0" fill="#f0c419"/><path d="m375.464844 179.199219v153.601562l-119.464844 68.265625v-51.199218l76.800781-42.667969v-102.398438l-1.109375-.597656zm0 0" fill="#f29c1f"/><path d="m331.691406 204.203125-75.691406 43.261719-75.691406-43.261719 75.691406-42.070313zm0 0" fill="#b49aca"/><path d="m332.800781 204.800781v102.398438l-76.800781 42.667969v-102.402344l75.691406-43.261719zm0 0" fill="#3d324c"/><path d="m256 247.464844v102.402344l-76.800781-42.667969v-102.398438l1.109375-.597656zm0 0" fill="#7d6599"/></svg>