<svg height="512pt" viewBox="0 0 512 512.00274" width="512pt" xmlns="http://www.w3.org/2000/svg"><path d="m511.472656 376.761719c.355469-1.980469.53125-3.992188.527344-6.003907v-335.449218c0-19.5-15.808594-35.308594-35.308594-35.308594h-441.378906c-19.503906 0-35.3125 15.808594-35.3125 35.308594v335.449218c0 19.503907 15.808594 35.3125 35.3125 35.3125h156.246094c6.996094-.023437 13.339844 4.101563 16.15625 10.503907l40.429687 90.570312c1.511719 2.949219 4.542969 4.804688 7.855469 4.804688s6.347656-1.855469 7.859375-4.804688l22.15625-49.609375zm0 0" fill="#285680"/><path d="m512 35.308594v335.449218c.003906 2.011719-.171875 4.023438-.527344 6.003907l-225.457031 80.773437-22.15625 49.609375c-1.441406 3.019531-4.515625 4.914063-7.859375 4.855469v-512h220.691406c19.5 0 35.308594 15.808594 35.308594 35.308594zm0 0" fill="#4482c3"/><path d="m512 388.414062c0 68.253907-55.328125 123.585938-123.585938 123.585938-68.253906 0-123.585937-55.332031-123.585937-123.585938 0-68.253906 55.332031-123.585937 123.585937-123.585937 68.257813 0 123.585938 55.332031 123.585938 123.585937zm0 0" fill="#4fba6f"/><path d="m450.207031 370.757812h-44.136719v-44.136718c0-4.875-3.953124-8.828125-8.828124-8.828125h-17.65625c-4.875 0-8.824219 3.953125-8.824219 8.828125v44.136718h-44.140625c-4.875 0-8.828125 3.953126-8.828125 8.828126v17.65625c0 4.875 3.953125 8.828124 8.828125 8.828124h44.140625v44.136719c0 4.875 3.949219 8.828125 8.824219 8.828125h17.65625c4.875 0 8.828124-3.953125 8.828124-8.828125v-44.136719h44.136719c4.875 0 8.828125-3.953124 8.828125-8.828124v-17.65625c0-4.875-3.953125-8.828126-8.828125-8.828126zm0 0" fill="#7ed09e"/><g fill="#90bae1"><path d="m70.621094 70.621094h-26.480469c-4.875 0-8.828125-3.953125-8.828125-8.828125s3.953125-8.828125 8.828125-8.828125h26.480469c4.875 0 8.828125 3.953125 8.828125 8.828125s-3.953125 8.828125-8.828125 8.828125zm0 0"/><path d="m467.863281 70.621094h-353.101562c-4.878907 0-8.828125-3.953125-8.828125-8.828125s3.949218-8.828125 8.828125-8.828125h353.101562c4.875 0 8.828125 3.953125 8.828125 8.828125s-3.953125 8.828125-8.828125 8.828125zm0 0"/><path d="m70.621094 150.070312h-26.480469c-4.875 0-8.828125-3.953124-8.828125-8.828124s3.953125-8.828126 8.828125-8.828126h26.480469c4.875 0 8.828125 3.953126 8.828125 8.828126s-3.953125 8.828124-8.828125 8.828124zm0 0"/><path d="m467.863281 150.070312h-353.101562c-4.878907 0-8.828125-3.953124-8.828125-8.828124s3.949218-8.828126 8.828125-8.828126h353.101562c4.875 0 8.828125 3.953126 8.828125 8.828126s-3.953125 8.828124-8.828125 8.828124zm0 0"/><path d="m70.621094 229.515625h-26.480469c-4.875 0-8.828125-3.949219-8.828125-8.824219 0-4.878906 3.953125-8.828125 8.828125-8.828125h26.480469c4.875 0 8.828125 3.949219 8.828125 8.828125 0 4.875-3.953125 8.824219-8.828125 8.824219zm0 0"/><path d="m467.863281 229.515625h-353.101562c-4.878907 0-8.828125-3.949219-8.828125-8.824219 0-4.878906 3.949218-8.828125 8.828125-8.828125h353.101562c4.875 0 8.828125 3.949219 8.828125 8.828125 0 4.875-3.953125 8.824219-8.828125 8.824219zm0 0"/><path d="m70.621094 308.964844h-26.480469c-4.875 0-8.828125-3.953125-8.828125-8.828125s3.953125-8.828125 8.828125-8.828125h26.480469c4.875 0 8.828125 3.953125 8.828125 8.828125s-3.953125 8.828125-8.828125 8.828125zm0 0"/><path d="m256 308.964844h-141.238281c-4.878907 0-8.828125-3.953125-8.828125-8.828125s3.949218-8.828125 8.828125-8.828125h141.238281c4.875 0 8.828125 3.953125 8.828125 8.828125s-3.953125 8.828125-8.828125 8.828125zm0 0"/></g></svg>