<svg height="512pt" viewBox="-22 0 512 512.00139" width="512pt" xmlns="http://www.w3.org/2000/svg"><path d="m353.105469 467.863281v-414.898437c-.03125-9.738282-7.917969-17.625-17.65625-17.65625h-317.792969c-9.738281.03125-17.625 7.917968-17.65625 17.65625v397.242187c.03125 9.738281 7.917969 17.625 17.65625 17.65625zm0 0" fill="#7f5b53"/><path d="m256 432.550781h52.964844c4.875 0 8.828125-3.953125 8.828125-8.828125v-344.273437c0-4.875-3.953125-8.828125-8.828125-8.828125h-264.828125c-4.875 0-8.824219 3.953125-8.824219 8.828125v344.273437c0 4.875 3.949219 8.828125 8.824219 8.828125zm0 0" fill="#f9eab0"/><path d="m141.242188 35.308594c0-19.5 15.808593-35.308594 35.308593-35.308594 19.503907 0 35.3125 15.808594 35.3125 35.308594" fill="#ecf0f1"/><path d="m97.105469 35.308594h158.894531v35.3125c0 9.75-7.902344 17.65625-17.65625 17.65625h-123.585938c-9.75 0-17.652343-7.90625-17.652343-17.65625zm0 0" fill="#bdc3c7"/><path d="m157.027344 303.667969-54.230469-54.226563c-3.445313-3.449218-3.445313-9.035156 0-12.484375l12.484375-12.480469c3.445312-3.445312 9.035156-3.445312 12.480469 0l24.214843 24.214844c1.855469 1.851563 4.4375 2.785156 7.050782 2.546875 2.609375-.242187 4.980468-1.632812 6.464844-3.792969l74.070312-107.695312c1.328125-1.929688 3.367188-3.257812 5.667969-3.683594 2.304687-.425781 4.683593.078125 6.613281 1.40625l14.539062 9.949219c1.929688 1.324219 3.253907 3.363281 3.683594 5.667969.425782 2.300781-.078125 4.679687-1.40625 6.609375l-98.121094 142.699219c-1.480468 2.164062-3.847656 3.558593-6.457031 3.804687-2.613281.246094-5.199219-.683594-7.054687-2.535156zm0 0" fill="#24ae5f"/><path d="m158.898438 476.691406h-70.621094c-9.738282-.03125-17.625-7.917968-17.65625-17.65625v-52.964844c.03125-9.738281 7.917968-17.628906 17.65625-17.65625h70.621094" fill="#ff5364"/><path d="m158.898438 476.691406v16.683594c0 3.410156 1.964843 6.515625 5.046874 7.972656 3.082032 1.460938 6.726563 1.015625 9.367188-1.140625l74.335938-60.824219c2.050781-1.675781 3.238281-4.183593 3.238281-6.832031 0-2.648437-1.1875-5.15625-3.238281-6.832031l-74.335938-60.820312c-2.640625-2.160157-6.285156-2.605469-9.367188-1.144532-3.082031 1.460938-5.046874 4.566406-5.046874 7.976563v16.683593" fill="#ff5364"/><path d="m467.863281 467.863281v4.414063c0 18.714844-30.101562 34.335937-70.621093 38.574218v-42.988281c11.570312-10.316406 20.265624-23.457031 25.246093-38.136719 6.96875-18.867187 10.378907-38.859374 10.0625-58.96875l.972657-.882812c18.363281 20.128906 34.339843 51.023438 34.339843 97.988281zm0 0" fill="#35495e"/><path d="m397.242188 467.863281v42.988281c-7.328126.792969-14.695313 1.175782-22.070313 1.148438-51.199219 0-92.6875-17.742188-92.6875-39.722656v-4.414063c0-54.554687 21.539063-87.484375 43.34375-106.816406l.792969.882813c8.402344 26.828124 20.621094 52.308593 36.28125 75.652343v.089844c8.429687 13.050781 20.316406 23.5 34.339844 30.191406zm0 0" fill="#2c3e50"/><path d="m450.207031 282.484375c.941407 28.007813-10.179687 55.070313-30.542969 74.328125h-.089843c-6.839844 6.050781-15.050781 10.351562-23.921875 12.535156-3.808594.957032-7.722656 1.429688-11.652344 1.410156-1.410156 0-2.914062-.085937-4.324219-.175781-15.179687-1.699219-29.089843-9.273437-38.753906-21.097656-8.363281-9.804687-14.5625-21.265625-18.183594-33.632813 8.5625-3.882812 25.335938-13.242187 25.335938-28.335937 1.265625-18.199219 13.679687-33.707031 31.160156-38.929687 10.679687 10.414062 32.484375 24.980468 70.621094 25.070312.265625 2.910156.351562 5.824219.351562 8.828125zm0 0" fill="#fdd7ad"/><path d="m449.855469 273.65625c-38.136719-.089844-59.941407-14.65625-70.621094-25.070312-17.480469 5.222656-29.894531 20.730468-31.160156 38.929687 0 15.09375-16.773438 24.453125-25.335938 28.335937-3.308593-10.8125-4.976562-22.0625-4.945312-33.367187 0-48.730469 29.660156-88.277344 66.207031-88.277344 34.339844 0 62.589844 34.867188 65.855469 79.449219zm0 0" fill="#af8066"/><path d="m379.675781 370.582031-.089843.175781-16.683594 66.824219c-15.660156-23.34375-27.878906-48.824219-36.28125-75.652343l-.792969-.882813c4.730469-4.230469 9.777344-8.09375 15.09375-11.5625 9.664063 11.824219 23.574219 19.398437 38.753906 21.097656zm0 0" fill="#ecf0f1"/><path d="m433.523438 369.875-.972657.882812c.316407 20.109376-3.09375 40.101563-10.0625 58.96875l-26.835937-60.378906c8.871094-2.183594 17.082031-6.484375 23.921875-12.535156h.089843c4.941407 4 9.574219 8.367188 13.859376 13.0625zm0 0" fill="#ecf0f1"/><path d="m422.488281 429.726562c-4.980469 14.679688-13.675781 27.820313-25.246093 38.136719-14.023438-6.691406-25.910157-17.140625-34.339844-30.191406v-.089844l16.683594-66.824219.089843-.175781c1.410157.089844 2.914063.175781 4.324219.175781 3.929688.019532 7.84375-.453124 11.652344-1.410156zm0 0" fill="#e64c3c"/></svg>