<svg height="512pt" viewBox="0 0 512 512.01468" width="512pt" xmlns="http://www.w3.org/2000/svg"><path d="m467.871094 26.496094h8.824218c19.503907 0 35.3125 15.808594 35.3125 35.3125v194.207031c0 19.5-15.808593 35.308594-35.3125 35.308594h-441.378906c-19.5 0-35.3085935-15.808594-35.3085935-35.308594v-194.207031c0-19.503906 15.8085935-35.3125 35.3085935-35.3125zm0 0" fill="#b49aca"/><path d="m.0078125 512.015625v-132.414063c0-19.503906 15.8085935-35.3125 35.3085935-35.3125h441.378906c19.503907 0 35.3125 15.808594 35.3125 35.3125v132.414063zm0 0" fill="#b49aca"/><path d="m44.144531 123.601562h52.964844c4.875 0 8.828125 3.953126 8.828125 8.828126v52.964843c0 4.875-3.953125 8.828125-8.828125 8.828125h-52.964844c-4.875 0-8.828125-3.953125-8.828125-8.828125v-52.964843c0-4.875 3.953125-8.828126 8.828125-8.828126zm0 0" fill="#3d324c"/><path d="m467.871094 256.015625-79.449219-61.792969-79.449219 61.792969v-247.171875c.320313-5.171875 4.757813-9.117188 9.929688-8.828125h139.035156c5.175781-.289063 9.609375 3.65625 9.933594 8.828125zm0 0" fill="#f3d55b"/><path d="m388.421875 135.007812-27.277344 15.074219 5.207031-31.9375-22.070312-22.617187 30.5-4.660156 13.640625-29.058594 13.636719 29.058594 30.5 4.660156-22.070313 22.617187 5.210938 31.9375zm0 0" fill="#e57e25"/><g fill="#3d324c"><path d="m273.664062 123.601562h-132.414062c-4.875 0-8.828125-3.953124-8.828125-8.828124s3.953125-8.828126 8.828125-8.828126h132.414062c4.875 0 8.824219 3.953126 8.824219 8.828126s-3.949219 8.828124-8.824219 8.828124zm0 0"/><path d="m176.558594 158.910156h-35.308594c-4.875 0-8.828125-3.949218-8.828125-8.828125 0-4.875 3.953125-8.824219 8.828125-8.824219h35.308594c4.875 0 8.828125 3.949219 8.828125 8.824219 0 4.878907-3.953125 8.828125-8.828125 8.828125zm0 0"/><path d="m247.179688 158.910156h-35.308594c-4.878906 0-8.828125-3.949218-8.828125-8.828125 0-4.875 3.949219-8.824219 8.828125-8.824219h35.308594c4.875 0 8.828124 3.949219 8.828124 8.824219 0 4.878907-3.953124 8.828125-8.828124 8.828125zm0 0"/><path d="m203.042969 211.875h-61.792969c-4.875 0-8.828125-3.949219-8.828125-8.824219 0-4.878906 3.953125-8.828125 8.828125-8.828125h61.792969c4.875 0 8.828125 3.949219 8.828125 8.828125 0 4.875-3.953125 8.824219-8.828125 8.824219zm0 0"/><path d="m44.144531 441.394531h52.964844c4.875 0 8.828125 3.953125 8.828125 8.828125v52.964844c0 4.875-3.953125 8.828125-8.828125 8.828125h-52.964844c-4.875 0-8.828125-3.953125-8.828125-8.828125v-52.964844c0-4.875 3.953125-8.828125 8.828125-8.828125zm0 0"/><path d="m273.664062 441.394531h-132.414062c-4.875 0-8.828125-3.953125-8.828125-8.828125s3.953125-8.828125 8.828125-8.828125h132.414062c4.875 0 8.824219 3.953125 8.824219 8.828125s-3.949219 8.828125-8.824219 8.828125zm0 0"/><path d="m176.558594 476.703125h-35.308594c-4.875 0-8.828125-3.949219-8.828125-8.828125 0-4.875 3.953125-8.824219 8.828125-8.824219h35.308594c4.875 0 8.828125 3.949219 8.828125 8.824219 0 4.878906-3.953125 8.828125-8.828125 8.828125zm0 0"/><path d="m247.179688 476.703125h-35.308594c-4.878906 0-8.828125-3.949219-8.828125-8.828125 0-4.875 3.949219-8.824219 8.828125-8.824219h35.308594c4.875 0 8.828124 3.949219 8.828124 8.824219 0 4.878906-3.953124 8.828125-8.828124 8.828125zm0 0"/></g></svg>