<svg height="512pt" viewBox="-88 0 512 512" width="512pt" xmlns="http://www.w3.org/2000/svg"><path d="m17.65625 35.308594h300.136719c9.75 0 17.65625 7.90625 17.65625 17.65625v441.378906c0 9.75-7.90625 17.65625-17.65625 17.65625h-300.136719c-9.75 0-17.65625-7.90625-17.65625-17.65625v-441.378906c0-9.75 7.90625-17.65625 17.65625-17.65625zm0 0" fill="#cb9080"/><path d="m247.171875 70.621094h44.136719c4.878906 0 8.828125 3.953125 8.828125 8.828125v388.414062c0 4.875-3.949219 8.828125-8.828125 8.828125h-247.171875c-4.875 0-8.828125-3.953125-8.828125-8.828125v-388.414062c0-4.875 3.953125-8.828125 8.828125-8.828125zm0 0" fill="#f9eab0"/><path d="m132.414062 35.308594c0-19.5 15.808594-35.308594 35.308594-35.308594 19.503906 0 35.3125 15.808594 35.3125 35.308594" fill="#95a5a5"/><path d="m88.277344 35.308594h158.894531v35.3125c0 9.75-7.902344 17.65625-17.65625 17.65625h-123.585937c-9.75 0-17.652344-7.90625-17.652344-17.65625zm0 0" fill="#bdc3c7"/><g fill="#802f34"><path d="m97.101562 406.070312h-26.480468c-4.875 0-8.828125-3.953124-8.828125-8.828124s3.953125-8.828126 8.828125-8.828126h26.480468c4.878907 0 8.828126 3.953126 8.828126 8.828126s-3.949219 8.828124-8.828126 8.828124zm0 0"/><path d="m264.828125 406.070312h-132.414063c-4.875 0-8.828124-3.953124-8.828124-8.828124s3.953124-8.828126 8.828124-8.828126h132.414063c4.875 0 8.828125 3.953126 8.828125 8.828126s-3.953125 8.828124-8.828125 8.828124zm0 0"/><path d="m264.828125 441.378906h-26.484375c-4.875 0-8.828125-3.953125-8.828125-8.828125s3.953125-8.828125 8.828125-8.828125h26.484375c4.875 0 8.828125 3.953125 8.828125 8.828125s-3.953125 8.828125-8.828125 8.828125zm0 0"/><path d="m203.035156 441.378906h-132.414062c-4.875 0-8.828125-3.953125-8.828125-8.828125s3.953125-8.828125 8.828125-8.828125h132.414062c4.875 0 8.828125 3.953125 8.828125 8.828125s-3.953125 8.828125-8.828125 8.828125zm0 0"/><path d="m97.101562 132.414062h-26.480468c-4.875 0-8.828125-3.953124-8.828125-8.828124s3.953125-8.828126 8.828125-8.828126h26.480468c4.878907 0 8.828126 3.953126 8.828126 8.828126s-3.949219 8.828124-8.828126 8.828124zm0 0"/><path d="m264.828125 132.414062h-132.414063c-4.875 0-8.828124-3.953124-8.828124-8.828124s3.953124-8.828126 8.828124-8.828126h132.414063c4.875 0 8.828125 3.953126 8.828125 8.828126s-3.953125 8.828124-8.828125 8.828124zm0 0"/></g><path d="m245.75 194.464844-12.480469-12.484375c-3.449219-3.445313-9.035156-3.445313-12.484375 0l-46.785156 46.785156c-3.445312 3.449219-9.035156 3.449219-12.480469 0l-46.789062-46.785156c-3.445313-3.445313-9.035157-3.445313-12.480469 0l-12.480469 12.484375c-3.449219 3.445312-3.449219 9.03125 0 12.480468l46.785157 46.785157c3.445312 3.449219 3.445312 9.035156 0 12.484375l-46.785157 46.785156c-3.449219 3.445312-3.449219 9.035156 0 12.480469l12.480469 12.484375c3.445312 3.445312 9.035156 3.445312 12.480469 0l46.789062-46.785156c3.445313-3.449219 9.035157-3.449219 12.480469 0l46.785156 46.785156c3.449219 3.445312 9.035156 3.445312 12.484375 0l12.480469-12.484375c3.449219-3.445313 3.449219-9.035157 0-12.480469l-46.785156-46.785156c-3.445313-3.449219-3.445313-9.035156 0-12.484375l46.785156-46.785157c3.449219-3.449218 3.449219-9.035156 0-12.480468zm0 0" fill="#cc4b4c"/></svg>